<svg xmlns="http://www.w3.org/2000/svg" xmlns:svg="http://www.w3.org/2000/svg" id="svg2" width="502.5" height="225" version="1.1" xml:space="preserve"><defs id="defs6"><clipPath id="clipPath20"><path id="path22" d="M 0,0 402,0 402,180 0,180 0,0 z"/></clipPath><clipPath id="clipPath30"><path id="path32" d="m 0,180 402,0 0,-180.000002656016 -402,0 L 0,180 z"/></clipPath><clipPath id="clipPath36"><path id="path38" d="M 0,0 402,0 402,180 0,180 0,0 z"/></clipPath></defs><g id="g12" transform="matrix(1.25,0,0,-1.25,0,225)"><g id="g16"><g id="g18" clip-path="url(#clipPath20)"><path id="path24" d="M 0,180 402,180 402,0 0,0 0,180 z" style="fill:#fff;fill-opacity:0;fill-rule:evenodd;stroke:none"/></g></g><g id="g26"><g id="g28" clip-path="url(#clipPath30)"><g id="g34" clip-path="url(#clipPath36)"><g id="g40" transform="matrix(1,0,0,-1,0,180)"><text id="text42" transform="translate(168,13)"><tspan id="tspan44" x="0 2.924 9.185 14.773 17.698 21.282 27.542 37.127 43.387 49.648" y="0" style="font-size:12px;font-variant:normal;font-weight:400;writing-mode:lr-tb;fill:#000;fill-opacity:1;fill-rule:nonzero;stroke:none;font-family:Helvetica;-inkscape-font-specification:Helvetica">Instrument</tspan></text></g><g id="g46" transform="matrix(1,0,0,-1,0,180)"><text id="text48" transform="translate(179,68)"><tspan id="tspan50" x="0 7.734 10.8 14.526 16.92 23.322" y="0" style="font-size:12px;font-variant:normal;font-weight:400;writing-mode:lr-tb;fill:#000;fill-opacity:1;fill-rule:nonzero;stroke:none;font-family:Helvetica;-inkscape-font-specification:Helvetica">String</tspan></text></g><g id="g52" transform="matrix(1,0,0,-1,0,180)"><text id="text54" transform="translate(49.33008,69)"><tspan id="tspan56" x="0 11.326 13.987 20.657" y="0" style="font-size:12px;font-variant:normal;font-weight:400;writing-mode:lr-tb;fill:#000;fill-opacity:1;fill-rule:nonzero;stroke:none;font-family:Helvetica;-inkscape-font-specification:Helvetica">Wind</tspan></text></g><g id="g58" transform="matrix(1,0,0,-1,0,180)"><text id="text60" transform="translate(304,68)"><tspan id="tspan62" x="0 7.631 13.93 17.552 23.179 29.478 35.105 40.732 43.022 49.321" y="0" style="font-size:12px;font-variant:normal;font-weight:400;writing-mode:lr-tb;fill:#000;fill-opacity:1;fill-rule:nonzero;stroke:none;font-family:Helvetica;-inkscape-font-specification:Helvetica">Percussion</tspan></text></g><g id="g64" transform="matrix(1,0,0,-1,0,180)"><text id="text66" transform="translate(226.8154,124)"><tspan id="tspan68" x="0 8.004 14.678 20.678 27.353 34.027 40.702 44.698" y="0" style="font-size:12px;font-variant:normal;font-weight:400;writing-mode:lr-tb;fill:#000;fill-opacity:1;fill-rule:nonzero;stroke:none;font-family:Helvetica;-inkscape-font-specification:Helvetica">Keyboard</tspan></text></g><g id="g70" transform="matrix(1,0,0,-1,0,180)"><text id="text72" transform="translate(177.1543,124)"><tspan id="tspan74" x="0 8.004 14.678 23.345 30.019" y="0" style="font-size:12px;font-variant:normal;font-weight:400;writing-mode:lr-tb;fill:#000;fill-opacity:1;fill-rule:nonzero;stroke:none;font-family:Helvetica;-inkscape-font-specification:Helvetica">Bowed</tspan></text></g><g id="g76" transform="matrix(1,0,0,-1,0,180)"><text id="text78" transform="translate(123,124)"><tspan id="tspan80" x="0 7.555 9.77 15.994 21.545 27.096 33.319" y="0" style="font-size:12px;font-variant:normal;font-weight:400;writing-mode:lr-tb;fill:#000;fill-opacity:1;fill-rule:nonzero;stroke:none;font-family:Helvetica;-inkscape-font-specification:Helvetica">Plucked</tspan></text></g><g id="g82" transform="matrix(1,0,0,-1,0,180)"><text id="text84" transform="translate(79,124)"><tspan id="tspan86" x="0 7.836 11.664 18.168 24" y="0" style="font-size:12px;font-variant:normal;font-weight:400;writing-mode:lr-tb;fill:#000;fill-opacity:1;fill-rule:nonzero;stroke:none;font-family:Helvetica;-inkscape-font-specification:Helvetica">Brass</tspan></text></g><g id="g88" transform="matrix(1,0,0,-1,0,180)"><text id="text90" transform="translate(5.986328,124)"><tspan id="tspan92" x="0 11.326 17.995 24.665 31.334 39.996 42.658 49.327" y="0" style="font-size:12px;font-variant:normal;font-weight:400;writing-mode:lr-tb;fill:#000;fill-opacity:1;fill-rule:nonzero;stroke:none;font-family:Helvetica;-inkscape-font-specification:Helvetica">Woodwind</tspan></text></g><g id="g94" transform="matrix(1,0,0,-1,0,180)"><text id="text96" transform="translate(291,124)"><tspan id="tspan98" x="0 7.074 13.488 19.902 26.316" y="0" style="font-size:12px;font-variant:normal;font-weight:400;writing-mode:lr-tb;fill:#000;fill-opacity:1;fill-rule:nonzero;stroke:none;font-family:Helvetica;-inkscape-font-specification:Helvetica">Tuned</tspan></text></g><g id="g100" transform="matrix(1,0,0,-1,0,180)"><text id="text102" transform="translate(354,124)"><tspan id="tspan104" x="0 8.438 14.885 17.995 24.442 30.888 37.334" y="0" style="font-size:12px;font-variant:normal;font-weight:400;writing-mode:lr-tb;fill:#000;fill-opacity:1;fill-rule:nonzero;stroke:none;font-family:Helvetica;-inkscape-font-specification:Helvetica">Untuned</tspan></text></g><g id="g106" transform="matrix(1,0,0,-1,0,180)"><path id="path108" d="m 194.125,17 0,37.25" style="fill:none;stroke:#000;stroke-width:.25;stroke-linecap:butt;stroke-linejoin:miter;stroke-miterlimit:10;stroke-opacity:1;stroke-dasharray:none"/></g><g id="g110" transform="matrix(1,0,0,-1,0,180)"><path id="path112" d="m 194.125,73 0,37.25" style="fill:none;stroke:#000;stroke-width:.25;stroke-linecap:butt;stroke-linejoin:miter;stroke-miterlimit:10;stroke-opacity:1;stroke-dasharray:none"/></g><path id="path114" d="m 52,107 0.25,0 0,-0.25 -19,-37 -0.25,0 0,0.25" style="fill:#000;fill-opacity:1;fill-rule:nonzero;stroke:none"/><path id="path116" d="m 163,162 0.25,0 0,-0.25 -97,-37 -0.25,0 0,0.25" style="fill:#000;fill-opacity:1;fill-rule:nonzero;stroke:none"/><path id="path118" d="m 235,163 0.25,0 97,-37 0,-0.25 -0.25,0 -97,37" style="fill:#000;fill-opacity:1;fill-rule:nonzero;stroke:none"/><path id="path120" d="m 74,107 0.25,0 19,-37 0,-0.25 -0.25,0 -19,37" style="fill:#000;fill-opacity:1;fill-rule:nonzero;stroke:none"/><path id="path122" d="m 328,106 0.25,0 0,-0.25 -19,-37 -0.25,0 0,0.25" style="fill:#000;fill-opacity:1;fill-rule:nonzero;stroke:none"/><path id="path124" d="m 350,106 0.25,0 19,-37 0,-0.25 -0.25,0 -19,37" style="fill:#000;fill-opacity:1;fill-rule:nonzero;stroke:none"/><path id="path126" d="m 184,107 0.25,0 0,-0.25 -37,-37 -0.25,0 0,0.25" style="fill:#000;fill-opacity:1;fill-rule:nonzero;stroke:none"/><path id="path128" d="m 211,106 0.25,0 37,-37 0,-0.25 -0.25,0 -37,37" style="fill:#000;fill-opacity:1;fill-rule:nonzero;stroke:none"/><g id="g130" transform="matrix(1,0,0,-1,0,180)"><text id="text132" transform="translate(13,140)"><tspan id="tspan134" x="0 3.33 8.892 13.892 19.454 22.784 28.346 33.908" y="0" style="font-size:10px;font-variant:normal;font-weight:400;writing-mode:lr-tb;fill:#000;fill-opacity:1;fill-rule:nonzero;stroke:none;font-family:Helvetica;-inkscape-font-specification:Helvetica">recorder</tspan></text></g><g id="g136" transform="matrix(1,0,0,-1,0,180)"><text id="text138" transform="translate(13,152)"><tspan id="tspan140" x="0 2.778 4.996 10.554 13.332" y="0" style="font-size:10px;font-variant:normal;font-weight:400;writing-mode:lr-tb;fill:#000;fill-opacity:1;fill-rule:nonzero;stroke:none;font-family:Helvetica;-inkscape-font-specification:Helvetica">flute</tspan></text></g><g id="g142" transform="matrix(1,0,0,-1,0,180)"><text id="text144" transform="translate(13,164)"><tspan id="tspan146" x="0 5.562 11.124 16.686" y="0" style="font-size:10px;font-variant:normal;font-weight:400;writing-mode:lr-tb;fill:#000;fill-opacity:1;fill-rule:nonzero;stroke:none;font-family:Helvetica;-inkscape-font-specification:Helvetica">oboe</tspan></text></g><g id="g148" transform="matrix(1,0,0,-1,0,180)"><text id="text150" transform="translate(13,176)"><tspan id="tspan152" x="0 5 10.562 15.562 21.124 26.686 32.248 37.81 43.372" y="0" style="font-size:10px;font-variant:normal;font-weight:400;writing-mode:lr-tb;fill:#000;fill-opacity:1;fill-rule:nonzero;stroke:none;font-family:Helvetica;-inkscape-font-specification:Helvetica">saxophone</tspan></text></g><g id="g154" transform="matrix(1,0,0,-1,0,180)"><text id="text156" transform="translate(74.09863,141)"><tspan id="tspan158" x="0 2.778 6.108 11.67 20 25.562 31.124" y="0" style="font-size:10px;font-variant:normal;font-weight:400;writing-mode:lr-tb;fill:#000;fill-opacity:1;fill-rule:nonzero;stroke:none;font-family:Helvetica;-inkscape-font-specification:Helvetica">trumpet</tspan></text></g><g id="g160" transform="matrix(1,0,0,-1,0,180)"><text id="text162" transform="translate(65.75391,153)"><tspan id="tspan164" x="0 2.778 6.108 11.67 20 25.562 31.124 36.686" y="0" style="font-size:10px;font-variant:normal;font-weight:400;writing-mode:lr-tb;fill:#000;fill-opacity:1;fill-rule:nonzero;stroke:none;font-family:Helvetica;-inkscape-font-specification:Helvetica">trombone</tspan></text></g><g id="g166" transform="matrix(1,0,0,-1,0,180)"><text id="text168" transform="translate(87.98535,165)"><tspan id="tspan170" x="0 5.562 11.124 14.454" y="0" style="font-size:10px;font-variant:normal;font-weight:400;writing-mode:lr-tb;fill:#000;fill-opacity:1;fill-rule:nonzero;stroke:none;font-family:Helvetica;-inkscape-font-specification:Helvetica">horn</tspan></text></g><g id="g172" transform="matrix(1,0,0,-1,0,180)"><text id="text174" transform="translate(132,141)"><tspan id="tspan176" x="0 5.562 11.124 13.346 16.128 21.69" y="0" style="font-size:10px;font-variant:normal;font-weight:400;writing-mode:lr-tb;fill:#000;fill-opacity:1;fill-rule:nonzero;stroke:none;font-family:Helvetica;-inkscape-font-specification:Helvetica">guitar</tspan></text></g><g id="g178" transform="matrix(1,0,0,-1,0,180)"><text id="text180" transform="translate(132,153)"><tspan id="tspan182" x="0 2.222 7.784 10.566" y="0" style="font-size:10px;font-variant:normal;font-weight:400;writing-mode:lr-tb;fill:#000;fill-opacity:1;fill-rule:nonzero;stroke:none;font-family:Helvetica;-inkscape-font-specification:Helvetica">lute</tspan></text></g><g id="g184" transform="matrix(1,0,0,-1,0,180)"><text id="text186" transform="translate(132,165)"><tspan id="tspan188" x="0 5.562 11.124 14.454" y="0" style="font-size:10px;font-variant:normal;font-weight:400;writing-mode:lr-tb;fill:#000;fill-opacity:1;fill-rule:nonzero;stroke:none;font-family:Helvetica;-inkscape-font-specification:Helvetica">harp</tspan></text></g><g id="g190" transform="matrix(1,0,0,-1,0,180)"><text id="text192" transform="translate(183.106,141)"><tspan id="tspan194" x="0 5 7.222 12.784 15.006 17.228" y="0" style="font-size:10px;font-variant:normal;font-weight:400;writing-mode:lr-tb;fill:#000;fill-opacity:1;fill-rule:nonzero;stroke:none;font-family:Helvetica;-inkscape-font-specification:Helvetica">violin</tspan></text></g><g id="g196" transform="matrix(1,0,0,-1,0,180)"><text id="text198" transform="translate(184.2168,153)"><tspan id="tspan200" x="0 5 10.562 12.784 15.006" y="0" style="font-size:10px;font-variant:normal;font-weight:400;writing-mode:lr-tb;fill:#000;fill-opacity:1;fill-rule:nonzero;stroke:none;font-family:Helvetica;-inkscape-font-specification:Helvetica">cello</tspan></text></g><g id="g202" transform="matrix(1,0,0,-1,0,180)"><text id="text204" transform="translate(225.749,141)"><tspan id="tspan206" x="0 5.562 11.124 14.454 20.016 25.016 27.238 32.238 37.8 43.362 46.692" y="0" style="font-size:10px;font-variant:normal;font-weight:400;writing-mode:lr-tb;fill:#000;fill-opacity:1;fill-rule:nonzero;stroke:none;font-family:Helvetica;-inkscape-font-specification:Helvetica">harpsichord</tspan></text></g><g id="g208" transform="matrix(1,0,0,-1,0,180)"><text id="text210" transform="translate(253.5322,153)"><tspan id="tspan212" x="0 5.562 7.784 13.346 18.908" y="0" style="font-size:10px;font-variant:normal;font-weight:400;writing-mode:lr-tb;fill:#000;fill-opacity:1;fill-rule:nonzero;stroke:none;font-family:Helvetica;-inkscape-font-specification:Helvetica">piano</tspan></text></g><g id="g214" transform="matrix(1,0,0,-1,0,180)"><text id="text216" transform="translate(293,141)"><tspan id="tspan218" x="0 2.778 6.108 8.33 13.892 19.454 25.016 27.238" y="0" style="font-size:10px;font-variant:normal;font-weight:400;writing-mode:lr-tb;fill:#000;fill-opacity:1;fill-rule:nonzero;stroke:none;font-family:Helvetica;-inkscape-font-specification:Helvetica">triangle</tspan></text></g><g id="g220" transform="matrix(1,0,0,-1,0,180)"><text id="text222" transform="translate(293,153)"><tspan id="tspan224" x="0 5 10.562 13.34 16.118 18.34 23.902 29.464 32.794 38.356" y="0" style="font-size:10px;font-variant:normal;font-weight:400;writing-mode:lr-tb;fill:#000;fill-opacity:1;fill-rule:nonzero;stroke:none;font-family:Helvetica;-inkscape-font-specification:Helvetica">kettledrum</tspan></text></g><g id="g226" transform="matrix(1,0,0,-1,0,180)"><text id="text228" transform="translate(370,141)"><tspan id="tspan230" x="0 4.865 9.73 17.925 23.35 28.775" y="0" style="font-size:10px;font-variant:normal;font-weight:400;writing-mode:lr-tb;fill:#000;fill-opacity:1;fill-rule:nonzero;stroke:none;font-family:Helvetica;-inkscape-font-specification:Helvetica">cymbal</tspan></text></g><g id="g232" transform="matrix(1,0,0,-1,0,180)"><text id="text234" transform="translate(353.2021,153)"><tspan id="tspan236" x="0 5 10.562 16.124 19.454 25.016 30.578 33.908 39.47" y="0" style="font-size:10px;font-variant:normal;font-weight:400;writing-mode:lr-tb;fill:#000;fill-opacity:1;fill-rule:nonzero;stroke:none;font-family:Helvetica;-inkscape-font-specification:Helvetica">snaredrum</tspan></text></g></g></g></g></g></svg>