<svg xmlns="http://www.w3.org/2000/svg" xmlns:svg="http://www.w3.org/2000/svg" id="svg2" width="285" height="105" version="1.1" xml:space="preserve"><defs id="defs6"><clipPath id="clipPath20"><path id="path22" d="M 0,0 228,0 228,84 0,84 0,0 z"/></clipPath><clipPath id="clipPath30"><path id="path32" d="m 0,84 228,0 0,-84.000001239474 -228,0 L 0,84 z"/></clipPath><clipPath id="clipPath36"><path id="path38" d="M 0,0 228,0 228,84 0,84 0,0 z"/></clipPath></defs><g id="g12" transform="matrix(1.25,0,0,-1.25,0,105)"><g id="g16"><g id="g18" clip-path="url(#clipPath20)"><path id="path24" d="M 0,84 228,84 228,0 0,0 0,84 z" style="fill:#fff;fill-opacity:0;fill-rule:evenodd;stroke:none"/></g></g><g id="g26"><g id="g28" clip-path="url(#clipPath30)"><g id="g34" clip-path="url(#clipPath36)"><path id="path40" d="m 115,82 5,0 0,-46 -5,0 0,46 z" style="fill:#bfbfbf;fill-opacity:1;fill-rule:nonzero;stroke:none"/><g id="g42" transform="matrix(1,0,0,-1,0,84)"><path id="path44" d="m 115.5,2.5 4,0 0,45 -4,0 0,-45 z" style="fill:none;stroke:#fff;stroke-width:1;stroke-linecap:butt;stroke-linejoin:miter;stroke-miterlimit:10;stroke-opacity:1;stroke-dasharray:none"/></g><g id="g46" transform="matrix(1,0,0,-1,0,84)"><path id="path48" d="m 110.5,2.5 9,0 0,45 -9,0 0,-45 z" style="fill:none;stroke:#000;stroke-width:1;stroke-linecap:butt;stroke-linejoin:miter;stroke-miterlimit:10;stroke-opacity:1;stroke-dasharray:none"/></g><path id="path50" d="m 43,82 5,0 0,-55 -5,0 0,55 z" style="fill:#bfbfbf;fill-opacity:1;fill-rule:nonzero;stroke:none"/><g id="g52" transform="matrix(1,0,0,-1,0,84)"><path id="path54" d="m 43.5,2.5 4,0 0,54 -4,0 0,-54 z" style="fill:none;stroke:#fff;stroke-width:1;stroke-linecap:butt;stroke-linejoin:miter;stroke-miterlimit:10;stroke-opacity:1;stroke-dasharray:none"/></g><g id="g56" transform="matrix(1,0,0,-1,0,84)"><path id="path58" d="m 38.5,2.5 9,0 0,54 -9,0 0,-54 z" style="fill:none;stroke:#000;stroke-width:1;stroke-linecap:butt;stroke-linejoin:miter;stroke-miterlimit:10;stroke-opacity:1;stroke-dasharray:none"/></g><path id="path60" d="m 2,10 226,0 0,-10.000001239474 -226,0 L 2,10 z" style="fill:gray;fill-opacity:1;fill-rule:nonzero;stroke:none"/><g id="g62" transform="matrix(1,0,0,-1,0,84)"><path id="path64" d="m 2.5,74.5 225,0 0,9 -225,0 0,-9 z" style="fill:none;stroke:#000;stroke-width:1;stroke-linecap:butt;stroke-linejoin:miter;stroke-miterlimit:10;stroke-opacity:1;stroke-dasharray:none"/></g><path id="path66" d="M 58,19 75,19 75,9 58,9 58,19 z" style="fill:#bfbfbf;fill-opacity:1;fill-rule:nonzero;stroke:none"/><g id="g68" transform="matrix(1,0,0,-1,0,84)"><path id="path70" d="m 58.5,65.5 16,0 0,9 -16,0 0,-9 z" style="fill:none;stroke:#fff;stroke-width:1;stroke-linecap:butt;stroke-linejoin:miter;stroke-miterlimit:10;stroke-opacity:1;stroke-dasharray:none"/></g><path id="path72" d="m 56,28 15,0 0,-10 -15,0 0,10 z" style="fill:#bfbfbf;fill-opacity:1;fill-rule:nonzero;stroke:none"/><g id="g74" transform="matrix(1,0,0,-1,0,84)"><path id="path76" d="m 56.5,56.5 14,0 0,9 -14,0 0,-9 z" style="fill:none;stroke:#fff;stroke-width:1;stroke-linecap:butt;stroke-linejoin:miter;stroke-miterlimit:10;stroke-opacity:1;stroke-dasharray:none"/></g><g id="g78" transform="matrix(1,0,0,-1,0,84)"><path id="path80" d="m 11.5,65.5 63,0 0,9 -63,0 0,-9 z" style="fill:none;stroke:#000;stroke-width:1;stroke-linecap:butt;stroke-linejoin:miter;stroke-miterlimit:10;stroke-opacity:1;stroke-dasharray:none"/></g><g id="g82" transform="matrix(1,0,0,-1,0,84)"><path id="path84" d="m 14.5,56.5 56,0 0,9 -56,0 0,-9 z" style="fill:none;stroke:#000;stroke-width:1;stroke-linecap:butt;stroke-linejoin:miter;stroke-miterlimit:10;stroke-opacity:1;stroke-dasharray:none"/></g><path id="path86" d="m 126,19 13,0 0,-10 -13,0 0,10 z" style="fill:#bfbfbf;fill-opacity:1;fill-rule:nonzero;stroke:none"/><g id="g88" transform="matrix(1,0,0,-1,0,84)"><path id="path90" d="m 126.5,65.5 12,0 0,9 -12,0 0,-9 z" style="fill:none;stroke:#fff;stroke-width:1;stroke-linecap:butt;stroke-linejoin:miter;stroke-miterlimit:10;stroke-opacity:1;stroke-dasharray:none"/></g><path id="path92" d="m 124,28 11,0 0,-10 -11,0 0,10 z" style="fill:#bfbfbf;fill-opacity:1;fill-rule:nonzero;stroke:none"/><g id="g94" transform="matrix(1,0,0,-1,0,84)"><path id="path96" d="m 124.5,56.5 10,0 0,9 -10,0 0,-9 z" style="fill:none;stroke:#fff;stroke-width:1;stroke-linecap:butt;stroke-linejoin:miter;stroke-miterlimit:10;stroke-opacity:1;stroke-dasharray:none"/></g><path id="path98" d="m 122,37 9,0 0,-10 -9,0 0,10 z" style="fill:#bfbfbf;fill-opacity:1;fill-rule:nonzero;stroke:none"/><g id="g100" transform="matrix(1,0,0,-1,0,84)"><path id="path102" d="m 122.5,47.5 8,0 0,9 -8,0 0,-9 z" style="fill:none;stroke:#fff;stroke-width:1;stroke-linecap:butt;stroke-linejoin:miter;stroke-miterlimit:10;stroke-opacity:1;stroke-dasharray:none"/></g><g id="g104" transform="matrix(1,0,0,-1,0,84)"><path id="path106" d="m 90.5,65.5 48,0 0,9 -48,0 0,-9 z" style="fill:none;stroke:#000;stroke-width:1;stroke-linecap:butt;stroke-linejoin:miter;stroke-miterlimit:10;stroke-opacity:1;stroke-dasharray:none"/></g><g id="g108" transform="matrix(1,0,0,-1,0,84)"><path id="path110" d="m 94.5,56.5 40,0 0,9 -40,0 0,-9 z" style="fill:none;stroke:#000;stroke-width:1;stroke-linecap:butt;stroke-linejoin:miter;stroke-miterlimit:10;stroke-opacity:1;stroke-dasharray:none"/></g><g id="g112" transform="matrix(1,0,0,-1,0,84)"><path id="path114" d="m 98.5,47.5 32,0 0,9 -32,0 0,-9 z" style="fill:none;stroke:#000;stroke-width:1;stroke-linecap:butt;stroke-linejoin:miter;stroke-miterlimit:10;stroke-opacity:1;stroke-dasharray:none"/></g><path id="path116" d="m 187,82 5,0 0,-73 -5,0 0,73 z" style="fill:#bfbfbf;fill-opacity:1;fill-rule:nonzero;stroke:none"/><g id="g118" transform="matrix(1,0,0,-1,0,84)"><path id="path120" d="m 187.5,2.5 4,0 0,72 -4,0 0,-72 z" style="fill:none;stroke:#fff;stroke-width:1;stroke-linecap:butt;stroke-linejoin:miter;stroke-miterlimit:10;stroke-opacity:1;stroke-dasharray:none"/></g><g id="g122" transform="matrix(1,0,0,-1,0,84)"><path id="path124" d="m 182.5,2.5 9,0 0,72 -9,0 0,-72 z" style="fill:none;stroke:#000;stroke-width:1;stroke-linecap:butt;stroke-linejoin:miter;stroke-miterlimit:10;stroke-opacity:1;stroke-dasharray:none"/></g></g></g></g></g></svg>