<svg xmlns="http://www.w3.org/2000/svg" xmlns:svg="http://www.w3.org/2000/svg" id="svg2" width="255" height="42.5" version="1.1" xml:space="preserve"><defs id="defs6"><clipPath id="clipPath20"><path id="path22" d="M 0,0 204,0 204,34 0,34 0,0 z"/></clipPath><clipPath id="clipPath30"><path id="path32" d="M 0,34 204,34 204,0 0,0 0,34 z"/></clipPath><clipPath id="clipPath36"><path id="path38" d="M 0,0 204,0 204,34 0,34 0,0 z"/></clipPath></defs><g id="g12" transform="matrix(1.25,0,0,-1.25,0,42.5)"><g id="g16"><g id="g18" clip-path="url(#clipPath20)"><path id="path24" d="M 0,34 204,34 204,0 0,0 0,34 z" style="fill:#fff;fill-opacity:0;fill-rule:evenodd;stroke:none"/></g></g><g id="g26"><g id="g28" clip-path="url(#clipPath30)"><g id="g34" clip-path="url(#clipPath36)"><path id="path40" d="M 3,31 202,31 202,2 3,2 3,31 z" style="fill:#fff;fill-opacity:1;fill-rule:nonzero;stroke:none"/><g id="g42" transform="matrix(1,0,0,-1,0,34)"><path id="path44" d="m 3.5,3.5 198,0 0,28 -198,0 0,-28 z" style="fill:none;stroke:#000;stroke-width:1;stroke-linecap:butt;stroke-linejoin:miter;stroke-miterlimit:10;stroke-opacity:1;stroke-dasharray:none"/></g><g id="g46" transform="matrix(1,0,0,-1,0,34)"><path id="path48" d="m 31.5,3 0,29" style="fill:none;stroke:#000;stroke-width:1;stroke-linecap:butt;stroke-linejoin:miter;stroke-miterlimit:10;stroke-opacity:1;stroke-dasharray:none"/></g><g id="g50" transform="matrix(1,0,0,-1,0,34)"><path id="path52" d="m 60.5,3 0,29" style="fill:none;stroke:#000;stroke-width:1;stroke-linecap:butt;stroke-linejoin:miter;stroke-miterlimit:10;stroke-opacity:1;stroke-dasharray:none"/></g><g id="g54" transform="matrix(1,0,0,-1,0,34)"><path id="path56" d="m 88.5,3 0,29" style="fill:none;stroke:#000;stroke-width:1;stroke-linecap:butt;stroke-linejoin:miter;stroke-miterlimit:10;stroke-opacity:1;stroke-dasharray:none"/></g><g id="g58" transform="matrix(1,0,0,-1,0,34)"><path id="path60" d="m 116.5,3 0,29" style="fill:none;stroke:#000;stroke-width:1;stroke-linecap:butt;stroke-linejoin:miter;stroke-miterlimit:10;stroke-opacity:1;stroke-dasharray:none"/></g><g id="g62" transform="matrix(1,0,0,-1,0,34)"><path id="path64" d="m 145.5,3 0,29" style="fill:none;stroke:#000;stroke-width:1;stroke-linecap:butt;stroke-linejoin:miter;stroke-miterlimit:10;stroke-opacity:1;stroke-dasharray:none"/></g><g id="g66" transform="matrix(1,0,0,-1,0,34)"><path id="path68" d="m 173.5,3 0,29" style="fill:none;stroke:#000;stroke-width:1;stroke-linecap:butt;stroke-linejoin:miter;stroke-miterlimit:10;stroke-opacity:1;stroke-dasharray:none"/></g><path id="path70" d="M 30,16 C 30,9.372581 24.62742,4 18,4 11.37258,4 6,9.372581 6,16 c 0,6.62742 5.37258,12 12,12 6.62742,0 12,-5.37258 12,-12" style="fill:#000;fill-opacity:1;fill-rule:evenodd;stroke:none"/><g id="g72" transform="matrix(1,0,0,-1,0,34)"><path id="path74" d="M 29.5,18 C 29.5,24.35127 24.35127,29.5 18,29.5 11.64873,29.5 6.5,24.35127 6.5,18 6.5,11.64873 11.64873,6.5 18,6.5 c 6.35127,0 11.5,5.14873 11.5,11.5 z" style="fill:none;stroke:#000;stroke-width:1;stroke-linecap:butt;stroke-linejoin:miter;stroke-miterlimit:10;stroke-opacity:1;stroke-dasharray:none"/></g><path id="path76" d="M 58,16 C 58,9.372581 52.62742,4 46,4 39.37258,4 34,9.372581 34,16 c 0,6.62742 5.37258,12 12,12 6.62742,0 12,-5.37258 12,-12" style="fill:#000;fill-opacity:1;fill-rule:evenodd;stroke:none"/><g id="g78" transform="matrix(1,0,0,-1,0,34)"><path id="path80" d="M 57.5,18 C 57.5,24.35127 52.35128,29.5 46,29.5 39.64872,29.5 34.5,24.35127 34.5,18 34.5,11.64873 39.64872,6.5 46,6.5 c 6.35128,0 11.5,5.14873 11.5,11.5 z" style="fill:none;stroke:#000;stroke-width:1;stroke-linecap:butt;stroke-linejoin:miter;stroke-miterlimit:10;stroke-opacity:1;stroke-dasharray:none"/></g><path id="path82" d="M 86,16 C 86,9.372581 80.85126,4 74.5,4 68.14873,4 63,9.372581 63,16 63,22.62742 68.14873,28 74.5,28 80.85126,28 86,22.62742 86,16" style="fill:#000;fill-opacity:1;fill-rule:evenodd;stroke:none"/><g id="g84" transform="matrix(1,0,0,-1,0,34)"><path id="path86" d="m 85.5,18 c 0,6.35127 -4.92487,11.5 -11,11.5 -6.07513,0 -11,-5.14873 -11,-11.5 0,-6.35127 4.92487,-11.5 11,-11.5 6.07513,0 11,5.14873 11,11.5 z" style="fill:none;stroke:#000;stroke-width:1;stroke-linecap:butt;stroke-linejoin:miter;stroke-miterlimit:10;stroke-opacity:1;stroke-dasharray:none"/></g><path id="path88" d="m 143,16 c 0,-6.627419 -5.3726,-12 -12,-12 -6.6274,0 -12,5.372581 -12,12 0,6.62742 5.3726,12 12,12 6.6274,0 12,-5.37258 12,-12" style="fill:#fff;fill-opacity:1;fill-rule:evenodd;stroke:none"/><g id="g90" transform="matrix(1,0,0,-1,0,34)"><path id="path92" d="m 142.5,18 c 0,6.35127 -5.1487,11.5 -11.5,11.5 -6.3513,0 -11.5,-5.14873 -11.5,-11.5 0,-6.35127 5.1487,-11.5 11.5,-11.5 6.3513,0 11.5,5.14873 11.5,11.5 z" style="fill:none;stroke:#000;stroke-width:1;stroke-linecap:butt;stroke-linejoin:miter;stroke-miterlimit:10;stroke-opacity:1;stroke-dasharray:none"/></g><path id="path94" d="M 171,16 C 171,9.372581 165.8513,4 159.5,4 153.1487,4 148,9.372581 148,16 c 0,6.62742 5.1487,12 11.5,12 6.3513,0 11.5,-5.37258 11.5,-12" style="fill:#fff;fill-opacity:1;fill-rule:evenodd;stroke:none"/><g id="g96" transform="matrix(1,0,0,-1,0,34)"><path id="path98" d="m 170.5,18 c 0,6.35127 -4.9249,11.5 -11,11.5 -6.0751,0 -11,-5.14873 -11,-11.5 0,-6.35127 4.9249,-11.5 11,-11.5 6.0751,0 11,5.14873 11,11.5 z" style="fill:none;stroke:#000;stroke-width:1;stroke-linecap:butt;stroke-linejoin:miter;stroke-miterlimit:10;stroke-opacity:1;stroke-dasharray:none"/></g><path id="path100" d="m 200,16 c 0,-6.627419 -5.3726,-12 -12,-12 -6.6274,0 -12,5.372581 -12,12 0,6.62742 5.3726,12 12,12 6.6274,0 12,-5.37258 12,-12" style="fill:#fff;fill-opacity:1;fill-rule:evenodd;stroke:none"/><g id="g102" transform="matrix(1,0,0,-1,0,34)"><path id="path104" d="m 199.5,18 c 0,6.35127 -5.1487,11.5 -11.5,11.5 -6.3513,0 -11.5,-5.14873 -11.5,-11.5 0,-6.35127 5.1487,-11.5 11.5,-11.5 6.3513,0 11.5,5.14873 11.5,11.5 z" style="fill:none;stroke:#000;stroke-width:1;stroke-linecap:butt;stroke-linejoin:miter;stroke-miterlimit:10;stroke-opacity:1;stroke-dasharray:none"/></g></g></g></g></g></svg>