<svg xmlns="http://www.w3.org/2000/svg" xmlns:svg="http://www.w3.org/2000/svg" id="svg2" width="333.75" height="187.5" version="1.1" xml:space="preserve"><defs id="defs6"><clipPath id="clipPath20"><path id="path22" d="M 0,0 267,0 267,150 0,150 0,0 z"/></clipPath><clipPath id="clipPath30"><path id="path32" d="m 0,150 267,0 0,-150.000002213346 -267,0 L 0,150 z"/></clipPath><clipPath id="clipPath36"><path id="path38" d="M 0,0 267,0 267,150 0,150 0,0 z"/></clipPath></defs><g id="g12" transform="matrix(1.25,0,0,-1.25,0,187.5)"><g id="g16"><g id="g18" clip-path="url(#clipPath20)"><path id="path24" d="M 0,150 267,150 267,0 0,0 0,150 z" style="fill:#fff;fill-opacity:0;fill-rule:evenodd;stroke:none"/></g></g><g id="g26"><g id="g28" clip-path="url(#clipPath30)"><g id="g34" clip-path="url(#clipPath36)"><path id="path40" d="m 71,86 c 0,-1.65685 -1.11929,-3 -2.5,-3 -1.38071,0 -2.5,1.34315 -2.5,3 0,1.65685 1.11929,3 2.5,3 1.38071,0 2.5,-1.34315 2.5,-3" style="fill:#000;fill-opacity:1;fill-rule:evenodd;stroke:none"/><g id="g42" transform="matrix(1,0,0,-1,0,150)"><path id="path44" d="m 70.5,64 c 0,1.38071 -0.89543,2.5 -2,2.5 -1.10457,0 -2,-1.11929 -2,-2.5 0,-1.38071 0.89543,-2.5 2,-2.5 1.10457,0 2,1.11929 2,2.5 z" style="fill:none;stroke:#000;stroke-width:.25;stroke-linecap:butt;stroke-linejoin:miter;stroke-miterlimit:10;stroke-opacity:1;stroke-dasharray:none"/></g><path id="path46" d="m 67,87 0.25,0 0,-0.25 -48,-35 -0.25,0 0,0.25" style="fill:#000;fill-opacity:1;fill-rule:nonzero;stroke:none"/><path id="path48" d="m 68,86 0.25,0 50,-35 0,-0.25 -0.25,0 -50,35" style="fill:#000;fill-opacity:1;fill-rule:nonzero;stroke:none"/><path id="path50" d="m 22,50 c 0,-1.65686 -1.34315,-3 -3,-3 -1.65685,0 -3,1.34314 -3,3 0,1.65685 1.34315,3 3,3 1.65685,0 3,-1.34315 3,-3" style="fill:#000;fill-opacity:1;fill-rule:evenodd;stroke:none"/><g id="g52" transform="matrix(1,0,0,-1,0,150)"><path id="path54" d="m 21.5,100 c 0,1.3807 -1.11929,2.5 -2.5,2.5 -1.38071,0 -2.5,-1.1193 -2.5,-2.5 0,-1.38071 1.11929,-2.5 2.5,-2.5 1.38071,0 2.5,1.11929 2.5,2.5 z" style="fill:none;stroke:#000;stroke-width:.25;stroke-linecap:butt;stroke-linejoin:miter;stroke-miterlimit:10;stroke-opacity:1;stroke-dasharray:none"/></g><path id="path56" d="m 121,51 c 0,-1.65686 -1.3431,-3 -3,-3 -1.6569,0 -3,1.34314 -3,3 0,1.65685 1.3431,3 3,3 1.6569,0 3,-1.34315 3,-3" style="fill:#000;fill-opacity:1;fill-rule:evenodd;stroke:none"/><g id="g58" transform="matrix(1,0,0,-1,0,150)"><path id="path60" d="m 120.5,99 c 0,1.3807 -1.1193,2.5 -2.5,2.5 -1.3807,0 -2.5,-1.1193 -2.5,-2.5 0,-1.38071 1.1193,-2.5 2.5,-2.5 1.3807,0 2.5,1.11929 2.5,2.5 z" style="fill:none;stroke:#000;stroke-width:.25;stroke-linecap:butt;stroke-linejoin:miter;stroke-miterlimit:10;stroke-opacity:1;stroke-dasharray:none"/></g><path id="path62" d="m 220,87 c 0,-1.65685 -1.3431,-3 -3,-3 -1.6569,0 -3,1.34315 -3,3 0,1.65685 1.3431,3 3,3 1.6569,0 3,-1.34315 3,-3" style="fill:#000;fill-opacity:1;fill-rule:evenodd;stroke:none"/><g id="g64" transform="matrix(1,0,0,-1,0,150)"><path id="path66" d="m 219.5,63 c 0,1.38071 -1.1193,2.5 -2.5,2.5 -1.3807,0 -2.5,-1.11929 -2.5,-2.5 0,-1.38071 1.1193,-2.5 2.5,-2.5 1.3807,0 2.5,1.11929 2.5,2.5 z" style="fill:none;stroke:#000;stroke-width:.25;stroke-linecap:butt;stroke-linejoin:miter;stroke-miterlimit:10;stroke-opacity:1;stroke-dasharray:none"/></g><path id="path68" d="m 216,86 0.25,0 0,-0.25 -33,-33 -0.25,0 0,0.25" style="fill:#000;fill-opacity:1;fill-rule:nonzero;stroke:none"/><path id="path70" d="m 218,85 0.25,0 33,-33 0,-0.25 -0.25,0 -33,33" style="fill:#000;fill-opacity:1;fill-rule:nonzero;stroke:none"/><path id="path72" d="m 185,52 c 0,-1.65686 -1.1193,-3 -2.5,-3 -1.3807,0 -2.5,1.34314 -2.5,3 0,1.65685 1.1193,3 2.5,3 1.3807,0 2.5,-1.34315 2.5,-3" style="fill:#000;fill-opacity:1;fill-rule:evenodd;stroke:none"/><g id="g74" transform="matrix(1,0,0,-1,0,150)"><path id="path76" d="m 184.5,98 c 0,1.38071 -0.8954,2.5 -2,2.5 -1.1046,0 -2,-1.11929 -2,-2.5 0,-1.38071 0.8954,-2.5 2,-2.5 1.1046,0 2,1.11929 2,2.5 z" style="fill:none;stroke:#000;stroke-width:.25;stroke-linecap:butt;stroke-linejoin:miter;stroke-miterlimit:10;stroke-opacity:1;stroke-dasharray:none"/></g><path id="path78" d="m 254,53 c 0,-1.65686 -1.3431,-3 -3,-3 -1.6569,0 -3,1.34314 -3,3 0,1.65685 1.3431,3 3,3 1.6569,0 3,-1.34315 3,-3" style="fill:#000;fill-opacity:1;fill-rule:evenodd;stroke:none"/><g id="g80" transform="matrix(1,0,0,-1,0,150)"><path id="path82" d="m 253.5,97 c 0,1.38071 -1.1193,2.5 -2.5,2.5 -1.3807,0 -2.5,-1.11929 -2.5,-2.5 0,-1.38071 1.1193,-2.5 2.5,-2.5 1.3807,0 2.5,1.11929 2.5,2.5 z" style="fill:none;stroke:#000;stroke-width:.25;stroke-linecap:butt;stroke-linejoin:miter;stroke-miterlimit:10;stroke-opacity:1;stroke-dasharray:none"/></g><path id="path84" d="m 144,139 c 0,-1.6569 -1.3431,-3 -3,-3 -1.6569,0 -3,1.3431 -3,3 0,1.6569 1.3431,3 3,3 1.6569,0 3,-1.3431 3,-3" style="fill:#000;fill-opacity:1;fill-rule:evenodd;stroke:none"/><g id="g86" transform="matrix(1,0,0,-1,0,150)"><path id="path88" d="m 143.5,11 c 0,1.38071 -1.1193,2.5 -2.5,2.5 -1.3807,0 -2.5,-1.11929 -2.5,-2.5 0,-1.380707 1.1193,-2.5 2.5,-2.5 1.3807,0 2.5,1.119293 2.5,2.5 z" style="fill:none;stroke:#000;stroke-width:.25;stroke-linecap:butt;stroke-linejoin:miter;stroke-miterlimit:10;stroke-opacity:1;stroke-dasharray:none"/></g><path id="path90" d="m 139,139 0.25,0 0,-0.25 -70,-51 -0.25,0 0,0.25" style="fill:#000;fill-opacity:1;fill-rule:nonzero;stroke:none"/><path id="path92" d="m 141,139 0.25,0 75,-51 0,-0.25 -0.25,0 -75,51" style="fill:#000;fill-opacity:1;fill-rule:nonzero;stroke:none"/><g id="g94" transform="matrix(1,0,0,-1,0,150)"><text id="text96" transform="translate(156,11)"><tspan id="tspan98" x="0" y="0" style="font-size:12px;font-variant:normal;font-weight:400;writing-mode:lr-tb;fill:#000;fill-opacity:1;fill-rule:nonzero;stroke:none;font-family:Helvetica;-inkscape-font-specification:Helvetica">1</tspan></text></g><g id="g100" transform="matrix(1,0,0,-1,0,150)"><text id="text102" transform="translate(50,67)"><tspan id="tspan104" x="0" y="0" style="font-size:12px;font-variant:normal;font-weight:400;writing-mode:lr-tb;fill:#000;fill-opacity:1;fill-rule:nonzero;stroke:none;font-family:Helvetica;-inkscape-font-specification:Helvetica">2</tspan></text></g><g id="g106" transform="matrix(1,0,0,-1,0,150)"><text id="text108" transform="translate(230,64)"><tspan id="tspan110" x="0" y="0" style="font-size:12px;font-variant:normal;font-weight:400;writing-mode:lr-tb;fill:#000;fill-opacity:1;fill-rule:nonzero;stroke:none;font-family:Helvetica;-inkscape-font-specification:Helvetica">3</tspan></text></g><g id="g112" transform="matrix(1,0,0,-1,0,150)"><path id="path114" d="m 67.125,64 0,35.25" style="fill:none;stroke:#000;stroke-width:.25;stroke-linecap:butt;stroke-linejoin:miter;stroke-miterlimit:10;stroke-opacity:1;stroke-dasharray:none"/></g><path id="path116" d="m 70,50 c 0,-1.65686 -1.11929,-3 -2.5,-3 -1.38071,0 -2.5,1.34314 -2.5,3 0,1.65685 1.11929,3 2.5,3 1.38071,0 2.5,-1.34315 2.5,-3" style="fill:#000;fill-opacity:1;fill-rule:evenodd;stroke:none"/><g id="g118" transform="matrix(1,0,0,-1,0,150)"><path id="path120" d="m 69.5,100 c 0,1.3807 -0.89543,2.5 -2,2.5 -1.10457,0 -2,-1.1193 -2,-2.5 0,-1.38071 0.89543,-2.5 2,-2.5 1.10457,0 2,1.11929 2,2.5 z" style="fill:none;stroke:#000;stroke-width:.25;stroke-linecap:butt;stroke-linejoin:miter;stroke-miterlimit:10;stroke-opacity:1;stroke-dasharray:none"/></g><g id="g122" transform="matrix(1,0,0,-1,0,150)"><path id="path124" d="m 67.125,100 0,34.25" style="fill:none;stroke:#000;stroke-width:.25;stroke-linecap:butt;stroke-linejoin:miter;stroke-miterlimit:10;stroke-opacity:1;stroke-dasharray:none"/></g><g id="g126" transform="matrix(1,0,0,-1,0,150)"><path id="path128" d="m 251.125,97 0,34.25" style="fill:none;stroke:#000;stroke-width:.25;stroke-linecap:butt;stroke-linejoin:miter;stroke-miterlimit:10;stroke-opacity:1;stroke-dasharray:none"/></g><path id="path130" d="m 255,18 c 0,-1.65685 -1.3431,-3 -3,-3 -1.6569,0 -3,1.34315 -3,3 0,1.65685 1.3431,3 3,3 1.6569,0 3,-1.34315 3,-3" style="fill:#000;fill-opacity:1;fill-rule:evenodd;stroke:none"/><g id="g132" transform="matrix(1,0,0,-1,0,150)"><path id="path134" d="m 254.5,132 c 0,1.3807 -1.1193,2.5 -2.5,2.5 -1.3807,0 -2.5,-1.1193 -2.5,-2.5 0,-1.3807 1.1193,-2.5 2.5,-2.5 1.3807,0 2.5,1.1193 2.5,2.5 z" style="fill:none;stroke:#000;stroke-width:.25;stroke-linecap:butt;stroke-linejoin:miter;stroke-miterlimit:10;stroke-opacity:1;stroke-dasharray:none"/></g><path id="path136" d="m 71,15 c 0,-1.65685 -1.34315,-3 -3,-3 -1.65685,0 -3,1.34315 -3,3 0,1.65685 1.34315,3 3,3 1.65685,0 3,-1.34315 3,-3" style="fill:#000;fill-opacity:1;fill-rule:evenodd;stroke:none"/><g id="g138" transform="matrix(1,0,0,-1,0,150)"><path id="path140" d="m 70.5,135 c 0,1.3807 -1.11929,2.5 -2.5,2.5 -1.38071,0 -2.5,-1.1193 -2.5,-2.5 0,-1.3807 1.11929,-2.5 2.5,-2.5 1.38071,0 2.5,1.1193 2.5,2.5 z" style="fill:none;stroke:#000;stroke-width:.25;stroke-linecap:butt;stroke-linejoin:miter;stroke-miterlimit:10;stroke-opacity:1;stroke-dasharray:none"/></g><g id="g142" transform="matrix(1,0,0,-1,0,150)"><text id="text144" transform="translate(2,102)"><tspan id="tspan146" x="0" y="0" style="font-size:12px;font-variant:normal;font-weight:400;writing-mode:lr-tb;fill:#000;fill-opacity:1;fill-rule:nonzero;stroke:none;font-family:Helvetica;-inkscape-font-specification:Helvetica">4</tspan></text></g><g id="g148" transform="matrix(1,0,0,-1,0,150)"><text id="text150" transform="translate(51,103)"><tspan id="tspan152" x="0" y="0" style="font-size:12px;font-variant:normal;font-weight:400;writing-mode:lr-tb;fill:#000;fill-opacity:1;fill-rule:nonzero;stroke:none;font-family:Helvetica;-inkscape-font-specification:Helvetica">5</tspan></text></g><g id="g154" transform="matrix(1,0,0,-1,0,150)"><text id="text156" transform="translate(99,103)"><tspan id="tspan158" x="0" y="0" style="font-size:12px;font-variant:normal;font-weight:400;writing-mode:lr-tb;fill:#000;fill-opacity:1;fill-rule:nonzero;stroke:none;font-family:Helvetica;-inkscape-font-specification:Helvetica">6</tspan></text></g><g id="g160" transform="matrix(1,0,0,-1,0,150)"><text id="text162" transform="translate(51,139)"><tspan id="tspan164" x="0" y="0" style="font-size:12px;font-variant:normal;font-weight:400;writing-mode:lr-tb;fill:#000;fill-opacity:1;fill-rule:nonzero;stroke:none;font-family:Helvetica;-inkscape-font-specification:Helvetica">7</tspan></text></g><g id="g166" transform="matrix(1,0,0,-1,0,150)"><text id="text168" transform="translate(166,100)"><tspan id="tspan170" x="0" y="0" style="font-size:12px;font-variant:normal;font-weight:400;writing-mode:lr-tb;fill:#000;fill-opacity:1;fill-rule:nonzero;stroke:none;font-family:Helvetica;-inkscape-font-specification:Helvetica">8</tspan></text></g><g id="g172" transform="matrix(1,0,0,-1,0,150)"><text id="text174" transform="translate(231,99)"><tspan id="tspan176" x="0" y="0" style="font-size:12px;font-variant:normal;font-weight:400;writing-mode:lr-tb;fill:#000;fill-opacity:1;fill-rule:nonzero;stroke:none;font-family:Helvetica;-inkscape-font-specification:Helvetica">9</tspan></text></g><g id="g178" transform="matrix(1,0,0,-1,0,150)"><text id="text180" transform="translate(234,136)"><tspan id="tspan182" x="0 6.674" y="0" style="font-size:12px;font-variant:normal;font-weight:400;writing-mode:lr-tb;fill:#000;fill-opacity:1;fill-rule:nonzero;stroke:none;font-family:Helvetica;-inkscape-font-specification:Helvetica">10</tspan></text></g></g></g></g></g></svg>