<svg xmlns="http://www.w3.org/2000/svg" xmlns:svg="http://www.w3.org/2000/svg" id="svg2" width="182.5" height="233.75" version="1.1" xml:space="preserve"><defs id="defs6"><clipPath id="clipPath20"><path id="path22" d="M 0,0 146,0 146,187 0,187 0,0 z"/></clipPath><clipPath id="clipPath30"><path id="path32" d="m 0,187 146,0 0,-187.000002759305 -146,0 L 0,187 z"/></clipPath><clipPath id="clipPath36"><path id="path38" d="M 0,0 146,0 146,187 0,187 0,0 z"/></clipPath></defs><g id="g12" transform="matrix(1.25,0,0,-1.25,0,233.75)"><g id="g16"><g id="g18" clip-path="url(#clipPath20)"><path id="path24" d="M 0,187 146,187 146,0 0,0 0,187 z" style="fill:#fff;fill-opacity:0;fill-rule:evenodd;stroke:none"/></g></g><g id="g26"><g id="g28" clip-path="url(#clipPath30)"><g id="g34" clip-path="url(#clipPath36)"><g id="g40" transform="matrix(1,0,0,-1,0,187)"><text id="text42" transform="translate(60,12)"><tspan id="tspan44" x="0 5.916 9.168 15.756 19.668" y="0" style="font-size:12px;font-style:italic;font-variant:normal;writing-mode:lr-tb;fill:#000;fill-opacity:1;fill-rule:nonzero;stroke:none;font-family:Helvetica;-inkscape-font-specification:Helvetica-Oblique">start</tspan></text></g><g id="g46" transform="matrix(1,0,0,-1,0,187)"><text id="text48" transform="translate(63,182)"><tspan id="tspan50" x="0 6.674 13.349 20.023" y="0" style="font-size:12px;font-style:italic;font-variant:normal;writing-mode:lr-tb;fill:#000;fill-opacity:1;fill-rule:nonzero;stroke:none;font-family:Helvetica;-inkscape-font-specification:Helvetica-Oblique">goal</tspan></text></g><g id="g52" transform="matrix(1,0,0,-1,0,187)"><text id="text54" transform="translate(27,54)"><tspan id="tspan56" x="0" y="0" style="font-size:12px;font-style:italic;font-variant:normal;writing-mode:lr-tb;fill:#000;fill-opacity:1;fill-rule:nonzero;stroke:none;font-family:Helvetica;-inkscape-font-specification:Helvetica-Oblique">p</tspan></text></g><g id="g58" transform="matrix(1,0,0,-1,0,187)"><text id="text60" transform="translate(28,96)"><tspan id="tspan62" x="0" y="0" style="font-size:12px;font-style:italic;font-variant:normal;writing-mode:lr-tb;fill:#000;fill-opacity:1;fill-rule:nonzero;stroke:none;font-family:Helvetica;-inkscape-font-specification:Helvetica-Oblique">q</tspan></text></g><g id="g64" transform="matrix(1,0,0,-1,0,187)"><text id="text66" transform="translate(70,138)"><tspan id="tspan68" x="0" y="0" style="font-size:12px;font-style:italic;font-variant:normal;writing-mode:lr-tb;fill:#000;fill-opacity:1;fill-rule:nonzero;stroke:none;font-family:Helvetica;-inkscape-font-specification:Helvetica-Oblique">s</tspan></text></g><g id="g70" transform="matrix(1,0,0,-1,0,187)"><text id="text72" transform="translate(109,79)"><tspan id="tspan74" x="0" y="0" style="font-size:12px;font-style:italic;font-variant:normal;writing-mode:lr-tb;fill:#000;fill-opacity:1;fill-rule:nonzero;stroke:none;font-family:Helvetica;-inkscape-font-specification:Helvetica-Oblique">r</tspan></text></g><path id="path76" d="m 39,145 3.4202,9.3969 c 2.66317,-0.9693 4.78997,-3.0231 5.85164,-5.6508" style="fill:#000;fill-opacity:1;fill-rule:evenodd;stroke:none"/><path id="path78" d="m 63,170 0.25,0 0,-0.25 -21,-22 -0.25,0 0,0.25" style="fill:#000;fill-opacity:1;fill-rule:nonzero;stroke:none"/><path id="path80" d="m 111,122 -8.2904,5.5919 c 1.5848,2.3496 4.0922,3.9164 6.8987,4.3108" style="fill:#000;fill-opacity:1;fill-rule:evenodd;stroke:none"/><path id="path82" d="m 83,168 0.25,0 26,-42 0,-0.25 -0.25,0 -26,42" style="fill:#000;fill-opacity:1;fill-rule:nonzero;stroke:none"/><path id="path84" d="m 32,105 -4.06737,9.1355 c 2.58907,1.1527 5.54567,1.1527 8.13474,0" style="fill:#000;fill-opacity:1;fill-rule:evenodd;stroke:none"/><g id="g86" transform="matrix(1,0,0,-1,0,187)"><path id="path88" d="m 32.125,61 0,16.25" style="fill:none;stroke:#000;stroke-width:.25;stroke-linecap:butt;stroke-linejoin:miter;stroke-miterlimit:10;stroke-opacity:1;stroke-dasharray:none"/></g><path id="path90" d="m 64,59 -9.39693,3.42019 c 0.96932,2.66318 3.02315,4.78998 5.65087,5.85165" style="fill:#000;fill-opacity:1;fill-rule:evenodd;stroke:none"/><path id="path92" d="m 38,84 0.25,0 23,-22 0,-0.25 -0.25,0 -23,22" style="fill:#000;fill-opacity:1;fill-rule:nonzero;stroke:none"/><path id="path94" d="m 83,62 1.90809,9.81627 c 2.78202,-0.54077 5.20392,-2.2366 6.66358,-4.66589" style="fill:#000;fill-opacity:1;fill-rule:evenodd;stroke:none"/><path id="path96" d="m 109,100 0.25,0 0,-0.25 -24,-34 -0.25,0 0,0.25" style="fill:#000;fill-opacity:1;fill-rule:nonzero;stroke:none"/><path id="path98" d="m 74,19 -4.06738,9.13545 c 2.58908,1.15273 5.54567,1.15273 8.13475,0" style="fill:#000;fill-opacity:1;fill-rule:evenodd;stroke:none"/><g id="g100" transform="matrix(1,0,0,-1,0,187)"><path id="path102" d="m 74.125,144 0,19.25" style="fill:none;stroke:#000;stroke-width:.25;stroke-linecap:butt;stroke-linejoin:miter;stroke-miterlimit:10;stroke-opacity:1;stroke-dasharray:none"/></g><g id="g104" transform="matrix(1,0,0,-1,0,187)"><text id="text106" transform="translate(134,80)"><tspan id="tspan108" x="0" y="0" style="font-size:12px;font-variant:normal;font-weight:400;writing-mode:lr-tb;fill:#000;fill-opacity:1;fill-rule:nonzero;stroke:none;font-family:Helvetica;-inkscape-font-specification:Helvetica">2</tspan></text></g><g id="g110" transform="matrix(1,0,0,-1,0,187)"><text id="text112" transform="translate(103,138)"><tspan id="tspan114" x="0" y="0" style="font-size:12px;font-variant:normal;font-weight:400;writing-mode:lr-tb;fill:#000;fill-opacity:1;fill-rule:nonzero;stroke:none;font-family:Helvetica;-inkscape-font-specification:Helvetica">1</tspan></text></g><g id="g116" transform="matrix(1,0,0,-1,0,187)"><text id="text118" transform="translate(2,56)"><tspan id="tspan120" x="0" y="0" style="font-size:12px;font-variant:normal;font-weight:400;writing-mode:lr-tb;fill:#000;fill-opacity:1;fill-rule:nonzero;stroke:none;font-family:Helvetica;-inkscape-font-specification:Helvetica">1</tspan></text></g><g id="g122" transform="matrix(1,0,0,-1,0,187)"><text id="text124" transform="translate(2,98)"><tspan id="tspan126" x="0" y="0" style="font-size:12px;font-variant:normal;font-weight:400;writing-mode:lr-tb;fill:#000;fill-opacity:1;fill-rule:nonzero;stroke:none;font-family:Helvetica;-inkscape-font-specification:Helvetica">0</tspan></text></g><g id="g128" transform="matrix(1,0,0,-1,0,187)"><text id="text130" transform="translate(103,13)"><tspan id="tspan132" x="0" y="0" style="font-size:12px;font-variant:normal;font-weight:400;writing-mode:lr-tb;fill:#000;fill-opacity:1;fill-rule:nonzero;stroke:none;font-family:Helvetica;-inkscape-font-specification:Helvetica">3</tspan></text></g></g></g></g></g></svg>