<svg xmlns="http://www.w3.org/2000/svg" xmlns:svg="http://www.w3.org/2000/svg" id="svg2" width="293.75" height="166.25" version="1.1" xml:space="preserve"><defs id="defs6"><clipPath id="clipPath20"><path id="path22" d="M 0,0 235,0 235,133 0,133 0,0 z"/></clipPath><clipPath id="clipPath30"><path id="path32" d="m 0,133 235,0 0,-133.0000019625 -235,0 L 0,133 z"/></clipPath><clipPath id="clipPath36"><path id="path38" d="M 0,0 235,0 235,133 0,133 0,0 z"/></clipPath></defs><g id="g12" transform="matrix(1.25,0,0,-1.25,0,166.25)"><g id="g16"><g id="g18" clip-path="url(#clipPath20)"><path id="path24" d="M 0,133 235,133 235,0 0,0 0,133 z" style="fill:#fff;fill-opacity:0;fill-rule:evenodd;stroke:none"/></g></g><g id="g26"><g id="g28" clip-path="url(#clipPath30)"><g id="g34" clip-path="url(#clipPath36)"><path id="path40" d="m 125,118 109,0 0,-86 -109,0 0,86 z" style="fill:#efefef;fill-opacity:1;fill-rule:nonzero;stroke:none"/><g id="g42" transform="matrix(1,0,0,-1,0,133)"><path id="path44" d="m 125.5,15.5 108,0 0,85 -108,0 0,-85 z" style="fill:none;stroke:#fff;stroke-width:1;stroke-linecap:butt;stroke-linejoin:miter;stroke-miterlimit:10;stroke-opacity:1;stroke-dasharray:none"/></g><g id="g46" transform="matrix(1,0,0,-1,0,133)"><text id="text48" transform="translate(129,50)"><tspan id="tspan50" x="0 6.001 12.002 18.003 24.004 30.005 36.006 42.007 48.008 54.009 60.01 66.011 72.012 78.013 84.014 90.015" y="0" style="font-size:10px;font-variant:normal;font-weight:400;writing-mode:lr-tb;fill:#000;fill-opacity:1;fill-rule:nonzero;stroke:none;font-family:Courier New;-inkscape-font-specification:Courier">:-mother(P,paul)</tspan></text></g><g id="g52" transform="matrix(1,0,0,-1,0,133)"><text id="text54" transform="translate(68,12)"><tspan id="tspan56" x="0 6.001 12.002 18.003 24.004 30.005 36.006 42.007 48.008 54.009 60.01 66.011 72.012 78.013 84.014 90.015" y="0" style="font-size:10px;font-variant:normal;font-weight:400;writing-mode:lr-tb;fill:#000;fill-opacity:1;fill-rule:nonzero;stroke:none;font-family:Courier New;-inkscape-font-specification:Courier">?-parent(P,paul)</tspan></text></g><path id="path58" d="m 81,118 0.25,0 0,-0.25 -20,-22 -0.25,0 0,0.25" style="fill:#000;fill-opacity:1;fill-rule:nonzero;stroke:none"/><path id="path60" d="m 135,118 0.25,0 20,-22 0,-0.25 -0.25,0 -20,22" style="fill:#000;fill-opacity:1;fill-rule:nonzero;stroke:none"/><g id="g62" transform="matrix(1,0,0,-1,0,133)"><text id="text64" transform="translate(9,50)"><tspan id="tspan66" x="0 6.001 12.002 18.003 24.004 30.005 36.006 42.007 48.008 54.009 60.01 66.011 72.012 78.013 84.014 90.015 96.016 102.017" y="0" style="font-size:10px;font-variant:normal;font-weight:400;writing-mode:lr-tb;fill:#000;fill-opacity:1;fill-rule:nonzero;stroke:none;font-family:Courier New;-inkscape-font-specification:Courier">:-father(P,paul),!</tspan></text></g><g id="g68" transform="matrix(1,0,0,-1,0,133)"><path id="path70" d="m 60.125,54 0,23.25" style="fill:none;stroke:#000;stroke-width:.25;stroke-linecap:butt;stroke-linejoin:miter;stroke-miterlimit:10;stroke-opacity:1;stroke-dasharray:none"/></g><g id="g72" transform="matrix(1,0,0,-1,0,133)"><text id="text74" transform="translate(58,129)"><tspan id="tspan76" x="-3.5" y=".75" style="font-size:20px;font-variant:normal;font-weight:400;writing-mode:lr-tb;fill:#000;fill-opacity:1;fill-rule:nonzero;stroke:none;font-family:Geneva;-inkscape-font-specification:Geneva">□</tspan></text></g><g id="g78" transform="matrix(1,0,0,-1,0,133)"><text id="text80" transform="translate(54,90)"><tspan id="tspan82" x="0 6.001 12.002" y="0" style="font-size:10px;font-variant:normal;font-weight:400;writing-mode:lr-tb;fill:#000;fill-opacity:1;fill-rule:nonzero;stroke:none;font-family:Courier New;-inkscape-font-specification:Courier">:-!</tspan></text></g><g id="g84" transform="matrix(1,0,0,-1,0,133)"><path id="path86" d="m 60.125,94 0,23.25" style="fill:none;stroke:#000;stroke-width:.25;stroke-linecap:butt;stroke-linejoin:miter;stroke-miterlimit:10;stroke-opacity:1;stroke-dasharray:none"/></g><g id="g88" transform="matrix(1,0,0,-1,0,133)"><text id="text90" transform="translate(154,90)"><tspan id="tspan92" x="-3.5" y=".75" style="font-size:20px;font-variant:normal;font-weight:400;writing-mode:lr-tb;fill:#000;fill-opacity:1;fill-rule:nonzero;stroke:none;font-family:Geneva;-inkscape-font-specification:Geneva">□</tspan></text></g><g id="g94" transform="matrix(1,0,0,-1,0,133)"><path id="path96" d="m 156.125,54 0,23.25" style="fill:none;stroke:#000;stroke-width:.25;stroke-linecap:butt;stroke-linejoin:miter;stroke-miterlimit:10;stroke-opacity:1;stroke-dasharray:none"/></g></g></g></g></g></svg>