<svg xmlns="http://www.w3.org/2000/svg" xmlns:svg="http://www.w3.org/2000/svg" id="svg2" width="526.25" height="97.5" version="1.1" xml:space="preserve"><defs id="defs6"><clipPath id="clipPath20"><path id="path22" d="M 0,0 421,0 421,78 0,78 0,0 z"/></clipPath><clipPath id="clipPath30"><path id="path32" d="m 0,78 421,0 0,-78.00000115094 -421,0 L 0,78 z"/></clipPath><clipPath id="clipPath36"><path id="path38" d="M 0,0 421,0 421,78 0,78 0,0 z"/></clipPath></defs><g id="g12" transform="matrix(1.25,0,0,-1.25,0,97.5)"><g id="g16"><g id="g18" clip-path="url(#clipPath20)"><path id="path24" d="M 0,78 421,78 421,0 0,0 0,78 z" style="fill:#fff;fill-opacity:0;fill-rule:evenodd;stroke:none"/></g></g><g id="g26"><g id="g28" clip-path="url(#clipPath30)"><g id="g34" clip-path="url(#clipPath36)"><g id="g40" transform="matrix(1,0,0,-1,0,78)"><path id="path42" d="m 51,15.5 54,0" style="fill:none;stroke:#000;stroke-width:1;stroke-linecap:butt;stroke-linejoin:miter;stroke-miterlimit:10;stroke-opacity:1;stroke-dasharray:none"/></g><g id="g44" transform="matrix(1,0,0,-1,0,78)"><text id="text46" transform="translate(58,74)"><tspan id="tspan48" x="0 6.001 12.002 18.003 24.004 30.005 36.006 42.007 48.008 54.009 60.01 66.011 72.012 78.013 84.014 90.015 96.016 102.017 108.018 114.019 120.02 126.021 132.022 138.023 144.024 150.025 156.026 162.027 168.028 174.029 180.03 186.031 192.032 198.033 204.034 210.035 216.036 222.037 228.038 234.039 240.04 246.041 252.042 258.043 264.044 270.045" y="0" style="font-size:10px;font-variant:normal;font-weight:400;writing-mode:lr-tb;fill:#000;fill-opacity:1;fill-rule:nonzero;stroke:none;font-family:Courier New;-inkscape-font-specification:Courier">square:-parallelogram,right_angles,equal_sides</tspan></text></g><g id="g50" transform="matrix(1,0,0,-1,0,78)"><text id="text52" transform="translate(2,10)"><tspan id="tspan54" x="0 6.001 12.002 18.003 24.004 30.005 36.006 42.007 48.008 54.009 60.01 66.011 72.012 78.013 84.014 90.015 96.016 102.017 108.018 114.019 120.02 126.021 132.022 138.023 144.024 150.025 156.026 162.027 168.028" y="0" style="font-size:10px;font-variant:normal;font-weight:400;writing-mode:lr-tb;fill:#000;fill-opacity:1;fill-rule:nonzero;stroke:none;font-family:Courier New;-inkscape-font-specification:Courier">square:-rectangle,equal_sides</tspan></text></g><g id="g56" transform="matrix(1,0,0,-1,0,78)"><text id="text58" transform="translate(195,10)"><tspan id="tspan60" x="0 6.001 12.002 18.003 24.004 30.005 36.006 42.007 48.008 54.009 60.01 66.011 72.012 78.013 84.014 90.015 96.016 102.017 108.018 114.019 120.02 126.021 132.022 138.023 144.024 150.025 156.026 162.027 168.028 174.029 180.03 186.031 192.032 198.033 204.034 210.035 216.036" y="0" style="font-size:10px;font-variant:normal;font-weight:400;writing-mode:lr-tb;fill:#000;fill-opacity:1;fill-rule:nonzero;stroke:none;font-family:Courier New;-inkscape-font-specification:Courier">rectangle:-parallelogram,right_angles</tspan></text></g><g id="g62" transform="matrix(1,0,0,-1,0,78)"><path id="path64" d="m 196,15.5 54,0" style="fill:none;stroke:#000;stroke-width:1;stroke-linecap:butt;stroke-linejoin:miter;stroke-miterlimit:10;stroke-opacity:1;stroke-dasharray:none"/></g><path id="path66" d="m 76,15 -9.61263,2.75637 c 0.78119,2.7243 2.68165,4.98919 5.22892,6.23157" style="fill:#000;fill-opacity:1;fill-rule:evenodd;stroke:none"/><path id="path68" d="m 21,62 0.25,0 52,-44 0,-0.25 -0.25,0 -52,44" style="fill:#000;fill-opacity:1;fill-rule:nonzero;stroke:none"/><path id="path70" d="m 296,13 -9.9452,-1.04528 c -0.2963,2.81856 0.6174,5.63045 2.5137,7.73659" style="fill:#000;fill-opacity:1;fill-rule:evenodd;stroke:none"/><path id="path72" d="m 140,64 0.25,0 152,-50 0,-0.25 -0.25,0 -152,50" style="fill:#000;fill-opacity:1;fill-rule:nonzero;stroke:none"/><path id="path74" d="m 143,16 7.6604,6.42788 c 1.8218,-2.17104 2.6367,-5.0131 2.2423,-7.81961" style="fill:#000;fill-opacity:1;fill-rule:evenodd;stroke:none"/><path id="path76" d="m 301,63 0.25,0 0,-0.25 -154,-46 -0.25,0 0,0.25" style="fill:#000;fill-opacity:1;fill-rule:nonzero;stroke:none"/><path id="path78" d="m 223,15 7.5471,6.56059 c 1.8593,-2.13891 2.7237,-4.96633 2.3784,-7.77929" style="fill:#000;fill-opacity:1;fill-rule:evenodd;stroke:none"/><path id="path80" d="m 377,63 0.25,0 0,-0.25 -150,-47 -0.25,0 0,0.25" style="fill:#000;fill-opacity:1;fill-rule:nonzero;stroke:none"/></g></g></g></g></svg>