<svg xmlns="http://www.w3.org/2000/svg" xmlns:svg="http://www.w3.org/2000/svg" id="svg2" width="555" height="316.25" version="1.1" xml:space="preserve"><defs id="defs6"><clipPath id="clipPath20"><path id="path22" d="M 0,0 444,0 444,253 0,253 0,0 z"/></clipPath><clipPath id="clipPath30"><path id="path32" d="m 0,253 444,0 0,-253.000003733177 -444,0 L 0,253 z"/></clipPath><clipPath id="clipPath36"><path id="path38" d="M 0,0 444,0 444,253 0,253 0,0 z"/></clipPath></defs><g id="g12" transform="matrix(1.25,0,0,-1.25,0,316.25)"><g id="g16"><g id="g18" clip-path="url(#clipPath20)"><path id="path24" d="M 0,253 444,253 444,0 0,0 0,253 z" style="fill:#fff;fill-opacity:0;fill-rule:evenodd;stroke:none"/></g></g><g id="g26"><g id="g28" clip-path="url(#clipPath30)"><g id="g34" clip-path="url(#clipPath36)"><g id="g40" transform="matrix(1,0,0,-1,0,253)"><text id="text42" transform="translate(2,10)"><tspan id="tspan44" x="0 6.001 12.002 18.003 24.004 30.005 36.006 42.007 48.008 54.009 60.01 66.011 72.012 78.013 84.014 90.015 96.016 102.017 108.018 114.019 120.02 126.021 132.022 138.023 144.024 150.025 156.026 162.027 168.028 174.029 180.03 186.031 192.032 198.033 204.034" y="0" style="font-size:10px;font-variant:normal;font-weight:400;writing-mode:lr-tb;fill:#000;fill-opacity:1;fill-rule:nonzero;stroke:none;font-family:Courier New;-inkscape-font-specification:Courier">:-reachable(tottenham_court_road,W)</tspan></text></g><g id="g46" transform="matrix(1,0,0,-1,0,253)"><text id="text48" transform="translate(217,40)"><tspan id="tspan50" x="0 6.001 12.002 18.003 24.004 30.005 36.006 42.007 48.008 54.009 60.01 66.011 72.012 78.013 84.014 90.015 96.016 102.017 108.018 114.019 120.02 126.021 132.022 138.023 144.024 150.025 156.026 162.027 168.028 174.029 180.03" y="0" style="font-size:10px;font-variant:normal;font-weight:400;writing-mode:lr-tb;fill:#000;fill-opacity:1;fill-rule:nonzero;stroke:none;font-family:Courier New;-inkscape-font-specification:Courier">{X-&gt;tottenham_court_road, Y-&gt;W}</tspan></text></g><g id="g52" transform="matrix(1,0,0,-1,0,253)"><text id="text54" transform="translate(2,67)"><tspan id="tspan56" x="0 6.001 12.002 18.003 24.004 30.005 36.006 42.007 48.008 54.009 60.01 66.011 72.012 78.013 84.014 90.015 96.016 102.017 108.018 114.019 120.02 126.021 132.022 138.023 144.024 150.025 156.026 162.027 168.028 174.029 180.03 186.031 192.032 198.033 204.034 210.035 216.036 222.037" y="0" style="font-size:10px;font-variant:normal;font-weight:400;writing-mode:lr-tb;fill:#000;fill-opacity:1;fill-rule:nonzero;stroke:none;font-family:Courier New;-inkscape-font-specification:Courier">:-connected(tottenham_court_road,Z,L),</tspan></text></g><g id="g58" transform="matrix(1,0,0,-1,0,253)"><text id="text60" transform="translate(14.002,78)"><tspan id="tspan62" x="0 6.001 12.002 18.003 24.004 30.005 36.006 42.007 48.008 54.009 60.01 66.011 72.012 78.013" y="0" style="font-size:10px;font-variant:normal;font-weight:400;writing-mode:lr-tb;fill:#000;fill-opacity:1;fill-rule:nonzero;stroke:none;font-family:Courier New;-inkscape-font-specification:Courier">reachable(Z,W)</tspan></text></g><g id="g64" transform="matrix(1,0,0,-1,0,253)"><text id="text66" transform="translate(217,103)"><tspan id="tspan68" x="0 6.001 12.002 18.003 24.004 30.005 36.006 42.007 48.008 54.009 60.01 66.011 72.012 78.013 84.014 90.015 96.016 102.017 108.018 114.019 120.02 126.021 132.022 138.023 144.024 150.025 156.026 162.027 168.028 174.029 180.03 186.031 192.032 198.033" y="0" style="font-size:10px;font-variant:normal;font-weight:400;writing-mode:lr-tb;fill:#000;fill-opacity:1;fill-rule:nonzero;stroke:none;font-family:Courier New;-inkscape-font-specification:Courier">{Z-&gt;leicester_square, L-&gt;northern}</tspan></text></g><g id="g70" transform="matrix(1,0,0,-1,0,253)"><text id="text72" transform="translate(256,66)"><tspan id="tspan74" x="0 6.001 12.002 18.003 24.004 30.005 36.006 42.007 48.008 54.009 60.01 66.011 72.012 78.013 84.014 90.015 96.016 102.017 108.018 114.019 120.02 126.021 132.022 138.023 144.024 150.025 156.026 162.027 168.028 174.029 180.03" y="0" style="font-size:10px;font-variant:normal;font-weight:400;writing-mode:lr-tb;fill:#000;fill-opacity:1;fill-rule:nonzero;stroke:none;font-family:Courier New;-inkscape-font-specification:Courier">connected(tottenham_court_road,</tspan></text></g><g id="g76" transform="matrix(1,0,0,-1,0,253)"><text id="text78" transform="translate(340,77)"><tspan id="tspan80" x="0 6.001 12.002 18.003 24.004 30.005 36.006 42.007 48.008 54.009 60.01 66.011 72.012 78.013 84.014 90.015 96.016" y="0" style="font-size:10px;font-variant:normal;font-weight:400;writing-mode:lr-tb;fill:#000;fill-opacity:1;fill-rule:nonzero;stroke:none;font-family:Courier New;-inkscape-font-specification:Courier">leicester_square,</tspan></text></g><g id="g82" transform="matrix(1,0,0,-1,0,253)"><text id="text84" transform="translate(388,88)"><tspan id="tspan86" x="0 6.001 12.002 18.003 24.004 30.005 36.006 42.007 48.008" y="0" style="font-size:10px;font-variant:normal;font-weight:400;writing-mode:lr-tb;fill:#000;fill-opacity:1;fill-rule:nonzero;stroke:none;font-family:Courier New;-inkscape-font-specification:Courier">northern)</tspan></text></g><g id="g88" transform="matrix(1,0,0,-1,0,253)"><path id="path90" d="m 95.12501,17 0,36.25" style="fill:none;stroke:#000;stroke-width:.25;stroke-linecap:butt;stroke-linejoin:miter;stroke-miterlimit:10;stroke-opacity:1;stroke-dasharray:none"/></g><g id="g92" transform="matrix(1,0,0,-1,0,253)"><path id="path94" d="m 95.12501,84 0,32.25" style="fill:none;stroke:#000;stroke-width:.25;stroke-linecap:butt;stroke-linejoin:miter;stroke-miterlimit:10;stroke-opacity:1;stroke-dasharray:none"/></g><path id="path96" d="m 281,236 0.25,0 0,-0.25 -171,-36 -0.25,0 0,0.25" style="fill:#000;fill-opacity:1;fill-rule:nonzero;stroke:none"/><path id="path98" d="m 281,173 0.25,0 0,-0.25 -171,-36 -0.25,0 0,0.25" style="fill:#000;fill-opacity:1;fill-rule:nonzero;stroke:none"/><g id="g100" transform="matrix(1,0,0,-1,0,253)"><text id="text102" transform="translate(240,10)"><tspan id="tspan104" x="0 6.001 12.002 18.003 24.004 30.005 36.006 42.007 48.008 54.009 60.01 66.011 72.012 78.013 84.014 90.015 96.016 102.017 108.018 114.019 120.02 126.021 132.022 138.023 144.024 150.025 156.026 162.027 168.028 174.029 180.03 186.031 192.032" y="0" style="font-size:10px;font-variant:normal;font-weight:400;writing-mode:lr-tb;fill:#000;fill-opacity:1;fill-rule:nonzero;stroke:none;font-family:Courier New;-inkscape-font-specification:Courier">reachable(X,Y):-connected(X,Z,L),</tspan></text></g><g id="g106" transform="matrix(1,0,0,-1,0,253)"><text id="text108" transform="translate(336.016,21)"><tspan id="tspan110" x="0 6.001 12.002 18.003 24.004 30.005 36.006 42.007 48.008 54.009 60.01 66.011 72.012 78.013" y="0" style="font-size:10px;font-variant:normal;font-weight:400;writing-mode:lr-tb;fill:#000;fill-opacity:1;fill-rule:nonzero;stroke:none;font-family:Courier New;-inkscape-font-specification:Courier">reachable(Z,Y)</tspan></text></g><g id="g112" transform="matrix(1,0,0,-1,0,253)"><text id="text114" transform="translate(4,128)"><tspan id="tspan116" x="0 6.001 12.002 18.003 24.004 30.005 36.006 42.007 48.008 54.009 60.01 66.011 72.012 78.013 84.014 90.015 96.016 102.017 108.018 114.019 120.02 126.021 132.022 138.023 144.024 150.025 156.026 162.027 168.028 174.029 180.03" y="0" style="font-size:10px;font-variant:normal;font-weight:400;writing-mode:lr-tb;fill:#000;fill-opacity:1;fill-rule:nonzero;stroke:none;font-family:Courier New;-inkscape-font-specification:Courier">:-reachable(leicester_square,W)</tspan></text></g><g id="g118" transform="matrix(1,0,0,-1,0,253)"><text id="text120" transform="translate(219,158)"><tspan id="tspan122" x="0 6.001 12.002 18.003 24.004 30.005 36.006 42.007 48.008 54.009 60.01 66.011 72.012 78.013 84.014 90.015 96.016 102.017 108.018 114.019 120.02 126.021 132.022 138.023 144.024 150.025 156.026" y="0" style="font-size:10px;font-variant:normal;font-weight:400;writing-mode:lr-tb;fill:#000;fill-opacity:1;fill-rule:nonzero;stroke:none;font-family:Courier New;-inkscape-font-specification:Courier">{X-&gt;leicester_square, Y-&gt;W}</tspan></text></g><g id="g124" transform="matrix(1,0,0,-1,0,253)"><text id="text126" transform="translate(3,185)"><tspan id="tspan128" x="0 6.001 12.002 18.003 24.004 30.005 36.006 42.007 48.008 54.009 60.01 66.011 72.012 78.013 84.014 90.015 96.016 102.017 108.018 114.019 120.02 126.021 132.022 138.023 144.024 150.025 156.026 162.027 168.028 174.029 180.03 186.031 192.032 198.033" y="0" style="font-size:10px;font-variant:normal;font-weight:400;writing-mode:lr-tb;fill:#000;fill-opacity:1;fill-rule:nonzero;stroke:none;font-family:Courier New;-inkscape-font-specification:Courier">:-connected(leicester_square,Z,L),</tspan></text></g><g id="g130" transform="matrix(1,0,0,-1,0,253)"><text id="text132" transform="translate(15.002,196)"><tspan id="tspan134" x="0 6.001 12.002 18.003 24.004 30.005 36.006 42.007 48.008 54.009 60.01 66.011 72.012 78.013" y="0" style="font-size:10px;font-variant:normal;font-weight:400;writing-mode:lr-tb;fill:#000;fill-opacity:1;fill-rule:nonzero;stroke:none;font-family:Courier New;-inkscape-font-specification:Courier">reachable(Z,W)</tspan></text></g><g id="g136" transform="matrix(1,0,0,-1,0,253)"><text id="text138" transform="translate(219,221)"><tspan id="tspan140" x="0 6.001 12.002 18.003 24.004 30.005 36.006 42.007 48.008 54.009 60.01 66.011 72.012 78.013 84.014 90.015 96.016 102.017 108.018 114.019 120.02 126.021 132.022 138.023 144.024 150.025 156.026 162.027 168.028 174.029 180.03" y="0" style="font-size:10px;font-variant:normal;font-weight:400;writing-mode:lr-tb;fill:#000;fill-opacity:1;fill-rule:nonzero;stroke:none;font-family:Courier New;-inkscape-font-specification:Courier">{Z-&gt;charing_cross, L-&gt;northern}</tspan></text></g><g id="g142" transform="matrix(1,0,0,-1,0,253)"><text id="text144" transform="translate(281,183)"><tspan id="tspan146" x="0 6.001 12.002 18.003 24.004 30.005 36.006 42.007 48.008 54.009 60.01 66.011 72.012 78.013 84.014 90.015 96.016 102.017 108.018 114.019 120.02 126.021 132.022 138.023 144.024 150.025 156.026" y="0" style="font-size:10px;font-variant:normal;font-weight:400;writing-mode:lr-tb;fill:#000;fill-opacity:1;fill-rule:nonzero;stroke:none;font-family:Courier New;-inkscape-font-specification:Courier">connected(leicester_square,</tspan></text></g><g id="g148" transform="matrix(1,0,0,-1,0,253)"><text id="text150" transform="translate(359,194)"><tspan id="tspan152" x="0 6.001 12.002 18.003 24.004 30.005 36.006 42.007 48.008 54.009 60.01 66.011 72.012 78.013" y="0" style="font-size:10px;font-variant:normal;font-weight:400;writing-mode:lr-tb;fill:#000;fill-opacity:1;fill-rule:nonzero;stroke:none;font-family:Courier New;-inkscape-font-specification:Courier">charing_cross,</tspan></text></g><g id="g154" transform="matrix(1,0,0,-1,0,253)"><text id="text156" transform="translate(389,205)"><tspan id="tspan158" x="0 6.001 12.002 18.003 24.004 30.005 36.006 42.007 48.008" y="0" style="font-size:10px;font-variant:normal;font-weight:400;writing-mode:lr-tb;fill:#000;fill-opacity:1;fill-rule:nonzero;stroke:none;font-family:Courier New;-inkscape-font-specification:Courier">northern)</tspan></text></g><g id="g160" transform="matrix(1,0,0,-1,0,253)"><path id="path162" d="m 96.12501,135 0,36.25" style="fill:none;stroke:#000;stroke-width:.25;stroke-linecap:butt;stroke-linejoin:miter;stroke-miterlimit:10;stroke-opacity:1;stroke-dasharray:none"/></g><g id="g164" transform="matrix(1,0,0,-1,0,253)"><path id="path166" d="m 96.12501,203 0,31.25" style="fill:none;stroke:#000;stroke-width:.25;stroke-linecap:butt;stroke-linejoin:miter;stroke-miterlimit:10;stroke-opacity:1;stroke-dasharray:none"/></g><path id="path168" d="m 282,118 0.25,0 0,-0.25 -171,-36 -0.25,0 0,0.25" style="fill:#000;fill-opacity:1;fill-rule:nonzero;stroke:none"/><path id="path170" d="m 282,55 0.25,0 0,-0.25 -171,-36 -0.25,0 0,0.25" style="fill:#000;fill-opacity:1;fill-rule:nonzero;stroke:none"/><g id="g172" transform="matrix(1,0,0,-1,0,253)"><text id="text174" transform="translate(241,128)"><tspan id="tspan176" x="0 6.001 12.002 18.003 24.004 30.005 36.006 42.007 48.008 54.009 60.01 66.011 72.012 78.013 84.014 90.015 96.016 102.017 108.018 114.019 120.02 126.021 132.022 138.023 144.024 150.025 156.026 162.027 168.028 174.029 180.03 186.031 192.032" y="0" style="font-size:10px;font-variant:normal;font-weight:400;writing-mode:lr-tb;fill:#000;fill-opacity:1;fill-rule:nonzero;stroke:none;font-family:Courier New;-inkscape-font-specification:Courier">reachable(X,Y):-connected(X,Z,L),</tspan></text></g><g id="g178" transform="matrix(1,0,0,-1,0,253)"><text id="text180" transform="translate(337.016,139)"><tspan id="tspan182" x="0 6.001 12.002 18.003 24.004 30.005 36.006 42.007 48.008 54.009 60.01 66.011 72.012 78.013" y="0" style="font-size:10px;font-variant:normal;font-weight:400;writing-mode:lr-tb;fill:#000;fill-opacity:1;fill-rule:nonzero;stroke:none;font-family:Courier New;-inkscape-font-specification:Courier">reachable(Z,Y)</tspan></text></g><g id="g184" transform="matrix(1,0,0,-1,0,253)"><text id="text186" transform="translate(5,249)"><tspan id="tspan188" x="0 6.001 12.002 18.003 24.004 30.005 36.006 42.007 48.008 54.009 60.01 66.011 72.012 78.013 84.014 90.015 96.016 102.017 108.018 114.019 120.02 126.021 132.022 138.023 144.024 150.025 156.026 162.027" y="0" style="font-size:10px;font-variant:normal;font-weight:400;writing-mode:lr-tb;fill:#000;fill-opacity:1;fill-rule:nonzero;stroke:none;font-family:Courier New;-inkscape-font-specification:Courier">:-reachable(charing_cross,W)</tspan></text></g></g></g></g></g></svg>