<svg xmlns="http://www.w3.org/2000/svg" xmlns:svg="http://www.w3.org/2000/svg" id="svg2" width="355" height="325" version="1.1" xml:space="preserve"><defs id="defs6"><clipPath id="clipPath20"><path id="path22" d="M 0,0 284,0 284,260 0,260 0,0 z"/></clipPath><clipPath id="clipPath30"><path id="path32" d="m 0,260 284,0 0,-260.000003836467 -284,0 L 0,260 z"/></clipPath><clipPath id="clipPath36"><path id="path38" d="M 0,0 284,0 284,260 0,260 0,0 z"/></clipPath></defs><g id="g12" transform="matrix(1.25,0,0,-1.25,0,325)"><g id="g16"><g id="g18" clip-path="url(#clipPath20)"><path id="path24" d="M 0,260 284,260 284,0 0,0 0,260 z" style="fill:#fff;fill-opacity:0;fill-rule:evenodd;stroke:none"/></g></g><g id="g26"><g id="g28" clip-path="url(#clipPath30)"><g id="g34" clip-path="url(#clipPath36)"><path id="path40" d="m 97,140 63,0 0,-23 -63,0 0,23 z" style="fill:gray;fill-opacity:1;fill-rule:nonzero;stroke:none"/><path id="path42" d="m 97,55 63,0 0,-23 -63,0 0,23 z" style="fill:gray;fill-opacity:1;fill-rule:nonzero;stroke:none"/><path id="path44" d="m 0,230 97,0 0,-23 -97,0 0,23 z" style="fill:#efefef;fill-opacity:1;fill-rule:nonzero;stroke:none"/><g id="g46" transform="matrix(1,0,0,-1,0,260)"><path id="path48" d="m 0.5,30.5 282,0 0,22 -282,0 0,-22 z" style="fill:none;stroke:#000;stroke-width:1;stroke-linecap:butt;stroke-linejoin:miter;stroke-miterlimit:10;stroke-opacity:1;stroke-dasharray:none"/></g><path id="path50" d="m 0,242 2,0 0,-1 -2,0 0,1 z" style="fill:#dfdfdf;fill-opacity:1;fill-rule:nonzero;stroke:none"/><path id="path52" d="m 0,242 11.87609,5.2876 c 1.49855,-3.3658 1.49855,-7.2094 0,-10.5752" style="fill:#000;fill-opacity:1;fill-rule:evenodd;stroke:none"/><path id="path54" d="m 283,242 -11.8761,-5.2876 c -1.4985,3.3658 -1.4985,7.2094 0,10.5752" style="fill:#000;fill-opacity:1;fill-rule:evenodd;stroke:none"/><g id="g56" transform="matrix(1,0,0,-1,0,260)"><path id="path58" d="m 6,18.5 272,0" style="fill:none;stroke:#000;stroke-width:1;stroke-linecap:butt;stroke-linejoin:miter;stroke-miterlimit:10;stroke-opacity:1;stroke-dasharray:none"/></g><path id="path60" d="m 98,195 11.8761,5.2876 c 1.4985,-3.3658 1.4985,-7.2094 0,-10.5752" style="fill:#000;fill-opacity:1;fill-rule:evenodd;stroke:none"/><path id="path62" d="m 281,195 -11.8761,-5.2876 c -1.4985,3.3658 -1.4985,7.2094 0,10.5752" style="fill:#000;fill-opacity:1;fill-rule:evenodd;stroke:none"/><g id="g64" transform="matrix(1,0,0,-1,0,260)"><path id="path66" d="m 104,65.5 172,0" style="fill:none;stroke:#000;stroke-width:1;stroke-linecap:butt;stroke-linejoin:miter;stroke-miterlimit:10;stroke-opacity:1;stroke-dasharray:none"/></g><g id="g68" transform="matrix(1,0,0,-1,0,260)"><text id="text70" transform="translate(37,12)"><tspan id="tspan72" x="0 6.001 12.002 18.003 24.004" y="0" style="font-size:10px;font-variant:normal;font-weight:400;writing-mode:lr-tb;fill:#000;fill-opacity:1;fill-rule:nonzero;stroke:none;font-family:Courier New;-inkscape-font-specification:Courier">XPlus</tspan></text></g><g id="g74" transform="matrix(1,0,0,-1,0,260)"><text id="text76" transform="translate(168,78)"><tspan id="tspan78" x="0 6.001 12.002 18.003 24.004 30.005" y="0" style="font-size:10px;font-variant:normal;font-weight:400;writing-mode:lr-tb;fill:#000;fill-opacity:1;fill-rule:nonzero;stroke:none;font-family:Courier New;-inkscape-font-specification:Courier">XMinus</tspan></text></g><path id="path80" d="m 0,162 2,0 0,-1 -2,0 0,1 z" style="fill:#dfdfdf;fill-opacity:1;fill-rule:nonzero;stroke:none"/><path id="path82" d="m 97,152 11.8761,5.2876 c 1.4985,-3.3658 1.4985,-7.2094 0,-10.5752" style="fill:#000;fill-opacity:1;fill-rule:evenodd;stroke:none"/><path id="path84" d="m 240,152 -11.8761,-5.2876 c -1.4985,3.3658 -1.4985,7.2094 0,10.5752" style="fill:#000;fill-opacity:1;fill-rule:evenodd;stroke:none"/><g id="g86" transform="matrix(1,0,0,-1,0,260)"><path id="path88" d="m 103,108.5 132,0" style="fill:none;stroke:#000;stroke-width:1;stroke-linecap:butt;stroke-linejoin:miter;stroke-miterlimit:10;stroke-opacity:1;stroke-dasharray:none"/></g><path id="path90" d="m 162,20 11.8761,5.28757 c 1.4985,-3.36578 1.4985,-7.20937 0,-10.57515" style="fill:#000;fill-opacity:1;fill-rule:evenodd;stroke:none"/><path id="path92" d="m 243,20 -11.8761,-5.28758 c -1.4985,3.36578 -1.4985,7.20937 0,10.57515" style="fill:#000;fill-opacity:1;fill-rule:evenodd;stroke:none"/><g id="g94" transform="matrix(1,0,0,-1,0,260)"><path id="path96" d="m 168,240.5 70,0" style="fill:none;stroke:#000;stroke-width:1;stroke-linecap:butt;stroke-linejoin:miter;stroke-miterlimit:10;stroke-opacity:1;stroke-dasharray:none"/></g><g id="g98" transform="matrix(1,0,0,-1,0,260)"><text id="text100" transform="translate(169,102)"><tspan id="tspan102" x="0 6.001 12.002 18.003 24.004" y="0" style="font-size:10px;font-variant:normal;font-weight:400;writing-mode:lr-tb;fill:#000;fill-opacity:1;fill-rule:nonzero;stroke:none;font-family:Courier New;-inkscape-font-specification:Courier">YPlus</tspan></text></g><g id="g104" transform="matrix(1,0,0,-1,0,260)"><text id="text106" transform="translate(186,256)"><tspan id="tspan108" x="0 6.001 12.002 18.003 24.004 30.005" y="0" style="font-size:10px;font-variant:normal;font-weight:400;writing-mode:lr-tb;fill:#000;fill-opacity:1;fill-rule:nonzero;stroke:none;font-family:Courier New;-inkscape-font-specification:Courier">YMinus</tspan></text></g><path id="path110" d="M 2,55 99,55 99,32 2,32 2,55 z" style="fill:#efefef;fill-opacity:1;fill-rule:nonzero;stroke:none"/><path id="path112" d="m 2,66.99999 2,0 0,-1 -2,0 0,1 z" style="fill:#dfdfdf;fill-opacity:1;fill-rule:nonzero;stroke:none"/><path id="path114" d="m 2,66.99999 11.87609,5.28758 c 1.49855,-3.36578 1.49855,-7.20938 0,-10.57516" style="fill:#000;fill-opacity:1;fill-rule:evenodd;stroke:none"/><path id="path116" d="m 242,66.99999 -11.8761,-5.28758 c -1.4985,3.36578 -1.4985,7.20938 0,10.57516" style="fill:#000;fill-opacity:1;fill-rule:evenodd;stroke:none"/><g id="g118" transform="matrix(1,0,0,-1,0,260)"><path id="path120" d="m 8,193.5 229,0" style="fill:none;stroke:#000;stroke-width:1;stroke-linecap:butt;stroke-linejoin:miter;stroke-miterlimit:10;stroke-opacity:1;stroke-dasharray:none"/></g><g id="g122" transform="matrix(1,0,0,-1,0,260)"><text id="text124" transform="translate(39,187)"><tspan id="tspan126" x="0 6.001 12.002 18.003 24.004" y="0" style="font-size:10px;font-variant:normal;font-weight:400;writing-mode:lr-tb;fill:#000;fill-opacity:1;fill-rule:nonzero;stroke:none;font-family:Courier New;-inkscape-font-specification:Courier">XPlus</tspan></text></g><path id="path128" d="m 160,105 11.8761,5.2876 c 1.4985,-3.3658 1.4985,-7.2094 0,-10.57519" style="fill:#000;fill-opacity:1;fill-rule:evenodd;stroke:none"/><path id="path130" d="m 241,105 -11.8761,-5.28759 c -1.4985,3.36579 -1.4985,7.20939 0,10.57519" style="fill:#000;fill-opacity:1;fill-rule:evenodd;stroke:none"/><g id="g132" transform="matrix(1,0,0,-1,0,260)"><path id="path134" d="m 166,155.5 70,0" style="fill:none;stroke:#000;stroke-width:1;stroke-linecap:butt;stroke-linejoin:miter;stroke-miterlimit:10;stroke-opacity:1;stroke-dasharray:none"/></g><g id="g136" transform="matrix(1,0,0,-1,0,260)"><text id="text138" transform="translate(184,171)"><tspan id="tspan140" x="0 6.001 12.002 18.003 24.004 30.005" y="0" style="font-size:10px;font-variant:normal;font-weight:400;writing-mode:lr-tb;fill:#000;fill-opacity:1;fill-rule:nonzero;stroke:none;font-family:Courier New;-inkscape-font-specification:Courier">YMinus</tspan></text></g><g id="g142" transform="matrix(1,0,0,-1,0,260)"><path id="path144" d="m 2.5,205.5 239,0 0,22 -239,0 0,-22 z" style="fill:none;stroke:#000;stroke-width:1;stroke-linecap:butt;stroke-linejoin:miter;stroke-miterlimit:10;stroke-opacity:1;stroke-dasharray:none"/></g><g id="g146" transform="matrix(1,0,0,-1,0,260)"><path id="path148" d="m 97.5,120.5 143,0 0,22 -143,0 0,-22 z" style="fill:none;stroke:#000;stroke-width:1;stroke-linecap:butt;stroke-linejoin:miter;stroke-miterlimit:10;stroke-opacity:1;stroke-dasharray:none"/></g></g></g></g></g></svg>