<svg xmlns="http://www.w3.org/2000/svg" xmlns:svg="http://www.w3.org/2000/svg" id="svg2" width="158.75" height="171.25" version="1.1" xml:space="preserve"><defs id="defs6"><clipPath id="clipPath20"><path id="path22" d="M 0,0 127,0 127,137 0,137 0,0 z"/></clipPath><clipPath id="clipPath30"><path id="path32" d="m 0,137 127,0 0,-137.000002021523 -127,0 L 0,137 z"/></clipPath><clipPath id="clipPath36"><path id="path38" d="M 0,0 127,0 127,137 0,137 0,0 z"/></clipPath></defs><g id="g12" transform="matrix(1.25,0,0,-1.25,0,171.25)"><g id="g16"><g id="g18" clip-path="url(#clipPath20)"><path id="path24" d="M 0,137 127,137 127,0 0,0 0,137 z" style="fill:#fff;fill-opacity:0;fill-rule:evenodd;stroke:none"/></g></g><g id="g26"><g id="g28" clip-path="url(#clipPath30)"><g id="g34" clip-path="url(#clipPath36)"><g id="g40" transform="matrix(1,0,0,-1,0,137)"><text id="text42" transform="translate(55,48)"><tspan id="tspan44" x="0 6.001 12.002 18.003 24.004 30.005 36.006 42.007 48.008 54.009" y="0" style="font-size:10px;font-variant:normal;font-weight:400;writing-mode:lr-tb;fill:#000;fill-opacity:1;fill-rule:nonzero;stroke:none;font-family:Courier New;-inkscape-font-specification:Courier">:-not(q),s</tspan></text></g><g id="g46" transform="matrix(1,0,0,-1,0,137)"><text id="text48" transform="translate(36,10)"><tspan id="tspan50" x="0 6.001 12.002" y="0" style="font-size:10px;font-variant:normal;font-weight:400;writing-mode:lr-tb;fill:#000;fill-opacity:1;fill-rule:nonzero;stroke:none;font-family:Courier New;-inkscape-font-specification:Courier">?-p</tspan></text></g><path id="path52" d="m 36,123 0.25,0 0,-0.25 -20,-22 -0.25,0 0,0.25" style="fill:#000;fill-opacity:1;fill-rule:nonzero;stroke:none"/><path id="path54" d="m 56,123 0.25,0 20,-22 0,-0.25 -0.25,0 -20,22" style="fill:#000;fill-opacity:1;fill-rule:nonzero;stroke:none"/><g id="g56" transform="matrix(1,0,0,-1,0,137)"><text id="text58" transform="translate(1,48)"><tspan id="tspan60" x="0 6.001 12.002 18.003 24.004" y="0" style="font-size:10px;font-variant:normal;font-weight:400;writing-mode:lr-tb;fill:#000;fill-opacity:1;fill-rule:nonzero;stroke:none;font-family:Courier New;-inkscape-font-specification:Courier">:-q,r</tspan></text></g><g id="g62" transform="matrix(1,0,0,-1,0,137)"><path id="path64" d="m 3,52.5 29,0" style="fill:none;stroke:#000;stroke-width:1;stroke-linecap:butt;stroke-linejoin:miter;stroke-miterlimit:10;stroke-opacity:1;stroke-dasharray:none"/></g><g id="g66" transform="matrix(1,0,0,-1,0,137)"><text id="text68" transform="translate(109,133)"><tspan id="tspan70" x="-3.5" y=".75" style="font-size:20px;font-variant:normal;font-weight:400;writing-mode:lr-tb;fill:#000;fill-opacity:1;fill-rule:nonzero;stroke:none;font-family:Geneva;-inkscape-font-specification:Geneva">□</tspan></text></g><path id="path72" d="m 70,83 0.25,0 0,-0.25 -20,-22 -0.25,0 0,0.25" style="fill:#000;fill-opacity:1;fill-rule:nonzero;stroke:none"/><path id="path74" d="m 84,83 0.25,0 20,-22 0,-0.25 -0.25,0 -20,22" style="fill:#000;fill-opacity:1;fill-rule:nonzero;stroke:none"/><g id="g76" transform="matrix(1,0,0,-1,0,137)"><text id="text78" transform="translate(12,87)"><tspan id="tspan80" x="0 6.001 12.002 18.003 24.004 30.005 36.006 42.007 48.008 54.009 60.01 66.011" y="0" style="font-size:10px;font-variant:normal;font-weight:400;writing-mode:lr-tb;fill:#000;fill-opacity:1;fill-rule:nonzero;stroke:none;font-family:Courier New;-inkscape-font-specification:Courier">:-q,!,fail,s</tspan></text></g><g id="g82" transform="matrix(1,0,0,-1,0,137)"><path id="path84" d="m 16,91.5 69,0" style="fill:none;stroke:#000;stroke-width:1;stroke-linecap:butt;stroke-linejoin:miter;stroke-miterlimit:10;stroke-opacity:1;stroke-dasharray:none"/></g><g id="g86" transform="matrix(1,0,0,-1,0,137)"><text id="text88" transform="translate(102,87)"><tspan id="tspan90" x="0 6.001 12.002" y="0" style="font-size:10px;font-variant:normal;font-weight:400;writing-mode:lr-tb;fill:#000;fill-opacity:1;fill-rule:nonzero;stroke:none;font-family:Courier New;-inkscape-font-specification:Courier">:-s</tspan></text></g><g id="g92" transform="matrix(1,0,0,-1,0,137)"><path id="path94" d="m 111.125,92 0,29.25" style="fill:none;stroke:#000;stroke-width:.25;stroke-linecap:butt;stroke-linejoin:miter;stroke-miterlimit:10;stroke-opacity:1;stroke-dasharray:none"/></g></g></g></g></g></svg>