<svg xmlns="http://www.w3.org/2000/svg" xmlns:svg="http://www.w3.org/2000/svg" id="svg2" width="511.25" height="235" version="1.1" xml:space="preserve"><defs id="defs6"><clipPath id="clipPath20"><path id="path22" d="M 0,0 409,0 409,188 0,188 0,0 z"/></clipPath><clipPath id="clipPath30"><path id="path32" d="m 0,188 409,0 0,-188.000002774061 -409,0 L 0,188 z"/></clipPath><clipPath id="clipPath36"><path id="path38" d="M 0,0 409,0 409,188 0,188 0,0 z"/></clipPath></defs><g id="g12" transform="matrix(1.25,0,0,-1.25,0,235)"><g id="g16"><g id="g18" clip-path="url(#clipPath20)"><path id="path24" d="M 0,188 409,188 409,0 0,0 0,188 z" style="fill:#fff;fill-opacity:0;fill-rule:evenodd;stroke:none"/></g></g><g id="g26"><g id="g28" clip-path="url(#clipPath30)"><g id="g34" clip-path="url(#clipPath36)"><path id="path40" d="m 236,152 109,0 0,-97 -109,0 0,97 z" style="fill:#efefef;fill-opacity:1;fill-rule:nonzero;stroke:none"/><g id="g42" transform="matrix(1,0,0,-1,0,188)"><text id="text44" transform="translate(109,148)"><tspan id="tspan46" x="0 6.98 13.961 20.941 27.922 34.902 41.882 48.863 55.843 62.824 69.804" y="0" style="font-size:12px;font-variant:normal;font-weight:400;writing-mode:lr-tb;fill:#000;fill-opacity:1;fill-rule:nonzero;stroke:none;font-family:Courier New;-inkscape-font-specification:Courier">p(X):-q(X).</tspan></text></g><g id="g48" transform="matrix(1,0,0,-1,0,188)"><text id="text50" transform="translate(109,160)"><tspan id="tspan52" x="0 6.949 13.898 20.848 27.797" y="0" style="font-size:12px;font-variant:normal;font-weight:400;writing-mode:lr-tb;fill:#000;fill-opacity:1;fill-rule:nonzero;stroke:none;font-family:Courier New;-inkscape-font-specification:Courier">q(a).</tspan></text></g><g id="g54" transform="matrix(1,0,0,-1,0,188)"><text id="text56" transform="translate(88,71)"><tspan id="tspan58" x="0 6.988 13.975 20.963 27.95 34.938 41.926 48.913 55.901 62.888 69.876 76.864 83.851 90.839 97.826 104.814 111.802 118.789" y="0" style="font-size:12px;font-variant:normal;font-weight:400;writing-mode:lr-tb;fill:#000;fill-opacity:1;fill-rule:nonzero;stroke:none;font-family:Courier New;-inkscape-font-specification:Courier">clause(p(X),q(X)).</tspan></text></g><g id="g60" transform="matrix(1,0,0,-1,0,188)"><text id="text62" transform="translate(88,83)"><tspan id="tspan64" x="0 6.988 13.975 20.963 27.95 34.938 41.926 48.913 55.901 62.888 69.876 76.864 83.851 90.839 97.826 104.814 111.802 118.789" y="0" style="font-size:12px;font-variant:normal;font-weight:400;writing-mode:lr-tb;fill:#000;fill-opacity:1;fill-rule:nonzero;stroke:none;font-family:Courier New;-inkscape-font-specification:Courier">clause(q(a),true).</tspan></text></g><g id="g66" transform="matrix(1,0,0,-1,0,188)"><text id="text68" transform="translate(270,148)"><tspan id="tspan70" x="0 6.966 13.932 20.898 27.864 34.83 41.796" y="0" style="font-size:12px;font-variant:normal;font-weight:400;writing-mode:lr-tb;fill:#000;fill-opacity:1;fill-rule:nonzero;stroke:none;font-family:Courier New;-inkscape-font-specification:Courier">?-p(X).</tspan></text></g><g id="g72" transform="matrix(1,0,0,-1,0,188)"><text id="text74" transform="translate(270,160)"><tspan id="tspan76" x="0 6.9 13.8" y="0" style="font-size:12px;font-variant:normal;font-weight:400;writing-mode:lr-tb;fill:#000;fill-opacity:1;fill-rule:nonzero;stroke:none;font-family:Courier New;-inkscape-font-specification:Courier">X=a</tspan></text></g><g id="g78" transform="matrix(1,0,0,-1,0,188)"><text id="text80" transform="translate(244,71)"><tspan id="tspan82" x="0 6.984 13.968 20.952 27.936 34.92 41.904 48.888 55.872 62.856 69.84 76.824 83.808 90.792" y="0" style="font-size:12px;font-variant:normal;font-weight:400;writing-mode:lr-tb;fill:#000;fill-opacity:1;fill-rule:nonzero;stroke:none;font-family:Courier New;-inkscape-font-specification:Courier">?-prove(p(X)).</tspan></text></g><g id="g84" transform="matrix(1,0,0,-1,0,188)"><text id="text86" transform="translate(244,83)"><tspan id="tspan88" x="0 6.9 13.8" y="0" style="font-size:12px;font-variant:normal;font-weight:400;writing-mode:lr-tb;fill:#000;fill-opacity:1;fill-rule:nonzero;stroke:none;font-family:Courier New;-inkscape-font-specification:Courier">X=a</tspan></text></g><g id="g90" transform="matrix(1,0,0,-1,0,188)"><text id="text92" transform="translate(261,126)"><tspan id="tspan94" x="0 6.071 12.142 14.204 16.939 19.002 24.401 30.472 33.206 35.269 41.34" y="0" style="font-size:12px;font-variant:normal;font-weight:400;writing-mode:lr-tb;fill:#000;fill-opacity:1;fill-rule:nonzero;stroke:none;font-family:Helvetica;-inkscape-font-specification:Helvetica">unification</tspan></text></g><g id="g96" transform="matrix(1,0,0,-1,0,188)"><text id="text98" transform="translate(18,73)"><tspan id="tspan100" x="0 10.774 19.225 26.891 35.342" y="0" style="font-size:14px;font-variant:normal;font-weight:400;writing-mode:lr-tb;fill:#000;fill-opacity:1;fill-rule:nonzero;stroke:none;font-family:Helvetica;-inkscape-font-specification:Helvetica">META-</tspan></text></g><g id="g102" transform="matrix(1,0,0,-1,0,188)"><text id="text104" transform="translate(19,88)"><tspan id="tspan106" x="0 7.14 15.834 24.528 33.222" y="0" style="font-size:14px;font-variant:normal;font-weight:400;writing-mode:lr-tb;fill:#000;fill-opacity:1;fill-rule:nonzero;stroke:none;font-family:Helvetica;-inkscape-font-specification:Helvetica">LEVEL</tspan></text></g><g id="g108" transform="matrix(1,0,0,-1,0,188)"><text id="text110" transform="translate(4.110352,144)"><tspan id="tspan112" x="0 10.889 20.227 27.227 36.565 46.676 55.227" y="0" style="font-size:14px;font-variant:normal;font-weight:400;writing-mode:lr-tb;fill:#000;fill-opacity:1;fill-rule:nonzero;stroke:none;font-family:Helvetica;-inkscape-font-specification:Helvetica">OBJECT-</tspan></text></g><g id="g114" transform="matrix(1,0,0,-1,0,188)"><text id="text116" transform="translate(20,159)"><tspan id="tspan118" x="0 7.14 15.834 24.528 33.222" y="0" style="font-size:14px;font-variant:normal;font-weight:400;writing-mode:lr-tb;fill:#000;fill-opacity:1;fill-rule:nonzero;stroke:none;font-family:Helvetica;-inkscape-font-specification:Helvetica">LEVEL</tspan></text></g><g id="g120" transform="matrix(1,0,0,-1,0,188)"><text id="text122" transform="translate(112,22)"><tspan id="tspan124" x="0 9.211 19.191 29.956 43.044 50.701 59.912 69.892 80.657" y="0" style="font-size:14px;font-variant:normal;font-weight:400;writing-mode:lr-tb;fill:#000;fill-opacity:1;fill-rule:nonzero;stroke:none;font-family:Helvetica;-inkscape-font-specification:Helvetica">KNOWLEDGE</tspan></text></g><g id="g126" transform="matrix(1,0,0,-1,0,188)"><text id="text128" transform="translate(272,20)"><tspan id="tspan130" x="0 10.111 19.449 28.787 38.125 49.014 59.125 63.014 73.125" y="0" style="font-size:14px;font-variant:normal;font-weight:400;writing-mode:lr-tb;fill:#000;fill-opacity:1;fill-rule:nonzero;stroke:none;font-family:Helvetica;-inkscape-font-specification:Helvetica">REASONING</tspan></text></g><g id="g132" transform="matrix(1,0,0,-1,0,188)"><path id="path134" d="m 4,109.5 404,0" style="fill:none;stroke:gray;stroke-width:3;stroke-linecap:butt;stroke-linejoin:miter;stroke-miterlimit:10;stroke-opacity:1;stroke-dasharray:none"/></g><g id="g136" transform="matrix(1,0,0,-1,0,188)"><path id="path138" d="m 235.5,3 0,184" style="fill:none;stroke:gray;stroke-width:3;stroke-linecap:butt;stroke-linejoin:miter;stroke-miterlimit:10;stroke-opacity:1;stroke-dasharray:none"/></g><g id="g140" transform="matrix(1,0,0,-1,0,188)"><path id="path142" d="m 73.5,37.5 333,0 0,148 -333,0 0,-148 z" style="fill:none;stroke:#bfbfbf;stroke-width:3;stroke-linecap:butt;stroke-linejoin:miter;stroke-miterlimit:10;stroke-opacity:1;stroke-dasharray:none"/></g></g></g></g></g></svg>