<svg xmlns="http://www.w3.org/2000/svg" xmlns:svg="http://www.w3.org/2000/svg" id="svg2" width="610" height="256.25" version="1.1" xml:space="preserve"><defs id="defs6"><clipPath id="clipPath20"><path id="path22" d="M 0,0 488,0 488,205 0,205 0,0 z"/></clipPath><clipPath id="clipPath30"><path id="path32" d="m 0,205 488,0 0,-205.000003024907 -488,0 L 0,205 z"/></clipPath><clipPath id="clipPath36"><path id="path38" d="M 0,0 488,0 488,205 0,205 0,0 z"/></clipPath></defs><g id="g12" transform="matrix(1.25,0,0,-1.25,0,256.25)"><g id="g16"><g id="g18" clip-path="url(#clipPath20)"><path id="path24" d="M 0,205 488,205 488,0 0,0 0,205 z" style="fill:#fff;fill-opacity:0;fill-rule:evenodd;stroke:none"/></g></g><g id="g26"><g id="g28" clip-path="url(#clipPath30)"><g id="g34" clip-path="url(#clipPath36)"><g id="g40" transform="matrix(1,0,0,-1,0,205)"><text id="text42" transform="translate(151,179)"><tspan id="tspan44" x="0" y="0" style="font-size:10px;font-variant:normal;font-weight:400;writing-mode:lr-tb;fill:#000;fill-opacity:1;fill-rule:nonzero;stroke:none;font-family:Courier New;-inkscape-font-specification:Courier">•</tspan></text></g><g id="g46" transform="matrix(1,0,0,-1,0,205)"><text id="text48" transform="translate(151,190)"><tspan id="tspan50" x="0" y="0" style="font-size:10px;font-variant:normal;font-weight:400;writing-mode:lr-tb;fill:#000;fill-opacity:1;fill-rule:nonzero;stroke:none;font-family:Courier New;-inkscape-font-specification:Courier">•</tspan></text></g><g id="g52" transform="matrix(1,0,0,-1,0,205)"><text id="text54" transform="translate(151,201)"><tspan id="tspan56" x="0" y="0" style="font-size:10px;font-variant:normal;font-weight:400;writing-mode:lr-tb;fill:#000;fill-opacity:1;fill-rule:nonzero;stroke:none;font-family:Courier New;-inkscape-font-specification:Courier">•</tspan></text></g><g id="g58" transform="matrix(1,0,0,-1,0,205)"><text id="text60" transform="translate(79,61)"><tspan id="tspan62" x="0 6.001 12.002 18.003 24.004 30.005 36.006 42.007 48.008 54.009 60.01 66.011 72.012 78.013 84.014 90.015 96.016 102.017 108.018 114.019 120.02 126.021 132.022 138.023 144.024 150.025 156.026 162.027 168.028 174.029 180.03 186.031 192.032 198.033 204.034 210.035" y="0" style="font-size:10px;font-variant:normal;font-weight:400;writing-mode:lr-tb;fill:#000;fill-opacity:1;fill-rule:nonzero;stroke:none;font-family:Courier New;-inkscape-font-specification:Courier">:-brother_of(paul,Z),brother_of(Z,B)</tspan></text></g><g id="g64" transform="matrix(1,0,0,-1,0,205)"><text id="text66" transform="translate(42,61)"><tspan id="tspan68" x="-1" y="2" style="font-size:20px;font-variant:normal;font-weight:400;writing-mode:lr-tb;fill:#000;fill-opacity:1;fill-rule:nonzero;stroke:none;font-family:Geneva;-inkscape-font-specification:Geneva">□</tspan></text></g><g id="g70" transform="matrix(1,0,0,-1,0,205)"><text id="text72" transform="translate(60,10)"><tspan id="tspan74" x="0 6.001 12.002 18.003 24.004 30.005 36.006 42.007 48.008 54.009 60.01 66.011 72.012 78.013 84.014 90.015 96.016 102.017 108.018 114.019" y="0" style="font-size:10px;font-variant:normal;font-weight:400;writing-mode:lr-tb;fill:#000;fill-opacity:1;fill-rule:nonzero;stroke:none;font-family:Courier New;-inkscape-font-specification:Courier">?-brother_of(paul,B)</tspan></text></g><path id="path76" d="m 78,190 0.25,0 0,-0.25 -34,-35 -0.25,0 0,0.25" style="fill:#000;fill-opacity:1;fill-rule:nonzero;stroke:none"/><path id="path78" d="m 157,190 0.25,0 34,-35 0,-0.25 -0.25,0 -34,35" style="fill:#000;fill-opacity:1;fill-rule:nonzero;stroke:none"/><g id="g80" transform="matrix(1,0,0,-1,0,205)"><text id="text82" transform="translate(161,112)"><tspan id="tspan84" x="0 6 12 18 24 30 36 42 48 54 60 66 72 78 84 90 96 102 108 114 120 126 132 138 144 150 156 162 168 174 180 186 192 198 204 210 216 222 228 234 240 246 252 258 264 270 276 282 288 294 300 306 312 318" y="0" style="font-size:10px;font-variant:normal;font-weight:400;writing-mode:lr-tb;fill:#000;fill-opacity:1;fill-rule:nonzero;stroke:none;font-family:Courier New;-inkscape-font-specification:Courier">:-brother_of(paul,Z1),brother_of(Z1,Z),brother_of(Z,B)</tspan></text></g><path id="path86" d="m 129,139 0.25,0 0,-0.25 -34,-35 -0.25,0 0,0.25" style="fill:#000;fill-opacity:1;fill-rule:nonzero;stroke:none"/><path id="path88" d="m 208,139 0.25,0 34,-35 0,-0.25 -0.25,0 -34,35" style="fill:#000;fill-opacity:1;fill-rule:nonzero;stroke:none"/><g id="g90" transform="matrix(1,0,0,-1,0,205)"><text id="text92" transform="translate(11,112)"><tspan id="tspan94" x="0 6.001 12.002 18.003 24.004 30.005 36.006 42.007 48.008 54.009 60.01 66.011 72.012 78.013 84.014 90.015 96.016 102.017 108.018 114.019 120.02" y="0" style="font-size:10px;font-variant:normal;font-weight:400;writing-mode:lr-tb;fill:#000;fill-opacity:1;fill-rule:nonzero;stroke:none;font-family:Courier New;-inkscape-font-specification:Courier">:-brother_of(peter,B)</tspan></text></g><g id="g96" transform="matrix(1,0,0,-1,0,205)"><text id="text98" transform="translate(36,163)"><tspan id="tspan100" x="0 6.001 12.002 18.003 24.004 30.005 36.006 42.007 48.008 54.009 60.01 66.011 72.012 78.013 84.014 90.015 96.016 102.017 108.018 114.019 120.02 126.021 132.022 138.023 144.024 150.025 156.026 162.027 168.028 174.029 180.03 186.031 192.032 198.033 204.034 210.035 216.036" y="0" style="font-size:10px;font-variant:normal;font-weight:400;writing-mode:lr-tb;fill:#000;fill-opacity:1;fill-rule:nonzero;stroke:none;font-family:Courier New;-inkscape-font-specification:Courier">:-brother_of(peter,Z),brother_of(Z,B)</tspan></text></g><g id="g102" transform="matrix(1,0,0,-1,0,205)"><text id="text104" transform="translate(2,163)"><tspan id="tspan106" x="-1" y="2" style="font-size:20px;font-variant:normal;font-weight:400;writing-mode:lr-tb;fill:#000;fill-opacity:1;fill-rule:nonzero;stroke:none;font-family:Geneva;-inkscape-font-specification:Geneva">□</tspan></text></g><path id="path108" d="m 38,88 0.25,0 0,-0.25 -34,-35 -0.25,0 0,0.25" style="fill:#000;fill-opacity:1;fill-rule:nonzero;stroke:none"/><path id="path110" d="m 118,88 0.25,0 34,-35 0,-0.25 -0.25,0 -34,35" style="fill:#000;fill-opacity:1;fill-rule:nonzero;stroke:none"/><g id="g112" transform="matrix(1,0,0,-1,0,205)"><text id="text114" transform="translate(304,128)"><tspan id="tspan116" x="0" y="0" style="font-size:10px;font-variant:normal;font-weight:400;writing-mode:lr-tb;fill:#000;fill-opacity:1;fill-rule:nonzero;stroke:none;font-family:Courier New;-inkscape-font-specification:Courier">•</tspan></text></g><g id="g118" transform="matrix(1,0,0,-1,0,205)"><text id="text120" transform="translate(304,139)"><tspan id="tspan122" x="0" y="0" style="font-size:10px;font-variant:normal;font-weight:400;writing-mode:lr-tb;fill:#000;fill-opacity:1;fill-rule:nonzero;stroke:none;font-family:Courier New;-inkscape-font-specification:Courier">•</tspan></text></g><g id="g124" transform="matrix(1,0,0,-1,0,205)"><text id="text126" transform="translate(304,150)"><tspan id="tspan128" x="0" y="0" style="font-size:10px;font-variant:normal;font-weight:400;writing-mode:lr-tb;fill:#000;fill-opacity:1;fill-rule:nonzero;stroke:none;font-family:Courier New;-inkscape-font-specification:Courier">•</tspan></text></g></g></g></g></g></svg>