<svg xmlns="http://www.w3.org/2000/svg" xmlns:svg="http://www.w3.org/2000/svg" id="svg2" width="300" height="167.5" version="1.1" xml:space="preserve"><defs id="defs6"><clipPath id="clipPath20"><path id="path22" d="M 0,0 240,0 240,134 0,134 0,0 z"/></clipPath><clipPath id="clipPath30"><path id="path32" d="m 0,134 240,0 0,-134.000001977256 -240,0 L 0,134 z"/></clipPath><clipPath id="clipPath36"><path id="path38" d="M 0,0 240,0 240,134 0,134 0,0 z"/></clipPath></defs><g id="g12" transform="matrix(1.25,0,0,-1.25,0,167.5)"><g id="g16"><g id="g18" clip-path="url(#clipPath20)"><path id="path24" d="M 0,134 240,134 240,0 0,0 0,134 z" style="fill:#fff;fill-opacity:0;fill-rule:evenodd;stroke:none"/></g></g><g id="g26"><g id="g28" clip-path="url(#clipPath30)"><g id="g34" clip-path="url(#clipPath36)"><path id="path40" d="m 130,119 109,0 0,-46 -109,0 0,46 z" style="fill:#efefef;fill-opacity:1;fill-rule:nonzero;stroke:none"/><g id="g42" transform="matrix(1,0,0,-1,0,134)"><path id="path44" d="m 130.5,15.5 108,0 0,45 -108,0 0,-45 z" style="fill:none;stroke:#fff;stroke-width:1;stroke-linecap:butt;stroke-linejoin:miter;stroke-miterlimit:10;stroke-opacity:1;stroke-dasharray:none"/></g><g id="g46" transform="matrix(1,0,0,-1,0,134)"><text id="text48" transform="translate(138,50)"><tspan id="tspan50" x="0 6.001 12.002 18.003 24.004 30.005 36.006 42.007 48.008 54.009 60.01 66.011 72.012 78.013 84.014 90.015" y="0" style="font-size:10px;font-variant:normal;font-weight:400;writing-mode:lr-tb;fill:#000;fill-opacity:1;fill-rule:nonzero;stroke:none;font-family:Courier New;-inkscape-font-specification:Courier">:-mother(john,C)</tspan></text></g><g id="g52" transform="matrix(1,0,0,-1,0,134)"><text id="text54" transform="translate(77,12)"><tspan id="tspan56" x="0 6.001 12.002 18.003 24.004 30.005 36.006 42.007 48.008 54.009 60.01 66.011 72.012 78.013 84.014 90.015" y="0" style="font-size:10px;font-variant:normal;font-weight:400;writing-mode:lr-tb;fill:#000;fill-opacity:1;fill-rule:nonzero;stroke:none;font-family:Courier New;-inkscape-font-specification:Courier">?-parent(john,C)</tspan></text></g><path id="path58" d="m 81,119 0.25,0 0,-0.25 -20,-22 -0.25,0 0,0.25" style="fill:#000;fill-opacity:1;fill-rule:nonzero;stroke:none"/><path id="path60" d="m 135,119 0.25,0 20,-22 0,-0.25 -0.25,0 -20,22" style="fill:#000;fill-opacity:1;fill-rule:nonzero;stroke:none"/><g id="g62" transform="matrix(1,0,0,-1,0,134)"><text id="text64" transform="translate(18,50)"><tspan id="tspan66" x="0 6.001 12.002 18.003 24.004 30.005 36.006 42.007 48.008 54.009 60.01 66.011 72.012 78.013 84.014 90.015 96.016 102.017" y="0" style="font-size:10px;font-variant:normal;font-weight:400;writing-mode:lr-tb;fill:#000;fill-opacity:1;fill-rule:nonzero;stroke:none;font-family:Courier New;-inkscape-font-specification:Courier">:-father(john,C),!</tspan></text></g><g id="g68" transform="matrix(1,0,0,-1,0,134)"><path id="path70" d="m 149,54.5 75,0" style="fill:none;stroke:#000;stroke-width:1;stroke-linecap:butt;stroke-linejoin:miter;stroke-miterlimit:10;stroke-opacity:1;stroke-dasharray:none"/></g><g id="g72" transform="matrix(1,0,0,-1,0,134)"><path id="path74" d="m 60.125,54 0,23.25" style="fill:none;stroke:#000;stroke-width:.25;stroke-linecap:butt;stroke-linejoin:miter;stroke-miterlimit:10;stroke-opacity:1;stroke-dasharray:none"/></g><g id="g76" transform="matrix(1,0,0,-1,0,134)"><text id="text78" transform="translate(61,130)"><tspan id="tspan80" x="-6.5" y=".75" style="font-size:20px;font-variant:normal;font-weight:400;writing-mode:lr-tb;fill:#000;fill-opacity:1;fill-rule:nonzero;stroke:none;font-family:Geneva;-inkscape-font-specification:Geneva">□</tspan></text></g><g id="g82" transform="matrix(1,0,0,-1,0,134)"><path id="path84" d="m 60.125,94 0,23.25" style="fill:none;stroke:#000;stroke-width:.25;stroke-linecap:butt;stroke-linejoin:miter;stroke-miterlimit:10;stroke-opacity:1;stroke-dasharray:none"/></g><g id="g86" transform="matrix(1,0,0,-1,0,134)"><text id="text88" transform="translate(57,90)"><tspan id="tspan90" x="0 6.001 12.002" y="0" style="font-size:10px;font-variant:normal;font-weight:400;writing-mode:lr-tb;fill:#000;fill-opacity:1;fill-rule:nonzero;stroke:none;font-family:Courier New;-inkscape-font-specification:Courier">:-!</tspan></text></g></g></g></g></g></svg>