<svg xmlns="http://www.w3.org/2000/svg" xmlns:svg="http://www.w3.org/2000/svg" id="svg2" width="196.25" height="227.5" version="1.1" xml:space="preserve"><defs id="defs6"><clipPath id="clipPath20"><path id="path22" d="M 0,0 157,0 157,182 0,182 0,0 z"/></clipPath><clipPath id="clipPath30"><path id="path32" d="m 0,182 157,0 0,-182.000002685527 -157,0 L 0,182 z"/></clipPath><clipPath id="clipPath36"><path id="path38" d="M 0,0 157,0 157,182 0,182 0,0 z"/></clipPath></defs><g id="g12" transform="matrix(1.25,0,0,-1.25,0,227.5)"><g id="g16"><g id="g18" clip-path="url(#clipPath20)"><path id="path24" d="M 0,182 157,182 157,0 0,0 0,182 z" style="fill:#fff;fill-opacity:0;fill-rule:evenodd;stroke:none"/></g></g><g id="g26"><g id="g28" clip-path="url(#clipPath30)"><g id="g34" clip-path="url(#clipPath36)"><path id="path40" d="m 78,124 46,0 0,-81 -46,0 0,81 z" style="fill:#efefef;fill-opacity:1;fill-rule:nonzero;stroke:none"/><g id="g42" transform="matrix(1,0,0,-1,0,182)"><path id="path44" d="m 78.5,58.5 45,0 0,80 -45,0 0,-80 z" style="fill:none;stroke:#fff;stroke-width:1;stroke-linecap:butt;stroke-linejoin:miter;stroke-miterlimit:10;stroke-opacity:1;stroke-dasharray:none"/></g><g id="g46" transform="matrix(1,0,0,-1,0,182)"><text id="text48" transform="translate(38,46)"><tspan id="tspan50" x="0 6.001 12.002 18.003 24.004 30.005 36.006 42.007 48.008 54.009" y="0" style="font-size:10px;font-variant:normal;font-weight:400;writing-mode:lr-tb;fill:#000;fill-opacity:1;fill-rule:nonzero;stroke:none;font-family:Courier New;-inkscape-font-specification:Courier">:-not(q),r</tspan></text></g><g id="g52" transform="matrix(1,0,0,-1,0,182)"><text id="text54" transform="translate(94,9)"><tspan id="tspan56" x="0 6.001 12.002" y="0" style="font-size:10px;font-variant:normal;font-weight:400;writing-mode:lr-tb;fill:#000;fill-opacity:1;fill-rule:nonzero;stroke:none;font-family:Courier New;-inkscape-font-specification:Courier">?-p</tspan></text></g><path id="path58" d="m 94,170 0.25,0 0,-0.25 -20,-22 -0.25,0 0,0.25" style="fill:#000;fill-opacity:1;fill-rule:nonzero;stroke:none"/><path id="path60" d="m 114,170 0.25,0 20,-22 0,-0.25 -0.25,0 -20,22" style="fill:#000;fill-opacity:1;fill-rule:nonzero;stroke:none"/><g id="g62" transform="matrix(1,0,0,-1,0,182)"><text id="text64" transform="translate(98,132)"><tspan id="tspan66" x="-2.5" y="0" style="font-size:20px;font-variant:normal;font-weight:400;writing-mode:lr-tb;fill:#000;fill-opacity:1;fill-rule:nonzero;stroke:none;font-family:Geneva;-inkscape-font-specification:Geneva">□</tspan></text></g><path id="path68" d="m 60,130 0.25,0 0,-0.25 -20,-22 -0.25,0 0,0.25" style="fill:#000;fill-opacity:1;fill-rule:nonzero;stroke:none"/><path id="path70" d="m 74,130 0.25,0 20,-22 0,-0.25 -0.25,0 -20,22" style="fill:#000;fill-opacity:1;fill-rule:nonzero;stroke:none"/><g id="g72" transform="matrix(1,0,0,-1,0,182)"><text id="text74" transform="translate(1,86)"><tspan id="tspan76" x="0 6.001 12.002 18.003 24.004 30.005 36.006 42.007 48.008 54.009 60.01 66.011" y="0" style="font-size:10px;font-variant:normal;font-weight:400;writing-mode:lr-tb;fill:#000;fill-opacity:1;fill-rule:nonzero;stroke:none;font-family:Courier New;-inkscape-font-specification:Courier">:-q,!,fail,r</tspan></text></g><g id="g78" transform="matrix(1,0,0,-1,0,182)"><path id="path80" d="m 15,181.5 46,0" style="fill:none;stroke:#000;stroke-width:1;stroke-linecap:butt;stroke-linejoin:miter;stroke-miterlimit:10;stroke-opacity:1;stroke-dasharray:none"/></g><g id="g82" transform="matrix(1,0,0,-1,0,182)"><text id="text84" transform="translate(94,86)"><tspan id="tspan86" x="0 6.001 12.002" y="0" style="font-size:10px;font-variant:normal;font-weight:400;writing-mode:lr-tb;fill:#000;fill-opacity:1;fill-rule:nonzero;stroke:none;font-family:Courier New;-inkscape-font-specification:Courier">:-r</tspan></text></g><g id="g88" transform="matrix(1,0,0,-1,0,182)"><path id="path90" d="m 101.125,90 0,29.25" style="fill:none;stroke:#000;stroke-width:.25;stroke-linecap:butt;stroke-linejoin:miter;stroke-miterlimit:10;stroke-opacity:1;stroke-dasharray:none"/></g><g id="g92" transform="matrix(1,0,0,-1,0,182)"><path id="path94" d="m 39.125,90 0,29.25" style="fill:none;stroke:#000;stroke-width:.25;stroke-linecap:butt;stroke-linejoin:miter;stroke-miterlimit:10;stroke-opacity:1;stroke-dasharray:none"/></g><g id="g96" transform="matrix(1,0,0,-1,0,182)"><text id="text98" transform="translate(7,131)"><tspan id="tspan100" x="0 6.001 12.002 18.003 24.004 30.005 36.006 42.007 48.008 54.009" y="0" style="font-size:10px;font-variant:normal;font-weight:400;writing-mode:lr-tb;fill:#000;fill-opacity:1;fill-rule:nonzero;stroke:none;font-family:Courier New;-inkscape-font-specification:Courier">:-!,fail,r</tspan></text></g><g id="g102" transform="matrix(1,0,0,-1,0,182)"><path id="path104" d="m 39.125,135 0,29.25" style="fill:none;stroke:#000;stroke-width:.25;stroke-linecap:butt;stroke-linejoin:miter;stroke-miterlimit:10;stroke-opacity:1;stroke-dasharray:none"/></g><g id="g106" transform="matrix(1,0,0,-1,0,182)"><text id="text108" transform="translate(13,176)"><tspan id="tspan110" x="0 6.001 12.002 18.003 24.004 30.005 36.006 42.007" y="0" style="font-size:10px;font-variant:normal;font-weight:400;writing-mode:lr-tb;fill:#000;fill-opacity:1;fill-rule:nonzero;stroke:none;font-family:Courier New;-inkscape-font-specification:Courier">:-fail,r</tspan></text></g><g id="g112" transform="matrix(1,0,0,-1,0,182)"><text id="text114" transform="translate(138,91)"><tspan id="tspan116" x="-2.5" y=".75" style="font-size:20px;font-variant:normal;font-weight:400;writing-mode:lr-tb;fill:#000;fill-opacity:1;fill-rule:nonzero;stroke:none;font-family:Geneva;-inkscape-font-specification:Geneva">□</tspan></text></g><g id="g118" transform="matrix(1,0,0,-1,0,182)"><text id="text120" transform="translate(132,44)"><tspan id="tspan122" x="0 6.001 12.002" y="0" style="font-size:10px;font-variant:normal;font-weight:400;writing-mode:lr-tb;fill:#000;fill-opacity:1;fill-rule:nonzero;stroke:none;font-family:Courier New;-inkscape-font-specification:Courier">:-q</tspan></text></g><g id="g124" transform="matrix(1,0,0,-1,0,182)"><path id="path126" d="m 141.125,50 0,29.25" style="fill:none;stroke:#000;stroke-width:.25;stroke-linecap:butt;stroke-linejoin:miter;stroke-miterlimit:10;stroke-opacity:1;stroke-dasharray:none"/></g></g></g></g></g></svg>