<svg xmlns="http://www.w3.org/2000/svg" xmlns:svg="http://www.w3.org/2000/svg" id="svg2" width="425" height="93.75" version="1.1" xml:space="preserve"><defs id="defs6"><clipPath id="clipPath20"><path id="path22" d="M 0,0 340,0 340,75 0,75 0,0 z"/></clipPath><clipPath id="clipPath30"><path id="path32" d="m 0,75 340,0 0,-75.000001106673 -340,0 L 0,75 z"/></clipPath><clipPath id="clipPath36"><path id="path38" d="M 0,0 340,0 340,75 0,75 0,0 z"/></clipPath></defs><g id="g12" transform="matrix(1.25,0,0,-1.25,0,93.75)"><g id="g16"><g id="g18" clip-path="url(#clipPath20)"><path id="path24" d="M 0,75 340,75 340,0 0,0 0,75 z" style="fill:#fff;fill-opacity:0;fill-rule:evenodd;stroke:none"/></g></g><g id="g26"><g id="g28" clip-path="url(#clipPath30)"><g id="g34" clip-path="url(#clipPath36)"><g id="g40" transform="matrix(1,0,0,-1,0,75)"><text id="text42" transform="translate(2,10)"><tspan id="tspan44" x="0 6.001 12.002 18.003 24.004 30.005 36.006 42.007 48.008 54.009 60.01 66.011 72.012 78.013 84.014 90.015 96.016 102.017 108.018 114.019 120.02" y="0" style="font-size:10px;font-variant:normal;font-weight:400;writing-mode:lr-tb;fill:#000;fill-opacity:1;fill-rule:nonzero;stroke:none;font-family:Courier New;-inkscape-font-specification:Courier">has_wife:-man,married</tspan></text></g><g id="g46" transform="matrix(1,0,0,-1,0,75)"><text id="text48" transform="translate(174,10)"><tspan id="tspan50" x="0 6.001 12.002 18.003 24.004 30.005 36.006 42.007 48.008 54.009 60.01 66.011 72.012 78.013 84.014 90.015 96.016 102.017 108.018 114.019 120.02 126.021 132.022 138.023 144.024 150.025 156.026" y="0" style="font-size:10px;font-variant:normal;font-weight:400;writing-mode:lr-tb;fill:#000;fill-opacity:1;fill-rule:nonzero;stroke:none;font-family:Courier New;-inkscape-font-specification:Courier">married;bachelor:-man,adult</tspan></text></g><g id="g52" transform="matrix(1,0,0,-1,0,75)"><text id="text54" transform="translate(83,71)"><tspan id="tspan56" x="0 6.001 12.002 18.003 24.004 30.005 36.006 42.007 48.008 54.009 60.01 66.011 72.012 78.013 84.014 90.015 96.016 102.017 108.018 114.019 120.02 126.021 132.022 138.023 144.024 150.025 156.026 162.027" y="0" style="font-size:10px;font-variant:normal;font-weight:400;writing-mode:lr-tb;fill:#000;fill-opacity:1;fill-rule:nonzero;stroke:none;font-family:Courier New;-inkscape-font-specification:Courier">has_wife;bachelor:-man,adult</tspan></text></g><g id="g58" transform="matrix(1,0,0,-1,0,75)"><path id="path60" d="m 86,14.5 43,0" style="fill:none;stroke:#000;stroke-width:1;stroke-linecap:butt;stroke-linejoin:miter;stroke-miterlimit:10;stroke-opacity:1;stroke-dasharray:none"/></g><g id="g62" transform="matrix(1,0,0,-1,0,75)"><path id="path64" d="m 174,14.5 44,0" style="fill:none;stroke:#000;stroke-width:1;stroke-linecap:butt;stroke-linejoin:miter;stroke-miterlimit:10;stroke-opacity:1;stroke-dasharray:none"/></g><path id="path66" d="m 103,15 -9.92546,1.21869 c 0.34539,2.81296 1.86815,5.34727 4.1897,6.97283" style="fill:#000;fill-opacity:1;fill-rule:evenodd;stroke:none"/><path id="path68" d="m 28,60 0.25,0 71,-43 0,-0.25 -0.25,0 -71,43" style="fill:#000;fill-opacity:1;fill-rule:nonzero;stroke:none"/><path id="path70" d="m 201,16 -9.9619,-0.87156 c -0.2471,2.82331 0.7155,5.61882 2.6484,7.69154" style="fill:#000;fill-opacity:1;fill-rule:evenodd;stroke:none"/><path id="path72" d="m 72,61 0.25,0 125,-44 0,-0.25 -0.25,0 -125,44" style="fill:#000;fill-opacity:1;fill-rule:nonzero;stroke:none"/><path id="path74" d="m 152,15 6.4279,7.66045 c 2.171,-1.82172 3.4671,-4.4791 3.566,-7.31145" style="fill:#000;fill-opacity:1;fill-rule:evenodd;stroke:none"/><path id="path76" d="m 244,61 0.25,0 0,-0.25 -88,-44 -0.25,0 0,0.25" style="fill:#000;fill-opacity:1;fill-rule:nonzero;stroke:none"/><path id="path78" d="m 209,15 6.0181,7.98635 c 2.2634,-1.70559 3.6968,-4.29149 3.9438,-7.11479" style="fill:#000;fill-opacity:1;fill-rule:evenodd;stroke:none"/><path id="path80" d="m 292,61 0.25,0 0,-0.25 -79,-44 -0.25,0 0,0.25" style="fill:#000;fill-opacity:1;fill-rule:nonzero;stroke:none"/><path id="path82" d="m 237,15 6.0181,7.98635 c 2.2634,-1.70559 3.6968,-4.29149 3.9438,-7.11479" style="fill:#000;fill-opacity:1;fill-rule:evenodd;stroke:none"/><path id="path84" d="m 320,61 0.25,0 0,-0.25 -79,-44 -0.25,0 0,0.25" style="fill:#000;fill-opacity:1;fill-rule:nonzero;stroke:none"/></g></g></g></g></svg>