<svg xmlns="http://www.w3.org/2000/svg" xmlns:svg="http://www.w3.org/2000/svg" id="svg2" width="283.75" height="168.75" version="1.1" xml:space="preserve"><defs id="defs6"><clipPath id="clipPath20"><path id="path22" d="M 0,0 227,0 227,135 0,135 0,0 z"/></clipPath><clipPath id="clipPath30"><path id="path32" d="m 0,135 227,0 0,-135.000001992012 -227,0 L 0,135 z"/></clipPath><clipPath id="clipPath36"><path id="path38" d="M 0,0 227,0 227,135 0,135 0,0 z"/></clipPath></defs><g id="g12" transform="matrix(1.25,0,0,-1.25,0,168.75)"><g id="g16"><g id="g18" clip-path="url(#clipPath20)"><path id="path24" d="M 0,135 227,135 227,0 0,0 0,135 z" style="fill:#fff;fill-opacity:0;fill-rule:evenodd;stroke:none"/></g></g><g id="g26"><g id="g28" clip-path="url(#clipPath30)"><g id="g34" clip-path="url(#clipPath36)"><path id="path40" d="m 59,85 47,0 0,-84.000002 -47,0 L 59,85 z" style="fill:#efefef;fill-opacity:1;fill-rule:nonzero;stroke:none"/><g id="g42" transform="matrix(1,0,0,-1,0,135)"><path id="path44" d="m 59.5,50.5 46,0 0,83 -46,0 0,-83 z" style="fill:none;stroke:#fff;stroke-width:1;stroke-linecap:butt;stroke-linejoin:miter;stroke-miterlimit:10;stroke-opacity:1;stroke-dasharray:none"/></g><path id="path46" d="m 117,124 109,0 0,-46 -109,0 0,46 z" style="fill:#efefef;fill-opacity:1;fill-rule:nonzero;stroke:none"/><g id="g48" transform="matrix(1,0,0,-1,0,135)"><path id="path50" d="m 117.5,11.5 108,0 0,45 -108,0 0,-45 z" style="fill:none;stroke:#fff;stroke-width:1;stroke-linecap:butt;stroke-linejoin:miter;stroke-miterlimit:10;stroke-opacity:1;stroke-dasharray:none"/></g><g id="g52" transform="matrix(1,0,0,-1,0,135)"><text id="text54" transform="translate(119,47)"><tspan id="tspan56" x="0 6.001 12.002 18.003 24.004 30.005 36.006 42.007 48.008 54.009 60.01 66.011 72.012 78.013 84.014 90.015" y="0" style="font-size:10px;font-variant:normal;font-weight:400;writing-mode:lr-tb;fill:#000;fill-opacity:1;fill-rule:nonzero;stroke:none;font-family:Courier New;-inkscape-font-specification:Courier">:-mother(john,C)</tspan></text></g><g id="g58" transform="matrix(1,0,0,-1,0,135)"><text id="text60" transform="translate(58,9)"><tspan id="tspan62" x="0 6.001 12.002 18.003 24.004 30.005 36.006 42.007 48.008 54.009 60.01 66.011 72.012 78.013 84.014 90.015" y="0" style="font-size:10px;font-variant:normal;font-weight:400;writing-mode:lr-tb;fill:#000;fill-opacity:1;fill-rule:nonzero;stroke:none;font-family:Courier New;-inkscape-font-specification:Courier">?-parent(john,C)</tspan></text></g><path id="path64" d="m 76,123 0.25,0 0,-0.25 -20,-22 -0.25,0 0,0.25" style="fill:#000;fill-opacity:1;fill-rule:nonzero;stroke:none"/><path id="path66" d="m 130,123 0.25,0 20,-22 0,-0.25 -0.25,0 -20,22" style="fill:#000;fill-opacity:1;fill-rule:nonzero;stroke:none"/><g id="g68" transform="matrix(1,0,0,-1,0,135)"><text id="text70" transform="translate(-1,47)"><tspan id="tspan72" x="0 6.001 12.002 18.003 24.004 30.005 36.006 42.007 48.008 54.009 60.01 66.011 72.012 78.013 84.014 90.015 96.016 102.017" y="0" style="font-size:10px;font-variant:normal;font-weight:400;writing-mode:lr-tb;fill:#000;fill-opacity:1;fill-rule:nonzero;stroke:none;font-family:Courier New;-inkscape-font-specification:Courier">:-father(john,C),!</tspan></text></g><g id="g74" transform="matrix(1,0,0,-1,0,135)"><path id="path76" d="m 132,51.5 75,0" style="fill:none;stroke:#000;stroke-width:1;stroke-linecap:butt;stroke-linejoin:miter;stroke-miterlimit:10;stroke-opacity:1;stroke-dasharray:none"/></g><g id="g78" transform="matrix(1,0,0,-1,0,135)"><path id="path80" d="m 26.125,93 0,23.25" style="fill:none;stroke:#000;stroke-width:.25;stroke-linecap:butt;stroke-linejoin:miter;stroke-miterlimit:10;stroke-opacity:1;stroke-dasharray:none"/></g><g id="g82" transform="matrix(1,0,0,-1,0,135)"><text id="text84" transform="translate(23,127)"><tspan id="tspan86" x="-2.5" y="2.5" style="font-size:20px;font-variant:normal;font-weight:400;writing-mode:lr-tb;fill:#000;fill-opacity:1;fill-rule:nonzero;stroke:none;font-family:Geneva;-inkscape-font-specification:Geneva">□</tspan></text></g><g id="g88" transform="matrix(1,0,0,-1,0,135)"><text id="text90" transform="translate(13,87)"><tspan id="tspan92" x="0 6.001 12.002" y="0" style="font-size:10px;font-variant:normal;font-weight:400;writing-mode:lr-tb;fill:#000;fill-opacity:1;fill-rule:nonzero;stroke:none;font-family:Courier New;-inkscape-font-specification:Courier">:-!</tspan></text></g><path id="path94" d="m 45,83 0.25,0 0,-0.25 -20,-22 -0.25,0 0,0.25" style="fill:#000;fill-opacity:1;fill-rule:nonzero;stroke:none"/><g id="g96" transform="matrix(1,0,0,-1,0,135)"><path id="path98" d="m 86.12501,93 0,23.25" style="fill:none;stroke:#000;stroke-width:.25;stroke-linecap:butt;stroke-linejoin:miter;stroke-miterlimit:10;stroke-opacity:1;stroke-dasharray:none"/></g><g id="g100" transform="matrix(1,0,0,-1,0,135)"><text id="text102" transform="translate(83,127)"><tspan id="tspan104" x="-2.5" y="2.5" style="font-size:20px;font-variant:normal;font-weight:400;writing-mode:lr-tb;fill:#000;fill-opacity:1;fill-rule:nonzero;stroke:none;font-family:Geneva;-inkscape-font-specification:Geneva">□</tspan></text></g><g id="g106" transform="matrix(1,0,0,-1,0,135)"><text id="text108" transform="translate(73,87)"><tspan id="tspan110" x="0 6.001 12.002" y="0" style="font-size:10px;font-variant:normal;font-weight:400;writing-mode:lr-tb;fill:#000;fill-opacity:1;fill-rule:nonzero;stroke:none;font-family:Courier New;-inkscape-font-specification:Courier">:-!</tspan></text></g><path id="path112" d="m 64,83 0.25,0 20,-22 0,-0.25 -0.25,0 -20,22" style="fill:#000;fill-opacity:1;fill-rule:nonzero;stroke:none"/></g></g></g></g></svg>