<svg xmlns="http://www.w3.org/2000/svg" xmlns:svg="http://www.w3.org/2000/svg" id="svg2" width="213.75" height="222.5" version="1.1" xml:space="preserve"><defs id="defs6"><clipPath id="clipPath20"><path id="path22" d="M 0,0 171,0 171,178 0,178 0,0 z"/></clipPath><clipPath id="clipPath30"><path id="path32" d="m 0,178 171,0 0,-178.000002626504 -171,0 L 0,178 z"/></clipPath><clipPath id="clipPath36"><path id="path38" d="M 0,0 171,0 171,178 0,178 0,0 z"/></clipPath></defs><g id="g12" transform="matrix(1.25,0,0,-1.25,0,222.5)"><g id="g16"><g id="g18" clip-path="url(#clipPath20)"><path id="path24" d="M 0,178 171,178 171,0 0,0 0,178 z" style="fill:#fff;fill-opacity:0;fill-rule:evenodd;stroke:none"/></g></g><g id="g26"><g id="g28" clip-path="url(#clipPath30)"><g id="g34" clip-path="url(#clipPath36)"><g id="g40" transform="matrix(1,0,0,-1,0,178)"><text id="text42" transform="translate(45,150)"><tspan id="tspan44" x="0" y="0" style="font-size:10px;font-variant:normal;font-weight:400;writing-mode:lr-tb;fill:#000;fill-opacity:1;fill-rule:nonzero;stroke:none;font-family:Courier New;-inkscape-font-specification:Courier">•</tspan></text></g><g id="g46" transform="matrix(1,0,0,-1,0,178)"><text id="text48" transform="translate(45,162)"><tspan id="tspan50" x="0" y="0" style="font-size:10px;font-variant:normal;font-weight:400;writing-mode:lr-tb;fill:#000;fill-opacity:1;fill-rule:nonzero;stroke:none;font-family:Courier New;-inkscape-font-specification:Courier">•</tspan></text></g><g id="g52" transform="matrix(1,0,0,-1,0,178)"><text id="text54" transform="translate(45,174)"><tspan id="tspan56" x="0" y="0" style="font-size:10px;font-variant:normal;font-weight:400;writing-mode:lr-tb;fill:#000;fill-opacity:1;fill-rule:nonzero;stroke:none;font-family:Courier New;-inkscape-font-specification:Courier">•</tspan></text></g><g id="g58" transform="matrix(1,0,0,-1,0,178)"><text id="text60" transform="translate(105,151)"><tspan id="tspan62" x="-2" y="0" style="font-size:20px;font-variant:normal;font-weight:400;writing-mode:lr-tb;fill:#000;fill-opacity:1;fill-rule:nonzero;stroke:none;font-family:Geneva;-inkscape-font-specification:Geneva">□</tspan></text></g><g id="g64" transform="matrix(1,0,0,-1,0,178)"><text id="text66" transform="translate(14,80)"><tspan id="tspan68" x="0 6.001 12.002 18.003 24.004 30.005 36.006 42.007 48.008 54.009 60.01 66.011 72.012 78.013 84.014 90.015 96.016 102.017 108.018 114.019 120.02" y="0" style="font-size:10px;font-variant:normal;font-weight:400;writing-mode:lr-tb;fill:#000;fill-opacity:1;fill-rule:nonzero;stroke:none;font-family:Courier New;-inkscape-font-specification:Courier">:-brother_of(peter,B)</tspan></text></g><g id="g70" transform="matrix(1,0,0,-1,0,178)"><path id="path72" d="m 68.125,84 0,19.25" style="fill:none;stroke:#000;stroke-width:.25;stroke-linecap:butt;stroke-linejoin:miter;stroke-miterlimit:10;stroke-opacity:1;stroke-dasharray:none"/></g><path id="path74" d="m 65,63 0.25,0 0,-0.25 -26,-25 -0.25,0 0,0.25" style="fill:#000;fill-opacity:1;fill-rule:nonzero;stroke:none"/><g id="g76" transform="matrix(1,0,0,-1,0,178)"><text id="text78" transform="translate(15,112)"><tspan id="tspan80" x="0 6.001 12.002 18.003 24.004 30.005 36.006 42.007 48.008 54.009 60.01 66.011 72.012 78.013 84.014 90.015 96.016 102.017 108.018 114.019 120.02" y="0" style="font-size:10px;font-variant:normal;font-weight:400;writing-mode:lr-tb;fill:#000;fill-opacity:1;fill-rule:nonzero;stroke:none;font-family:Courier New;-inkscape-font-specification:Courier">:-brother_of(B,peter)</tspan></text></g><path id="path82" d="m 74,63 0.25,0 25,-25 0,-0.25 -0.25,0 -25,25" style="fill:#000;fill-opacity:1;fill-rule:nonzero;stroke:none"/><g id="g84" transform="matrix(1,0,0,-1,0,178)"><text id="text86" transform="translate(150,82)"><tspan id="tspan88" x="-2" y="0" style="font-size:20px;font-variant:normal;font-weight:400;writing-mode:lr-tb;fill:#000;fill-opacity:1;fill-rule:nonzero;stroke:none;font-family:Geneva;-inkscape-font-specification:Geneva">□</tspan></text></g><g id="g90" transform="matrix(1,0,0,-1,0,178)"><text id="text92" transform="translate(44,12)"><tspan id="tspan94" x="0 6.001 12.002 18.003 24.004 30.005 36.006 42.007 48.008 54.009 60.01 66.011 72.012 78.013 84.014 90.015 96.016 102.017 108.018 114.019 120.02" y="0" style="font-size:10px;font-variant:normal;font-weight:400;writing-mode:lr-tb;fill:#000;fill-opacity:1;fill-rule:nonzero;stroke:none;font-family:Courier New;-inkscape-font-specification:Courier">?-brother_of(peter,B)</tspan></text></g><g id="g96" transform="matrix(1,0,0,-1,0,178)"><path id="path98" d="m 97.12501,16 0,19.25" style="fill:none;stroke:#000;stroke-width:.25;stroke-linecap:butt;stroke-linejoin:miter;stroke-miterlimit:10;stroke-opacity:1;stroke-dasharray:none"/></g><path id="path100" d="m 94,132 0.25,0 0,-0.25 -26,-26 -0.25,0 0,0.25" style="fill:#000;fill-opacity:1;fill-rule:nonzero;stroke:none"/><g id="g102" transform="matrix(1,0,0,-1,0,178)"><text id="text104" transform="translate(43,43)"><tspan id="tspan106" x="0 6.001 12.002 18.003 24.004 30.005 36.006 42.007 48.008 54.009 60.01 66.011 72.012 78.013 84.014 90.015 96.016 102.017 108.018 114.019 120.02" y="0" style="font-size:10px;font-variant:normal;font-weight:400;writing-mode:lr-tb;fill:#000;fill-opacity:1;fill-rule:nonzero;stroke:none;font-family:Courier New;-inkscape-font-specification:Courier">:-brother_of(B,peter)</tspan></text></g><path id="path108" d="m 117,132 0.25,0 26,-26 0,-0.25 -0.25,0 -26,26" style="fill:#000;fill-opacity:1;fill-rule:nonzero;stroke:none"/></g></g></g></g></svg>