<svg xmlns="http://www.w3.org/2000/svg" xmlns:svg="http://www.w3.org/2000/svg" id="svg2" width="548.75" height="213.75" version="1.1" xml:space="preserve"><defs id="defs6"><clipPath id="clipPath20"><path id="path22" d="M 0,0 439,0 439,171 0,171 0,0 z"/></clipPath><clipPath id="clipPath30"><path id="path32" d="m 0,171 439,0 0,-171.000002523215 -439,0 L 0,171 z"/></clipPath><clipPath id="clipPath36"><path id="path38" d="M 0,0 439,0 439,171 0,171 0,0 z"/></clipPath></defs><g id="g12" transform="matrix(1.25,0,0,-1.25,0,213.75)"><g id="g16"><g id="g18" clip-path="url(#clipPath20)"><path id="path24" d="M 0,171 439,171 439,0 0,0 0,171 z" style="fill:#fff;fill-opacity:0;fill-rule:evenodd;stroke:none"/></g></g><g id="g26"><g id="g28" clip-path="url(#clipPath30)"><g id="g34" clip-path="url(#clipPath36)"><g id="g40" transform="matrix(1,0,0,-1,0,171)"><text id="text42" transform="translate(350,167)"><tspan id="tspan44" x="-2" y="0" style="font-size:20px;font-variant:normal;font-weight:400;writing-mode:lr-tb;fill:#000;fill-opacity:1;fill-rule:nonzero;stroke:none;font-family:Geneva;-inkscape-font-specification:Geneva">□</tspan></text></g><g id="g46" transform="matrix(1,0,0,-1,0,171)"><text id="text48" transform="translate(134,62)"><tspan id="tspan50" x="0 6.001 12.002 18.003 24.004 30.005 36.006 42.007 48.008 54.009 60.01 66.011 72.012 78.013 84.014 90.015 96.016 102.017 108.018 114.019 120.02 126.021 132.022 138.023 144.024 150.025 156.026 162.027 168.028 174.029 180.03" y="0" style="font-size:10px;font-variant:normal;font-weight:400;writing-mode:lr-tb;fill:#000;fill-opacity:1;fill-rule:nonzero;stroke:none;font-family:Courier New;-inkscape-font-specification:Courier">:-follows(S,C),teaches(peter,C)</tspan></text></g><g id="g52" transform="matrix(1,0,0,-1,0,171)"><text id="text54" transform="translate(137,138)"><tspan id="tspan56" x="0 6.001 12.002 18.003 24.004 30.005 36.006 42.007 48.008 54.009 60.01 66.011 72.012 78.013 84.014 90.015 96.016 102.017 108.018 114.019 120.02 126.021 132.022 138.023 144.024 150.025 156.026 162.027 168.028 174.029 180.03" y="0" style="font-size:10px;font-variant:normal;font-weight:400;writing-mode:lr-tb;fill:#000;fill-opacity:1;fill-rule:nonzero;stroke:none;font-family:Courier New;-inkscape-font-specification:Courier">:-teaches(peter,expert_systems)</tspan></text></g><g id="g58" transform="matrix(1,0,0,-1,0,171)"><text id="text60" transform="translate(161,10)"><tspan id="tspan62" x="0 6.001 12.002 18.003 24.004 30.005 36.006 42.007 48.008 54.009 60.01 66.011 72.012 78.013 84.014 90.015 96.016 102.017 108.018 114.019 120.02" y="0" style="font-size:10px;font-variant:normal;font-weight:400;writing-mode:lr-tb;fill:#000;fill-opacity:1;fill-rule:nonzero;stroke:none;font-family:Courier New;-inkscape-font-specification:Courier">?-student_of(S,peter)</tspan></text></g><g id="g64" transform="matrix(1,0,0,-1,0,171)"><text id="text66" transform="translate(3,107)"><tspan id="tspan68" x="0 6.001 12.002 18.003 24.004 30.005 36.006 42.007 48.008 54.009 60.01 66.011 72.012 78.013 84.014 90.015 96.016 102.017 108.018 114.019 120.02 126.021 132.022 138.023 144.024 150.025 156.026 162.027 168.028 174.029 180.03 186.031 192.032" y="0" style="font-size:10px;font-variant:normal;font-weight:400;writing-mode:lr-tb;fill:#000;fill-opacity:1;fill-rule:nonzero;stroke:none;font-family:Courier New;-inkscape-font-specification:Courier">:-teaches(peter,computer_science)</tspan></text></g><g id="g70" transform="matrix(1,0,0,-1,0,171)"><text id="text72" transform="translate(255,106)"><tspan id="tspan74" x="0 6.001 12.002 18.003 24.004 30.005 36.006 42.007 48.008 54.009 60.01 66.011 72.012 78.013 84.014 90.015 96.016 102.017 108.018 114.019 120.02 126.021 132.022 138.023 144.024 150.025 156.026 162.027 168.028 174.029" y="0" style="font-size:10px;font-variant:normal;font-weight:400;writing-mode:lr-tb;fill:#000;fill-opacity:1;fill-rule:nonzero;stroke:none;font-family:Courier New;-inkscape-font-specification:Courier">:-teaches(peter,ai_techniques)</tspan></text></g><g id="g76" transform="matrix(1,0,0,-1,0,171)"><path id="path78" d="m 217.125,15 0,34.25" style="fill:none;stroke:#000;stroke-width:.25;stroke-linecap:butt;stroke-linejoin:miter;stroke-miterlimit:10;stroke-opacity:1;stroke-dasharray:none"/></g><g id="g80" transform="matrix(1,0,0,-1,0,171)"><path id="path82" d="m 217.125,69 0,58.25" style="fill:none;stroke:#000;stroke-width:.25;stroke-linecap:butt;stroke-linejoin:miter;stroke-miterlimit:10;stroke-opacity:1;stroke-dasharray:none"/></g><g id="g84" transform="matrix(1,0,0,-1,0,171)"><path id="path86" d="m 94.12501,112 0,40.25" style="fill:none;stroke:#000;stroke-width:.25;stroke-linecap:butt;stroke-linejoin:miter;stroke-miterlimit:10;stroke-opacity:1;stroke-dasharray:none"/></g><g id="g88" transform="matrix(1,0,0,-1,0,171)"><path id="path90" d="m 353.125,112 0,40.25" style="fill:none;stroke:#000;stroke-width:.25;stroke-linecap:butt;stroke-linejoin:miter;stroke-miterlimit:10;stroke-opacity:1;stroke-dasharray:none"/></g><g id="g92" transform="matrix(1,0,0,-1,0,171)"><text id="text94" transform="translate(91,167)"><tspan id="tspan96" x="-2" y="0" style="font-size:20px;font-variant:normal;font-weight:400;writing-mode:lr-tb;fill:#000;fill-opacity:1;fill-rule:nonzero;stroke:none;font-family:Geneva;-inkscape-font-specification:Geneva">□</tspan></text></g><g id="g98" transform="matrix(1,0,0,-1,0,171)"><path id="path100" d="m 160,142 125,0" style="fill:none;stroke:#000;stroke-width:2;stroke-linecap:butt;stroke-linejoin:miter;stroke-miterlimit:10;stroke-opacity:1;stroke-dasharray:none"/></g><path id="path102" d="m 156,105 0.25,0 0,-0.25 -61,-30 -0.25,0 0,0.25" style="fill:#000;fill-opacity:1;fill-rule:nonzero;stroke:none"/><path id="path104" d="m 287,106 0.25,0 61,-30 0,-0.25 -0.25,0 -61,30" style="fill:#000;fill-opacity:1;fill-rule:nonzero;stroke:none"/></g></g></g></g></svg>