<svg xmlns="http://www.w3.org/2000/svg" xmlns:svg="http://www.w3.org/2000/svg" id="svg2" width="315" height="252.5" version="1.1" xml:space="preserve"><defs id="defs6"><clipPath id="clipPath20"><path id="path22" d="M 0,0 252,0 252,202 0,202 0,0 z"/></clipPath><clipPath id="clipPath30"><path id="path32" d="m 0,202 252,0 0,-202.00000298064 -252,0 L 0,202 z"/></clipPath><clipPath id="clipPath36"><path id="path38" d="M 0,0 252,0 252,202 0,202 0,0 z"/></clipPath></defs><g id="g12" transform="matrix(1.25,0,0,-1.25,0,252.5)"><g id="g16"><g id="g18" clip-path="url(#clipPath20)"><path id="path24" d="M 0,202 252,202 252,0 0,0 0,202 z" style="fill:#fff;fill-opacity:0;fill-rule:evenodd;stroke:none"/></g></g><g id="g26"><g id="g28" clip-path="url(#clipPath30)"><g id="g34" clip-path="url(#clipPath36)"><g id="g40" transform="matrix(1,0,0,-1,0,202)"><text id="text42" transform="translate(61,11)"><tspan id="tspan44" x="0" y="0" style="font-size:10px;font-variant:normal;font-weight:400;writing-mode:lr-tb;fill:#000;fill-opacity:1;fill-rule:nonzero;stroke:none;font-family:Courier New;-inkscape-font-specification:Courier">.</tspan></text></g><g id="g46" transform="matrix(1,0,0,-1,0,202)"><text id="text48" transform="translate(4,74)"><tspan id="tspan50" x="0" y="0" style="font-size:10px;font-variant:normal;font-weight:400;writing-mode:lr-tb;fill:#000;fill-opacity:1;fill-rule:nonzero;stroke:none;font-family:Courier New;-inkscape-font-specification:Courier">a</tspan></text></g><g id="g52" transform="matrix(1,0,0,-1,0,202)"><text id="text54" transform="translate(67,137)"><tspan id="tspan56" x="0" y="0" style="font-size:10px;font-variant:normal;font-weight:400;writing-mode:lr-tb;fill:#000;fill-opacity:1;fill-rule:nonzero;stroke:none;font-family:Courier New;-inkscape-font-specification:Courier">b</tspan></text></g><g id="g58" transform="matrix(1,0,0,-1,0,202)"><text id="text60" transform="translate(121,74)"><tspan id="tspan62" x="0" y="0" style="font-size:10px;font-variant:normal;font-weight:400;writing-mode:lr-tb;fill:#000;fill-opacity:1;fill-rule:nonzero;stroke:none;font-family:Courier New;-inkscape-font-specification:Courier">.</tspan></text></g><path id="path64" d="m 68,185 0.25,0 45,-45 0,-0.25 -0.25,0 -45,45" style="fill:#000;fill-opacity:1;fill-rule:nonzero;stroke:none"/><path id="path66" d="m 59,185 0.25,0 0,-0.25 -45,-45 -0.25,0 0,0.25" style="fill:#000;fill-opacity:1;fill-rule:nonzero;stroke:none"/><path id="path68" d="m 131,122 0.25,0 45,-45 0,-0.25 -0.25,0 -45,45" style="fill:#000;fill-opacity:1;fill-rule:nonzero;stroke:none"/><path id="path70" d="m 122,122 0.25,0 0,-0.25 -45,-45 -0.25,0 0,0.25" style="fill:#000;fill-opacity:1;fill-rule:nonzero;stroke:none"/><g id="g72" transform="matrix(1,0,0,-1,0,202)"><text id="text74" transform="translate(181,134)"><tspan id="tspan76" x="0" y="0" style="font-size:10px;font-variant:normal;font-weight:400;writing-mode:lr-tb;fill:#000;fill-opacity:1;fill-rule:nonzero;stroke:none;font-family:Courier New;-inkscape-font-specification:Courier">.</tspan></text></g><g id="g78" transform="matrix(1,0,0,-1,0,202)"><text id="text80" transform="translate(235,198)"><tspan id="tspan82" x="0 6.001" y="0" style="font-size:10px;font-variant:normal;font-weight:400;writing-mode:lr-tb;fill:#000;fill-opacity:1;fill-rule:nonzero;stroke:none;font-family:Courier New;-inkscape-font-specification:Courier">[]</tspan></text></g><path id="path84" d="m 191,62 0.25,0 45,-45 0,-0.25 -0.25,0 -45,45" style="fill:#000;fill-opacity:1;fill-rule:nonzero;stroke:none"/><path id="path86" d="m 182,62 0.25,0 0,-0.25 -45,-45 -0.25,0 0,0.25" style="fill:#000;fill-opacity:1;fill-rule:nonzero;stroke:none"/><g id="g88" transform="matrix(1,0,0,-1,0,202)"><text id="text90" transform="translate(135,197)"><tspan id="tspan92" x="0" y="0" style="font-size:10px;font-variant:normal;font-weight:400;writing-mode:lr-tb;fill:#000;fill-opacity:1;fill-rule:nonzero;stroke:none;font-family:Courier New;-inkscape-font-specification:Courier">c</tspan></text></g></g></g></g></g></svg>