<svg xmlns="http://www.w3.org/2000/svg" xmlns:svg="http://www.w3.org/2000/svg" id="svg2" width="247.5" height="365" version="1.1" xml:space="preserve"><defs id="defs6"><clipPath id="clipPath20"><path id="path22" d="M 0,0 198,0 198,292 0,292 0,0 z"/></clipPath><clipPath id="clipPath30"><path id="path32" d="m 0,292 198,0 0,-292.000004308647 -198,0 L 0,292 z"/></clipPath><clipPath id="clipPath36"><path id="path38" d="M 0,0 198,0 198,292 0,292 0,0 z"/></clipPath></defs><g id="g12" transform="matrix(1.25,0,0,-1.25,0,365)"><g id="g16"><g id="g18" clip-path="url(#clipPath20)"><path id="path24" d="M 0,292 198,292 198,0 0,0 0,292 z" style="fill:#fff;fill-opacity:0;fill-rule:evenodd;stroke:none"/></g></g><g id="g26"><g id="g28" clip-path="url(#clipPath30)"><g id="g34" clip-path="url(#clipPath36)"><path id="path40" d="m 86,131 81,0 0,-130.0000043 -81,0 L 86,131 z" style="fill:#efefef;fill-opacity:1;fill-rule:nonzero;stroke:none"/><g id="g42" transform="matrix(1,0,0,-1,0,292)"><path id="path44" d="m 86.5,161.5 80,0 0,129 -80,0 0,-129 z" style="fill:none;stroke:#fff;stroke-width:1;stroke-linecap:butt;stroke-linejoin:miter;stroke-miterlimit:10;stroke-opacity:1;stroke-dasharray:none"/></g><g id="g46" transform="matrix(1,0,0,-1,0,292)"><text id="text48" transform="translate(147,116)"><tspan id="tspan50" x="0 6.001 12.002 18.003 24.004 30.005 36.006 42.007" y="0" style="font-size:10px;font-variant:normal;font-weight:400;writing-mode:lr-tb;fill:#000;fill-opacity:1;fill-rule:nonzero;stroke:none;font-family:Courier New;-inkscape-font-specification:Courier">:-r(X,Y)</tspan></text></g><g id="g52" transform="matrix(1,0,0,-1,0,292)"><text id="text54" transform="translate(103,78)"><tspan id="tspan56" x="0 6.001 12.002 18.003 24.004 30.005 36.006 42.007" y="0" style="font-size:10px;font-variant:normal;font-weight:400;writing-mode:lr-tb;fill:#000;fill-opacity:1;fill-rule:nonzero;stroke:none;font-family:Courier New;-inkscape-font-specification:Courier">?-p(X,Y)</tspan></text></g><path id="path58" d="m 98,210 0.25,0 0,-0.25 -20,-22 -0.25,0 0,0.25" style="fill:#000;fill-opacity:1;fill-rule:nonzero;stroke:none"/><path id="path60" d="m 152,210 0.25,0 20,-22 0,-0.25 -0.25,0 -20,22" style="fill:#000;fill-opacity:1;fill-rule:nonzero;stroke:none"/><g id="g62" transform="matrix(1,0,0,-1,0,292)"><text id="text64" transform="translate(53,115)"><tspan id="tspan66" x="0 6.001 12.002 18.003 24.004 30.005 36.006 42.007" y="0" style="font-size:10px;font-variant:normal;font-weight:400;writing-mode:lr-tb;fill:#000;fill-opacity:1;fill-rule:nonzero;stroke:none;font-family:Courier New;-inkscape-font-specification:Courier">:-q(X,Y)</tspan></text></g><g id="g68" transform="matrix(1,0,0,-1,0,292)"><path id="path70" d="m 77.125,121 0,23.25" style="fill:none;stroke:#000;stroke-width:.25;stroke-linecap:butt;stroke-linejoin:miter;stroke-miterlimit:10;stroke-opacity:1;stroke-dasharray:none"/></g><g id="g72" transform="matrix(1,0,0,-1,0,292)"><text id="text74" transform="translate(38,156)"><tspan id="tspan76" x="0 6.001 12.002 18.003 24.004 30.005 36.006 42.007 48.008 54.009 60.01 66.011 72.012" y="0" style="font-size:10px;font-variant:normal;font-weight:400;writing-mode:lr-tb;fill:#000;fill-opacity:1;fill-rule:nonzero;stroke:none;font-family:Courier New;-inkscape-font-specification:Courier">:-s(X),!,t(Y)</tspan></text></g><g id="g78" transform="matrix(1,0,0,-1,0,292)"><text id="text80" transform="translate(171,157)"><tspan id="tspan82" x="-3.5" y=".75" style="font-size:20px;font-variant:normal;font-weight:400;writing-mode:lr-tb;fill:#000;fill-opacity:1;fill-rule:nonzero;stroke:none;font-family:Geneva;-inkscape-font-specification:Geneva">□</tspan></text></g><g id="g84" transform="matrix(1,0,0,-1,0,292)"><path id="path86" d="m 173.125,121 0,23.25" style="fill:none;stroke:#000;stroke-width:.25;stroke-linecap:butt;stroke-linejoin:miter;stroke-miterlimit:10;stroke-opacity:1;stroke-dasharray:none"/></g><path id="path88" d="m 49,128 0.25,0 0,-0.25 -20,-22 -0.25,0 0,0.25" style="fill:#000;fill-opacity:1;fill-rule:nonzero;stroke:none"/><path id="path90" d="m 103,128 0.25,0 20,-22 0,-0.25 -0.25,0 -20,22" style="fill:#000;fill-opacity:1;fill-rule:nonzero;stroke:none"/><g id="g92" transform="matrix(1,0,0,-1,0,292)"><text id="text94" transform="translate(7,198)"><tspan id="tspan96" x="0 6.001 12.002 18.003 24.004 30.005 36.006 42.007" y="0" style="font-size:10px;font-variant:normal;font-weight:400;writing-mode:lr-tb;fill:#000;fill-opacity:1;fill-rule:nonzero;stroke:none;font-family:Courier New;-inkscape-font-specification:Courier">:-!,t(Y)</tspan></text></g><g id="g98" transform="matrix(1,0,0,-1,0,292)"><text id="text100" transform="translate(14,241)"><tspan id="tspan102" x="0 6.001 12.002 18.003 24.004 30.005" y="0" style="font-size:10px;font-variant:normal;font-weight:400;writing-mode:lr-tb;fill:#000;fill-opacity:1;fill-rule:nonzero;stroke:none;font-family:Courier New;-inkscape-font-specification:Courier">:-t(Y)</tspan></text></g><g id="g104" transform="matrix(1,0,0,-1,0,292)"><path id="path106" d="m 31.125,205 0,23.25" style="fill:none;stroke:#000;stroke-width:.25;stroke-linecap:butt;stroke-linejoin:miter;stroke-miterlimit:10;stroke-opacity:1;stroke-dasharray:none"/></g><path id="path108" d="m 25,45 0.25,0 0,-0.25 -20,-22 -0.25,0 0,0.25" style="fill:#000;fill-opacity:1;fill-rule:nonzero;stroke:none"/><path id="path110" d="m 39,45 0.25,0 20,-22 0,-0.25 -0.25,0 -20,22" style="fill:#000;fill-opacity:1;fill-rule:nonzero;stroke:none"/><g id="g112" transform="matrix(1,0,0,-1,0,292)"><text id="text114" transform="translate(2,282)"><tspan id="tspan116" x="-3.5" y=".75" style="font-size:20px;font-variant:normal;font-weight:400;writing-mode:lr-tb;fill:#000;fill-opacity:1;fill-rule:nonzero;stroke:none;font-family:Geneva;-inkscape-font-specification:Geneva">□</tspan></text></g><g id="g118" transform="matrix(1,0,0,-1,0,292)"><text id="text120" transform="translate(56,282)"><tspan id="tspan122" x="-2.5" y=".75" style="font-size:20px;font-variant:normal;font-weight:400;writing-mode:lr-tb;fill:#000;fill-opacity:1;fill-rule:nonzero;stroke:none;font-family:Geneva;-inkscape-font-specification:Geneva">□</tspan></text></g><g id="g124" transform="matrix(1,0,0,-1,0,292)"><text id="text126" transform="translate(100,198)"><tspan id="tspan128" x="0 6.001 12.002 18.003 24.004 30.005 36.006 42.007" y="0" style="font-size:10px;font-variant:normal;font-weight:400;writing-mode:lr-tb;fill:#000;fill-opacity:1;fill-rule:nonzero;stroke:none;font-family:Courier New;-inkscape-font-specification:Courier">:-!,t(Y)</tspan></text></g><g id="g130" transform="matrix(1,0,0,-1,0,292)"><text id="text132" transform="translate(107,241)"><tspan id="tspan134" x="0 6.001 12.002 18.003 24.004 30.005" y="0" style="font-size:10px;font-variant:normal;font-weight:400;writing-mode:lr-tb;fill:#000;fill-opacity:1;fill-rule:nonzero;stroke:none;font-family:Courier New;-inkscape-font-specification:Courier">:-t(Y)</tspan></text></g><g id="g136" transform="matrix(1,0,0,-1,0,292)"><path id="path138" d="m 124.125,205 0,23.25" style="fill:none;stroke:#000;stroke-width:.25;stroke-linecap:butt;stroke-linejoin:miter;stroke-miterlimit:10;stroke-opacity:1;stroke-dasharray:none"/></g><path id="path140" d="m 118,45 0.25,0 0,-0.25 -20,-22 -0.25,0 0,0.25" style="fill:#000;fill-opacity:1;fill-rule:nonzero;stroke:none"/><path id="path142" d="m 132,45 0.25,0 20,-22 0,-0.25 -0.25,0 -20,22" style="fill:#000;fill-opacity:1;fill-rule:nonzero;stroke:none"/><g id="g144" transform="matrix(1,0,0,-1,0,292)"><text id="text146" transform="translate(95,282)"><tspan id="tspan148" x="-3.5" y=".75" style="font-size:20px;font-variant:normal;font-weight:400;writing-mode:lr-tb;fill:#000;fill-opacity:1;fill-rule:nonzero;stroke:none;font-family:Geneva;-inkscape-font-specification:Geneva">□</tspan></text></g><g id="g150" transform="matrix(1,0,0,-1,0,292)"><text id="text152" transform="translate(149,282)"><tspan id="tspan154" x="-2.5" y=".75" style="font-size:20px;font-variant:normal;font-weight:400;writing-mode:lr-tb;fill:#000;fill-opacity:1;fill-rule:nonzero;stroke:none;font-family:Geneva;-inkscape-font-specification:Geneva">□</tspan></text></g><g id="g156" transform="matrix(1,0,0,-1,0,292)"><text id="text158" transform="translate(11,12)"><tspan id="tspan160" x="0 6.001 12.002 18.003 24.004 30.005 36.006 42.007 48.008 54.009 60.01 66.011 72.012 78.013 84.014" y="0" style="font-size:10px;font-variant:normal;font-weight:400;writing-mode:lr-tb;fill:#000;fill-opacity:1;fill-rule:nonzero;stroke:none;font-family:Courier New;-inkscape-font-specification:Courier">p(X,Y):-q(X,Y).</tspan></text></g><g id="g162" transform="matrix(1,0,0,-1,0,292)"><text id="text164" transform="translate(11,24)"><tspan id="tspan166" x="0 6.001 12.002 18.003 24.004 30.005 36.006 42.007 48.008 54.009 60.01 66.011 72.012 78.013 84.014" y="0" style="font-size:10px;font-variant:normal;font-weight:400;writing-mode:lr-tb;fill:#000;fill-opacity:1;fill-rule:nonzero;stroke:none;font-family:Courier New;-inkscape-font-specification:Courier">p(X,Y):-r(X,Y).</tspan></text></g><g id="g168" transform="matrix(1,0,0,-1,0,292)"><text id="text170" transform="translate(11,48)"><tspan id="tspan172" x="0 6.001 12.002 18.003 24.004 30.005 36.006 42.007 48.008 54.009 60.01 66.011 72.012 78.013 84.014 90.015 96.016 102.017 108.018 114.019" y="0" style="font-size:10px;font-variant:normal;font-weight:400;writing-mode:lr-tb;fill:#000;fill-opacity:1;fill-rule:nonzero;stroke:none;font-family:Courier New;-inkscape-font-specification:Courier">q(X,Y):-s(X),!,t(X).</tspan></text></g></g></g></g></g></svg>