<svg xmlns="http://www.w3.org/2000/svg" xmlns:svg="http://www.w3.org/2000/svg" id="svg2" width="335" height="175" version="1.1" xml:space="preserve"><defs id="defs6"><clipPath id="clipPath20"><path id="path22" d="M 0,0 268,0 268,140 0,140 0,0 z"/></clipPath><clipPath id="clipPath30"><path id="path32" d="m 0,140 268,0 0,-140.00000206579 -268,0 L 0,140 z"/></clipPath><clipPath id="clipPath36"><path id="path38" d="M 0,0 268,0 268,140 0,140 0,0 z"/></clipPath></defs><g id="g12" transform="matrix(1.25,0,0,-1.25,0,175)"><g id="g16"><g id="g18" clip-path="url(#clipPath20)"><path id="path24" d="M 0,140 268,140 268,0 0,0 0,140 z" style="fill:#fff;fill-opacity:0;fill-rule:evenodd;stroke:none"/></g></g><g id="g26"><g id="g28" clip-path="url(#clipPath30)"><g id="g34" clip-path="url(#clipPath36)"><g id="g40" transform="matrix(1,0,0,-1,0,140)"><text id="text42" transform="translate(101,10)"><tspan id="tspan44" x="0 6.001 12.002 18.003 24.004" y="0" style="font-size:10px;font-variant:normal;font-weight:400;writing-mode:lr-tb;fill:#000;fill-opacity:1;fill-rule:nonzero;stroke:none;font-family:Courier New;-inkscape-font-specification:Courier">route</tspan></text></g><g id="g46" transform="matrix(1,0,0,-1,0,140)"><text id="text48" transform="translate(2,73)"><tspan id="tspan50" x="0 6.001 12.002 18.003 24.004 30.005 36.006 42.007 48.008 54.009 60.01 66.011 72.012 78.013 84.014 90.015 96.016 102.017 108.018 114.019" y="0" style="font-size:10px;font-variant:normal;font-weight:400;writing-mode:lr-tb;fill:#000;fill-opacity:1;fill-rule:nonzero;stroke:none;font-family:Courier New;-inkscape-font-specification:Courier">tottenham_court_road</tspan></text></g><g id="g52" transform="matrix(1,0,0,-1,0,140)"><text id="text54" transform="translate(77,136)"><tspan id="tspan56" x="0 6.001 12.002 18.003 24.004 30.005 36.006 42.007 48.008 54.009 60.01 66.011 72.012 78.013 84.014 90.015" y="0" style="font-size:10px;font-variant:normal;font-weight:400;writing-mode:lr-tb;fill:#000;fill-opacity:1;fill-rule:nonzero;stroke:none;font-family:Courier New;-inkscape-font-specification:Courier">leicester_square</tspan></text></g><g id="g58" transform="matrix(1,0,0,-1,0,140)"><text id="text60" transform="translate(164,73)"><tspan id="tspan62" x="0 6.001 12.002 18.003 24.004" y="0" style="font-size:10px;font-variant:normal;font-weight:400;writing-mode:lr-tb;fill:#000;fill-opacity:1;fill-rule:nonzero;stroke:none;font-family:Courier New;-inkscape-font-specification:Courier">route</tspan></text></g><g id="g64" transform="matrix(1,0,0,-1,0,140)"><text id="text66" transform="translate(221,136)"><tspan id="tspan68" x="0 6.001 12.002 18.003 24.004 30.005 36.006" y="0" style="font-size:10px;font-variant:normal;font-weight:400;writing-mode:lr-tb;fill:#000;fill-opacity:1;fill-rule:nonzero;stroke:none;font-family:Courier New;-inkscape-font-specification:Courier">noroute</tspan></text></g><path id="path70" d="m 125,124 0.25,0 45,-45 0,-0.25 -0.25,0 -45,45" style="fill:#000;fill-opacity:1;fill-rule:nonzero;stroke:none"/><path id="path72" d="m 116,124 0.25,0 0,-0.25 -45,-45 -0.25,0 0,0.25" style="fill:#000;fill-opacity:1;fill-rule:nonzero;stroke:none"/><path id="path74" d="m 188,61 0.25,0 45,-45 0,-0.25 -0.25,0 -45,45" style="fill:#000;fill-opacity:1;fill-rule:nonzero;stroke:none"/><path id="path76" d="m 179,61 0.25,0 0,-0.25 -45,-45 -0.25,0 0,0.25" style="fill:#000;fill-opacity:1;fill-rule:nonzero;stroke:none"/></g></g></g></g></svg>