<svg xmlns="http://www.w3.org/2000/svg" xmlns:svg="http://www.w3.org/2000/svg" id="svg2" width="545" height="245" version="1.1" xml:space="preserve"><defs id="defs6"><clipPath id="clipPath20"><path id="path22" d="M 0,0 436,0 436,196 0,196 0,0 z"/></clipPath><clipPath id="clipPath30"><path id="path32" d="m 0,196 436,0 0,-196.000002892106 -436,0 L 0,196 z"/></clipPath><clipPath id="clipPath36"><path id="path38" d="M 0,0 436,0 436,196 0,196 0,0 z"/></clipPath></defs><g id="g12" transform="matrix(1.25,0,0,-1.25,0,245)"><g id="g16"><g id="g18" clip-path="url(#clipPath20)"><path id="path24" d="M 0,196 436,196 436,0 0,0 0,196 z" style="fill:#fff;fill-opacity:0;fill-rule:evenodd;stroke:none"/></g></g><g id="g26"><g id="g28" clip-path="url(#clipPath30)"><g id="g34" clip-path="url(#clipPath36)"><g id="g40" transform="matrix(1,0,0,-1,0,196)"><text id="text42" transform="translate(3,10)"><tspan id="tspan44" x="0 6.001 12.002 18.003 24.004 30.005 36.006 42.007 48.008 54.009 60.01 66.011 72.012 78.013 84.014 90.015" y="0" style="font-size:10px;font-variant:normal;font-weight:400;writing-mode:lr-tb;fill:#000;fill-opacity:1;fill-rule:nonzero;stroke:none;font-family:Courier New;-inkscape-font-specification:Courier">:-likes(peter,N)</tspan></text></g><g id="g46" transform="matrix(1,0,0,-1,0,196)"><text id="text48" transform="translate(225,10)"><tspan id="tspan50" x="0 6.001 12.002 18.003 24.004 30.005 36.006 42.007 48.008 54.009 60.01 66.011 72.012 78.013 84.014 90.015 96.016 102.017 108.018 114.019 120.02 126.021 132.022 138.023 144.024 150.025 156.026 162.027 168.028 174.029 180.03 186.031 192.032 198.033 204.034" y="0" style="font-size:10px;font-variant:normal;font-weight:400;writing-mode:lr-tb;fill:#000;fill-opacity:1;fill-rule:nonzero;stroke:none;font-family:Courier New;-inkscape-font-specification:Courier">likes(peter,S):-student_of(S,peter)</tspan></text></g><g id="g52" transform="matrix(1,0,0,-1,0,196)"><text id="text54" transform="translate(182,53)"><tspan id="tspan56" x="0 6.001 12.002 18.003 24.004 30.005 36.006 42.007 48.008 54.009 60.01 66.011 72.012 78.013 84.014 90.015 96.016 102.017 108.018 114.019 120.02 126.021 132.022 138.023 144.024 150.025 156.026 162.027 168.028 174.029 180.03 186.031 192.032 198.033 204.034 210.035 216.036 222.037 228.038 234.039 240.04 246.041" y="0" style="font-size:10px;font-variant:normal;font-weight:400;writing-mode:lr-tb;fill:#000;fill-opacity:1;fill-rule:nonzero;stroke:none;font-family:Courier New;-inkscape-font-specification:Courier">student_of(S,T):-follows(S,C),teaches(T,C)</tspan></text></g><g id="g58" transform="matrix(1,0,0,-1,0,196)"><text id="text60" transform="translate(267,98)"><tspan id="tspan62" x="0 6.001 12.002 18.003 24.004 30.005 36.006 42.007 48.008 54.009 60.01 66.011 72.012 78.013 84.014 90.015 96.016 102.017 108.018 114.019 120.02 126.021 132.022 138.023 144.024 150.025 156.026 162.027" y="0" style="font-size:10px;font-variant:normal;font-weight:400;writing-mode:lr-tb;fill:#000;fill-opacity:1;fill-rule:nonzero;stroke:none;font-family:Courier New;-inkscape-font-specification:Courier">follows(maria,ai_techniques)</tspan></text></g><g id="g64" transform="matrix(1,0,0,-1,0,196)"><text id="text66" transform="translate(267,143)"><tspan id="tspan68" x="0 6.001 12.002 18.003 24.004 30.005 36.006 42.007 48.008 54.009 60.01 66.011 72.012 78.013 84.014 90.015 96.016 102.017 108.018 114.019 120.02 126.021 132.022 138.023 144.024 150.025 156.026 162.027" y="0" style="font-size:10px;font-variant:normal;font-weight:400;writing-mode:lr-tb;fill:#000;fill-opacity:1;fill-rule:nonzero;stroke:none;font-family:Courier New;-inkscape-font-specification:Courier">teaches(peter,ai_techniques)</tspan></text></g><g id="g70" transform="matrix(1,0,0,-1,0,196)"><text id="text72" transform="translate(2,52)"><tspan id="tspan74" x="0 6.001 12.002 18.003 24.004 30.005 36.006 42.007 48.008 54.009 60.01 66.011 72.012 78.013 84.014 90.015 96.016 102.017 108.018 114.019 120.02" y="0" style="font-size:10px;font-variant:normal;font-weight:400;writing-mode:lr-tb;fill:#000;fill-opacity:1;fill-rule:nonzero;stroke:none;font-family:Courier New;-inkscape-font-specification:Courier">:-student_of(N,peter)</tspan></text></g><g id="g76" transform="matrix(1,0,0,-1,0,196)"><text id="text78" transform="translate(3,99)"><tspan id="tspan80" x="0 6.001 12.002 18.003 24.004 30.005 36.006 42.007 48.008 54.009 60.01 66.011 72.012 78.013 84.014 90.015 96.016 102.017 108.018 114.019 120.02 126.021 132.022 138.023 144.024 150.025 156.026 162.027 168.028 174.029 180.03" y="0" style="font-size:10px;font-variant:normal;font-weight:400;writing-mode:lr-tb;fill:#000;fill-opacity:1;fill-rule:nonzero;stroke:none;font-family:Courier New;-inkscape-font-specification:Courier">:-follows(N,C),teaches(peter,C)</tspan></text></g><g id="g82" transform="matrix(1,0,0,-1,0,196)"><text id="text84" transform="translate(3,143)"><tspan id="tspan86" x="0 6.001 12.002 18.003 24.004 30.005 36.006 42.007 48.008 54.009 60.01 66.011 72.012 78.013 84.014 90.015 96.016 102.017 108.018 114.019 120.02 126.021 132.022 138.023 144.024 150.025 156.026 162.027 168.028 174.029" y="0" style="font-size:10px;font-variant:normal;font-weight:400;writing-mode:lr-tb;fill:#000;fill-opacity:1;fill-rule:nonzero;stroke:none;font-family:Courier New;-inkscape-font-specification:Courier">:-teaches(peter,ai_techniques)</tspan></text></g><g id="g88" transform="matrix(1,0,0,-1,0,196)"><text id="text90" transform="translate(63,192)"><tspan id="tspan92" x="-1" y="0" style="font-size:20px;font-variant:normal;font-weight:400;writing-mode:lr-tb;fill:#000;fill-opacity:1;fill-rule:nonzero;stroke:none;font-family:Geneva;-inkscape-font-specification:Geneva">□</tspan></text></g><g id="g94" transform="matrix(1,0,0,-1,0,196)"><path id="path96" d="m 63.125,13 0,28.25" style="fill:none;stroke:#000;stroke-width:.25;stroke-linecap:butt;stroke-linejoin:miter;stroke-miterlimit:10;stroke-opacity:1;stroke-dasharray:none"/></g><g id="g98" transform="matrix(1,0,0,-1,0,196)"><path id="path100" d="m 63.125,58 0,29.25" style="fill:none;stroke:#000;stroke-width:.25;stroke-linecap:butt;stroke-linejoin:miter;stroke-miterlimit:10;stroke-opacity:1;stroke-dasharray:none"/></g><g id="g102" transform="matrix(1,0,0,-1,0,196)"><path id="path104" d="m 63.125,104 0,28.25" style="fill:none;stroke:#000;stroke-width:.25;stroke-linecap:butt;stroke-linejoin:miter;stroke-miterlimit:10;stroke-opacity:1;stroke-dasharray:none"/></g><g id="g106" transform="matrix(1,0,0,-1,0,196)"><path id="path108" d="m 63.125,149 0,28.25" style="fill:none;stroke:#000;stroke-width:.25;stroke-linecap:butt;stroke-linejoin:miter;stroke-miterlimit:10;stroke-opacity:1;stroke-dasharray:none"/></g><path id="path110" d="m 270,183 0.25,0 0,-0.25 -195,-27 -0.25,0 0,0.25" style="fill:#000;fill-opacity:1;fill-rule:nonzero;stroke:none"/><path id="path112" d="m 269,136 0.25,0 0,-0.25 -195,-27 -0.25,0 0,0.25" style="fill:#000;fill-opacity:1;fill-rule:nonzero;stroke:none"/><path id="path114" d="m 268,92 0.25,0 0,-0.25 -195,-27 -0.25,0 0,0.25" style="fill:#000;fill-opacity:1;fill-rule:nonzero;stroke:none"/><path id="path116" d="m 267,45 0.25,0 0,-0.25 -195,-27 -0.25,0 0,0.25" style="fill:#000;fill-opacity:1;fill-rule:nonzero;stroke:none"/><g id="g118" transform="matrix(1,0,0,-1,0,196)"><text id="text120" transform="translate(220,30)"><tspan id="tspan122" x="0 6.001 12.002 18.003 24.004 30.005" y="0" style="font-size:10px;font-variant:normal;font-weight:400;writing-mode:lr-tb;fill:#000;fill-opacity:1;fill-rule:nonzero;stroke:none;font-family:Courier New;-inkscape-font-specification:Courier">{S-&gt;N}</tspan></text></g><g id="g124" transform="matrix(1,0,0,-1,0,196)"><text id="text126" transform="translate(219,77)"><tspan id="tspan128" x="0 6.001 12.002 18.003 24.004 30.005 36.006 42.007 48.008 54.009 60.01 66.011 72.012 78.013 84.014" y="0" style="font-size:10px;font-variant:normal;font-weight:400;writing-mode:lr-tb;fill:#000;fill-opacity:1;fill-rule:nonzero;stroke:none;font-family:Courier New;-inkscape-font-specification:Courier">{S-&gt;N,T-&gt;peter}</tspan></text></g><g id="g130" transform="matrix(1,0,0,-1,0,196)"><text id="text132" transform="translate(220,123)"><tspan id="tspan134" x="0 6.001 12.002 18.003 24.004 30.005 36.006 42.007 48.008 54.009 60.01 66.011 72.012 78.013 84.014 90.015 96.016 102.017 108.018 114.019 120.02 126.021 132.022 138.023 144.024 150.025 156.026" y="0" style="font-size:10px;font-variant:normal;font-weight:400;writing-mode:lr-tb;fill:#000;fill-opacity:1;fill-rule:nonzero;stroke:none;font-family:Courier New;-inkscape-font-specification:Courier">{N-&gt;maria,C-&gt;ai_techniques}</tspan></text></g></g></g></g></g></svg>