<svg xmlns="http://www.w3.org/2000/svg" xmlns:svg="http://www.w3.org/2000/svg" id="svg2" width="586.25" height="416.25" version="1.1" xml:space="preserve"><defs id="defs6"><clipPath id="clipPath20"><path id="path22" d="M 0,0 469,0 469,333 0,333 0,0 z"/></clipPath><clipPath id="clipPath30"><path id="path32" d="m 0,333 469,0 0,-333.000004913629 -469,0 L 0,333 z"/></clipPath><clipPath id="clipPath36"><path id="path38" d="M 0,0 469,0 469,333 0,333 0,0 z"/></clipPath><clipPath id="clipPath248"><path id="path250" d="m 0,333 469,0 0,-333.000004913629 -469,0 L 0,333 z"/></clipPath><clipPath id="clipPath254"><path id="path256" d="m 3,24.99999 98,0 0,20 -98,0 0,-20 z"/></clipPath></defs><g id="g12" transform="matrix(1.25,0,0,-1.25,0,416.25)"><g id="g16"><g id="g18" clip-path="url(#clipPath20)"><path id="path24" d="M 0,333 469,333 469,0 0,0 0,333 z" style="fill:#fff;fill-opacity:0;fill-rule:evenodd;stroke:none"/></g></g><g id="g26"><g id="g28" clip-path="url(#clipPath30)"><g id="g34" clip-path="url(#clipPath36)"><path id="path40" d="m 68,259 6,0 135,-135 0,-6 -6,0 -135,135" style="fill:#dfdfdf;fill-opacity:1;fill-rule:nonzero;stroke:none"/><g id="g42" transform="matrix(1,0,0,-1,0,333)"><path id="path44" d="m 203,211 115,0" style="fill:none;stroke:#dfdfdf;stroke-width:8;stroke-linecap:butt;stroke-linejoin:miter;stroke-miterlimit:10;stroke-opacity:1;stroke-dasharray:none"/></g><g id="g46" transform="matrix(1,0,0,-1,0,333)"><path id="path48" d="m 71,19 0,62" style="fill:none;stroke:#dfdfdf;stroke-width:8;stroke-linecap:butt;stroke-linejoin:miter;stroke-miterlimit:10;stroke-opacity:1;stroke-dasharray:none"/></g><g id="g50" transform="matrix(1,0,0,-1,0,333)"><path id="path52" d="m 49,77 377,0" style="fill:none;stroke:#202020;stroke-width:8;stroke-linecap:butt;stroke-linejoin:miter;stroke-miterlimit:10;stroke-opacity:1;stroke-dasharray:none"/></g><g id="g54" transform="matrix(1,0,0,-1,0,333)"><path id="path56" d="m 314,19 0,233" style="fill:none;stroke:#000;stroke-width:8;stroke-linecap:butt;stroke-linejoin:miter;stroke-miterlimit:10;stroke-opacity:1;stroke-dasharray:none"/></g><path id="path58" d="m 229,314 6,0 0,-6 -81,-81 -6,0 0,6" style="fill:#bfbfbf;fill-opacity:1;fill-rule:nonzero;stroke:none"/><g id="g60" transform="matrix(1,0,0,-1,0,333)"><path id="path62" d="m 152,100 0,152" style="fill:none;stroke:#bfbfbf;stroke-width:8;stroke-linecap:butt;stroke-linejoin:miter;stroke-miterlimit:10;stroke-opacity:1;stroke-dasharray:none"/></g><path id="path64" d="m 176,259 6,0 164,-165.00001 0,-6 -6,0 L 176,253" style="fill:#404040;fill-opacity:1;fill-rule:nonzero;stroke:none"/><g id="g66" transform="matrix(1,0,0,-1,0,333)"><path id="path68" d="m 179,19 0,62" style="fill:none;stroke:#404040;stroke-width:8;stroke-linecap:butt;stroke-linejoin:miter;stroke-miterlimit:10;stroke-opacity:1;stroke-dasharray:none"/></g><g id="g70" transform="matrix(1,0,0,-1,0,333)"><path id="path72" d="m 94,158 278,0" style="fill:none;stroke:gray;stroke-width:8;stroke-linecap:butt;stroke-linejoin:miter;stroke-miterlimit:10;stroke-opacity:1;stroke-dasharray:none"/></g><path id="path74" d="m 94,179 6,0 0,-6 -45,-45 -6,0 0,6" style="fill:gray;fill-opacity:1;fill-rule:nonzero;stroke:none"/><path id="path76" d="m 411,222 6,0 0,-6 -45,-45 -6,0 0,6" style="fill:gray;fill-opacity:1;fill-rule:nonzero;stroke:none"/><path id="path78" d="m 78,256.5 c 0,-4.1421 -3.35786,-7.5 -7.5,-7.5 -4.14214,0 -7.5,3.3579 -7.5,7.5 0,4.1422 3.35786,7.5 7.5,7.5 4.14214,0 7.5,-3.3578 7.5,-7.5" style="fill:#fff;fill-opacity:1;fill-rule:evenodd;stroke:none"/><g id="g80" transform="matrix(1,0,0,-1,0,333)"><path id="path82" d="M 78,76.5 C 78,80.64214 74.64214,84 70.5,84 66.35786,84 63,80.64214 63,76.5 63,72.35785 66.35786,69 70.5,69 c 4.14214,0 7.5,3.35785 7.5,7.5 z" style="fill:none;stroke:#000;stroke-width:4;stroke-linecap:butt;stroke-linejoin:miter;stroke-miterlimit:10;stroke-opacity:1;stroke-dasharray:none"/></g><path id="path84" d="m 186,256.5 c 0,-4.1421 -3.3579,-7.5 -7.5,-7.5 -4.1421,0 -7.5,3.3579 -7.5,7.5 0,4.1422 3.3579,7.5 7.5,7.5 4.1421,0 7.5,-3.3578 7.5,-7.5" style="fill:#fff;fill-opacity:1;fill-rule:evenodd;stroke:none"/><g id="g86" transform="matrix(1,0,0,-1,0,333)"><path id="path88" d="m 186,76.5 c 0,4.14214 -3.3579,7.5 -7.5,7.5 -4.1421,0 -7.5,-3.35786 -7.5,-7.5 0,-4.14215 3.3579,-7.5 7.5,-7.5 4.1421,0 7.5,3.35785 7.5,7.5 z" style="fill:none;stroke:#000;stroke-width:4;stroke-linecap:butt;stroke-linejoin:miter;stroke-miterlimit:10;stroke-opacity:1;stroke-dasharray:none"/></g><path id="path90" d="m 322,256.5 c 0,-4.1421 -3.3578,-7.5 -7.5,-7.5 -4.1422,0 -7.5,3.3579 -7.5,7.5 0,4.1422 3.3578,7.5 7.5,7.5 4.1422,0 7.5,-3.3578 7.5,-7.5" style="fill:#fff;fill-opacity:1;fill-rule:evenodd;stroke:none"/><g id="g92" transform="matrix(1,0,0,-1,0,333)"><path id="path94" d="m 322,76.5 c 0,4.14214 -3.3578,7.5 -7.5,7.5 -4.1422,0 -7.5,-3.35786 -7.5,-7.5 0,-4.14215 3.3578,-7.5 7.5,-7.5 4.1422,0 7.5,3.35785 7.5,7.5 z" style="fill:none;stroke:#000;stroke-width:4;stroke-linecap:butt;stroke-linejoin:miter;stroke-miterlimit:10;stroke-opacity:1;stroke-dasharray:none"/></g><path id="path96" d="m 160,175.5 c 0,-4.1421 -3.3579,-7.5 -7.5,-7.5 -4.1421,0 -7.5,3.3579 -7.5,7.5 0,4.1421 3.3579,7.5 7.5,7.5 4.1421,0 7.5,-3.3579 7.5,-7.5" style="fill:#fff;fill-opacity:1;fill-rule:evenodd;stroke:none"/><g id="g98" transform="matrix(1,0,0,-1,0,333)"><path id="path100" d="m 160,157.5 c 0,4.1421 -3.3579,7.5 -7.5,7.5 -4.1421,0 -7.5,-3.3579 -7.5,-7.5 0,-4.1421 3.3579,-7.5 7.5,-7.5 4.1421,0 7.5,3.3579 7.5,7.5 z" style="fill:none;stroke:#000;stroke-width:4;stroke-linecap:butt;stroke-linejoin:miter;stroke-miterlimit:10;stroke-opacity:1;stroke-dasharray:none"/></g><path id="path102" d="m 322,122.5 c 0,-4.1421 -3.3578,-7.5 -7.5,-7.5 -4.1422,0 -7.5,3.3579 -7.5,7.5 0,4.1421 3.3578,7.5 7.5,7.5 4.1422,0 7.5,-3.3579 7.5,-7.5" style="fill:#fff;fill-opacity:1;fill-rule:evenodd;stroke:none"/><g id="g104" transform="matrix(1,0,0,-1,0,333)"><path id="path106" d="m 322,210.5 c 0,4.1421 -3.3578,7.5 -7.5,7.5 -4.1422,0 -7.5,-3.3579 -7.5,-7.5 0,-4.1421 3.3578,-7.5 7.5,-7.5 4.1422,0 7.5,3.3579 7.5,7.5 z" style="fill:none;stroke:#000;stroke-width:4;stroke-linecap:butt;stroke-linejoin:miter;stroke-miterlimit:10;stroke-opacity:1;stroke-dasharray:none"/></g><path id="path108" d="m 322,175.5 c 0,-4.1421 -3.3578,-7.5 -7.5,-7.5 -4.1422,0 -7.5,3.3579 -7.5,7.5 0,4.1421 3.3578,7.5 7.5,7.5 4.1422,0 7.5,-3.3579 7.5,-7.5" style="fill:#fff;fill-opacity:1;fill-rule:evenodd;stroke:none"/><g id="g110" transform="matrix(1,0,0,-1,0,333)"><path id="path112" d="m 322,157.5 c 0,4.1421 -3.3578,7.5 -7.5,7.5 -4.1422,0 -7.5,-3.3579 -7.5,-7.5 0,-4.1421 3.3578,-7.5 7.5,-7.5 4.1422,0 7.5,3.3579 7.5,7.5 z" style="fill:none;stroke:#000;stroke-width:4;stroke-linecap:butt;stroke-linejoin:miter;stroke-miterlimit:10;stroke-opacity:1;stroke-dasharray:none"/></g><path id="path114" d="m 268,175.5 c 0,-4.1421 -3.3578,-7.5 -7.5,-7.5 -4.1422,0 -7.5,3.3579 -7.5,7.5 0,4.1421 3.3578,7.5 7.5,7.5 4.1422,0 7.5,-3.3579 7.5,-7.5" style="fill:#fff;fill-opacity:1;fill-rule:evenodd;stroke:none"/><g id="g116" transform="matrix(1,0,0,-1,0,333)"><path id="path118" d="m 268,157.5 c 0,4.1421 -3.3578,7.5 -7.5,7.5 -4.1422,0 -7.5,-3.3579 -7.5,-7.5 0,-4.1421 3.3578,-7.5 7.5,-7.5 4.1422,0 7.5,3.3579 7.5,7.5 z" style="fill:none;stroke:#000;stroke-width:4;stroke-linecap:butt;stroke-linejoin:miter;stroke-miterlimit:10;stroke-opacity:1;stroke-dasharray:none"/></g><g id="g120" transform="matrix(1,0,0,-1,0,333)"><text id="text122" transform="translate(44.97461,95)"><tspan id="tspan124" x="0 8.004 14.678 21.353" y="0" style="font-size:12px;font-variant:normal;font-weight:400;writing-mode:lr-tb;fill:#000;fill-opacity:1;fill-rule:nonzero;stroke:none;font-family:Helvetica;-inkscape-font-specification:Helvetica">Bond</tspan></text></g><g id="g126" transform="matrix(1,0,0,-1,0,333)"><text id="text128" transform="translate(40,109)"><tspan id="tspan130" x="0 8.004 11.338 15.334 22.008 28.682" y="0" style="font-size:12px;font-variant:normal;font-weight:400;writing-mode:lr-tb;fill:#000;fill-opacity:1;fill-rule:nonzero;stroke:none;font-family:Helvetica;-inkscape-font-specification:Helvetica">Street</tspan></text></g><g id="g132" transform="matrix(1,0,0,-1,0,333)"><text id="text134" transform="translate(109,174)"><tspan id="tspan136" x="0 9.246 13.152 19.734 26.316" y="0" style="font-size:12px;font-variant:normal;font-weight:400;writing-mode:lr-tb;fill:#000;fill-opacity:1;fill-rule:nonzero;stroke:none;font-family:Helvetica;-inkscape-font-specification:Helvetica">Green</tspan></text></g><g id="g138" transform="matrix(1,0,0,-1,0,333)"><text id="text140" transform="translate(118,188)"><tspan id="tspan142" x="0 7.112 12.893 15.997" y="0" style="font-size:12px;font-variant:normal;font-weight:400;writing-mode:lr-tb;fill:#000;fill-opacity:1;fill-rule:nonzero;stroke:none;font-family:Helvetica;-inkscape-font-specification:Helvetica">Park</tspan></text></g><g id="g144" transform="matrix(1,0,0,-1,0,333)"><text id="text146" transform="translate(135,50)"><tspan id="tspan148" x="0 9.334 15.334 18.667 25.342 29.338" y="0" style="font-size:12px;font-variant:normal;font-weight:400;writing-mode:lr-tb;fill:#000;fill-opacity:1;fill-rule:nonzero;stroke:none;font-family:Helvetica;-inkscape-font-specification:Helvetica">Oxford</tspan></text></g><g id="g150" transform="matrix(1,0,0,-1,0,333)"><text id="text152" transform="translate(136,64)"><tspan id="tspan154" x="0 8.266 10.531 14.129 19.73 26.004" y="0" style="font-size:12px;font-variant:normal;font-weight:400;writing-mode:lr-tb;fill:#000;fill-opacity:1;fill-rule:nonzero;stroke:none;font-family:Helvetica;-inkscape-font-specification:Helvetica">Circus</tspan></text></g><g id="g156" transform="matrix(1,0,0,-1,0,333)"><text id="text158" transform="translate(204,174)"><tspan id="tspan160" x="0 7.558 9.775 15.329 20.882 27.108 33.334 35.551 37.769 39.986" y="0" style="font-size:12px;font-variant:normal;font-weight:400;writing-mode:lr-tb;fill:#000;fill-opacity:1;fill-rule:nonzero;stroke:none;font-family:Helvetica;-inkscape-font-specification:Helvetica">Piccadilly</tspan></text></g><g id="g162" transform="matrix(1,0,0,-1,0,333)"><text id="text164" transform="translate(221,188)"><tspan id="tspan166" x="0 8.266 10.531 14.129 19.73 26.004" y="0" style="font-size:12px;font-variant:normal;font-weight:400;writing-mode:lr-tb;fill:#000;fill-opacity:1;fill-rule:nonzero;stroke:none;font-family:Helvetica;-inkscape-font-specification:Helvetica">Circus</tspan></text></g><g id="g168" transform="matrix(1,0,0,-1,0,333)"><text id="text170" transform="translate(265,229)"><tspan id="tspan172" x="0 8.329 14.666 21.004 24.665 26.994 33.331" y="0" style="font-size:12px;font-variant:normal;font-weight:400;writing-mode:lr-tb;fill:#000;fill-opacity:1;fill-rule:nonzero;stroke:none;font-family:Helvetica;-inkscape-font-specification:Helvetica">Charing</tspan></text></g><g id="g174" transform="matrix(1,0,0,-1,0,333)"><text id="text176" transform="translate(277.6641,243)"><tspan id="tspan178" x="0 8.666 12.662 19.337 25.337" y="0" style="font-size:12px;font-variant:normal;font-weight:400;writing-mode:lr-tb;fill:#000;fill-opacity:1;fill-rule:nonzero;stroke:none;font-family:Helvetica;-inkscape-font-specification:Helvetica">Cross</tspan></text></g><g id="g180" transform="matrix(1,0,0,-1,0,333)"><text id="text182" transform="translate(326,176)"><tspan id="tspan184" x="0 6.462 12.924 15.378 21.168 27.63 33.42 36.546 43.008" y="0" style="font-size:12px;font-variant:normal;font-weight:400;writing-mode:lr-tb;fill:#000;fill-opacity:1;fill-rule:nonzero;stroke:none;font-family:Helvetica;-inkscape-font-specification:Helvetica">Leicester</tspan></text></g><g id="g186" transform="matrix(1,0,0,-1,0,333)"><text id="text188" transform="translate(326,190)"><tspan id="tspan190" x="0 7.865 14.398 20.93 27.463 31.32" y="0" style="font-size:12px;font-variant:normal;font-weight:400;writing-mode:lr-tb;fill:#000;fill-opacity:1;fill-rule:nonzero;stroke:none;font-family:Helvetica;-inkscape-font-specification:Helvetica">Square</tspan></text></g><g id="g192" transform="matrix(1,0,0,-1,0,333)"><text id="text194" transform="translate(249,95)"><tspan id="tspan196" x="0 7.034 13.409 16.447 19.486 25.86 32.234 38.609 44.983" y="0" style="font-size:12px;font-variant:normal;font-weight:400;writing-mode:lr-tb;fill:#000;fill-opacity:1;fill-rule:nonzero;stroke:none;font-family:Helvetica;-inkscape-font-specification:Helvetica">Tottenham</tspan></text></g><g id="g198" transform="matrix(1,0,0,-1,0,333)"><text id="text200" transform="translate(245,109)"><tspan id="tspan202" x="0 8.626 15.259 21.893 25.85 29.148 32.446 41.071 47.705 54.338" y="0" style="font-size:12px;font-variant:normal;font-weight:400;writing-mode:lr-tb;fill:#000;fill-opacity:1;fill-rule:nonzero;stroke:none;font-family:Helvetica;-inkscape-font-specification:Helvetica">Court Road</tspan></text></g><g id="g204" transform="matrix(1,0,0,-1,0,333)"><text id="text206" transform="translate(47,11)"><tspan id="tspan208" x="0 6 14.666 22.67 26.004 32.678 40.682" y="0" style="font-size:12px;font-variant:normal;font-weight:400;writing-mode:lr-tb;fill:#000;fill-opacity:1;fill-rule:nonzero;stroke:none;font-family:Helvetica;-inkscape-font-specification:Helvetica">JUBILEE</tspan></text></g><g id="g210" transform="matrix(1,0,0,-1,0,333)"><text id="text212" transform="translate(151,11)"><tspan id="tspan214" x="0 8.004 16.008 24.012 32.016 40.682 47.357 56.69" y="0" style="font-size:12px;font-variant:normal;font-weight:400;writing-mode:lr-tb;fill:#000;fill-opacity:1;fill-rule:nonzero;stroke:none;font-family:Helvetica;-inkscape-font-specification:Helvetica">BAKERLOO</tspan></text></g><g id="g216" transform="matrix(1,0,0,-1,0,333)"><text id="text218" transform="translate(282,11)"><tspan id="tspan220" x="0 8.666 18 26.666 33.996 42.662 50.666 59.333" y="0" style="font-size:12px;font-variant:normal;font-weight:400;writing-mode:lr-tb;fill:#000;fill-opacity:1;fill-rule:nonzero;stroke:none;font-family:Helvetica;-inkscape-font-specification:Helvetica">NORTHERN</tspan></text></g><g id="g222" transform="matrix(1,0,0,-1,0,333)"><text id="text224" transform="translate(392,64)"><tspan id="tspan226" x="0 8.666 16.67 25.337 32.666 41.333 49.337" y="0" style="font-size:12px;font-variant:normal;font-weight:400;writing-mode:lr-tb;fill:#000;fill-opacity:1;fill-rule:nonzero;stroke:none;font-family:Helvetica;-inkscape-font-specification:Helvetica">CENTRAL</tspan></text></g><g id="g228" transform="matrix(1,0,0,-1,0,333)"><text id="text230" transform="translate(394,163)"><tspan id="tspan232" x="0 8.004 11.338 20.004 28.67 36.674 45.341 48.674 55.349 62.023" y="0" style="font-size:12px;font-variant:normal;font-weight:400;writing-mode:lr-tb;fill:#000;fill-opacity:1;fill-rule:nonzero;stroke:none;font-family:Helvetica;-inkscape-font-specification:Helvetica">PICCADILLY</tspan></text></g><g id="g234" transform="matrix(1,0,0,-1,0,333)"><text id="text236" transform="translate(130,271)"><tspan id="tspan238" x="0 8.004 11.338 20.004 27.334 36.667 45.334 48.667" y="0" style="font-size:12px;font-variant:normal;font-weight:400;writing-mode:lr-tb;fill:#000;fill-opacity:1;fill-rule:nonzero;stroke:none;font-family:Helvetica;-inkscape-font-specification:Helvetica">VICTORIA</tspan></text></g><g id="g240" transform="matrix(1,0,0,-1,0,333)"><path id="path242" d="M 84,296.5 C 84,313.897 69.89697,328 52.5,328 35.10303,328 21,313.897 21,296.5 21,279.103 35.10303,265 52.5,265 69.89697,265 84,279.103 84,296.5 z" style="fill:none;stroke:#000;stroke-width:8;stroke-linecap:butt;stroke-linejoin:miter;stroke-miterlimit:10;stroke-opacity:1;stroke-dasharray:none"/></g></g></g></g><g id="g244"><g id="g246" clip-path="url(#clipPath248)"><g id="g252" clip-path="url(#clipPath254)"><path id="path258" d="m 4,44 96,0 0,-16.00001 -96,0 L 4,44 z" style="fill:#000;fill-opacity:1;fill-rule:nonzero;stroke:none"/><g id="g260" transform="matrix(1,0,0,-1,0,333)"><path id="path262" d="m 4.5,289.5 95,0 0,15 -95,0 0,-15 z" style="fill:none;stroke:#000;stroke-width:1;stroke-linecap:butt;stroke-linejoin:miter;stroke-miterlimit:10;stroke-opacity:1;stroke-dasharray:none"/></g><g id="g264" transform="matrix(1,0,0,-1,0,333)"><text id="text266" transform="translate(12.5,301)"><tspan id="tspan268" x="0 7.222 14.444 21.666 28.336 35.558 43.336 50.558 58.336 65.558 72.78" y="0" style="font-size:10px;font-variant:normal;font-weight:700;writing-mode:lr-tb;fill:#fff;fill-opacity:1;fill-rule:nonzero;stroke:none;font-family:Helvetica;-inkscape-font-specification:Helvetica-Bold">UNDERGROUND</tspan></text></g></g></g></g></g></svg>