<svg xmlns="http://www.w3.org/2000/svg" xmlns:svg="http://www.w3.org/2000/svg" id="svg2" width="672.5" height="828.75" version="1.1" xml:space="preserve"><defs id="defs6"><clipPath id="clipPath20"><path id="path22" d="M 0,0 538,0 538,663 0,663 0,0 z"/></clipPath><clipPath id="clipPath30"><path id="path32" d="m 0,663 538,0 0,-663.000009782991 -538,0 L 0,663 z"/></clipPath><clipPath id="clipPath36"><path id="path38" d="M 0,0 538,0 538,663 0,663 0,0 z"/></clipPath></defs><g id="g12" transform="matrix(1.25,0,0,-1.25,0,828.75)"><g id="g16"><g id="g18" clip-path="url(#clipPath20)"><path id="path24" d="M 0,663 538,663 538,0 0,0 0,663 z" style="fill:#fff;fill-opacity:0;fill-rule:evenodd;stroke:none"/></g></g><g id="g26"><g id="g28" clip-path="url(#clipPath30)"><g id="g34" clip-path="url(#clipPath36)"><path id="path40" d="M 180,414 26,353 27,0.9999902 l 508,0 L 535,267 180,414" style="fill:#efefef;fill-opacity:1;fill-rule:evenodd;stroke:none"/><g id="g42" transform="matrix(1,0,0,-1,0,663)"><text id="text44" transform="translate(206,11)"><tspan id="tspan46" x="0 6.971 13.942 20.912 27.883 34.854 41.825 48.796" y="0" style="font-size:12px;font-variant:normal;font-weight:400;writing-mode:lr-tb;fill:#000;fill-opacity:1;fill-rule:nonzero;stroke:none;font-family:Courier New;-inkscape-font-specification:Courier">sentence</tspan></text></g><g id="g48" transform="matrix(1,0,0,-1,0,663)"><text id="text50" transform="translate(215,47)"><tspan id="tspan52" x="0 6.949 13.898 20.848 27.797" y="0" style="font-size:12px;font-variant:normal;font-weight:400;writing-mode:lr-tb;fill:#000;fill-opacity:1;fill-rule:nonzero;stroke:none;font-family:Courier New;-inkscape-font-specification:Courier">np,vp</tspan></text></g><g id="g54" transform="matrix(1,0,0,-1,0,663)"><text id="text56" transform="translate(31,92)"><tspan id="tspan58" x="0 6.949 13.898 20.848 27.797" y="0" style="font-size:12px;font-variant:normal;font-weight:400;writing-mode:lr-tb;fill:#000;fill-opacity:1;fill-rule:nonzero;stroke:none;font-family:Courier New;-inkscape-font-specification:Courier">pn,vp</tspan></text></g><g id="g60" transform="matrix(1,0,0,-1,0,663)"><text id="text62" transform="translate(201,90)"><tspan id="tspan64" x="0 6.982 13.963 20.945 27.926 34.908 41.89 48.871 55.853 62.834 69.816 76.798" y="0" style="font-size:12px;font-variant:normal;font-weight:400;writing-mode:lr-tb;fill:#000;fill-opacity:1;fill-rule:nonzero;stroke:none;font-family:Courier New;-inkscape-font-specification:Courier">art,adj,n,vp</tspan></text></g><g id="g66" transform="matrix(1,0,0,-1,0,663)"><text id="text68" transform="translate(410,91)"><tspan id="tspan70" x="0 6.971 13.942 20.912 27.883 34.854 41.825 48.796" y="0" style="font-size:12px;font-variant:normal;font-weight:400;writing-mode:lr-tb;fill:#000;fill-opacity:1;fill-rule:nonzero;stroke:none;font-family:Courier New;-inkscape-font-specification:Courier">art,n,vp</tspan></text></g><g id="g72" transform="matrix(1,0,0,-1,0,663)"><text id="text74" transform="translate(15,133)"><tspan id="tspan76" x="0 6.98 13.961 20.941 27.922 34.902 41.882 48.863 55.843 62.824 69.804" y="0" style="font-size:12px;font-variant:normal;font-weight:400;writing-mode:lr-tb;fill:#000;fill-opacity:1;fill-rule:nonzero;stroke:none;font-family:Courier New;-inkscape-font-specification:Courier">[achilles],</tspan></text></g><g id="g78" transform="matrix(1,0,0,-1,0,663)"><text id="text80" transform="translate(46,145)"><tspan id="tspan82" x="0 6.799" y="0" style="font-size:12px;font-variant:normal;font-weight:400;writing-mode:lr-tb;fill:#000;fill-opacity:1;fill-rule:nonzero;stroke:none;font-family:Courier New;-inkscape-font-specification:Courier">vp</tspan></text></g><g id="g84" transform="matrix(1,0,0,-1,0,663)"><text id="text86" transform="translate(222,133)"><tspan id="tspan88" x="0 6.96 13.92 20.88 27.84 34.8" y="0" style="font-size:12px;font-variant:normal;font-weight:400;writing-mode:lr-tb;fill:#000;fill-opacity:1;fill-rule:nonzero;stroke:none;font-family:Courier New;-inkscape-font-specification:Courier">[the],</tspan></text></g><g id="g90" transform="matrix(1,0,0,-1,0,663)"><text id="text92" transform="translate(215,145)"><tspan id="tspan94" x="0 6.971 13.942 20.912 27.883 34.854 41.825 48.796" y="0" style="font-size:12px;font-variant:normal;font-weight:400;writing-mode:lr-tb;fill:#000;fill-opacity:1;fill-rule:nonzero;stroke:none;font-family:Courier New;-inkscape-font-specification:Courier">adj,n,vp</tspan></text></g><g id="g96" transform="matrix(1,0,0,-1,0,663)"><text id="text98" transform="translate(418,135)"><tspan id="tspan100" x="0 6.96 13.92 20.88 27.84 34.8" y="0" style="font-size:12px;font-variant:normal;font-weight:400;writing-mode:lr-tb;fill:#000;fill-opacity:1;fill-rule:nonzero;stroke:none;font-family:Courier New;-inkscape-font-specification:Courier">[the],</tspan></text></g><g id="g102" transform="matrix(1,0,0,-1,0,663)"><text id="text104" transform="translate(425,147)"><tspan id="tspan106" x="0 6.932 13.865 20.797" y="0" style="font-size:12px;font-variant:normal;font-weight:400;writing-mode:lr-tb;fill:#000;fill-opacity:1;fill-rule:nonzero;stroke:none;font-family:Courier New;-inkscape-font-specification:Courier">n,vp</tspan></text></g><g id="g108" transform="matrix(1,0,0,-1,0,663)"><text id="text110" transform="translate(141,185)"><tspan id="tspan112" x="0 6.983 13.966 20.948 27.931 34.914 41.897 48.88 55.862 62.845 69.828 76.811 83.794" y="0" style="font-size:12px;font-variant:normal;font-weight:400;writing-mode:lr-tb;fill:#000;fill-opacity:1;fill-rule:nonzero;stroke:none;font-family:Courier New;-inkscape-font-specification:Courier">[the],[lazy],</tspan></text></g><g id="g114" transform="matrix(1,0,0,-1,0,663)"><text id="text116" transform="translate(172,197)"><tspan id="tspan118" x="0 6.932 13.865 20.797" y="0" style="font-size:12px;font-variant:normal;font-weight:400;writing-mode:lr-tb;fill:#000;fill-opacity:1;fill-rule:nonzero;stroke:none;font-family:Courier New;-inkscape-font-specification:Courier">n,vp</tspan></text></g><g id="g120" transform="matrix(1,0,0,-1,0,663)"><text id="text122" transform="translate(269,185)"><tspan id="tspan124" x="0 6.984 13.968 20.952 27.936 34.92 41.904 48.888 55.872 62.856 69.84 76.824 83.808 90.792" y="0" style="font-size:12px;font-variant:normal;font-weight:400;writing-mode:lr-tb;fill:#000;fill-opacity:1;fill-rule:nonzero;stroke:none;font-family:Courier New;-inkscape-font-specification:Courier">[the],[rapid],</tspan></text></g><g id="g126" transform="matrix(1,0,0,-1,0,663)"><text id="text128" transform="translate(304,197)"><tspan id="tspan130" x="0 6.932 13.865 20.797" y="0" style="font-size:12px;font-variant:normal;font-weight:400;writing-mode:lr-tb;fill:#000;fill-opacity:1;fill-rule:nonzero;stroke:none;font-family:Courier New;-inkscape-font-specification:Courier">n,vp</tspan></text></g><g id="g132" transform="matrix(1,0,0,-1,0,663)"><text id="text134" transform="translate(389,185)"><tspan id="tspan136" x="0 6.985 13.97 20.956 27.941 34.926 41.911 48.896 55.882 62.867 69.852 76.837 83.822 90.808 97.793" y="0" style="font-size:12px;font-variant:normal;font-weight:400;writing-mode:lr-tb;fill:#000;fill-opacity:1;fill-rule:nonzero;stroke:none;font-family:Courier New;-inkscape-font-specification:Courier">[the],[turtle],</tspan></text></g><g id="g138" transform="matrix(1,0,0,-1,0,663)"><text id="text140" transform="translate(434,197)"><tspan id="tspan142" x="0 6.799" y="0" style="font-size:12px;font-variant:normal;font-weight:400;writing-mode:lr-tb;fill:#000;fill-opacity:1;fill-rule:nonzero;stroke:none;font-family:Courier New;-inkscape-font-specification:Courier">vp</tspan></text></g><g id="g144" transform="matrix(1,0,0,-1,0,663)"><text id="text146" transform="translate(141,234)"><tspan id="tspan148" x="0 6.983 13.966 20.948 27.931 34.914 41.897 48.88 55.862 62.845 69.828 76.811 83.794" y="0" style="font-size:12px;font-variant:normal;font-weight:400;writing-mode:lr-tb;fill:#000;fill-opacity:1;fill-rule:nonzero;stroke:none;font-family:Courier New;-inkscape-font-specification:Courier">[the],[lazy],</tspan></text></g><g id="g150" transform="matrix(1,0,0,-1,0,663)"><text id="text152" transform="translate(148,246)"><tspan id="tspan154" x="0 6.98 13.961 20.941 27.922 34.902 41.882 48.863 55.843 62.824 69.804" y="0" style="font-size:12px;font-variant:normal;font-weight:400;writing-mode:lr-tb;fill:#000;fill-opacity:1;fill-rule:nonzero;stroke:none;font-family:Courier New;-inkscape-font-specification:Courier">[turtle],vp</tspan></text></g><g id="g156" transform="matrix(1,0,0,-1,0,663)"><text id="text158" transform="translate(274,234)"><tspan id="tspan160" x="0 6.984 13.968 20.952 27.936 34.92 41.904 48.888 55.872 62.856 69.84 76.824 83.808 90.792" y="0" style="font-size:12px;font-variant:normal;font-weight:400;writing-mode:lr-tb;fill:#000;fill-opacity:1;fill-rule:nonzero;stroke:none;font-family:Courier New;-inkscape-font-specification:Courier">[the],[rapid],</tspan></text></g><g id="g162" transform="matrix(1,0,0,-1,0,663)"><text id="text164" transform="translate(284,246)"><tspan id="tspan166" x="0 6.98 13.961 20.941 27.922 34.902 41.882 48.863 55.843 62.824 69.804" y="0" style="font-size:12px;font-variant:normal;font-weight:400;writing-mode:lr-tb;fill:#000;fill-opacity:1;fill-rule:nonzero;stroke:none;font-family:Courier New;-inkscape-font-specification:Courier">[turtle],vp</tspan></text></g><g id="g168" transform="matrix(1,0,0,-1,0,663)"><text id="text170" transform="translate(60,310)"><tspan id="tspan172" x="0 6.983 13.966 20.948 27.931 34.914 41.897 48.88 55.862 62.845 69.828 76.811 83.794" y="0" style="font-size:12px;font-variant:normal;font-weight:400;writing-mode:lr-tb;fill:#000;fill-opacity:1;fill-rule:nonzero;stroke:none;font-family:Courier New;-inkscape-font-specification:Courier">[the],[lazy],</tspan></text></g><g id="g174" transform="matrix(1,0,0,-1,0,663)"><text id="text176" transform="translate(67,322)"><tspan id="tspan178" x="0 6.98 13.961 20.941 27.922 34.902 41.882 48.863 55.843 62.824 69.804" y="0" style="font-size:12px;font-variant:normal;font-weight:400;writing-mode:lr-tb;fill:#000;fill-opacity:1;fill-rule:nonzero;stroke:none;font-family:Courier New;-inkscape-font-specification:Courier">[turtle],iv</tspan></text></g><g id="g180" transform="matrix(1,0,0,-1,0,663)"><text id="text182" transform="translate(217,311)"><tspan id="tspan184" x="0 6.983 13.966 20.948 27.931 34.914 41.897 48.88 55.862 62.845 69.828 76.811 83.794" y="0" style="font-size:12px;font-variant:normal;font-weight:400;writing-mode:lr-tb;fill:#000;fill-opacity:1;fill-rule:nonzero;stroke:none;font-family:Courier New;-inkscape-font-specification:Courier">[the],[lazy],</tspan></text></g><g id="g186" transform="matrix(1,0,0,-1,0,663)"><text id="text188" transform="translate(214,323)"><tspan id="tspan190" x="0 6.984 13.968 20.952 27.936 34.92 41.904 48.888 55.872 62.856 69.84 76.824 83.808 90.792" y="0" style="font-size:12px;font-variant:normal;font-weight:400;writing-mode:lr-tb;fill:#000;fill-opacity:1;fill-rule:nonzero;stroke:none;font-family:Courier New;-inkscape-font-specification:Courier">[turtle],tv,np</tspan></text></g><g id="g192" transform="matrix(1,0,0,-1,0,663)"><text id="text194" transform="translate(62,364)"><tspan id="tspan196" x="0 6.983 13.966 20.948 27.931 34.914 41.897 48.88 55.862 62.845 69.828 76.811 83.794" y="0" style="font-size:12px;font-variant:normal;font-weight:400;writing-mode:lr-tb;fill:#000;fill-opacity:1;fill-rule:nonzero;stroke:none;font-family:Courier New;-inkscape-font-specification:Courier">[the],[lazy],</tspan></text></g><g id="g198" transform="matrix(1,0,0,-1,0,663)"><text id="text200" transform="translate(48,376)"><tspan id="tspan202" x="0 6.988 13.975 20.963 27.95 34.938 41.926 48.913 55.901 62.888 69.876 76.864 83.851 90.839 97.826 104.814 111.802" y="0" style="font-size:12px;font-variant:normal;font-weight:400;writing-mode:lr-tb;fill:#000;fill-opacity:1;fill-rule:nonzero;stroke:none;font-family:Courier New;-inkscape-font-specification:Courier">[turtle],[sleeps]</tspan></text></g><g id="g204" transform="matrix(1,0,0,-1,0,663)"><text id="text206" transform="translate(216,363)"><tspan id="tspan208" x="0 6.983 13.966 20.948 27.931 34.914 41.897 48.88 55.862 62.845 69.828 76.811 83.794" y="0" style="font-size:12px;font-variant:normal;font-weight:400;writing-mode:lr-tb;fill:#000;fill-opacity:1;fill-rule:nonzero;stroke:none;font-family:Courier New;-inkscape-font-specification:Courier">[the],[lazy],</tspan></text></g><g id="g210" transform="matrix(1,0,0,-1,0,663)"><text id="text212" transform="translate(195,375)"><tspan id="tspan214" x="0 6.989 13.978 20.966 27.955 34.944 41.933 48.922 55.91 62.899 69.888 76.877 83.866 90.854 97.843 104.832 111.821 118.81 125.798" y="0" style="font-size:12px;font-variant:normal;font-weight:400;writing-mode:lr-tb;fill:#000;fill-opacity:1;fill-rule:nonzero;stroke:none;font-family:Courier New;-inkscape-font-specification:Courier">[turtle],[beats],np</tspan></text></g><g id="g216" transform="matrix(1,0,0,-1,0,663)"><path id="path218" d="m 233.125,15 0,20.25" style="fill:none;stroke:#000;stroke-width:.25;stroke-linecap:butt;stroke-linejoin:miter;stroke-miterlimit:10;stroke-opacity:1;stroke-dasharray:none"/></g><g id="g220" transform="matrix(1,0,0,-1,0,663)"><path id="path222" d="m 233.125,51 0,28.25" style="fill:none;stroke:#000;stroke-width:.25;stroke-linecap:butt;stroke-linejoin:miter;stroke-miterlimit:10;stroke-opacity:1;stroke-dasharray:none"/></g><g id="g224" transform="matrix(1,0,0,-1,0,663)"><path id="path226" d="m 234.125,95 0,25.25" style="fill:none;stroke:#000;stroke-width:.25;stroke-linecap:butt;stroke-linejoin:miter;stroke-miterlimit:10;stroke-opacity:1;stroke-dasharray:none"/></g><g id="g228" transform="matrix(1,0,0,-1,0,663)"><path id="path230" d="m 179.125,201 0,21.25" style="fill:none;stroke:#000;stroke-width:.25;stroke-linecap:butt;stroke-linejoin:miter;stroke-miterlimit:10;stroke-opacity:1;stroke-dasharray:none"/></g><g id="g232" transform="matrix(1,0,0,-1,0,663)"><path id="path234" d="m 318.125,200 0,22.25" style="fill:none;stroke:#000;stroke-width:.25;stroke-linecap:butt;stroke-linejoin:miter;stroke-miterlimit:10;stroke-opacity:1;stroke-dasharray:none"/></g><g id="g236" transform="matrix(1,0,0,-1,0,663)"><path id="path238" d="m 437.125,151 0,21.25" style="fill:none;stroke:#000;stroke-width:.25;stroke-linecap:butt;stroke-linejoin:miter;stroke-miterlimit:10;stroke-opacity:1;stroke-dasharray:none"/></g><g id="g240" transform="matrix(1,0,0,-1,0,663)"><path id="path242" d="m 436.125,96 0,28.25" style="fill:none;stroke:#000;stroke-width:.25;stroke-linecap:butt;stroke-linejoin:miter;stroke-miterlimit:10;stroke-opacity:1;stroke-dasharray:none"/></g><g id="g244" transform="matrix(1,0,0,-1,0,663)"><path id="path246" d="m 50.125,96 0,25.25" style="fill:none;stroke:#000;stroke-width:.25;stroke-linecap:butt;stroke-linejoin:miter;stroke-miterlimit:10;stroke-opacity:1;stroke-dasharray:none"/></g><path id="path248" d="m 215,612 0.25,0 0,-0.25 -149,-31 -0.25,0 0,0.25" style="fill:#000;fill-opacity:1;fill-rule:nonzero;stroke:none"/><path id="path250" d="m 254,613 0.25,0 149,-31 0,-0.25 -0.25,0 -149,31" style="fill:#000;fill-opacity:1;fill-rule:nonzero;stroke:none"/><path id="path252" d="m 222,516 0.25,0 0,-0.25 -43,-27 -0.25,0 0,0.25" style="fill:#000;fill-opacity:1;fill-rule:nonzero;stroke:none"/><path id="path254" d="m 270,515 0.25,0 43,-27 0,-0.25 -0.25,0 -43,27" style="fill:#000;fill-opacity:1;fill-rule:nonzero;stroke:none"/><path id="path256" d="m 164,413 0.25,0 0,-0.25 -49,-49 -0.25,0 0,0.25" style="fill:#000;fill-opacity:1;fill-rule:nonzero;stroke:none"/><path id="path258" d="m 198,413 0.25,0 49,-49 0,-0.25 -0.25,0 -49,49" style="fill:#000;fill-opacity:1;fill-rule:nonzero;stroke:none"/><g id="g260" transform="matrix(1,0,0,-1,0,663)"><path id="path262" d="m 103.125,325 0,25.25" style="fill:none;stroke:#000;stroke-width:.25;stroke-linecap:butt;stroke-linejoin:miter;stroke-miterlimit:10;stroke-opacity:1;stroke-dasharray:none"/></g><g id="g264" transform="matrix(1,0,0,-1,0,663)"><path id="path266" d="m 262.125,326 0,25.25" style="fill:none;stroke:#000;stroke-width:.25;stroke-linecap:butt;stroke-linejoin:miter;stroke-miterlimit:10;stroke-opacity:1;stroke-dasharray:none"/></g><g id="g268" transform="matrix(1,0,0,-1,0,663)"><path id="path270" d="m 263.125,381 0,28.25" style="fill:none;stroke:#000;stroke-width:.25;stroke-linecap:butt;stroke-linejoin:miter;stroke-miterlimit:10;stroke-opacity:1;stroke-dasharray:none"/></g><g id="g272" transform="matrix(1,0,0,-1,0,663)"><path id="path274" d="m 264.125,453 0,25.25" style="fill:none;stroke:#000;stroke-width:.25;stroke-linecap:butt;stroke-linejoin:miter;stroke-miterlimit:10;stroke-opacity:1;stroke-dasharray:none"/></g><g id="g276" transform="matrix(1,0,0,-1,0,663)"><path id="path278" d="m 209.125,591 0,21.25" style="fill:none;stroke:#000;stroke-width:.25;stroke-linecap:butt;stroke-linejoin:miter;stroke-miterlimit:10;stroke-opacity:1;stroke-dasharray:none"/></g><g id="g280" transform="matrix(1,0,0,-1,0,663)"><path id="path282" d="m 348.125,589 0,22.25" style="fill:none;stroke:#000;stroke-width:.25;stroke-linecap:butt;stroke-linejoin:miter;stroke-miterlimit:10;stroke-opacity:1;stroke-dasharray:none"/></g><g id="g284" transform="matrix(1,0,0,-1,0,663)"><path id="path286" d="m 471.125,450 0,28.25" style="fill:none;stroke:#000;stroke-width:.25;stroke-linecap:butt;stroke-linejoin:miter;stroke-miterlimit:10;stroke-opacity:1;stroke-dasharray:none"/></g><g id="g288" transform="matrix(1,0,0,-1,0,663)"><path id="path290" d="m 97.12501,454 0,25.25" style="fill:none;stroke:#000;stroke-width:.25;stroke-linecap:butt;stroke-linejoin:miter;stroke-miterlimit:10;stroke-opacity:1;stroke-dasharray:none"/></g><path id="path292" d="m 245,282 0.25,0 0,-0.25 -149,-31 -0.25,0 0,0.25" style="fill:#000;fill-opacity:1;fill-rule:nonzero;stroke:none"/><path id="path294" d="m 284,283 0.25,0 149,-31 0,-0.25 -0.25,0 -149,31" style="fill:#000;fill-opacity:1;fill-rule:nonzero;stroke:none"/><path id="path296" d="m 252,141 0.25,0 0,-0.25 -43,-27 -0.25,0 0,0.25" style="fill:#000;fill-opacity:1;fill-rule:nonzero;stroke:none"/><path id="path298" d="m 300,140 0.25,0 43,-27 0,-0.25 -0.25,0 -43,27" style="fill:#000;fill-opacity:1;fill-rule:nonzero;stroke:none"/><g id="g300" transform="matrix(1,0,0,-1,0,663)"><text id="text302" transform="translate(54,425)"><tspan id="tspan304" x="0 6.983 13.966 20.948 27.931 34.914 41.897 48.88 55.862 62.845 69.828 76.811 83.794" y="0" style="font-size:12px;font-variant:normal;font-weight:400;writing-mode:lr-tb;fill:#000;fill-opacity:1;fill-rule:nonzero;stroke:none;font-family:Courier New;-inkscape-font-specification:Courier">[the],[lazy],</tspan></text></g><g id="g306" transform="matrix(1,0,0,-1,0,663)"><text id="text308" transform="translate(40,437)"><tspan id="tspan310" x="0 6.988 13.975 20.963 27.95 34.938 41.926 48.913 55.901 62.888 69.876 76.864 83.851 90.839 97.826 104.814 111.802" y="0" style="font-size:12px;font-variant:normal;font-weight:400;writing-mode:lr-tb;fill:#000;fill-opacity:1;fill-rule:nonzero;stroke:none;font-family:Courier New;-inkscape-font-specification:Courier">[turtle],[beats],</tspan></text></g><g id="g312" transform="matrix(1,0,0,-1,0,663)"><text id="text314" transform="translate(92,449)"><tspan id="tspan316" x="0 6.799" y="0" style="font-size:12px;font-variant:normal;font-weight:400;writing-mode:lr-tb;fill:#000;fill-opacity:1;fill-rule:nonzero;stroke:none;font-family:Courier New;-inkscape-font-specification:Courier">pn</tspan></text></g><g id="g318" transform="matrix(1,0,0,-1,0,663)"><text id="text320" transform="translate(226,424)"><tspan id="tspan322" x="0 6.983 13.966 20.948 27.931 34.914 41.897 48.88 55.862 62.845 69.828 76.811 83.794" y="0" style="font-size:12px;font-variant:normal;font-weight:400;writing-mode:lr-tb;fill:#000;fill-opacity:1;fill-rule:nonzero;stroke:none;font-family:Courier New;-inkscape-font-specification:Courier">[the],[lazy],</tspan></text></g><g id="g324" transform="matrix(1,0,0,-1,0,663)"><text id="text326" transform="translate(212,436)"><tspan id="tspan328" x="0 6.988 13.975 20.963 27.95 34.938 41.926 48.913 55.901 62.888 69.876 76.864 83.851 90.839 97.826 104.814 111.802" y="0" style="font-size:12px;font-variant:normal;font-weight:400;writing-mode:lr-tb;fill:#000;fill-opacity:1;fill-rule:nonzero;stroke:none;font-family:Courier New;-inkscape-font-specification:Courier">[turtle],[beats],</tspan></text></g><g id="g330" transform="matrix(1,0,0,-1,0,663)"><text id="text332" transform="translate(240,448)"><tspan id="tspan334" x="0 6.974 13.949 20.923 27.898 34.872 41.846 48.821 55.795" y="0" style="font-size:12px;font-variant:normal;font-weight:400;writing-mode:lr-tb;fill:#000;fill-opacity:1;fill-rule:nonzero;stroke:none;font-family:Courier New;-inkscape-font-specification:Courier">art,adj,n</tspan></text></g><g id="g336" transform="matrix(1,0,0,-1,0,663)"><text id="text338" transform="translate(424,423)"><tspan id="tspan340" x="0 6.983 13.966 20.948 27.931 34.914 41.897 48.88 55.862 62.845 69.828 76.811 83.794" y="0" style="font-size:12px;font-variant:normal;font-weight:400;writing-mode:lr-tb;fill:#000;fill-opacity:1;fill-rule:nonzero;stroke:none;font-family:Courier New;-inkscape-font-specification:Courier">[the],[lazy],</tspan></text></g><g id="g342" transform="matrix(1,0,0,-1,0,663)"><text id="text344" transform="translate(410,435)"><tspan id="tspan346" x="0 6.988 13.975 20.963 27.95 34.938 41.926 48.913 55.901 62.888 69.876 76.864 83.851 90.839 97.826 104.814 111.802" y="0" style="font-size:12px;font-variant:normal;font-weight:400;writing-mode:lr-tb;fill:#000;fill-opacity:1;fill-rule:nonzero;stroke:none;font-family:Courier New;-inkscape-font-specification:Courier">[turtle],[beats],</tspan></text></g><g id="g348" transform="matrix(1,0,0,-1,0,663)"><text id="text350" transform="translate(452,447)"><tspan id="tspan352" x="0 6.949 13.898 20.848 27.797" y="0" style="font-size:12px;font-variant:normal;font-weight:400;writing-mode:lr-tb;fill:#000;fill-opacity:1;fill-rule:nonzero;stroke:none;font-family:Courier New;-inkscape-font-specification:Courier">art,n</tspan></text></g><g id="g354" transform="matrix(1,0,0,-1,0,663)"><text id="text356" transform="translate(55,491)"><tspan id="tspan358" x="0 6.983 13.966 20.948 27.931 34.914 41.897 48.88 55.862 62.845 69.828 76.811 83.794" y="0" style="font-size:12px;font-variant:normal;font-weight:400;writing-mode:lr-tb;fill:#000;fill-opacity:1;fill-rule:nonzero;stroke:none;font-family:Courier New;-inkscape-font-specification:Courier">[the],[lazy],</tspan></text></g><g id="g360" transform="matrix(1,0,0,-1,0,663)"><text id="text362" transform="translate(41,503)"><tspan id="tspan364" x="0 6.988 13.975 20.963 27.95 34.938 41.926 48.913 55.901 62.888 69.876 76.864 83.851 90.839 97.826 104.814 111.802" y="0" style="font-size:12px;font-variant:normal;font-weight:400;writing-mode:lr-tb;fill:#000;fill-opacity:1;fill-rule:nonzero;stroke:none;font-family:Courier New;-inkscape-font-specification:Courier">[turtle],[beats],</tspan></text></g><g id="g366" transform="matrix(1,0,0,-1,0,663)"><text id="text368" transform="translate(65,515)"><tspan id="tspan370" x="0 6.978 13.956 20.934 27.912 34.89 41.868 48.846 55.824 62.802" y="0" style="font-size:12px;font-variant:normal;font-weight:400;writing-mode:lr-tb;fill:#000;fill-opacity:1;fill-rule:nonzero;stroke:none;font-family:Courier New;-inkscape-font-specification:Courier">[achilles]</tspan></text></g><g id="g372" transform="matrix(1,0,0,-1,0,663)"><path id="path374" d="m 473.125,518 0,28.25" style="fill:none;stroke:#000;stroke-width:.25;stroke-linecap:butt;stroke-linejoin:miter;stroke-miterlimit:10;stroke-opacity:1;stroke-dasharray:none"/></g><g id="g376" transform="matrix(1,0,0,-1,0,663)"><text id="text378" transform="translate(426,491)"><tspan id="tspan380" x="0 6.983 13.966 20.948 27.931 34.914 41.897 48.88 55.862 62.845 69.828 76.811 83.794" y="0" style="font-size:12px;font-variant:normal;font-weight:400;writing-mode:lr-tb;fill:#000;fill-opacity:1;fill-rule:nonzero;stroke:none;font-family:Courier New;-inkscape-font-specification:Courier">[the],[lazy],</tspan></text></g><g id="g382" transform="matrix(1,0,0,-1,0,663)"><text id="text384" transform="translate(412,503)"><tspan id="tspan386" x="0 6.988 13.975 20.963 27.95 34.938 41.926 48.913 55.901 62.888 69.876 76.864 83.851 90.839 97.826 104.814 111.802" y="0" style="font-size:12px;font-variant:normal;font-weight:400;writing-mode:lr-tb;fill:#000;fill-opacity:1;fill-rule:nonzero;stroke:none;font-family:Courier New;-inkscape-font-specification:Courier">[turtle],[beats],</tspan></text></g><g id="g388" transform="matrix(1,0,0,-1,0,663)"><text id="text390" transform="translate(447,515)"><tspan id="tspan392" x="0 6.966 13.932 20.898 27.864 34.83 41.796" y="0" style="font-size:12px;font-variant:normal;font-weight:400;writing-mode:lr-tb;fill:#000;fill-opacity:1;fill-rule:nonzero;stroke:none;font-family:Courier New;-inkscape-font-specification:Courier">[the],n</tspan></text></g><g id="g394" transform="matrix(1,0,0,-1,0,663)"><text id="text396" transform="translate(430,558)"><tspan id="tspan398" x="0 6.983 13.966 20.948 27.931 34.914 41.897 48.88 55.862 62.845 69.828 76.811 83.794" y="0" style="font-size:12px;font-variant:normal;font-weight:400;writing-mode:lr-tb;fill:#000;fill-opacity:1;fill-rule:nonzero;stroke:none;font-family:Courier New;-inkscape-font-specification:Courier">[the],[lazy],</tspan></text></g><g id="g400" transform="matrix(1,0,0,-1,0,663)"><text id="text402" transform="translate(416,570)"><tspan id="tspan404" x="0 6.988 13.975 20.963 27.95 34.938 41.926 48.913 55.901 62.888 69.876 76.864 83.851 90.839 97.826 104.814 111.802" y="0" style="font-size:12px;font-variant:normal;font-weight:400;writing-mode:lr-tb;fill:#000;fill-opacity:1;fill-rule:nonzero;stroke:none;font-family:Courier New;-inkscape-font-specification:Courier">[turtle],[beats],</tspan></text></g><g id="g406" transform="matrix(1,0,0,-1,0,663)"><text id="text408" transform="translate(426,582)"><tspan id="tspan410" x="0 6.984 13.968 20.952 27.936 34.92 41.904 48.888 55.872 62.856 69.84 76.824 83.808 90.792" y="0" style="font-size:12px;font-variant:normal;font-weight:400;writing-mode:lr-tb;fill:#000;fill-opacity:1;fill-rule:nonzero;stroke:none;font-family:Courier New;-inkscape-font-specification:Courier">[the],[turtle]</tspan></text></g><g id="g412" transform="matrix(1,0,0,-1,0,663)"><text id="text414" transform="translate(226,492)"><tspan id="tspan416" x="0 6.983 13.966 20.948 27.931 34.914 41.897 48.88 55.862 62.845 69.828 76.811 83.794" y="0" style="font-size:12px;font-variant:normal;font-weight:400;writing-mode:lr-tb;fill:#000;fill-opacity:1;fill-rule:nonzero;stroke:none;font-family:Courier New;-inkscape-font-specification:Courier">[the],[lazy],</tspan></text></g><g id="g418" transform="matrix(1,0,0,-1,0,663)"><text id="text420" transform="translate(212,504)"><tspan id="tspan422" x="0 6.988 13.975 20.963 27.95 34.938 41.926 48.913 55.901 62.888 69.876 76.864 83.851 90.839 97.826 104.814 111.802" y="0" style="font-size:12px;font-variant:normal;font-weight:400;writing-mode:lr-tb;fill:#000;fill-opacity:1;fill-rule:nonzero;stroke:none;font-family:Courier New;-inkscape-font-specification:Courier">[turtle],[beats],</tspan></text></g><g id="g424" transform="matrix(1,0,0,-1,0,663)"><text id="text426" transform="translate(233,516)"><tspan id="tspan428" x="0 6.98 13.961 20.941 27.922 34.902 41.882 48.863 55.843 62.824 69.804" y="0" style="font-size:12px;font-variant:normal;font-weight:400;writing-mode:lr-tb;fill:#000;fill-opacity:1;fill-rule:nonzero;stroke:none;font-family:Courier New;-inkscape-font-specification:Courier">[the],adj,n</tspan></text></g><g id="g430" transform="matrix(1,0,0,-1,0,663)"><text id="text432" transform="translate(165,562)"><tspan id="tspan434" x="0 6.983 13.966 20.948 27.931 34.914 41.897 48.88 55.862 62.845 69.828 76.811 83.794" y="0" style="font-size:12px;font-variant:normal;font-weight:400;writing-mode:lr-tb;fill:#000;fill-opacity:1;fill-rule:nonzero;stroke:none;font-family:Courier New;-inkscape-font-specification:Courier">[the],[lazy],</tspan></text></g><g id="g436" transform="matrix(1,0,0,-1,0,663)"><text id="text438" transform="translate(151,574)"><tspan id="tspan440" x="0 6.988 13.975 20.963 27.95 34.938 41.926 48.913 55.901 62.888 69.876 76.864 83.851 90.839 97.826 104.814 111.802" y="0" style="font-size:12px;font-variant:normal;font-weight:400;writing-mode:lr-tb;fill:#000;fill-opacity:1;fill-rule:nonzero;stroke:none;font-family:Courier New;-inkscape-font-specification:Courier">[turtle],[beats],</tspan></text></g><g id="g442" transform="matrix(1,0,0,-1,0,663)"><text id="text444" transform="translate(161,586)"><tspan id="tspan446" x="0 6.984 13.968 20.952 27.936 34.92 41.904 48.888 55.872 62.856 69.84 76.824 83.808 90.792" y="0" style="font-size:12px;font-variant:normal;font-weight:400;writing-mode:lr-tb;fill:#000;fill-opacity:1;fill-rule:nonzero;stroke:none;font-family:Courier New;-inkscape-font-specification:Courier">[the],[lazy],n</tspan></text></g><g id="g448" transform="matrix(1,0,0,-1,0,663)"><text id="text450" transform="translate(298,561)"><tspan id="tspan452" x="0 6.983 13.966 20.948 27.931 34.914 41.897 48.88 55.862 62.845 69.828 76.811 83.794" y="0" style="font-size:12px;font-variant:normal;font-weight:400;writing-mode:lr-tb;fill:#000;fill-opacity:1;fill-rule:nonzero;stroke:none;font-family:Courier New;-inkscape-font-specification:Courier">[the],[lazy],</tspan></text></g><g id="g454" transform="matrix(1,0,0,-1,0,663)"><text id="text456" transform="translate(284,573)"><tspan id="tspan458" x="0 6.988 13.975 20.963 27.95 34.938 41.926 48.913 55.901 62.888 69.876 76.864 83.851 90.839 97.826 104.814 111.802" y="0" style="font-size:12px;font-variant:normal;font-weight:400;writing-mode:lr-tb;fill:#000;fill-opacity:1;fill-rule:nonzero;stroke:none;font-family:Courier New;-inkscape-font-specification:Courier">[turtle],[beats],</tspan></text></g><g id="g460" transform="matrix(1,0,0,-1,0,663)"><text id="text462" transform="translate(291,585)"><tspan id="tspan464" x="0 6.985 13.97 20.956 27.941 34.926 41.911 48.896 55.882 62.867 69.852 76.837 83.822 90.808 97.793" y="0" style="font-size:12px;font-variant:normal;font-weight:400;writing-mode:lr-tb;fill:#000;fill-opacity:1;fill-rule:nonzero;stroke:none;font-family:Courier New;-inkscape-font-specification:Courier">[the],[rapid],n</tspan></text></g><g id="g466" transform="matrix(1,0,0,-1,0,663)"><text id="text468" transform="translate(158,624)"><tspan id="tspan470" x="0 6.983 13.966 20.948 27.931 34.914 41.897 48.88 55.862 62.845 69.828 76.811 83.794" y="0" style="font-size:12px;font-variant:normal;font-weight:400;writing-mode:lr-tb;fill:#000;fill-opacity:1;fill-rule:nonzero;stroke:none;font-family:Courier New;-inkscape-font-specification:Courier">[the],[lazy],</tspan></text></g><g id="g472" transform="matrix(1,0,0,-1,0,663)"><text id="text474" transform="translate(144,636)"><tspan id="tspan476" x="0 6.988 13.975 20.963 27.95 34.938 41.926 48.913 55.901 62.888 69.876 76.864 83.851 90.839 97.826 104.814 111.802" y="0" style="font-size:12px;font-variant:normal;font-weight:400;writing-mode:lr-tb;fill:#000;fill-opacity:1;fill-rule:nonzero;stroke:none;font-family:Courier New;-inkscape-font-specification:Courier">[turtle],[beats],</tspan></text></g><g id="g478" transform="matrix(1,0,0,-1,0,663)"><text id="text480" transform="translate(130,648)"><tspan id="tspan482" x="0 6.99 13.98 20.97 27.96 34.95 41.94 48.93 55.92 62.91 69.9 76.89 83.88 90.87 97.86 104.85 111.84 118.83 125.82 132.81 139.8" y="0" style="font-size:12px;font-variant:normal;font-weight:400;writing-mode:lr-tb;fill:#000;fill-opacity:1;fill-rule:nonzero;stroke:none;font-family:Courier New;-inkscape-font-specification:Courier">[the],[lazy],[turtle]</tspan></text></g><g id="g484" transform="matrix(1,0,0,-1,0,663)"><text id="text486" transform="translate(319,623)"><tspan id="tspan488" x="0 6.983 13.966 20.948 27.931 34.914 41.897 48.88 55.862 62.845 69.828 76.811 83.794" y="0" style="font-size:12px;font-variant:normal;font-weight:400;writing-mode:lr-tb;fill:#000;fill-opacity:1;fill-rule:nonzero;stroke:none;font-family:Courier New;-inkscape-font-specification:Courier">[the],[lazy],</tspan></text></g><g id="g490" transform="matrix(1,0,0,-1,0,663)"><text id="text492" transform="translate(305,635)"><tspan id="tspan494" x="0 6.988 13.975 20.963 27.95 34.938 41.926 48.913 55.901 62.888 69.876 76.864 83.851 90.839 97.826 104.814 111.802" y="0" style="font-size:12px;font-variant:normal;font-weight:400;writing-mode:lr-tb;fill:#000;fill-opacity:1;fill-rule:nonzero;stroke:none;font-family:Courier New;-inkscape-font-specification:Courier">[turtle],[beats],</tspan></text></g><g id="g496" transform="matrix(1,0,0,-1,0,663)"><text id="text498" transform="translate(288,647)"><tspan id="tspan500" x="0 6.99 13.98 20.97 27.96 34.95 41.94 48.93 55.92 62.91 69.9 76.89 83.88 90.87 97.86 104.85 111.84 118.83 125.82 132.81 139.8 146.79" y="0" style="font-size:12px;font-variant:normal;font-weight:400;writing-mode:lr-tb;fill:#000;fill-opacity:1;fill-rule:nonzero;stroke:none;font-family:Courier New;-inkscape-font-specification:Courier">[the],[rapid],[turtle]</tspan></text></g><path id="path502" d="m 52,513 -17,-7 0,-22 34,0 0,16 -17,13" style="fill:#efefef;fill-opacity:1;fill-rule:evenodd;stroke:none"/><path id="path504" d="m 52,513 0.25,0 0,-0.25 -17,-7 -0.25,0 0,0.25" style="fill:#000;fill-opacity:1;fill-rule:nonzero;stroke:none"/><g id="g506" transform="matrix(1,0,0,-1,0,663)"><path id="path508" d="m 35.125,157 0,22.25" style="fill:none;stroke:#000;stroke-width:.25;stroke-linecap:butt;stroke-linejoin:miter;stroke-miterlimit:10;stroke-opacity:1;stroke-dasharray:none"/></g><g id="g510" transform="matrix(1,0,0,-1,0,663)"><path id="path512" d="m 35,179.125 34.25,0" style="fill:none;stroke:#000;stroke-width:.25;stroke-linecap:butt;stroke-linejoin:miter;stroke-miterlimit:10;stroke-opacity:1;stroke-dasharray:none"/></g><g id="g514" transform="matrix(1,0,0,-1,0,663)"><path id="path516" d="m 69.125,163 0,16.25" style="fill:none;stroke:#000;stroke-width:.25;stroke-linecap:butt;stroke-linejoin:miter;stroke-miterlimit:10;stroke-opacity:1;stroke-dasharray:none"/></g><path id="path518" d="m 52,513 0.25,0 17,-13 0,-0.25 -0.25,0 -17,13" style="fill:#000;fill-opacity:1;fill-rule:nonzero;stroke:none"/><path id="path520" d="m 320,414 -17,-7 0,-22 34,0 0,16 -17,13" style="fill:#efefef;fill-opacity:1;fill-rule:evenodd;stroke:none"/><path id="path522" d="m 320,414 0.25,0 0,-0.25 -17,-7 -0.25,0 0,0.25" style="fill:#000;fill-opacity:1;fill-rule:nonzero;stroke:none"/><g id="g524" transform="matrix(1,0,0,-1,0,663)"><path id="path526" d="m 303.125,256 0,22.25" style="fill:none;stroke:#000;stroke-width:.25;stroke-linecap:butt;stroke-linejoin:miter;stroke-miterlimit:10;stroke-opacity:1;stroke-dasharray:none"/></g><g id="g528" transform="matrix(1,0,0,-1,0,663)"><path id="path530" d="m 303,278.125 34.25,0" style="fill:none;stroke:#000;stroke-width:.25;stroke-linecap:butt;stroke-linejoin:miter;stroke-miterlimit:10;stroke-opacity:1;stroke-dasharray:none"/></g><g id="g532" transform="matrix(1,0,0,-1,0,663)"><path id="path534" d="m 337.125,262 0,16.25" style="fill:none;stroke:#000;stroke-width:.25;stroke-linecap:butt;stroke-linejoin:miter;stroke-miterlimit:10;stroke-opacity:1;stroke-dasharray:none"/></g><path id="path536" d="m 320,414 0.25,0 17,-13 0,-0.25 -0.25,0 -17,13" style="fill:#000;fill-opacity:1;fill-rule:nonzero;stroke:none"/><path id="path538" d="m 439,463 -17,-7 0,-22 34,0 0,16 -17,13" style="fill:#efefef;fill-opacity:1;fill-rule:evenodd;stroke:none"/><path id="path540" d="m 439,463 0.25,0 0,-0.25 -17,-7 -0.25,0 0,0.25" style="fill:#000;fill-opacity:1;fill-rule:nonzero;stroke:none"/><g id="g542" transform="matrix(1,0,0,-1,0,663)"><path id="path544" d="m 422.125,207 0,22.25" style="fill:none;stroke:#000;stroke-width:.25;stroke-linecap:butt;stroke-linejoin:miter;stroke-miterlimit:10;stroke-opacity:1;stroke-dasharray:none"/></g><g id="g546" transform="matrix(1,0,0,-1,0,663)"><path id="path548" d="m 422,229.125 34.25,0" style="fill:none;stroke:#000;stroke-width:.25;stroke-linecap:butt;stroke-linejoin:miter;stroke-miterlimit:10;stroke-opacity:1;stroke-dasharray:none"/></g><g id="g550" transform="matrix(1,0,0,-1,0,663)"><path id="path552" d="m 456.125,213 0,16.25" style="fill:none;stroke:#000;stroke-width:.25;stroke-linecap:butt;stroke-linejoin:miter;stroke-miterlimit:10;stroke-opacity:1;stroke-dasharray:none"/></g><path id="path554" d="m 439,463 0.25,0 17,-13 0,-0.25 -0.25,0 -17,13" style="fill:#000;fill-opacity:1;fill-rule:nonzero;stroke:none"/></g></g></g></g></svg>