<svg xmlns="http://www.w3.org/2000/svg" xmlns:svg="http://www.w3.org/2000/svg" id="svg2" width="712.5" height="468.75" version="1.1" xml:space="preserve"><defs id="defs6"><clipPath id="clipPath20"><path id="path22" d="M 0,0 570,0 570,375 0,375 0,0 z"/></clipPath><clipPath id="clipPath30"><path id="path32" d="m 0,375 570,0 0,-375.000005533366 -570,0 L 0,375 z"/></clipPath><clipPath id="clipPath36"><path id="path38" d="M 0,0 570,0 570,375 0,375 0,0 z"/></clipPath></defs><g id="g12" transform="matrix(1.25,0,0,-1.25,0,468.75)"><g id="g16"><g id="g18" clip-path="url(#clipPath20)"><path id="path24" d="M 0,375 570,375 570,0 0,0 0,375 z" style="fill:#fff;fill-opacity:0;fill-rule:evenodd;stroke:none"/></g></g><g id="g26"><g id="g28" clip-path="url(#clipPath30)"><g id="g34" clip-path="url(#clipPath36)"><g id="g40" transform="matrix(1,0,0,-1,0,375)"><text id="text42" transform="translate(2,8)"><tspan id="tspan44" x="0 6.971 13.942 20.912 27.883 34.854 41.825 48.796" y="0" style="font-size:12px;font-variant:normal;font-weight:400;writing-mode:lr-tb;fill:#000;fill-opacity:1;fill-rule:nonzero;stroke:none;font-family:Courier New;-inkscape-font-specification:Courier">sentence</tspan></text></g><g id="g46" transform="matrix(1,0,0,-1,0,375)"><text id="text48" transform="translate(3,46)"><tspan id="tspan50" x="0 6.991 13.982 20.974 27.965 34.956 41.947 48.938 55.93 62.921 69.912 76.903 83.894 90.886 97.877 104.868 111.859 118.85 125.842 132.833 139.824 146.815 153.806" y="0" style="font-size:12px;font-variant:normal;font-weight:400;writing-mode:lr-tb;fill:#000;fill-opacity:1;fill-rule:nonzero;stroke:none;font-family:Courier New;-inkscape-font-specification:Courier">noun_phrase,verb_phrase</tspan></text></g><g id="g52" transform="matrix(1,0,0,-1,0,375)"><text id="text54" transform="translate(3,84)"><tspan id="tspan56" x="0 6.994 13.987 20.981 27.974 34.968 41.962 48.955 55.949 62.942 69.936 76.93 83.923 90.917 97.91 104.904 111.898 118.891 125.885 132.878 139.872 146.866 153.859 160.853 167.846 174.84 181.834 188.827 195.821 202.814 209.808 216.802 223.795 230.789" y="0" style="font-size:12px;font-variant:normal;font-weight:400;writing-mode:lr-tb;fill:#000;fill-opacity:1;fill-rule:nonzero;stroke:none;font-family:Courier New;-inkscape-font-specification:Courier">article,adjective,noun,verb_phrase</tspan></text></g><g id="g58" transform="matrix(1,0,0,-1,0,375)"><text id="text60" transform="translate(3,123)"><tspan id="tspan62" x="0 6.994 13.987 20.981 27.974 34.968 41.962 48.955 55.949 62.942 69.936 76.93 83.923 90.917 97.91 104.904 111.898 118.891 125.885 132.878 139.872 146.866 153.859 160.853 167.846 174.84 181.834 188.827 195.821 202.814 209.808 216.802" y="0" style="font-size:12px;font-variant:normal;font-weight:400;writing-mode:lr-tb;fill:#000;fill-opacity:1;fill-rule:nonzero;stroke:none;font-family:Courier New;-inkscape-font-specification:Courier">[the],adjective,noun,verb_phrase</tspan></text></g><g id="g64" transform="matrix(1,0,0,-1,0,375)"><text id="text66" transform="translate(3,164)"><tspan id="tspan68" x="0 6.994 13.987 20.981 27.974 34.968 41.962 48.955 55.949 62.942 69.936 76.93 83.923 90.917 97.91 104.904 111.898 118.891 125.885 132.878 139.872 146.866 153.859 160.853 167.846 174.84 181.834 188.827 195.821 202.814" y="0" style="font-size:12px;font-variant:normal;font-weight:400;writing-mode:lr-tb;fill:#000;fill-opacity:1;fill-rule:nonzero;stroke:none;font-family:Courier New;-inkscape-font-specification:Courier">[the],[rapid],noun,verb_phrase</tspan></text></g><g id="g70" transform="matrix(1,0,0,-1,0,375)"><text id="text72" transform="translate(4,205)"><tspan id="tspan74" x="0 6.994 13.987 20.981 27.974 34.968 41.962 48.955 55.949 62.942 69.936 76.93 83.923 90.917 97.91 104.904 111.898 118.891 125.885 132.878 139.872 146.866 153.859 160.853 167.846 174.84 181.834 188.827 195.821 202.814 209.808 216.802 223.795 230.789" y="0" style="font-size:12px;font-variant:normal;font-weight:400;writing-mode:lr-tb;fill:#000;fill-opacity:1;fill-rule:nonzero;stroke:none;font-family:Courier New;-inkscape-font-specification:Courier">[the],[rapid],[turtle],verb_phrase</tspan></text></g><g id="g76" transform="matrix(1,0,0,-1,0,375)"><text id="text78" transform="translate(3,248)"><tspan id="tspan80" x="0 6.996 13.992 20.988 27.984 34.98 41.976 48.972 55.968 62.964 69.96 76.956 83.952 90.948 97.944 104.94 111.936 118.932 125.928 132.924 139.92 146.916 153.912 160.908 167.904 174.9 181.896 188.892 195.888 202.884 209.88 216.876 223.872 230.868 237.864 244.86 251.856 258.852 265.848 272.844 279.84 286.836 293.832 300.828 307.824 314.82 321.816 328.812 335.808 342.804" y="0" style="font-size:12px;font-variant:normal;font-weight:400;writing-mode:lr-tb;fill:#000;fill-opacity:1;fill-rule:nonzero;stroke:none;font-family:Courier New;-inkscape-font-specification:Courier">[the],[rapid],[turtle],transitive_verb,noun_phrase</tspan></text></g><g id="g82" transform="matrix(1,0,0,-1,0,375)"><text id="text84" transform="translate(4,290)"><tspan id="tspan86" x="0 6.995 13.99 20.984 27.979 34.974 41.969 48.964 55.958 62.953 69.948 76.943 83.938 90.932 97.927 104.922 111.917 118.912 125.906 132.901 139.896 146.891 153.886 160.88 167.875 174.87 181.865 188.86 195.854 202.849 209.844 216.839 223.834 230.828 237.823 244.818 251.813 258.808 265.802 272.797 279.792 286.787" y="0" style="font-size:12px;font-variant:normal;font-weight:400;writing-mode:lr-tb;fill:#000;fill-opacity:1;fill-rule:nonzero;stroke:none;font-family:Courier New;-inkscape-font-specification:Courier">[the],[rapid],[turtle],[beats],noun_phrase</tspan></text></g><g id="g88" transform="matrix(1,0,0,-1,0,375)"><text id="text90" transform="translate(4,330)"><tspan id="tspan92" x="0 6.995 13.99 20.984 27.979 34.974 41.969 48.964 55.958 62.953 69.948 76.943 83.938 90.932 97.927 104.922 111.917 118.912 125.906 132.901 139.896 146.891 153.886 160.88 167.875 174.87 181.865 188.86 195.854 202.849 209.844 216.839 223.834 230.828 237.823 244.818 251.813 258.808 265.802 272.797 279.792 286.787" y="0" style="font-size:12px;font-variant:normal;font-weight:400;writing-mode:lr-tb;fill:#000;fill-opacity:1;fill-rule:nonzero;stroke:none;font-family:Courier New;-inkscape-font-specification:Courier">[the],[rapid],[turtle],[beats],proper_noun</tspan></text></g><g id="g94" transform="matrix(1,0,0,-1,0,375)"><text id="text96" transform="translate(4,372)"><tspan id="tspan98" x="0 6.995 13.99 20.984 27.979 34.974 41.969 48.964 55.958 62.953 69.948 76.943 83.938 90.932 97.927 104.922 111.917 118.912 125.906 132.901 139.896 146.891 153.886 160.88 167.875 174.87 181.865 188.86 195.854 202.849 209.844 216.839 223.834 230.828 237.823 244.818 251.813 258.808 265.802 272.797 279.792" y="0" style="font-size:12px;font-variant:normal;font-weight:400;writing-mode:lr-tb;fill:#000;fill-opacity:1;fill-rule:nonzero;stroke:none;font-family:Courier New;-inkscape-font-specification:Courier">[the],[rapid],[turtle],[beats],[achilles]</tspan></text></g><g id="g100" transform="matrix(1,0,0,-1,0,375)"><text id="text102" transform="translate(354,9)"><tspan id="tspan104" x="0 6.991 13.982 20.974 27.965 34.956 41.947 48.938" y="0" style="font-size:12px;font-variant:normal;font-weight:400;writing-mode:lr-tb;fill:#000;fill-opacity:1;fill-rule:nonzero;stroke:none;font-family:Courier New;-inkscape-font-specification:Courier">sentence</tspan></text></g><g id="g106" transform="matrix(1,0,0,-1,0,375)"><text id="text108" transform="translate(409.9296,9)"><tspan id="tspan110" x="0" y="0" style="font-size:12px;font-variant:normal;font-weight:400;writing-mode:lr-tb;fill:#000;fill-opacity:1;fill-rule:nonzero;stroke:none;font-family:Courier New;-inkscape-font-specification:Courier">!</tspan></text></g><g id="g112" transform="matrix(1,0,0,-1,0,375)"><text id="text114" transform="translate(416.9208,9)"><tspan id="tspan116" x="0 6.991 13.982 20.974 27.965 34.956 41.947 48.938 55.93 62.921 69.912 76.903 83.894 90.886 97.877 104.868" y="0" style="font-size:12px;font-variant:normal;font-weight:400;writing-mode:lr-tb;fill:#000;fill-opacity:1;fill-rule:nonzero;stroke:none;font-family:Courier New;-inkscape-font-specification:Courier">--&gt; noun_phrase,</tspan></text></g><g id="g118" transform="matrix(1,0,0,-1,0,375)"><text id="text120" transform="translate(444.8856,21)"><tspan id="tspan122" x="0 6.991 13.982 20.974 27.965 34.956 41.947 48.938 55.93 62.921 69.912" y="0" style="font-size:12px;font-variant:normal;font-weight:400;writing-mode:lr-tb;fill:#000;fill-opacity:1;fill-rule:nonzero;stroke:none;font-family:Courier New;-inkscape-font-specification:Courier">verb_phrase</tspan></text></g><g id="g124" transform="matrix(1,0,0,-1,0,375)"><text id="text126" transform="translate(334,44)"><tspan id="tspan128" x="0 6.991 13.982 20.974 27.965 34.956 41.947 48.938 55.93 62.921 69.912" y="0" style="font-size:12px;font-variant:normal;font-weight:400;writing-mode:lr-tb;fill:#000;fill-opacity:1;fill-rule:nonzero;stroke:none;font-family:Courier New;-inkscape-font-specification:Courier">noun_phrase</tspan></text></g><g id="g130" transform="matrix(1,0,0,-1,0,375)"><text id="text132" transform="translate(410.9032,44)"><tspan id="tspan134" x="0" y="0" style="font-size:12px;font-variant:normal;font-weight:400;writing-mode:lr-tb;fill:#000;fill-opacity:1;fill-rule:nonzero;stroke:none;font-family:Courier New;-inkscape-font-specification:Courier">!</tspan></text></g><g id="g136" transform="matrix(1,0,0,-1,0,375)"><text id="text138" transform="translate(417.8944,44)"><tspan id="tspan140" x="0 6.991 13.982 20.974 27.965 34.956 41.947 48.938 55.93 62.921 69.912 76.903" y="0" style="font-size:12px;font-variant:normal;font-weight:400;writing-mode:lr-tb;fill:#000;fill-opacity:1;fill-rule:nonzero;stroke:none;font-family:Courier New;-inkscape-font-specification:Courier">--&gt; article,</tspan></text></g><g id="g142" transform="matrix(1,0,0,-1,0,375)"><text id="text144" transform="translate(445.8784,56)"><tspan id="tspan146" x="0 6.992 13.985 20.977 27.97 34.962 41.954 48.947 55.939 62.932" y="0" style="font-size:12px;font-variant:normal;font-weight:400;writing-mode:lr-tb;fill:#000;fill-opacity:1;fill-rule:nonzero;stroke:none;font-family:Courier New;-inkscape-font-specification:Courier">adjective,</tspan></text></g><g id="g148" transform="matrix(1,0,0,-1,0,375)"><text id="text150" transform="translate(445.84,68)"><tspan id="tspan152" x="0 6.99 13.98 20.97" y="0" style="font-size:12px;font-variant:normal;font-weight:400;writing-mode:lr-tb;fill:#000;fill-opacity:1;fill-rule:nonzero;stroke:none;font-family:Courier New;-inkscape-font-specification:Courier">noun</tspan></text></g><g id="g154" transform="matrix(1,0,0,-1,0,375)"><text id="text156" transform="translate(364,83)"><tspan id="tspan158" x="0 6.988 13.975 20.963 27.95 34.938 41.926" y="0" style="font-size:12px;font-variant:normal;font-weight:400;writing-mode:lr-tb;fill:#000;fill-opacity:1;fill-rule:nonzero;stroke:none;font-family:Courier New;-inkscape-font-specification:Courier">article</tspan></text></g><g id="g160" transform="matrix(1,0,0,-1,0,375)"><text id="text162" transform="translate(412.9132,83)"><tspan id="tspan164" x="0" y="0" style="font-size:12px;font-variant:normal;font-weight:400;writing-mode:lr-tb;fill:#000;fill-opacity:1;fill-rule:nonzero;stroke:none;font-family:Courier New;-inkscape-font-specification:Courier">!</tspan></text></g><g id="g166" transform="matrix(1,0,0,-1,0,375)"><text id="text168" transform="translate(419.9008,83)"><tspan id="tspan170" x="0 6.988 13.975 20.963 27.95 34.938 41.926 48.913 55.901" y="0" style="font-size:12px;font-variant:normal;font-weight:400;writing-mode:lr-tb;fill:#000;fill-opacity:1;fill-rule:nonzero;stroke:none;font-family:Courier New;-inkscape-font-specification:Courier">--&gt; [the]</tspan></text></g><g id="g172" transform="matrix(1,0,0,-1,0,375)"><text id="text174" transform="translate(351,122)"><tspan id="tspan176" x="0 6.99 13.98 20.97 27.96 34.95 41.94 48.93 55.92" y="0" style="font-size:12px;font-variant:normal;font-weight:400;writing-mode:lr-tb;fill:#000;fill-opacity:1;fill-rule:nonzero;stroke:none;font-family:Courier New;-inkscape-font-specification:Courier">adjective</tspan></text></g><g id="g178" transform="matrix(1,0,0,-1,0,375)"><text id="text180" transform="translate(413.91,122)"><tspan id="tspan182" x="0" y="0" style="font-size:12px;font-variant:normal;font-weight:400;writing-mode:lr-tb;fill:#000;fill-opacity:1;fill-rule:nonzero;stroke:none;font-family:Courier New;-inkscape-font-specification:Courier">!</tspan></text></g><g id="g184" transform="matrix(1,0,0,-1,0,375)"><text id="text186" transform="translate(420.9,122)"><tspan id="tspan188" x="0 6.99 13.98 20.97 27.96 34.95 41.94 48.93 55.92 62.91 69.9" y="0" style="font-size:12px;font-variant:normal;font-weight:400;writing-mode:lr-tb;fill:#000;fill-opacity:1;fill-rule:nonzero;stroke:none;font-family:Courier New;-inkscape-font-specification:Courier">--&gt; [rapid]</tspan></text></g><g id="g190" transform="matrix(1,0,0,-1,0,375)"><text id="text192" transform="translate(385,160)"><tspan id="tspan194" x="0 6.988 13.975 20.963" y="0" style="font-size:12px;font-variant:normal;font-weight:400;writing-mode:lr-tb;fill:#000;fill-opacity:1;fill-rule:nonzero;stroke:none;font-family:Courier New;-inkscape-font-specification:Courier">noun</tspan></text></g><g id="g196" transform="matrix(1,0,0,-1,0,375)"><text id="text198" transform="translate(412.9504,160)"><tspan id="tspan200" x="0" y="0" style="font-size:12px;font-variant:normal;font-weight:400;writing-mode:lr-tb;fill:#000;fill-opacity:1;fill-rule:nonzero;stroke:none;font-family:Courier New;-inkscape-font-specification:Courier">!</tspan></text></g><g id="g202" transform="matrix(1,0,0,-1,0,375)"><text id="text204" transform="translate(419.938,160)"><tspan id="tspan206" x="0 6.988 13.975 20.963 27.95 34.938 41.926 48.913 55.901 62.888 69.876 76.864" y="0" style="font-size:12px;font-variant:normal;font-weight:400;writing-mode:lr-tb;fill:#000;fill-opacity:1;fill-rule:nonzero;stroke:none;font-family:Courier New;-inkscape-font-specification:Courier">--&gt; [turtle]</tspan></text></g><g id="g208" transform="matrix(1,0,0,-1,0,375)"><text id="text210" transform="translate(341,205)"><tspan id="tspan212" x="0 6.994 13.987 20.981 27.974 34.968 41.962 48.955 55.949 62.942 69.936" y="0" style="font-size:12px;font-variant:normal;font-weight:400;writing-mode:lr-tb;fill:#000;fill-opacity:1;fill-rule:nonzero;stroke:none;font-family:Courier New;-inkscape-font-specification:Courier">verb_phrase</tspan></text></g><g id="g214" transform="matrix(1,0,0,-1,0,375)"><text id="text216" transform="translate(417.9296,205)"><tspan id="tspan218" x="0" y="0" style="font-size:12px;font-variant:normal;font-weight:400;writing-mode:lr-tb;fill:#000;fill-opacity:1;fill-rule:nonzero;stroke:none;font-family:Courier New;-inkscape-font-specification:Courier">!</tspan></text></g><g id="g220" transform="matrix(1,0,0,-1,0,375)"><text id="text222" transform="translate(424.9232,205)"><tspan id="tspan224" x="0 6.994 13.987 20.981 27.974 34.968 41.962 48.955 55.949 62.942 69.936 76.93 83.923 90.917 97.91 104.904 111.898 118.891 125.885 132.878" y="0" style="font-size:12px;font-variant:normal;font-weight:400;writing-mode:lr-tb;fill:#000;fill-opacity:1;fill-rule:nonzero;stroke:none;font-family:Courier New;-inkscape-font-specification:Courier">--&gt; transitive_verb,</tspan></text></g><g id="g226" transform="matrix(1,0,0,-1,0,375)"><text id="text228" transform="translate(452.8784,217)"><tspan id="tspan230" x="0 6.992 13.985 20.977 27.97 34.962 41.954 48.947 55.939 62.932 69.924 76.916" y="0" style="font-size:12px;font-variant:normal;font-weight:400;writing-mode:lr-tb;fill:#000;fill-opacity:1;fill-rule:nonzero;stroke:none;font-family:Courier New;-inkscape-font-specification:Courier">noun_phrase</tspan></text></g><g id="g232" transform="matrix(1,0,0,-1,0,375)"><text id="text234" transform="translate(371,248)"><tspan id="tspan236" x="0 6.992 13.985 20.977 27.97 34.962 41.954 48.947 55.939 62.932 69.924 76.916 83.909 90.901 97.894" y="0" style="font-size:12px;font-variant:normal;font-weight:400;writing-mode:lr-tb;fill:#000;fill-opacity:1;fill-rule:nonzero;stroke:none;font-family:Courier New;-inkscape-font-specification:Courier">transitive_verb</tspan></text></g><g id="g238" transform="matrix(1,0,0,-1,0,375)"><text id="text240" transform="translate(475.886,248)"><tspan id="tspan242" x="0" y="0" style="font-size:12px;font-variant:normal;font-weight:400;writing-mode:lr-tb;fill:#000;fill-opacity:1;fill-rule:nonzero;stroke:none;font-family:Courier New;-inkscape-font-specification:Courier">!</tspan></text></g><g id="g244" transform="matrix(1,0,0,-1,0,375)"><text id="text246" transform="translate(482.8784,248)"><tspan id="tspan248" x="0 6.992 13.985 20.977 27.97 34.962 41.954 48.947 55.939 62.932 69.924" y="0" style="font-size:12px;font-variant:normal;font-weight:400;writing-mode:lr-tb;fill:#000;fill-opacity:1;fill-rule:nonzero;stroke:none;font-family:Courier New;-inkscape-font-specification:Courier">--&gt; [beats]</tspan></text></g><g id="g250" transform="matrix(1,0,0,-1,0,375)"><text id="text252" transform="translate(371,291)"><tspan id="tspan254" x="0 6.992 13.985 20.977 27.97 34.962 41.954 48.947 55.939 62.932 69.924" y="0" style="font-size:12px;font-variant:normal;font-weight:400;writing-mode:lr-tb;fill:#000;fill-opacity:1;fill-rule:nonzero;stroke:none;font-family:Courier New;-inkscape-font-specification:Courier">noun_phrase</tspan></text></g><g id="g256" transform="matrix(1,0,0,-1,0,375)"><text id="text258" transform="translate(447.9164,291)"><tspan id="tspan260" x="0" y="0" style="font-size:12px;font-variant:normal;font-weight:400;writing-mode:lr-tb;fill:#000;fill-opacity:1;fill-rule:nonzero;stroke:none;font-family:Courier New;-inkscape-font-specification:Courier">!</tspan></text></g><g id="g262" transform="matrix(1,0,0,-1,0,375)"><text id="text264" transform="translate(454.9088,291)"><tspan id="tspan266" x="0 6.992 13.985 20.977 27.97 34.962 41.954 48.947 55.939 62.932 69.924 76.916 83.909 90.901 97.894" y="0" style="font-size:12px;font-variant:normal;font-weight:400;writing-mode:lr-tb;fill:#000;fill-opacity:1;fill-rule:nonzero;stroke:none;font-family:Courier New;-inkscape-font-specification:Courier">--&gt; proper_noun</tspan></text></g><g id="g268" transform="matrix(1,0,0,-1,0,375)"><text id="text270" transform="translate(376,331)"><tspan id="tspan272" x="0 6.992 13.985 20.977 27.97 34.962 41.954 48.947 55.939 62.932 69.924" y="0" style="font-size:12px;font-variant:normal;font-weight:400;writing-mode:lr-tb;fill:#000;fill-opacity:1;fill-rule:nonzero;stroke:none;font-family:Courier New;-inkscape-font-specification:Courier">proper_noun</tspan></text></g><g id="g274" transform="matrix(1,0,0,-1,0,375)"><text id="text276" transform="translate(452.9164,331)"><tspan id="tspan278" x="0" y="0" style="font-size:12px;font-variant:normal;font-weight:400;writing-mode:lr-tb;fill:#000;fill-opacity:1;fill-rule:nonzero;stroke:none;font-family:Courier New;-inkscape-font-specification:Courier">!</tspan></text></g><g id="g280" transform="matrix(1,0,0,-1,0,375)"><text id="text282" transform="translate(459.9088,331)"><tspan id="tspan284" x="0 6.992 13.985 20.977 27.97 34.962 41.954 48.947 55.939 62.932 69.924 76.916 83.909 90.901" y="0" style="font-size:12px;font-variant:normal;font-weight:400;writing-mode:lr-tb;fill:#000;fill-opacity:1;fill-rule:nonzero;stroke:none;font-family:Courier New;-inkscape-font-specification:Courier">--&gt; [achilles]</tspan></text></g><g id="g286" transform="matrix(1,0,0,-1,0,375)"><path id="path288" d="m 35.125,12 0,23.25" style="fill:none;stroke:#000;stroke-width:.25;stroke-linecap:butt;stroke-linejoin:miter;stroke-miterlimit:10;stroke-opacity:1;stroke-dasharray:none"/></g><path id="path290" d="m 419,361 0.25,0 0,-0.25 -296,-21 -0.25,0 0,0.25" style="fill:#000;fill-opacity:1;fill-rule:nonzero;stroke:none"/><g id="g292" transform="matrix(1,0,0,-1,0,375)"><path id="path294" d="m 36.125,51 0,23.25" style="fill:none;stroke:#000;stroke-width:.25;stroke-linecap:butt;stroke-linejoin:miter;stroke-miterlimit:10;stroke-opacity:1;stroke-dasharray:none"/></g><path id="path296" d="m 420,322 0.25,0 0,-0.25 -296,-21 -0.25,0 0,0.25" style="fill:#000;fill-opacity:1;fill-rule:nonzero;stroke:none"/><g id="g298" transform="matrix(1,0,0,-1,0,375)"><path id="path300" d="m 36.125,87 0,23.25" style="fill:none;stroke:#000;stroke-width:.25;stroke-linecap:butt;stroke-linejoin:miter;stroke-miterlimit:10;stroke-opacity:1;stroke-dasharray:none"/></g><path id="path302" d="m 420,286 0.25,0 0,-0.25 -296,-21 -0.25,0 0,0.25" style="fill:#000;fill-opacity:1;fill-rule:nonzero;stroke:none"/><g id="g304" transform="matrix(1,0,0,-1,0,375)"><path id="path306" d="m 36.125,128 0,23.25" style="fill:none;stroke:#000;stroke-width:.25;stroke-linecap:butt;stroke-linejoin:miter;stroke-miterlimit:10;stroke-opacity:1;stroke-dasharray:none"/></g><path id="path308" d="m 420,245 0.25,0 0,-0.25 -296,-21 -0.25,0 0,0.25" style="fill:#000;fill-opacity:1;fill-rule:nonzero;stroke:none"/><g id="g310" transform="matrix(1,0,0,-1,0,375)"><path id="path312" d="m 36.125,169 0,23.25" style="fill:none;stroke:#000;stroke-width:.25;stroke-linecap:butt;stroke-linejoin:miter;stroke-miterlimit:10;stroke-opacity:1;stroke-dasharray:none"/></g><path id="path314" d="m 420,204 0.25,0 0,-0.25 -296,-21 -0.25,0 0,0.25" style="fill:#000;fill-opacity:1;fill-rule:nonzero;stroke:none"/><g id="g316" transform="matrix(1,0,0,-1,0,375)"><path id="path318" d="m 37.125,211 0,23.25" style="fill:none;stroke:#000;stroke-width:.25;stroke-linecap:butt;stroke-linejoin:miter;stroke-miterlimit:10;stroke-opacity:1;stroke-dasharray:none"/></g><path id="path320" d="m 421,162 0.25,0 0,-0.25 -296,-21 -0.25,0 0,0.25" style="fill:#000;fill-opacity:1;fill-rule:nonzero;stroke:none"/><g id="g322" transform="matrix(1,0,0,-1,0,375)"><path id="path324" d="m 37.125,253 0,23.25" style="fill:none;stroke:#000;stroke-width:.25;stroke-linecap:butt;stroke-linejoin:miter;stroke-miterlimit:10;stroke-opacity:1;stroke-dasharray:none"/></g><path id="path326" d="m 421,120 0.25,0 0,-0.25 -296,-21.00001 -0.25,0 0,0.25" style="fill:#000;fill-opacity:1;fill-rule:nonzero;stroke:none"/><g id="g328" transform="matrix(1,0,0,-1,0,375)"><path id="path330" d="m 37.125,294 0,23.25" style="fill:none;stroke:#000;stroke-width:.25;stroke-linecap:butt;stroke-linejoin:miter;stroke-miterlimit:10;stroke-opacity:1;stroke-dasharray:none"/></g><path id="path332" d="m 421,78.99999 0.25,0 0,-0.25 -296,-20.99999 -0.25,0 0,0.25" style="fill:#000;fill-opacity:1;fill-rule:nonzero;stroke:none"/><g id="g334" transform="matrix(1,0,0,-1,0,375)"><path id="path336" d="m 37.125,335 0,23.25" style="fill:none;stroke:#000;stroke-width:.25;stroke-linecap:butt;stroke-linejoin:miter;stroke-miterlimit:10;stroke-opacity:1;stroke-dasharray:none"/></g><path id="path338" d="m 421,38 0.25,0 0,-0.25 -296,-21.00001 -0.25,0 0,0.25" style="fill:#000;fill-opacity:1;fill-rule:nonzero;stroke:none"/></g></g></g></g></svg>