<svg xmlns="http://www.w3.org/2000/svg" xmlns:svg="http://www.w3.org/2000/svg" id="svg2" width="282.5" height="213.75" version="1.1" xml:space="preserve"><defs id="defs6"><clipPath id="clipPath20"><path id="path22" d="M 0,0 226,0 226,171 0,171 0,0 z"/></clipPath><clipPath id="clipPath30"><path id="path32" d="m 0,171 226,0 0,-171.000002523215 -226,0 L 0,171 z"/></clipPath><clipPath id="clipPath36"><path id="path38" d="M 0,0 226,0 226,171 0,171 0,0 z"/></clipPath></defs><g id="g12" transform="matrix(1.25,0,0,-1.25,0,213.75)"><g id="g16"><g id="g18" clip-path="url(#clipPath20)"><path id="path24" d="M 0,171 226,171 226,0 0,0 0,171 z" style="fill:#fff;fill-opacity:0;fill-rule:evenodd;stroke:none"/></g></g><g id="g26"><g id="g28" clip-path="url(#clipPath30)"><g id="g34" clip-path="url(#clipPath36)"><g id="g40" transform="matrix(1,0,0,-1,0,171)"><text id="text42" transform="translate(19,10)"><tspan id="tspan44" x="0 6.001 12.002 18.003 24.004 30.005 36.006 42.007 48.008" y="0" style="font-size:10px;font-variant:normal;font-weight:400;writing-mode:lr-tb;fill:#000;fill-opacity:1;fill-rule:nonzero;stroke:none;font-family:Courier New;-inkscape-font-specification:Courier">?-list(L)</tspan></text></g><path id="path46" d="m 28,156 0.25,0 0,-0.25 -20,-22 -0.25,0 0,0.25" style="fill:#000;fill-opacity:1;fill-rule:nonzero;stroke:none"/><path id="path48" d="m 68,156 0.25,0 20,-22 0,-0.25 -0.25,0 -20,22" style="fill:#000;fill-opacity:1;fill-rule:nonzero;stroke:none"/><g id="g50" transform="matrix(1,0,0,-1,0,171)"><text id="text52" transform="translate(3,50)"><tspan id="tspan54" x="-.75" y="0" style="font-size:20px;font-variant:normal;font-weight:400;writing-mode:lr-tb;fill:#000;fill-opacity:1;fill-rule:nonzero;stroke:none;font-family:Geneva;-inkscape-font-specification:Geneva">□</tspan></text></g><g id="g56" transform="matrix(1,0,0,-1,0,171)"><text id="text58" transform="translate(66,49)"><tspan id="tspan60" x="0 6.001 12.002 18.003 24.004 30.005 36.006 42.007 48.008 54.009" y="0" style="font-size:10px;font-variant:normal;font-weight:400;writing-mode:lr-tb;fill:#000;fill-opacity:1;fill-rule:nonzero;stroke:none;font-family:Courier New;-inkscape-font-specification:Courier">:-list(T1)</tspan></text></g><path id="path62" d="m 76,116 0.25,0 0,-0.25 -20,-22 -0.25,0 0,0.25" style="fill:#000;fill-opacity:1;fill-rule:nonzero;stroke:none"/><path id="path64" d="m 116,116 0.25,0 20,-22 0,-0.25 -0.25,0 -20,22" style="fill:#000;fill-opacity:1;fill-rule:nonzero;stroke:none"/><g id="g66" transform="matrix(1,0,0,-1,0,171)"><text id="text68" transform="translate(51,90)"><tspan id="tspan70" x="-.75" y="0" style="font-size:20px;font-variant:normal;font-weight:400;writing-mode:lr-tb;fill:#000;fill-opacity:1;fill-rule:nonzero;stroke:none;font-family:Geneva;-inkscape-font-specification:Geneva">□</tspan></text></g><g id="g72" transform="matrix(1,0,0,-1,0,171)"><text id="text74" transform="translate(114,89)"><tspan id="tspan76" x="0 6.001 12.002 18.003 24.004 30.005 36.006 42.007 48.008 54.009" y="0" style="font-size:10px;font-variant:normal;font-weight:400;writing-mode:lr-tb;fill:#000;fill-opacity:1;fill-rule:nonzero;stroke:none;font-family:Courier New;-inkscape-font-specification:Courier">:-list(T2)</tspan></text></g><path id="path78" d="m 125,75 0.25,0 0,-0.25 -20,-22 -0.25,0 0,0.25" style="fill:#000;fill-opacity:1;fill-rule:nonzero;stroke:none"/><path id="path80" d="m 165,75 0.25,0 20,-22 0,-0.25 -0.25,0 -20,22" style="fill:#000;fill-opacity:1;fill-rule:nonzero;stroke:none"/><g id="g82" transform="matrix(1,0,0,-1,0,171)"><text id="text84" transform="translate(100,131)"><tspan id="tspan86" x="-.75" y="0" style="font-size:20px;font-variant:normal;font-weight:400;writing-mode:lr-tb;fill:#000;fill-opacity:1;fill-rule:nonzero;stroke:none;font-family:Geneva;-inkscape-font-specification:Geneva">□</tspan></text></g><g id="g88" transform="matrix(1,0,0,-1,0,171)"><text id="text90" transform="translate(163,130)"><tspan id="tspan92" x="0 6.001 12.002 18.003 24.004 30.005 36.006 42.007 48.008 54.009" y="0" style="font-size:10px;font-variant:normal;font-weight:400;writing-mode:lr-tb;fill:#000;fill-opacity:1;fill-rule:nonzero;stroke:none;font-family:Courier New;-inkscape-font-specification:Courier">:-list(T3)</tspan></text></g><g id="g94" transform="matrix(1,0,0,-1,0,171)"><text id="text96" transform="translate(188,145)"><tspan id="tspan98" x="0" y="0" style="font-size:10px;font-variant:normal;font-weight:400;writing-mode:lr-tb;fill:#000;fill-opacity:1;fill-rule:nonzero;stroke:none;font-family:Courier New;-inkscape-font-specification:Courier">•</tspan></text></g><g id="g100" transform="matrix(1,0,0,-1,0,171)"><text id="text102" transform="translate(188,156)"><tspan id="tspan104" x="0" y="0" style="font-size:10px;font-variant:normal;font-weight:400;writing-mode:lr-tb;fill:#000;fill-opacity:1;fill-rule:nonzero;stroke:none;font-family:Courier New;-inkscape-font-specification:Courier">•</tspan></text></g><g id="g106" transform="matrix(1,0,0,-1,0,171)"><text id="text108" transform="translate(188,167)"><tspan id="tspan110" x="0" y="0" style="font-size:10px;font-variant:normal;font-weight:400;writing-mode:lr-tb;fill:#000;fill-opacity:1;fill-rule:nonzero;stroke:none;font-family:Courier New;-inkscape-font-specification:Courier">•</tspan></text></g></g></g></g></g></svg>