<svg xmlns="http://www.w3.org/2000/svg" xmlns:svg="http://www.w3.org/2000/svg" id="svg2" width="186.25" height="228.75" version="1.1" xml:space="preserve"><defs id="defs6"><clipPath id="clipPath20"><path id="path22" d="M 0,0 149,0 149,183 0,183 0,0 z"/></clipPath><clipPath id="clipPath30"><path id="path32" d="m 0,183 149,0 0,-183.000002700282 -149,0 L 0,183 z"/></clipPath><clipPath id="clipPath36"><path id="path38" d="M 0,0 149,0 149,183 0,183 0,0 z"/></clipPath></defs><g id="g12" transform="matrix(1.25,0,0,-1.25,0,228.75)"><g id="g16"><g id="g18" clip-path="url(#clipPath20)"><path id="path24" d="M 0,183 149,183 149,0 0,0 0,183 z" style="fill:#fff;fill-opacity:0;fill-rule:evenodd;stroke:none"/></g></g><g id="g26"><g id="g28" clip-path="url(#clipPath30)"><g id="g34" clip-path="url(#clipPath36)"><g id="g40" transform="matrix(1,0,0,-1,0,183)"><text id="text42" transform="translate(5,46)"><tspan id="tspan44" x="0 6.001 12.002 18.003 24.004 30.005 36.006 42.007 48.008 54.009 60.01" y="0" style="font-size:10px;font-variant:normal;font-weight:400;writing-mode:lr-tb;fill:#000;fill-opacity:1;fill-rule:nonzero;stroke:none;font-family:Courier New;-inkscape-font-specification:Courier">:-q,r,s,!,t</tspan></text></g><g id="g46" transform="matrix(1,0,0,-1,0,183)"><text id="text48" transform="translate(72,10)"><tspan id="tspan50" x="0 6.001 12.002" y="0" style="font-size:10px;font-variant:normal;font-weight:400;writing-mode:lr-tb;fill:#000;fill-opacity:1;fill-rule:nonzero;stroke:none;font-family:Courier New;-inkscape-font-specification:Courier">?-p</tspan></text></g><path id="path52" d="m 72,170 0.25,0 0,-0.25 -20,-22 -0.25,0 0,0.25" style="fill:#000;fill-opacity:1;fill-rule:nonzero;stroke:none"/><path id="path54" d="m 92,170 0.25,0 20,-22 0,-0.25 -0.25,0 -20,22" style="fill:#000;fill-opacity:1;fill-rule:nonzero;stroke:none"/><g id="g56" transform="matrix(1,0,0,-1,0,183)"><path id="path58" d="m 19,140.5 46,0" style="fill:none;stroke:#000;stroke-width:1;stroke-linecap:butt;stroke-linejoin:miter;stroke-miterlimit:10;stroke-opacity:1;stroke-dasharray:none"/></g><g id="g60" transform="matrix(1,0,0,-1,0,183)"><path id="path62" d="m 43.125,96 0,29.25" style="fill:none;stroke:#000;stroke-width:.25;stroke-linecap:butt;stroke-linejoin:miter;stroke-miterlimit:10;stroke-opacity:1;stroke-dasharray:none"/></g><g id="g64" transform="matrix(1,0,0,-1,0,183)"><text id="text66" transform="translate(128,179)"><tspan id="tspan68" x="-2.5" y="1.75" style="font-size:20px;font-variant:normal;font-weight:400;writing-mode:lr-tb;fill:#000;fill-opacity:1;fill-rule:nonzero;stroke:none;font-family:Geneva;-inkscape-font-specification:Geneva">□</tspan></text></g><g id="g70" transform="matrix(1,0,0,-1,0,183)"><path id="path72" d="m 131.125,138 0,29.25" style="fill:none;stroke:#000;stroke-width:.25;stroke-linecap:butt;stroke-linejoin:miter;stroke-miterlimit:10;stroke-opacity:1;stroke-dasharray:none"/></g><g id="g74" transform="matrix(1,0,0,-1,0,183)"><path id="path76" d="m 43.125,51 0,29.25" style="fill:none;stroke:#000;stroke-width:.25;stroke-linecap:butt;stroke-linejoin:miter;stroke-miterlimit:10;stroke-opacity:1;stroke-dasharray:none"/></g><g id="g78" transform="matrix(1,0,0,-1,0,183)"><text id="text80" transform="translate(12,90)"><tspan id="tspan82" x="0 6.001 12.002 18.003 24.004 30.005 36.006 42.007 48.008" y="0" style="font-size:10px;font-variant:normal;font-weight:400;writing-mode:lr-tb;fill:#000;fill-opacity:1;fill-rule:nonzero;stroke:none;font-family:Courier New;-inkscape-font-specification:Courier">:-r,s,!,t</tspan></text></g><g id="g84" transform="matrix(1,0,0,-1,0,183)"><text id="text86" transform="translate(19,136)"><tspan id="tspan88" x="0 6.001 12.002 18.003 24.004 30.005 36.006" y="0" style="font-size:10px;font-variant:normal;font-weight:400;writing-mode:lr-tb;fill:#000;fill-opacity:1;fill-rule:nonzero;stroke:none;font-family:Courier New;-inkscape-font-specification:Courier">:-s,!,t</tspan></text></g><g id="g90" transform="matrix(1,0,0,-1,0,183)"><text id="text92" transform="translate(104,45)"><tspan id="tspan94" x="0 6.001 12.002 18.003 24.004 30.005 36.006" y="0" style="font-size:10px;font-variant:normal;font-weight:400;writing-mode:lr-tb;fill:#000;fill-opacity:1;fill-rule:nonzero;stroke:none;font-family:Courier New;-inkscape-font-specification:Courier">:-q,r,u</tspan></text></g><g id="g96" transform="matrix(1,0,0,-1,0,183)"><path id="path98" d="m 130.125,95 0,29.25" style="fill:none;stroke:#000;stroke-width:.25;stroke-linecap:butt;stroke-linejoin:miter;stroke-miterlimit:10;stroke-opacity:1;stroke-dasharray:none"/></g><g id="g100" transform="matrix(1,0,0,-1,0,183)"><path id="path102" d="m 130.125,50 0,29.25" style="fill:none;stroke:#000;stroke-width:.25;stroke-linecap:butt;stroke-linejoin:miter;stroke-miterlimit:10;stroke-opacity:1;stroke-dasharray:none"/></g><g id="g104" transform="matrix(1,0,0,-1,0,183)"><text id="text106" transform="translate(111,89)"><tspan id="tspan108" x="0 6.001 12.002 18.003 24.004" y="0" style="font-size:10px;font-variant:normal;font-weight:400;writing-mode:lr-tb;fill:#000;fill-opacity:1;fill-rule:nonzero;stroke:none;font-family:Courier New;-inkscape-font-specification:Courier">:-r,u</tspan></text></g><g id="g110" transform="matrix(1,0,0,-1,0,183)"><text id="text112" transform="translate(118,135)"><tspan id="tspan114" x="0 6.001 12.002" y="0" style="font-size:10px;font-variant:normal;font-weight:400;writing-mode:lr-tb;fill:#000;fill-opacity:1;fill-rule:nonzero;stroke:none;font-family:Courier New;-inkscape-font-specification:Courier">:-u</tspan></text></g></g></g></g></g></svg>