<svg xmlns="http://www.w3.org/2000/svg" xmlns:svg="http://www.w3.org/2000/svg" id="svg2" width="707.5" height="181.25" version="1.1" xml:space="preserve"><defs id="defs6"><clipPath id="clipPath20"><path id="path22" d="M 0,0 566,0 566,145 0,145 0,0 z"/></clipPath><clipPath id="clipPath30"><path id="path32" d="m 0,145 566,0 0,-145.000002139568 -566,0 L 0,145 z"/></clipPath><clipPath id="clipPath36"><path id="path38" d="M 0,0 566,0 566,145 0,145 0,0 z"/></clipPath></defs><g id="g12" transform="matrix(1.25,0,0,-1.25,0,181.25)"><g id="g16"><g id="g18" clip-path="url(#clipPath20)"><path id="path24" d="M 0,145 566,145 566,0 0,0 0,145 z" style="fill:#fff;fill-opacity:0;fill-rule:evenodd;stroke:none"/></g></g><g id="g26"><g id="g28" clip-path="url(#clipPath30)"><g id="g34" clip-path="url(#clipPath36)"><g id="g40" transform="matrix(1,0,0,-1,0,145)"><text id="text42" transform="translate(374,18)"><tspan id="tspan44" x="0 6.982 13.963 20.945 27.926 34.908 41.89 48.871 55.853 62.834 69.816 76.798" y="0" style="font-size:12px;font-variant:normal;font-weight:400;writing-mode:lr-tb;fill:#000;fill-opacity:1;fill-rule:nonzero;stroke:none;font-family:Courier New;-inkscape-font-specification:Courier">teacher;wise</tspan></text></g><g id="g46" transform="matrix(1,0,0,-1,0,145)"><text id="text48" transform="translate(470,19)"><tspan id="tspan50" x="0 6.983 13.966 20.948 27.931 34.914 41.897 48.88 55.862 62.845 69.828 76.811 83.794" y="0" style="font-size:12px;font-variant:normal;font-weight:400;writing-mode:lr-tb;fill:#000;fill-opacity:1;fill-rule:nonzero;stroke:none;font-family:Courier New;-inkscape-font-specification:Courier">teacher:-wise</tspan></text></g><g id="g52" transform="matrix(1,0,0,-1,0,145)"><text id="text54" transform="translate(446,79)"><tspan id="tspan56" x="0 6.966 13.932 20.898 27.864 34.83 41.796" y="0" style="font-size:12px;font-variant:normal;font-weight:400;writing-mode:lr-tb;fill:#000;fill-opacity:1;fill-rule:nonzero;stroke:none;font-family:Courier New;-inkscape-font-specification:Courier">teacher</tspan></text></g><g id="g58" transform="matrix(1,0,0,-1,0,145)"><text id="text60" transform="translate(4,17)"><tspan id="tspan62" x="0 6.991 13.982 20.974 27.965 34.956 41.947 48.938 55.93 62.921 69.912 76.903 83.894 90.886 97.877 104.868 111.859 118.85 125.842 132.833 139.824 146.815 153.806" y="0" style="font-size:12px;font-variant:normal;font-weight:400;writing-mode:lr-tb;fill:#000;fill-opacity:1;fill-rule:nonzero;stroke:none;font-family:Courier New;-inkscape-font-specification:Courier">happy;friendly:-teacher</tspan></text></g><g id="g64" transform="matrix(1,0,0,-1,0,145)"><text id="text66" transform="translate(187,17)"><tspan id="tspan68" x="0 6.991 13.982 20.974 27.965 34.956 41.947 48.938 55.93 62.921 69.912 76.903 83.894 90.886 97.877 104.868 111.859 118.85 125.842 132.833 139.824 146.815 153.806" y="0" style="font-size:12px;font-variant:normal;font-weight:400;writing-mode:lr-tb;fill:#000;fill-opacity:1;fill-rule:nonzero;stroke:none;font-family:Courier New;-inkscape-font-specification:Courier">friendly:-teacher,happy</tspan></text></g><g id="g70" transform="matrix(1,0,0,-1,0,145)"><text id="text72" transform="translate(118,77)"><tspan id="tspan74" x="0 6.988 13.975 20.963 27.95 34.938 41.926 48.913 55.901 62.888 69.876 76.864 83.851 90.839 97.826 104.814 111.802" y="0" style="font-size:12px;font-variant:normal;font-weight:400;writing-mode:lr-tb;fill:#000;fill-opacity:1;fill-rule:nonzero;stroke:none;font-family:Courier New;-inkscape-font-specification:Courier">friendly:-teacher</tspan></text></g><g id="g76" transform="matrix(1,0,0,-1,0,145)"><text id="text78" transform="translate(298,141)"><tspan id="tspan80" x="0 6.971 13.942 20.912 27.883 34.854 41.825 48.796" y="0" style="font-size:12px;font-variant:normal;font-weight:400;writing-mode:lr-tb;fill:#000;fill-opacity:1;fill-rule:nonzero;stroke:none;font-family:Courier New;-inkscape-font-specification:Courier">friendly</tspan></text></g><path id="path82" d="m 71,123 0.25,0 100,-40 0,-0.25 -0.25,0 -100,40" style="fill:#000;fill-opacity:1;fill-rule:nonzero;stroke:none"/><path id="path84" d="m 283,123 0.25,0 0,-0.25 -100,-40 -0.25,0 0,0.25" style="fill:#000;fill-opacity:1;fill-rule:nonzero;stroke:none"/><path id="path86" d="m 423,121 0.25,0 37,-43 0,-0.25 -0.25,0 -37,43" style="fill:#000;fill-opacity:1;fill-rule:nonzero;stroke:none"/><path id="path88" d="m 520,122 0.25,0 0,-0.25 -37,-43 -0.25,0 0,0.25" style="fill:#000;fill-opacity:1;fill-rule:nonzero;stroke:none"/><path id="path90" d="m 179,62 0.25,0 131,-45 0,-0.25 -0.25,0 -131,45" style="fill:#000;fill-opacity:1;fill-rule:nonzero;stroke:none"/><path id="path92" d="m 465,61 0.25,0 0,-0.25 -131,-45 -0.25,0 0,0.25" style="fill:#000;fill-opacity:1;fill-rule:nonzero;stroke:none"/></g></g></g></g></svg>