<svg xmlns="http://www.w3.org/2000/svg" xmlns:svg="http://www.w3.org/2000/svg" id="svg2" width="267.5" height="185" version="1.1" xml:space="preserve"><defs id="defs6"><clipPath id="clipPath20"><path id="path22" d="M 0,0 214,0 214,148 0,148 0,0 z"/></clipPath><clipPath id="clipPath30"><path id="path32" d="m 0,148 214,0 0,-148.000002183835 -214,0 L 0,148 z"/></clipPath><clipPath id="clipPath36"><path id="path38" d="M 0,0 214,0 214,148 0,148 0,0 z"/></clipPath><clipPath id="clipPath50"><path id="path52" d="m 0,148 214,0 0,-148.000002183835 -214,0 L 0,148 z"/></clipPath><clipPath id="clipPath56"><path id="path58" d="m 53,135 74,0 0,12 -74,0 0,-12 z"/></clipPath><clipPath id="clipPath70"><path id="path72" d="m 0,148 214,0 0,-148.000002183835 -214,0 L 0,148 z"/></clipPath><clipPath id="clipPath76"><path id="path78" d="M 0,0 214,0 214,148 0,148 0,0 z"/></clipPath><clipPath id="clipPath88"><path id="path90" d="m 0,148 214,0 0,-148.000002183835 -214,0 L 0,148 z"/></clipPath><clipPath id="clipPath94"><path id="path96" d="m 94,98 115,0 0,12 -115,0 0,-12 z"/></clipPath><clipPath id="clipPath108"><path id="path110" d="m 0,148 214,0 0,-148.000002183835 -214,0 L 0,148 z"/></clipPath><clipPath id="clipPath114"><path id="path116" d="M 0,0 214,0 214,148 0,148 0,0 z"/></clipPath><clipPath id="clipPath126"><path id="path128" d="m 0,148 214,0 0,-148.000002183835 -214,0 L 0,148 z"/></clipPath><clipPath id="clipPath132"><path id="path134" d="m 114,15 10,0 0,13 -10,0 0,-13 z"/></clipPath><clipPath id="clipPath146"><path id="path148" d="m 0,148 214,0 0,-148.000002183835 -214,0 L 0,148 z"/></clipPath><clipPath id="clipPath152"><path id="path154" d="m 195,15 10,0 0,13 -10,0 0,-13 z"/></clipPath><clipPath id="clipPath166"><path id="path168" d="m 0,148 214,0 0,-148.000002183835 -214,0 L 0,148 z"/></clipPath><clipPath id="clipPath172"><path id="path174" d="m 1,97 80,0 0,12 -80,0 0,-12 z"/></clipPath><clipPath id="clipPath186"><path id="path188" d="m 0,148 214,0 0,-148.000002183835 -214,0 L 0,148 z"/></clipPath><clipPath id="clipPath192"><path id="path194" d="m 40,54 10,0 0,13 -10,0 0,-13 z"/></clipPath><clipPath id="clipPath206"><path id="path208" d="m 0,148 214,0 0,-148.000002183835 -214,0 L 0,148 z"/></clipPath><clipPath id="clipPath212"><path id="path214" d="M 0,0 214,0 214,148 0,148 0,0 z"/></clipPath><clipPath id="clipPath224"><path id="path226" d="m 0,148 214,0 0,-148.000002183835 -214,0 L 0,148 z"/></clipPath><clipPath id="clipPath230"><path id="path232" d="m 19,41 44,0 0,12 -44,0 0,-12 z"/></clipPath><clipPath id="clipPath244"><path id="path246" d="m 0,148 214,0 0,-148.000002183835 -214,0 L 0,148 z"/></clipPath><clipPath id="clipPath250"><path id="path252" d="m 110,2.999998 44,0 0,12 -44,0 0,-12 z"/></clipPath><clipPath id="clipPath264"><path id="path266" d="m 0,148 214,0 0,-148.000002183835 -214,0 L 0,148 z"/></clipPath><clipPath id="clipPath270"><path id="path272" d="m 170,2.999998 38,0 0,12 -38,0 0,-12 z"/></clipPath><clipPath id="clipPath284"><path id="path286" d="m 0,148 214,0 0,-148.000002183835 -214,0 L 0,148 z"/></clipPath><clipPath id="clipPath290"><path id="path292" d="M 0,0 214,0 214,148 0,148 0,0 z"/></clipPath><clipPath id="clipPath302"><path id="path304" d="m 0,148 214,0 0,-148.000002183835 -214,0 L 0,148 z"/></clipPath><clipPath id="clipPath308"><path id="path310" d="m 106,59 19,0 0,12 -19,0 0,-12 z"/></clipPath><clipPath id="clipPath322"><path id="path324" d="m 0,148 214,0 0,-148.000002183835 -214,0 L 0,148 z"/></clipPath><clipPath id="clipPath328"><path id="path330" d="m 187,59 19,0 0,12 -19,0 0,-12 z"/></clipPath><clipPath id="clipPath342"><path id="path344" d="m 0,148 214,0 0,-148.000002183835 -214,0 L 0,148 z"/></clipPath><clipPath id="clipPath348"><path id="path350" d="M 0,0 214,0 214,148 0,148 0,0 z"/></clipPath></defs><g id="g12" transform="matrix(1.25,0,0,-1.25,0,185)"><g id="g16"><g id="g18" clip-path="url(#clipPath20)"><path id="path24" d="M 0,148 214,148 214,0 0,0 0,148 z" style="fill:#fff;fill-opacity:0;fill-rule:evenodd;stroke:none"/></g></g><g id="g26"><g id="g28" clip-path="url(#clipPath30)"><g id="g34" clip-path="url(#clipPath36)"><path id="path40" d="m 166,96 47,0 0,-95.0000022 -47,0 L 166,96 z" style="fill:#efefef;fill-opacity:1;fill-rule:nonzero;stroke:none"/><g id="g42" transform="matrix(1,0,0,-1,0,148)"><path id="path44" d="m 166.5,52.5 46,0 0,94 -46,0 0,-94 z" style="fill:none;stroke:#fff;stroke-width:1;stroke-linecap:butt;stroke-linejoin:miter;stroke-miterlimit:10;stroke-opacity:1;stroke-dasharray:none"/></g></g></g></g><g id="g46"><g id="g48" clip-path="url(#clipPath50)"><g id="g54" clip-path="url(#clipPath56)"><g id="g60" transform="matrix(1,0,0,-1,0,148)"><text id="text62" transform="translate(54,10)"><tspan id="tspan64" x="0 6.001 12.002 18.003 24.004 30.005 36.006 42.007 48.008 54.009 60.01 66.011" y="0" style="font-size:10px;font-variant:normal;font-weight:400;writing-mode:lr-tb;fill:#000;fill-opacity:1;fill-rule:nonzero;stroke:none;font-family:Courier New;-inkscape-font-specification:Courier">?-likes(A,B)</tspan></text></g></g></g></g><g id="g66"><g id="g68" clip-path="url(#clipPath70)"><g id="g74" clip-path="url(#clipPath76)"><path id="path80" d="m 72,133 0.25,0 0,-0.25 -20,-22 -0.25,0 0,0.25" style="fill:#000;fill-opacity:1;fill-rule:nonzero;stroke:none"/><path id="path82" d="m 112,133 0.25,0 20,-22 0,-0.25 -0.25,0 -20,22" style="fill:#000;fill-opacity:1;fill-rule:nonzero;stroke:none"/></g></g></g><g id="g84"><g id="g86" clip-path="url(#clipPath88)"><g id="g92" clip-path="url(#clipPath94)"><g id="g98" transform="matrix(1,0,0,-1,0,148)"><text id="text100" transform="translate(95,47)"><tspan id="tspan102" x="0 6.001 12.002 18.003 24.004 30.005 36.006 42.007 48.008 54.009 60.01 66.011 72.012 78.013 84.014 90.015 96.016 102.017 108.018" y="0" style="font-size:10px;font-variant:normal;font-weight:400;writing-mode:lr-tb;fill:#000;fill-opacity:1;fill-rule:nonzero;stroke:none;font-family:Courier New;-inkscape-font-specification:Courier">:-student_of(B,A),!</tspan></text></g></g></g></g><g id="g104"><g id="g106" clip-path="url(#clipPath108)"><g id="g112" clip-path="url(#clipPath114)"><path id="path118" d="m 136,95 0.25,0 0,-0.25 -20,-22 -0.25,0 0,0.25" style="fill:#000;fill-opacity:1;fill-rule:nonzero;stroke:none"/><path id="path120" d="m 176,95 0.25,0 20,-22 0,-0.25 -0.25,0 -20,22" style="fill:#000;fill-opacity:1;fill-rule:nonzero;stroke:none"/></g></g></g><g id="g122"><g id="g124" clip-path="url(#clipPath126)"><g id="g130" clip-path="url(#clipPath132)"><g id="g136" transform="matrix(1,0,0,-1,0,148)"><text id="text138" transform="translate(115,130)"><tspan id="tspan140" x="-2.95" y=".75" style="font-size:20px;font-variant:normal;font-weight:400;writing-mode:lr-tb;fill:#000;fill-opacity:1;fill-rule:nonzero;stroke:none;font-family:Geneva;-inkscape-font-specification:Geneva">□</tspan></text></g></g></g></g><g id="g142"><g id="g144" clip-path="url(#clipPath146)"><g id="g150" clip-path="url(#clipPath152)"><g id="g156" transform="matrix(1,0,0,-1,0,148)"><text id="text158" transform="translate(196,130)"><tspan id="tspan160" x="-2.95" y=".75" style="font-size:20px;font-variant:normal;font-weight:400;writing-mode:lr-tb;fill:#000;fill-opacity:1;fill-rule:nonzero;stroke:none;font-family:Geneva;-inkscape-font-specification:Geneva">□</tspan></text></g></g></g></g><g id="g162"><g id="g164" clip-path="url(#clipPath166)"><g id="g170" clip-path="url(#clipPath172)"><g id="g176" transform="matrix(1,0,0,-1,0,148)"><text id="text178" transform="translate(2,48)"><tspan id="tspan180" x="0 6.001 12.002 18.003 24.004 30.005 36.006 42.007 48.008 54.009 60.01 66.011 72.012" y="0" style="font-size:10px;font-variant:normal;font-weight:400;writing-mode:lr-tb;fill:#000;fill-opacity:1;fill-rule:nonzero;stroke:none;font-family:Courier New;-inkscape-font-specification:Courier">:-friendly(B)</tspan></text></g></g></g></g><g id="g182"><g id="g184" clip-path="url(#clipPath186)"><g id="g190" clip-path="url(#clipPath192)"><g id="g196" transform="matrix(1,0,0,-1,0,148)"><text id="text198" transform="translate(41,91)"><tspan id="tspan200" x="-2.95" y=".75" style="font-size:20px;font-variant:normal;font-weight:400;writing-mode:lr-tb;fill:#000;fill-opacity:1;fill-rule:nonzero;stroke:none;font-family:Geneva;-inkscape-font-specification:Geneva">□</tspan></text></g></g></g></g><g id="g202"><g id="g204" clip-path="url(#clipPath206)"><g id="g210" clip-path="url(#clipPath212)"><g id="g216" transform="matrix(1,0,0,-1,0,148)"><path id="path218" d="m 43.125,52 0,27.25" style="fill:none;stroke:#000;stroke-width:.25;stroke-linecap:butt;stroke-linejoin:miter;stroke-miterlimit:10;stroke-opacity:1;stroke-dasharray:none"/></g></g></g></g><g id="g220"><g id="g222" clip-path="url(#clipPath224)"><g id="g228" clip-path="url(#clipPath230)"><g id="g234" transform="matrix(1,0,0,-1,0,148)"><text id="text236" transform="translate(20,104)"><tspan id="tspan238" x="0 6.001 12.002 18.003 24.004 30.005 36.006" y="0" style="font-size:10px;font-variant:normal;font-weight:400;writing-mode:lr-tb;fill:#000;fill-opacity:1;fill-rule:nonzero;stroke:none;font-family:Courier New;-inkscape-font-specification:Courier">B=maria</tspan></text></g></g></g></g><g id="g240"><g id="g242" clip-path="url(#clipPath244)"><g id="g248" clip-path="url(#clipPath250)"><g id="g254" transform="matrix(1,0,0,-1,0,148)"><text id="text256" transform="translate(111,142)"><tspan id="tspan258" x="0 6.001 12.002 18.003 24.004 30.005 36.006" y="0" style="font-size:10px;font-variant:normal;font-weight:400;writing-mode:lr-tb;fill:#000;fill-opacity:1;fill-rule:nonzero;stroke:none;font-family:Courier New;-inkscape-font-specification:Courier">B=maria</tspan></text></g></g></g></g><g id="g260"><g id="g262" clip-path="url(#clipPath264)"><g id="g268" clip-path="url(#clipPath270)"><g id="g274" transform="matrix(1,0,0,-1,0,148)"><text id="text276" transform="translate(171,142)"><tspan id="tspan278" x="0 6.001 12.002 18.003 24.004 30.005" y="0" style="font-size:10px;font-variant:normal;font-weight:400;writing-mode:lr-tb;fill:#000;fill-opacity:1;fill-rule:nonzero;stroke:none;font-family:Courier New;-inkscape-font-specification:Courier">B=paul</tspan></text></g></g></g></g><g id="g280"><g id="g282" clip-path="url(#clipPath284)"><g id="g288" clip-path="url(#clipPath290)"><g id="g294" transform="matrix(1,0,0,-1,0,148)"><path id="path296" d="m 117.125,91 0,27.25" style="fill:none;stroke:#000;stroke-width:.25;stroke-linecap:butt;stroke-linejoin:miter;stroke-miterlimit:10;stroke-opacity:1;stroke-dasharray:none"/></g></g></g></g><g id="g298"><g id="g300" clip-path="url(#clipPath302)"><g id="g306" clip-path="url(#clipPath308)"><g id="g312" transform="matrix(1,0,0,-1,0,148)"><text id="text314" transform="translate(107,86)"><tspan id="tspan316" x="0 6.001 12.002" y="0" style="font-size:10px;font-variant:normal;font-weight:400;writing-mode:lr-tb;fill:#000;fill-opacity:1;fill-rule:nonzero;stroke:none;font-family:Courier New;-inkscape-font-specification:Courier">:-!</tspan></text></g></g></g></g><g id="g318"><g id="g320" clip-path="url(#clipPath322)"><g id="g326" clip-path="url(#clipPath328)"><g id="g332" transform="matrix(1,0,0,-1,0,148)"><text id="text334" transform="translate(188,86)"><tspan id="tspan336" x="0 6.001 12.002" y="0" style="font-size:10px;font-variant:normal;font-weight:400;writing-mode:lr-tb;fill:#000;fill-opacity:1;fill-rule:nonzero;stroke:none;font-family:Courier New;-inkscape-font-specification:Courier">:-!</tspan></text></g></g></g></g><g id="g338"><g id="g340" clip-path="url(#clipPath342)"><g id="g346" clip-path="url(#clipPath348)"><g id="g352" transform="matrix(1,0,0,-1,0,148)"><path id="path354" d="m 198.125,91 0,27.25" style="fill:none;stroke:#000;stroke-width:.25;stroke-linecap:butt;stroke-linejoin:miter;stroke-miterlimit:10;stroke-opacity:1;stroke-dasharray:none"/></g></g></g></g></g></svg>