<svg xmlns="http://www.w3.org/2000/svg" xmlns:svg="http://www.w3.org/2000/svg" id="svg2" width="435" height="453.75" version="1.1" xml:space="preserve"><defs id="defs6"><clipPath id="clipPath20"><path id="path22" d="M 0,0 348,0 348,363 0,363 0,0 z"/></clipPath><clipPath id="clipPath30"><path id="path32" d="m 0,363 348,0 0,-363.000005356298 -348,0 L 0,363 z"/></clipPath><clipPath id="clipPath36"><path id="path38" d="M 0,0 348,0 348,363 0,363 0,0 z"/></clipPath></defs><g id="g12" transform="matrix(1.25,0,0,-1.25,0,453.75)"><g id="g16"><g id="g18" clip-path="url(#clipPath20)"><path id="path24" d="M 0,363 348,363 348,0 0,0 0,363 z" style="fill:#fff;fill-opacity:0;fill-rule:evenodd;stroke:none"/></g></g><g id="g26"><g id="g28" clip-path="url(#clipPath30)"><g id="g34" clip-path="url(#clipPath36)"><g id="g40" transform="matrix(1,0,0,-1,0,363)"><text id="text42" transform="translate(2,10)"><tspan id="tspan44" x="0 6.001 12.002 18.003 24.004 30.005 36.006 42.007 48.008 54.009 60.01 66.011 72.012 78.013 84.014 90.015 96.016 102.017 108.018" y="0" style="font-size:10px;font-variant:normal;font-weight:400;writing-mode:lr-tb;fill:#000;fill-opacity:1;fill-rule:nonzero;stroke:none;font-family:Courier New;-inkscape-font-specification:Courier">?-length([a,b,c],N)</tspan></text></g><g id="g46" transform="matrix(1,0,0,-1,0,363)"><text id="text48" transform="translate(188,40)"><tspan id="tspan50" x="0 6.001 12.002 18.003 24.004 30.005 36.006 42.007 48.008 54.009 60.01 66.011 72.012 78.013 84.014 90.015 96.016 102.017 108.018 114.019 120.02 126.021 132.022" y="0" style="font-size:10px;font-variant:normal;font-weight:400;writing-mode:lr-tb;fill:#000;fill-opacity:1;fill-rule:nonzero;stroke:none;font-family:Courier New;-inkscape-font-specification:Courier">{H-&gt;a, T-&gt;[b,c], N1-&gt;N}</tspan></text></g><g id="g52" transform="matrix(1,0,0,-1,0,363)"><text id="text54" transform="translate(10,63)"><tspan id="tspan56" x="0 6.001 12.002 18.003 24.004 30.005 36.006 42.007 48.008 54.009 60.01 66.011 72.012 78.013 84.014 90.015 96.016 102.017 108.018" y="0" style="font-size:10px;font-variant:normal;font-weight:400;writing-mode:lr-tb;fill:#000;fill-opacity:1;fill-rule:nonzero;stroke:none;font-family:Courier New;-inkscape-font-specification:Courier">:-length([b,c],M1),</tspan></text></g><g id="g58" transform="matrix(1,0,0,-1,0,363)"><text id="text60" transform="translate(22.002,75)"><tspan id="tspan62" x="0 6.001 12.002 18.003 24.004 30.005 36.006 42.007 48.008" y="0" style="font-size:10px;font-variant:normal;font-weight:400;writing-mode:lr-tb;fill:#000;fill-opacity:1;fill-rule:nonzero;stroke:none;font-family:Courier New;-inkscape-font-specification:Courier">N is M1+1</tspan></text></g><g id="g64" transform="matrix(1,0,0,-1,0,363)"><path id="path66" d="m 57.125,16 0,36.25" style="fill:none;stroke:#000;stroke-width:.25;stroke-linecap:butt;stroke-linejoin:miter;stroke-miterlimit:10;stroke-opacity:1;stroke-dasharray:none"/></g><path id="path68" d="m 252,347 0.25,0 0,-0.25 -171,-36 -0.25,0 0,0.25" style="fill:#000;fill-opacity:1;fill-rule:nonzero;stroke:none"/><g id="g70" transform="matrix(1,0,0,-1,0,363)"><text id="text72" transform="translate(18,118)"><tspan id="tspan74" x="0 6.001 12.002 18.003 24.004 30.005 36.006 42.007 48.008 54.009 60.01 66.011 72.012 78.013 84.014 90.015 96.016" y="0" style="font-size:10px;font-variant:normal;font-weight:400;writing-mode:lr-tb;fill:#000;fill-opacity:1;fill-rule:nonzero;stroke:none;font-family:Courier New;-inkscape-font-specification:Courier">:-length([c],M2),</tspan></text></g><g id="g76" transform="matrix(1,0,0,-1,0,363)"><text id="text78" transform="translate(30.002,130)"><tspan id="tspan80" x="0 6.001 12.002 18.003 24.004 30.005 36.006 42.007 48.008 54.009 60.01" y="0" style="font-size:10px;font-variant:normal;font-weight:400;writing-mode:lr-tb;fill:#000;fill-opacity:1;fill-rule:nonzero;stroke:none;font-family:Courier New;-inkscape-font-specification:Courier">M1 is M2+1,</tspan></text></g><g id="g82" transform="matrix(1,0,0,-1,0,363)"><text id="text84" transform="translate(30.002,142)"><tspan id="tspan86" x="0 6.001 12.002 18.003 24.004 30.005 36.006 42.007 48.008" y="0" style="font-size:10px;font-variant:normal;font-weight:400;writing-mode:lr-tb;fill:#000;fill-opacity:1;fill-rule:nonzero;stroke:none;font-family:Courier New;-inkscape-font-specification:Courier">N is M1+1</tspan></text></g><g id="g88" transform="matrix(1,0,0,-1,0,363)"><path id="path90" d="m 57.125,79 0,28.25" style="fill:none;stroke:#000;stroke-width:.25;stroke-linecap:butt;stroke-linejoin:miter;stroke-miterlimit:10;stroke-opacity:1;stroke-dasharray:none"/></g><g id="g92" transform="matrix(1,0,0,-1,0,363)"><text id="text94" transform="translate(21,172)"><tspan id="tspan96" x="0 6.001 12.002 18.003 24.004 30.005 36.006 42.007 48.008 54.009 60.01 66.011 72.012 78.013 84.014 90.015" y="0" style="font-size:10px;font-variant:normal;font-weight:400;writing-mode:lr-tb;fill:#000;fill-opacity:1;fill-rule:nonzero;stroke:none;font-family:Courier New;-inkscape-font-specification:Courier">:-length([],M3),</tspan></text></g><g id="g98" transform="matrix(1,0,0,-1,0,363)"><text id="text100" transform="translate(33.002,184)"><tspan id="tspan102" x="0 6.001 12.002 18.003 24.004 30.005 36.006 42.007 48.008 54.009 60.01" y="0" style="font-size:10px;font-variant:normal;font-weight:400;writing-mode:lr-tb;fill:#000;fill-opacity:1;fill-rule:nonzero;stroke:none;font-family:Courier New;-inkscape-font-specification:Courier">M2 is M3+1,</tspan></text></g><g id="g104" transform="matrix(1,0,0,-1,0,363)"><text id="text106" transform="translate(33.002,196)"><tspan id="tspan108" x="0 6.001 12.002 18.003 24.004 30.005 36.006 42.007 48.008 54.009 60.01" y="0" style="font-size:10px;font-variant:normal;font-weight:400;writing-mode:lr-tb;fill:#000;fill-opacity:1;fill-rule:nonzero;stroke:none;font-family:Courier New;-inkscape-font-specification:Courier">M1 is M2+1,</tspan></text></g><g id="g110" transform="matrix(1,0,0,-1,0,363)"><text id="text112" transform="translate(33.002,208)"><tspan id="tspan114" x="0 6.001 12.002 18.003 24.004 30.005 36.006 42.007 48.008" y="0" style="font-size:10px;font-variant:normal;font-weight:400;writing-mode:lr-tb;fill:#000;fill-opacity:1;fill-rule:nonzero;stroke:none;font-family:Courier New;-inkscape-font-specification:Courier">N is M1+1</tspan></text></g><g id="g116" transform="matrix(1,0,0,-1,0,363)"><path id="path118" d="m 58.125,146 0,14.25" style="fill:none;stroke:#000;stroke-width:.25;stroke-linecap:butt;stroke-linejoin:miter;stroke-miterlimit:10;stroke-opacity:1;stroke-dasharray:none"/></g><g id="g120" transform="matrix(1,0,0,-1,0,363)"><text id="text122" transform="translate(25,235)"><tspan id="tspan124" x="0 6.001 12.002 18.003 24.004 30.005 36.006 42.007 48.008 54.009 60.01 66.011" y="0" style="font-size:10px;font-variant:normal;font-weight:400;writing-mode:lr-tb;fill:#000;fill-opacity:1;fill-rule:nonzero;stroke:none;font-family:Courier New;-inkscape-font-specification:Courier">:-M2 is 0+1,</tspan></text></g><g id="g126" transform="matrix(1,0,0,-1,0,363)"><text id="text128" transform="translate(37.002,247)"><tspan id="tspan130" x="0 6.001 12.002 18.003 24.004 30.005 36.006 42.007 48.008 54.009 60.01" y="0" style="font-size:10px;font-variant:normal;font-weight:400;writing-mode:lr-tb;fill:#000;fill-opacity:1;fill-rule:nonzero;stroke:none;font-family:Courier New;-inkscape-font-specification:Courier">M1 is M2+1,</tspan></text></g><g id="g132" transform="matrix(1,0,0,-1,0,363)"><text id="text134" transform="translate(37.002,259)"><tspan id="tspan136" x="0 6.001 12.002 18.003 24.004 30.005 36.006 42.007 48.008" y="0" style="font-size:10px;font-variant:normal;font-weight:400;writing-mode:lr-tb;fill:#000;fill-opacity:1;fill-rule:nonzero;stroke:none;font-family:Courier New;-inkscape-font-specification:Courier">N is M1+1</tspan></text></g><g id="g138" transform="matrix(1,0,0,-1,0,363)"><path id="path140" d="m 60.125,210 0,15.25" style="fill:none;stroke:#000;stroke-width:.25;stroke-linecap:butt;stroke-linejoin:miter;stroke-miterlimit:10;stroke-opacity:1;stroke-dasharray:none"/></g><g id="g142" transform="matrix(1,0,0,-1,0,363)"><text id="text144" transform="translate(28,288)"><tspan id="tspan146" x="0 6.001 12.002 18.003 24.004 30.005 36.006 42.007 48.008 54.009 60.01 66.011" y="0" style="font-size:10px;font-variant:normal;font-weight:400;writing-mode:lr-tb;fill:#000;fill-opacity:1;fill-rule:nonzero;stroke:none;font-family:Courier New;-inkscape-font-specification:Courier">:-M1 is 1+1,</tspan></text></g><g id="g148" transform="matrix(1,0,0,-1,0,363)"><text id="text150" transform="translate(40.002,300)"><tspan id="tspan152" x="0 6.001 12.002 18.003 24.004 30.005 36.006 42.007 48.008" y="0" style="font-size:10px;font-variant:normal;font-weight:400;writing-mode:lr-tb;fill:#000;fill-opacity:1;fill-rule:nonzero;stroke:none;font-family:Courier New;-inkscape-font-specification:Courier">N is M1+1</tspan></text></g><g id="g154" transform="matrix(1,0,0,-1,0,363)"><text id="text156" transform="translate(36,329)"><tspan id="tspan158" x="0 6.001 12.002 18.003 24.004 30.005 36.006 42.007 48.008 54.009" y="0" style="font-size:10px;font-variant:normal;font-weight:400;writing-mode:lr-tb;fill:#000;fill-opacity:1;fill-rule:nonzero;stroke:none;font-family:Courier New;-inkscape-font-specification:Courier">:-N is 2+1</tspan></text></g><g id="g160" transform="matrix(1,0,0,-1,0,363)"><text id="text162" transform="translate(60,359)"><tspan id="tspan164" x="-2.5" y="1.75" style="font-size:20px;font-variant:normal;font-weight:400;writing-mode:lr-tb;fill:#000;fill-opacity:1;fill-rule:nonzero;stroke:none;font-family:Geneva;-inkscape-font-specification:Geneva">□</tspan></text></g><g id="g166" transform="matrix(1,0,0,-1,0,363)"><text id="text168" transform="translate(157,9)"><tspan id="tspan170" x="0 6.001 12.002 18.003 24.004 30.005 36.006 42.007 48.008 54.009 60.01 66.011 72.012 78.013 84.014 90.015 96.016 102.017 108.018 114.019 120.02 126.021 132.022 138.023 144.024 150.025 156.026 162.027 168.028 174.029 180.03" y="0" style="font-size:10px;font-variant:normal;font-weight:400;writing-mode:lr-tb;fill:#000;fill-opacity:1;fill-rule:nonzero;stroke:none;font-family:Courier New;-inkscape-font-specification:Courier">length([H|T],N1):-length(T,M1),</tspan></text></g><g id="g172" transform="matrix(1,0,0,-1,0,363)"><text id="text174" transform="translate(265.018,21)"><tspan id="tspan176" x="0 6.001 12.002 18.003 24.004 30.005 36.006 42.007 48.008 54.009" y="0" style="font-size:10px;font-variant:normal;font-weight:400;writing-mode:lr-tb;fill:#000;fill-opacity:1;fill-rule:nonzero;stroke:none;font-family:Courier New;-inkscape-font-specification:Courier">N1 is M1+1</tspan></text></g><g id="g178" transform="matrix(1,0,0,-1,0,363)"><text id="text180" transform="translate(190,93)"><tspan id="tspan182" x="0 6.001 12.002 18.003 24.004 30.005 36.006 42.007 48.008 54.009 60.01 66.011 72.012 78.013 84.014 90.015 96.016 102.017 108.018 114.019 120.02 126.021" y="0" style="font-size:10px;font-variant:normal;font-weight:400;writing-mode:lr-tb;fill:#000;fill-opacity:1;fill-rule:nonzero;stroke:none;font-family:Courier New;-inkscape-font-specification:Courier">{H-&gt;b, T-&gt;[c], N2-&gt;M1}</tspan></text></g><path id="path184" d="m 254,294 0.25,0 0,-0.25 -171,-36 -0.25,0 0,0.25" style="fill:#000;fill-opacity:1;fill-rule:nonzero;stroke:none"/><g id="g186" transform="matrix(1,0,0,-1,0,363)"><text id="text188" transform="translate(158,62)"><tspan id="tspan190" x="0 6.001 12.002 18.003 24.004 30.005 36.006 42.007 48.008 54.009 60.01 66.011 72.012 78.013 84.014 90.015 96.016 102.017 108.018 114.019 120.02 126.021 132.022 138.023 144.024 150.025 156.026 162.027 168.028 174.029 180.03" y="0" style="font-size:10px;font-variant:normal;font-weight:400;writing-mode:lr-tb;fill:#000;fill-opacity:1;fill-rule:nonzero;stroke:none;font-family:Courier New;-inkscape-font-specification:Courier">length([H|T],N2):-length(T,M2),</tspan></text></g><g id="g192" transform="matrix(1,0,0,-1,0,363)"><text id="text194" transform="translate(266.018,74)"><tspan id="tspan196" x="0 6.001 12.002 18.003 24.004 30.005 36.006 42.007 48.008 54.009" y="0" style="font-size:10px;font-variant:normal;font-weight:400;writing-mode:lr-tb;fill:#000;fill-opacity:1;fill-rule:nonzero;stroke:none;font-family:Courier New;-inkscape-font-specification:Courier">N2 is M2+1</tspan></text></g><g id="g198" transform="matrix(1,0,0,-1,0,363)"><text id="text200" transform="translate(189,146)"><tspan id="tspan202" x="0 6.001 12.002 18.003 24.004 30.005 36.006 42.007 48.008 54.009 60.01 66.011 72.012 78.013 84.014 90.015 96.016 102.017 108.018 114.019 120.02" y="0" style="font-size:10px;font-variant:normal;font-weight:400;writing-mode:lr-tb;fill:#000;fill-opacity:1;fill-rule:nonzero;stroke:none;font-family:Courier New;-inkscape-font-specification:Courier">{H-&gt;c, T-&gt;[], N3-&gt;M2}</tspan></text></g><path id="path204" d="m 253,241 0.25,0 0,-0.25 -171,-36 -0.25,0 0,0.25" style="fill:#000;fill-opacity:1;fill-rule:nonzero;stroke:none"/><g id="g206" transform="matrix(1,0,0,-1,0,363)"><text id="text208" transform="translate(157,115)"><tspan id="tspan210" x="0 6.001 12.002 18.003 24.004 30.005 36.006 42.007 48.008 54.009 60.01 66.011 72.012 78.013 84.014 90.015 96.016 102.017 108.018 114.019 120.02 126.021 132.022 138.023 144.024 150.025 156.026 162.027 168.028 174.029 180.03" y="0" style="font-size:10px;font-variant:normal;font-weight:400;writing-mode:lr-tb;fill:#000;fill-opacity:1;fill-rule:nonzero;stroke:none;font-family:Courier New;-inkscape-font-specification:Courier">length([H|T],N3):-length(T,M3),</tspan></text></g><g id="g212" transform="matrix(1,0,0,-1,0,363)"><text id="text214" transform="translate(265.018,127)"><tspan id="tspan216" x="0 6.001 12.002 18.003 24.004 30.005 36.006 42.007 48.008 54.009" y="0" style="font-size:10px;font-variant:normal;font-weight:400;writing-mode:lr-tb;fill:#000;fill-opacity:1;fill-rule:nonzero;stroke:none;font-family:Courier New;-inkscape-font-specification:Courier">N3 is M3+1</tspan></text></g><g id="g218" transform="matrix(1,0,0,-1,0,363)"><text id="text220" transform="translate(184,212)"><tspan id="tspan222" x="0 6.001 12.002 18.003 24.004 30.005 36.006" y="0" style="font-size:10px;font-variant:normal;font-weight:400;writing-mode:lr-tb;fill:#000;fill-opacity:1;fill-rule:nonzero;stroke:none;font-family:Courier New;-inkscape-font-specification:Courier">{M3-&gt;0}</tspan></text></g><path id="path224" d="m 253,175 0.25,0 0,-0.25 -171,-36 -0.25,0 0,0.25" style="fill:#000;fill-opacity:1;fill-rule:nonzero;stroke:none"/><g id="g226" transform="matrix(1,0,0,-1,0,363)"><text id="text228" transform="translate(222,184)"><tspan id="tspan230" x="0 6.001 12.002 18.003 24.004 30.005 36.006 42.007 48.008 54.009 60.01 66.011" y="0" style="font-size:10px;font-variant:normal;font-weight:400;writing-mode:lr-tb;fill:#000;fill-opacity:1;fill-rule:nonzero;stroke:none;font-family:Courier New;-inkscape-font-specification:Courier">length([],0)</tspan></text></g><g id="g232" transform="matrix(1,0,0,-1,0,363)"><path id="path234" d="m 61.125,263 0,15.25" style="fill:none;stroke:#000;stroke-width:.25;stroke-linecap:butt;stroke-linejoin:miter;stroke-miterlimit:10;stroke-opacity:1;stroke-dasharray:none"/></g><g id="g236" transform="matrix(1,0,0,-1,0,363)"><path id="path238" d="m 62.125,303 0,15.25" style="fill:none;stroke:#000;stroke-width:.25;stroke-linecap:butt;stroke-linejoin:miter;stroke-miterlimit:10;stroke-opacity:1;stroke-dasharray:none"/></g><g id="g240" transform="matrix(1,0,0,-1,0,363)"><path id="path242" d="m 63.125,332 0,15.25" style="fill:none;stroke:#000;stroke-width:.25;stroke-linecap:butt;stroke-linejoin:miter;stroke-miterlimit:10;stroke-opacity:1;stroke-dasharray:none"/></g><g id="g244" transform="matrix(1,0,0,-1,0,363)"><text id="text246" transform="translate(87,273)"><tspan id="tspan248" x="0 6.001 12.002 18.003 24.004 30.005 36.006" y="0" style="font-size:10px;font-variant:normal;font-weight:400;writing-mode:lr-tb;fill:#000;fill-opacity:1;fill-rule:nonzero;stroke:none;font-family:Courier New;-inkscape-font-specification:Courier">{M2-&gt;1}</tspan></text></g><g id="g250" transform="matrix(1,0,0,-1,0,363)"><text id="text252" transform="translate(87,314)"><tspan id="tspan254" x="0 6.001 12.002 18.003 24.004 30.005 36.006" y="0" style="font-size:10px;font-variant:normal;font-weight:400;writing-mode:lr-tb;fill:#000;fill-opacity:1;fill-rule:nonzero;stroke:none;font-family:Courier New;-inkscape-font-specification:Courier">{M1-&gt;2}</tspan></text></g><g id="g256" transform="matrix(1,0,0,-1,0,363)"><text id="text258" transform="translate(88,344)"><tspan id="tspan260" x="0 6.001 12.002 18.003 24.004 30.005" y="0" style="font-size:10px;font-variant:normal;font-weight:400;writing-mode:lr-tb;fill:#000;fill-opacity:1;fill-rule:nonzero;stroke:none;font-family:Courier New;-inkscape-font-specification:Courier">{N-&gt;3}</tspan></text></g></g></g></g></g></svg>