<svg xmlns="http://www.w3.org/2000/svg" xmlns:svg="http://www.w3.org/2000/svg" id="svg2" width="648.75" height="240" version="1.1" xml:space="preserve"><defs id="defs6"><clipPath id="clipPath20"><path id="path22" d="M 0,0 519,0 519,192 0,192 0,0 z"/></clipPath><clipPath id="clipPath30"><path id="path32" d="m 0,192 519,0 0,-192.000002833083 -519,0 L 0,192 z"/></clipPath><clipPath id="clipPath36"><path id="path38" d="M 0,0 519,0 519,192 0,192 0,0 z"/></clipPath></defs><g id="g12" transform="matrix(1.25,0,0,-1.25,0,240)"><g id="g16"><g id="g18" clip-path="url(#clipPath20)"><path id="path24" d="M 0,192 519,192 519,0 0,0 0,192 z" style="fill:#fff;fill-opacity:0;fill-rule:evenodd;stroke:none"/></g></g><g id="g26"><g id="g28" clip-path="url(#clipPath30)"><g id="g34" clip-path="url(#clipPath36)"><path id="path40" d="m 165,133 78,0 0,-84 -78,0 0,84 z" style="fill:#efefef;fill-opacity:1;fill-rule:nonzero;stroke:none"/><g id="g42" transform="matrix(1,0,0,-1,0,192)"><path id="path44" d="m 165.5,59.5 77,0 0,83 -77,0 0,-83 z" style="fill:none;stroke:#fff;stroke-width:1;stroke-linecap:butt;stroke-linejoin:miter;stroke-miterlimit:10;stroke-opacity:1;stroke-dasharray:none"/></g><g id="g46" transform="matrix(1,0,0,-1,0,192)"><text id="text48" transform="translate(49,57)"><tspan id="tspan50" x="0 6.001 12.002 18.003 24.004 30.005 36.006 42.007 48.008 54.009 60.01 66.011 72.012 78.013 84.014 90.015 96.016 102.017 108.018 114.019 120.02 126.021 132.022 138.023 144.024 150.025 156.026 162.027 168.028 174.029" y="0" style="font-size:10px;font-variant:normal;font-weight:400;writing-mode:lr-tb;fill:#000;fill-opacity:1;fill-rule:nonzero;stroke:none;font-family:Courier New;-inkscape-font-specification:Courier">:-not(married(fred)),man(fred)</tspan></text></g><g id="g52" transform="matrix(1,0,0,-1,0,192)"><text id="text54" transform="translate(99,10)"><tspan id="tspan56" x="0 6.001 12.002 18.003 24.004 30.005 36.006 42.007 48.008 54.009 60.01 66.011 72.012 78.013 84.014 90.015" y="0" style="font-size:10px;font-variant:normal;font-weight:400;writing-mode:lr-tb;fill:#000;fill-opacity:1;fill-rule:nonzero;stroke:none;font-family:Courier New;-inkscape-font-specification:Courier">?-bachelor(fred)</tspan></text></g><path id="path58" d="m 101,130 0.25,0 0,-0.25 -20,-22 -0.25,0 0,0.25" style="fill:#000;fill-opacity:1;fill-rule:nonzero;stroke:none"/><path id="path60" d="m 178,130 0.25,0 20,-22 0,-0.25 -0.25,0 -20,22" style="fill:#000;fill-opacity:1;fill-rule:nonzero;stroke:none"/><g id="g62" transform="matrix(1,0,0,-1,0,192)"><text id="text64" transform="translate(1,97)"><tspan id="tspan66" x="0 6.001 12.002 18.003 24.004 30.005 36.006 42.007 48.008 54.009 60.01 66.011 72.012 78.013 84.014 90.015 96.016 102.017 108.018 114.019 120.02 126.021 132.022" y="0" style="font-size:10px;font-variant:normal;font-weight:400;writing-mode:lr-tb;fill:#000;fill-opacity:1;fill-rule:nonzero;stroke:none;font-family:Courier New;-inkscape-font-specification:Courier">:-married(fred),!,fail,</tspan></text></g><g id="g68" transform="matrix(1,0,0,-1,0,192)"><text id="text70" transform="translate(13.002,109)"><tspan id="tspan72" x="0 6.001 12.002 18.003 24.004 30.005 36.006 42.007 48.008" y="0" style="font-size:10px;font-variant:normal;font-weight:400;writing-mode:lr-tb;fill:#000;fill-opacity:1;fill-rule:nonzero;stroke:none;font-family:Courier New;-inkscape-font-specification:Courier">man(fred)</tspan></text></g><g id="g74" transform="matrix(1,0,0,-1,0,192)"><path id="path76" d="m 34,191.5 91,0" style="fill:none;stroke:#000;stroke-width:1;stroke-linecap:butt;stroke-linejoin:miter;stroke-miterlimit:10;stroke-opacity:1;stroke-dasharray:none"/></g><g id="g78" transform="matrix(1,0,0,-1,0,192)"><text id="text80" transform="translate(171,94)"><tspan id="tspan82" x="0 6.001 12.002 18.003 24.004 30.005 36.006 42.007 48.008 54.009 60.01" y="0" style="font-size:10px;font-variant:normal;font-weight:400;writing-mode:lr-tb;fill:#000;fill-opacity:1;fill-rule:nonzero;stroke:none;font-family:Courier New;-inkscape-font-specification:Courier">:-man(fred)</tspan></text></g><g id="g84" transform="matrix(1,0,0,-1,0,192)"><path id="path86" d="m 80.125,100 0,30.25" style="fill:none;stroke:#000;stroke-width:.25;stroke-linecap:butt;stroke-linejoin:miter;stroke-miterlimit:10;stroke-opacity:1;stroke-dasharray:none"/></g><g id="g88" transform="matrix(1,0,0,-1,0,192)"><text id="text90" transform="translate(26,142)"><tspan id="tspan92" x="0 6.001 12.002 18.003 24.004 30.005 36.006 42.007 48.008 54.009 60.01 66.011 72.012 78.013 84.014 90.015 96.016 102.017" y="0" style="font-size:10px;font-variant:normal;font-weight:400;writing-mode:lr-tb;fill:#000;fill-opacity:1;fill-rule:nonzero;stroke:none;font-family:Courier New;-inkscape-font-specification:Courier">:-!,fail,man(fred)</tspan></text></g><g id="g94" transform="matrix(1,0,0,-1,0,192)"><path id="path96" d="m 80.125,146 0,29.25" style="fill:none;stroke:#000;stroke-width:.25;stroke-linecap:butt;stroke-linejoin:miter;stroke-miterlimit:10;stroke-opacity:1;stroke-dasharray:none"/></g><g id="g98" transform="matrix(1,0,0,-1,0,192)"><text id="text100" transform="translate(32,187)"><tspan id="tspan102" x="0 6.001 12.002 18.003 24.004 30.005 36.006 42.007 48.008 54.009 60.01 66.011 72.012 78.013 84.014 90.015" y="0" style="font-size:10px;font-variant:normal;font-weight:400;writing-mode:lr-tb;fill:#000;fill-opacity:1;fill-rule:nonzero;stroke:none;font-family:Courier New;-inkscape-font-specification:Courier">:-fail,man(fred)</tspan></text></g><g id="g104" transform="matrix(1,0,0,-1,0,192)"><path id="path106" d="m 137.125,15 0,29.25" style="fill:none;stroke:#000;stroke-width:.25;stroke-linecap:butt;stroke-linejoin:miter;stroke-miterlimit:10;stroke-opacity:1;stroke-dasharray:none"/></g><g id="g108" transform="matrix(1,0,0,-1,0,192)"><path id="path110" d="m 209.125,100 0,22.25" style="fill:none;stroke:#000;stroke-width:.25;stroke-linecap:butt;stroke-linejoin:miter;stroke-miterlimit:10;stroke-opacity:1;stroke-dasharray:none"/></g><g id="g112" transform="matrix(1,0,0,-1,0,192)"><text id="text114" transform="translate(206,134)"><tspan id="tspan116" x="-2.75" y=".75" style="font-size:20px;font-variant:normal;font-weight:400;writing-mode:lr-tb;fill:#000;fill-opacity:1;fill-rule:nonzero;stroke:none;font-family:Geneva;-inkscape-font-specification:Geneva">□</tspan></text></g><g id="g118" transform="matrix(1,0,0,-1,0,192)"><text id="text120" transform="translate(316,57)"><tspan id="tspan122" x="0 6.001 12.002 18.003 24.004 30.005 36.006 42.007 48.008 54.009 60.01 66.011 72.012 78.013 84.014 90.015 96.016 102.017 108.018 114.019 120.02 126.021 132.022 138.023 144.024 150.025 156.026 162.027 168.028 174.029 180.03 186.031" y="0" style="font-size:10px;font-variant:normal;font-weight:400;writing-mode:lr-tb;fill:#000;fill-opacity:1;fill-rule:nonzero;stroke:none;font-family:Courier New;-inkscape-font-specification:Courier">:-not(married(peter)),man(peter)</tspan></text></g><g id="g124" transform="matrix(1,0,0,-1,0,192)"><text id="text126" transform="translate(368,10)"><tspan id="tspan128" x="0 6.001 12.002 18.003 24.004 30.005 36.006 42.007 48.008 54.009 60.01 66.011 72.012 78.013 84.014 90.015 96.016" y="0" style="font-size:10px;font-variant:normal;font-weight:400;writing-mode:lr-tb;fill:#000;fill-opacity:1;fill-rule:nonzero;stroke:none;font-family:Courier New;-inkscape-font-specification:Courier">?-bachelor(peter)</tspan></text></g><path id="path130" d="m 375,130 0.25,0 0,-0.25 -20,-22 -0.25,0 0,0.25" style="fill:#000;fill-opacity:1;fill-rule:nonzero;stroke:none"/><path id="path132" d="m 452,130 0.25,0 20,-22 0,-0.25 -0.25,0 -20,22" style="fill:#000;fill-opacity:1;fill-rule:nonzero;stroke:none"/><g id="g134" transform="matrix(1,0,0,-1,0,192)"><text id="text136" transform="translate(275,97)"><tspan id="tspan138" x="0 6.001 12.002 18.003 24.004 30.005 36.006 42.007 48.008 54.009 60.01 66.011 72.012 78.013 84.014 90.015 96.016 102.017 108.018 114.019 120.02 126.021 132.022 138.023" y="0" style="font-size:10px;font-variant:normal;font-weight:400;writing-mode:lr-tb;fill:#000;fill-opacity:1;fill-rule:nonzero;stroke:none;font-family:Courier New;-inkscape-font-specification:Courier">:-married(peter),!,fail,</tspan></text></g><g id="g140" transform="matrix(1,0,0,-1,0,192)"><text id="text142" transform="translate(287.002,109)"><tspan id="tspan144" x="0 6.001 12.002 18.003 24.004 30.005 36.006 42.007 48.008 54.009" y="0" style="font-size:10px;font-variant:normal;font-weight:400;writing-mode:lr-tb;fill:#000;fill-opacity:1;fill-rule:nonzero;stroke:none;font-family:Courier New;-inkscape-font-specification:Courier">man(peter)</tspan></text></g><g id="g146" transform="matrix(1,0,0,-1,0,192)"><path id="path148" d="m 303,115.5 91,0" style="fill:none;stroke:#000;stroke-width:1;stroke-linecap:butt;stroke-linejoin:miter;stroke-miterlimit:10;stroke-opacity:1;stroke-dasharray:none"/></g><g id="g150" transform="matrix(1,0,0,-1,0,192)"><text id="text152" transform="translate(444,94)"><tspan id="tspan154" x="0 6.001 12.002 18.003 24.004 30.005 36.006 42.007 48.008 54.009 60.01 66.011" y="0" style="font-size:10px;font-variant:normal;font-weight:400;writing-mode:lr-tb;fill:#000;fill-opacity:1;fill-rule:nonzero;stroke:none;font-family:Courier New;-inkscape-font-specification:Courier">:-man(peter)</tspan></text></g><g id="g156" transform="matrix(1,0,0,-1,0,192)"><path id="path158" d="m 411.125,15 0,29.25" style="fill:none;stroke:#000;stroke-width:.25;stroke-linecap:butt;stroke-linejoin:miter;stroke-miterlimit:10;stroke-opacity:1;stroke-dasharray:none"/></g><g id="g160" transform="matrix(1,0,0,-1,0,192)"><path id="path162" d="m 483.125,100 0,22.25" style="fill:none;stroke:#000;stroke-width:.25;stroke-linecap:butt;stroke-linejoin:miter;stroke-miterlimit:10;stroke-opacity:1;stroke-dasharray:none"/></g><g id="g164" transform="matrix(1,0,0,-1,0,192)"><text id="text166" transform="translate(480,134)"><tspan id="tspan168" x="-2.75" y=".75" style="font-size:20px;font-variant:normal;font-weight:400;writing-mode:lr-tb;fill:#000;fill-opacity:1;fill-rule:nonzero;stroke:none;font-family:Geneva;-inkscape-font-specification:Geneva">□</tspan></text></g></g></g></g></g></svg>