<svg xmlns="http://www.w3.org/2000/svg" xmlns:svg="http://www.w3.org/2000/svg" id="svg2" width="563.75" height="556.25" version="1.1" xml:space="preserve"><defs id="defs6"><clipPath id="clipPath20"><path id="path22" d="M 0,0 451,0 451,445 0,445 0,0 z"/></clipPath><clipPath id="clipPath30"><path id="path32" d="m 0,445 451,0 0,-445.000006566261 -451,0 L 0,445 z"/></clipPath><clipPath id="clipPath36"><path id="path38" d="M 0,0 451,0 451,445 0,445 0,0 z"/></clipPath></defs><g id="g12" transform="matrix(1.25,0,0,-1.25,0,556.25)"><g id="g16"><g id="g18" clip-path="url(#clipPath20)"><path id="path24" d="M 0,445 451,445 451,0 0,0 0,445 z" style="fill:#fff;fill-opacity:0;fill-rule:evenodd;stroke:none"/></g></g><g id="g26"><g id="g28" clip-path="url(#clipPath30)"><g id="g34" clip-path="url(#clipPath36)"><g id="g40" transform="matrix(1,0,0,-1,0,445)"><text id="text42" transform="translate(2,10)"><tspan id="tspan44" x="0 6.001 12.002 18.003 24.004 30.005 36.006 42.007 48.008 54.009 60.01 66.011 72.012 78.013 84.014 90.015 96.016 102.017 108.018 114.019 120.02 126.021 132.022" y="0" style="font-size:10px;font-variant:normal;font-weight:400;writing-mode:lr-tb;fill:#000;fill-opacity:1;fill-rule:nonzero;stroke:none;font-family:Courier New;-inkscape-font-specification:Courier">?-length_acc([a,b,c],N)</tspan></text></g><g id="g46" transform="matrix(1,0,0,-1,0,445)"><path id="path48" d="m 57.125,16 0,36.25" style="fill:none;stroke:#000;stroke-width:.25;stroke-linecap:butt;stroke-linejoin:miter;stroke-miterlimit:10;stroke-opacity:1;stroke-dasharray:none"/></g><path id="path50" d="m 252,429 0.25,0 0,-0.25 -171,-36 -0.25,0 0,0.25" style="fill:#000;fill-opacity:1;fill-rule:nonzero;stroke:none"/><g id="g52" transform="matrix(1,0,0,-1,0,445)"><text id="text54" transform="translate(65,441)"><tspan id="tspan56" x="-1.5" y="0" style="font-size:20px;font-variant:normal;font-weight:400;writing-mode:lr-tb;fill:#000;fill-opacity:1;fill-rule:nonzero;stroke:none;font-family:Geneva;-inkscape-font-specification:Geneva">□</tspan></text></g><g id="g58" transform="matrix(1,0,0,-1,0,445)"><text id="text60" transform="translate(169,10)"><tspan id="tspan62" x="0 6.001 12.002 18.003 24.004 30.005 36.006 42.007 48.008 54.009 60.01 66.011 72.012 78.013 84.014 90.015 96.016 102.017 108.018 114.019 120.02 126.021 132.022 138.023 144.024 150.025 156.026 162.027 168.028 174.029 180.03 186.031 192.032 198.033" y="0" style="font-size:10px;font-variant:normal;font-weight:400;writing-mode:lr-tb;fill:#000;fill-opacity:1;fill-rule:nonzero;stroke:none;font-family:Courier New;-inkscape-font-specification:Courier">length_acc(L,N):-length_acc(L,0,N)</tspan></text></g><g id="g66" transform="matrix(1,0,0,-1,0,445)"><text id="text68" transform="translate(2,63)"><tspan id="tspan70" x="0 6.001 12.002 18.003 24.004 30.005 36.006 42.007 48.008 54.009 60.01 66.011 72.012 78.013 84.014 90.015 96.016 102.017 108.018 114.019 120.02 126.021 132.022 138.023 144.024" y="0" style="font-size:10px;font-variant:normal;font-weight:400;writing-mode:lr-tb;fill:#000;fill-opacity:1;fill-rule:nonzero;stroke:none;font-family:Courier New;-inkscape-font-specification:Courier">:-length_acc([a,b,c],0,N)</tspan></text></g><g id="g72" transform="matrix(1,0,0,-1,0,445)"><path id="path74" d="m 57.125,69 0,36.25" style="fill:none;stroke:#000;stroke-width:.25;stroke-linecap:butt;stroke-linejoin:miter;stroke-miterlimit:10;stroke-opacity:1;stroke-dasharray:none"/></g><path id="path76" d="m 253,377 0.25,0 0,-0.25 -171,-36 -0.25,0 0,0.25" style="fill:#000;fill-opacity:1;fill-rule:nonzero;stroke:none"/><g id="g78" transform="matrix(1,0,0,-1,0,445)"><text id="text80" transform="translate(170,62)"><tspan id="tspan82" x="0 6.001 12.002 18.003 24.004 30.005 36.006 42.007 48.008 54.009 60.01 66.011 72.012 78.013 84.014 90.015 96.016 102.017 108.018 114.019 120.02 126.021 132.022 138.023 144.024 150.025 156.026 162.027 168.028 174.029 180.03 186.031 192.032 198.033 204.034 210.035 216.036 222.037 228.038" y="0" style="font-size:10px;font-variant:normal;font-weight:400;writing-mode:lr-tb;fill:#000;fill-opacity:1;fill-rule:nonzero;stroke:none;font-family:Courier New;-inkscape-font-specification:Courier">length_acc([H|T],N10,N1):-N11 is N10+1,</tspan></text></g><g id="g84" transform="matrix(1,0,0,-1,0,445)"><text id="text86" transform="translate(326.026,74)"><tspan id="tspan88" x="0 6.001 12.002 18.003 24.004 30.005 36.006 42.007 48.008 54.009 60.01 66.011 72.012 78.013 84.014 90.015 96.016 102.017 108.018 114.019" y="0" style="font-size:10px;font-variant:normal;font-weight:400;writing-mode:lr-tb;fill:#000;fill-opacity:1;fill-rule:nonzero;stroke:none;font-family:Courier New;-inkscape-font-specification:Courier">length_acc(T,N11,N1)</tspan></text></g><g id="g92" transform="matrix(1,0,0,-1,0,445)"><text id="text94" transform="translate(177,94)"><tspan id="tspan96" x="0 6.001 12.002 18.003 24.004 30.005 36.006 42.007 48.008 54.009 60.01 66.011 72.012 78.013 84.014 90.015 96.016 102.017 108.018 114.019 120.02 126.021 132.022 138.023 144.024 150.025 156.026 162.027 168.028 174.029 180.03" y="0" style="font-size:10px;font-variant:normal;font-weight:400;writing-mode:lr-tb;fill:#000;fill-opacity:1;fill-rule:nonzero;stroke:none;font-family:Courier New;-inkscape-font-specification:Courier">{H-&gt;a, T-&gt;[b,c], N10-&gt;0, N1-&gt;N}</tspan></text></g><g id="g98" transform="matrix(1,0,0,-1,0,445)"><text id="text100" transform="translate(3,117)"><tspan id="tspan102" x="0 6.001 12.002 18.003 24.004 30.005 36.006 42.007 48.008 54.009 60.01 66.011 72.012" y="0" style="font-size:10px;font-variant:normal;font-weight:400;writing-mode:lr-tb;fill:#000;fill-opacity:1;fill-rule:nonzero;stroke:none;font-family:Courier New;-inkscape-font-specification:Courier">:-N11 is 0+1,</tspan></text></g><g id="g104" transform="matrix(1,0,0,-1,0,445)"><text id="text106" transform="translate(15.002,129)"><tspan id="tspan108" x="0 6.001 12.002 18.003 24.004 30.005 36.006 42.007 48.008 54.009 60.01 66.011 72.012 78.013 84.014 90.015 96.016 102.017 108.018 114.019 120.02 126.021 132.022" y="0" style="font-size:10px;font-variant:normal;font-weight:400;writing-mode:lr-tb;fill:#000;fill-opacity:1;fill-rule:nonzero;stroke:none;font-family:Courier New;-inkscape-font-specification:Courier">length_acc([b,c],N11,N)</tspan></text></g><g id="g110" transform="matrix(1,0,0,-1,0,445)"><path id="path112" d="m 58.125,135 0,24.25" style="fill:none;stroke:#000;stroke-width:.25;stroke-linecap:butt;stroke-linejoin:miter;stroke-miterlimit:10;stroke-opacity:1;stroke-dasharray:none"/></g><g id="g114" transform="matrix(1,0,0,-1,0,445)"><text id="text116" transform="translate(3,170)"><tspan id="tspan118" x="0 6.001 12.002 18.003 24.004 30.005 36.006 42.007 48.008 54.009 60.01 66.011 72.012 78.013 84.014 90.015 96.016 102.017 108.018 114.019 120.02 126.021 132.022" y="0" style="font-size:10px;font-variant:normal;font-weight:400;writing-mode:lr-tb;fill:#000;fill-opacity:1;fill-rule:nonzero;stroke:none;font-family:Courier New;-inkscape-font-specification:Courier">:-length_acc([b,c],1,N)</tspan></text></g><g id="g120" transform="matrix(1,0,0,-1,0,445)"><path id="path122" d="m 58.125,176 0,36.25" style="fill:none;stroke:#000;stroke-width:.25;stroke-linecap:butt;stroke-linejoin:miter;stroke-miterlimit:10;stroke-opacity:1;stroke-dasharray:none"/></g><g id="g124" transform="matrix(1,0,0,-1,0,445)"><text id="text126" transform="translate(4,224)"><tspan id="tspan128" x="0 6.001 12.002 18.003 24.004 30.005 36.006 42.007 48.008 54.009 60.01 66.011 72.012" y="0" style="font-size:10px;font-variant:normal;font-weight:400;writing-mode:lr-tb;fill:#000;fill-opacity:1;fill-rule:nonzero;stroke:none;font-family:Courier New;-inkscape-font-specification:Courier">:-N21 is 1+1,</tspan></text></g><g id="g130" transform="matrix(1,0,0,-1,0,445)"><text id="text132" transform="translate(16.002,236)"><tspan id="tspan134" x="0 6.001 12.002 18.003 24.004 30.005 36.006 42.007 48.008 54.009 60.01 66.011 72.012 78.013 84.014 90.015 96.016 102.017 108.018 114.019 120.02" y="0" style="font-size:10px;font-variant:normal;font-weight:400;writing-mode:lr-tb;fill:#000;fill-opacity:1;fill-rule:nonzero;stroke:none;font-family:Courier New;-inkscape-font-specification:Courier">length_acc([c],N21,N)</tspan></text></g><g id="g136" transform="matrix(1,0,0,-1,0,445)"><path id="path138" d="m 59.125,242 0,24.25" style="fill:none;stroke:#000;stroke-width:.25;stroke-linecap:butt;stroke-linejoin:miter;stroke-miterlimit:10;stroke-opacity:1;stroke-dasharray:none"/></g><g id="g140" transform="matrix(1,0,0,-1,0,445)"><text id="text142" transform="translate(5,277)"><tspan id="tspan144" x="0 6.001 12.002 18.003 24.004 30.005 36.006 42.007 48.008 54.009 60.01 66.011 72.012 78.013 84.014 90.015 96.016 102.017 108.018 114.019 120.02" y="0" style="font-size:10px;font-variant:normal;font-weight:400;writing-mode:lr-tb;fill:#000;fill-opacity:1;fill-rule:nonzero;stroke:none;font-family:Courier New;-inkscape-font-specification:Courier">:-length_acc([c],2,N)</tspan></text></g><g id="g146" transform="matrix(1,0,0,-1,0,445)"><path id="path148" d="m 60.125,283 0,36.25" style="fill:none;stroke:#000;stroke-width:.25;stroke-linecap:butt;stroke-linejoin:miter;stroke-miterlimit:10;stroke-opacity:1;stroke-dasharray:none"/></g><g id="g150" transform="matrix(1,0,0,-1,0,445)"><text id="text152" transform="translate(6,331)"><tspan id="tspan154" x="0 6.001 12.002 18.003 24.004 30.005 36.006 42.007 48.008 54.009 60.01 66.011 72.012" y="0" style="font-size:10px;font-variant:normal;font-weight:400;writing-mode:lr-tb;fill:#000;fill-opacity:1;fill-rule:nonzero;stroke:none;font-family:Courier New;-inkscape-font-specification:Courier">:-N31 is 2+1,</tspan></text></g><g id="g156" transform="matrix(1,0,0,-1,0,445)"><text id="text158" transform="translate(18.002,343)"><tspan id="tspan160" x="0 6.001 12.002 18.003 24.004 30.005 36.006 42.007 48.008 54.009 60.01 66.011 72.012 78.013 84.014 90.015 96.016 102.017 108.018 114.019" y="0" style="font-size:10px;font-variant:normal;font-weight:400;writing-mode:lr-tb;fill:#000;fill-opacity:1;fill-rule:nonzero;stroke:none;font-family:Courier New;-inkscape-font-specification:Courier">length_acc([],N31,N)</tspan></text></g><g id="g162" transform="matrix(1,0,0,-1,0,445)"><path id="path164" d="m 61.125,349 0,24.25" style="fill:none;stroke:#000;stroke-width:.25;stroke-linecap:butt;stroke-linejoin:miter;stroke-miterlimit:10;stroke-opacity:1;stroke-dasharray:none"/></g><g id="g166" transform="matrix(1,0,0,-1,0,445)"><text id="text168" transform="translate(6,385)"><tspan id="tspan170" x="0 6.001 12.002 18.003 24.004 30.005 36.006 42.007 48.008 54.009 60.01 66.011 72.012 78.013 84.014 90.015 96.016 102.017 108.018 114.019" y="0" style="font-size:10px;font-variant:normal;font-weight:400;writing-mode:lr-tb;fill:#000;fill-opacity:1;fill-rule:nonzero;stroke:none;font-family:Courier New;-inkscape-font-specification:Courier">:-length_acc([],3,N)</tspan></text></g><g id="g172" transform="matrix(1,0,0,-1,0,445)"><path id="path174" d="m 61.125,391 0,36.25" style="fill:none;stroke:#000;stroke-width:.25;stroke-linecap:butt;stroke-linejoin:miter;stroke-miterlimit:10;stroke-opacity:1;stroke-dasharray:none"/></g><path id="path176" d="m 254,270 0.25,0 0,-0.25 -171,-36 -0.25,0 0,0.25" style="fill:#000;fill-opacity:1;fill-rule:nonzero;stroke:none"/><g id="g178" transform="matrix(1,0,0,-1,0,445)"><text id="text180" transform="translate(171,169)"><tspan id="tspan182" x="0 6.001 12.002 18.003 24.004 30.005 36.006 42.007 48.008 54.009 60.01 66.011 72.012 78.013 84.014 90.015 96.016 102.017 108.018 114.019 120.02 126.021 132.022 138.023 144.024 150.025 156.026 162.027 168.028 174.029 180.03 186.031 192.032 198.033 204.034 210.035 216.036 222.037 228.038" y="0" style="font-size:10px;font-variant:normal;font-weight:400;writing-mode:lr-tb;fill:#000;fill-opacity:1;fill-rule:nonzero;stroke:none;font-family:Courier New;-inkscape-font-specification:Courier">length_acc([H|T],N20,N2):-N21 is N20+1,</tspan></text></g><g id="g184" transform="matrix(1,0,0,-1,0,445)"><text id="text186" transform="translate(327.026,181)"><tspan id="tspan188" x="0 6.001 12.002 18.003 24.004 30.005 36.006 42.007 48.008 54.009 60.01 66.011 72.012 78.013 84.014 90.015 96.016 102.017 108.018 114.019" y="0" style="font-size:10px;font-variant:normal;font-weight:400;writing-mode:lr-tb;fill:#000;fill-opacity:1;fill-rule:nonzero;stroke:none;font-family:Courier New;-inkscape-font-specification:Courier">length_acc(T,N21,N2)</tspan></text></g><g id="g192" transform="matrix(1,0,0,-1,0,445)"><text id="text194" transform="translate(179,202)"><tspan id="tspan196" x="0 6.001 12.002 18.003 24.004 30.005 36.006 42.007 48.008 54.009 60.01 66.011 72.012 78.013 84.014 90.015 96.016 102.017 108.018 114.019 120.02 126.021 132.022 138.023 144.024 150.025 156.026 162.027 168.028" y="0" style="font-size:10px;font-variant:normal;font-weight:400;writing-mode:lr-tb;fill:#000;fill-opacity:1;fill-rule:nonzero;stroke:none;font-family:Courier New;-inkscape-font-specification:Courier">{H-&gt;b, T-&gt;[c], N20-&gt;1, N2-&gt;N}</tspan></text></g><g id="g198" transform="matrix(1,0,0,-1,0,445)"><text id="text200" transform="translate(77,149)"><tspan id="tspan202" x="0 6.001 12.002 18.003 24.004 30.005 36.006 42.007" y="0" style="font-size:10px;font-variant:normal;font-weight:400;writing-mode:lr-tb;fill:#000;fill-opacity:1;fill-rule:nonzero;stroke:none;font-family:Courier New;-inkscape-font-specification:Courier">{N11-&gt;1}</tspan></text></g><g id="g204" transform="matrix(1,0,0,-1,0,445)"><text id="text206" transform="translate(79,256)"><tspan id="tspan208" x="0 6.001 12.002 18.003 24.004 30.005 36.006 42.007" y="0" style="font-size:10px;font-variant:normal;font-weight:400;writing-mode:lr-tb;fill:#000;fill-opacity:1;fill-rule:nonzero;stroke:none;font-family:Courier New;-inkscape-font-specification:Courier">{N21-&gt;2}</tspan></text></g><path id="path210" d="m 252,162 0.25,0 0,-0.25 -171,-36 -0.25,0 0,0.25" style="fill:#000;fill-opacity:1;fill-rule:nonzero;stroke:none"/><g id="g212" transform="matrix(1,0,0,-1,0,445)"><text id="text214" transform="translate(169,277)"><tspan id="tspan216" x="0 6.001 12.002 18.003 24.004 30.005 36.006 42.007 48.008 54.009 60.01 66.011 72.012 78.013 84.014 90.015 96.016 102.017 108.018 114.019 120.02 126.021 132.022 138.023 144.024 150.025 156.026 162.027 168.028 174.029 180.03 186.031 192.032 198.033 204.034 210.035 216.036 222.037 228.038" y="0" style="font-size:10px;font-variant:normal;font-weight:400;writing-mode:lr-tb;fill:#000;fill-opacity:1;fill-rule:nonzero;stroke:none;font-family:Courier New;-inkscape-font-specification:Courier">length_acc([H|T],N30,N3):-N31 is N30+1,</tspan></text></g><g id="g218" transform="matrix(1,0,0,-1,0,445)"><text id="text220" transform="translate(325.026,289)"><tspan id="tspan222" x="0 6.001 12.002 18.003 24.004 30.005 36.006 42.007 48.008 54.009 60.01 66.011 72.012 78.013 84.014 90.015 96.016 102.017 108.018 114.019" y="0" style="font-size:10px;font-variant:normal;font-weight:400;writing-mode:lr-tb;fill:#000;fill-opacity:1;fill-rule:nonzero;stroke:none;font-family:Courier New;-inkscape-font-specification:Courier">length_acc(T,N31,N3)</tspan></text></g><g id="g226" transform="matrix(1,0,0,-1,0,445)"><text id="text228" transform="translate(177,310)"><tspan id="tspan230" x="0 6.001 12.002 18.003 24.004 30.005 36.006 42.007 48.008 54.009 60.01 66.011 72.012 78.013 84.014 90.015 96.016 102.017 108.018 114.019 120.02 126.021 132.022 138.023 144.024 150.025 156.026 162.027" y="0" style="font-size:10px;font-variant:normal;font-weight:400;writing-mode:lr-tb;fill:#000;fill-opacity:1;fill-rule:nonzero;stroke:none;font-family:Courier New;-inkscape-font-specification:Courier">{H-&gt;c, T-&gt;[], N30-&gt;2, N3-&gt;N}</tspan></text></g><g id="g232" transform="matrix(1,0,0,-1,0,445)"><text id="text234" transform="translate(84,365)"><tspan id="tspan236" x="0 6.001 12.002 18.003 24.004 30.005 36.006 42.007" y="0" style="font-size:10px;font-variant:normal;font-weight:400;writing-mode:lr-tb;fill:#000;fill-opacity:1;fill-rule:nonzero;stroke:none;font-family:Courier New;-inkscape-font-specification:Courier">{N31-&gt;3}</tspan></text></g><path id="path238" d="m 248,53.99999 0.25,0 0,-0.25 -171,-36 -0.25,0 0,0.25" style="fill:#000;fill-opacity:1;fill-rule:nonzero;stroke:none"/><g id="g240" transform="matrix(1,0,0,-1,0,445)"><text id="text242" transform="translate(170,385)"><tspan id="tspan244" x="0 6.001 12.002 18.003 24.004 30.005 36.006 42.007 48.008 54.009 60.01 66.011 72.012 78.013 84.014 90.015 96.016 102.017" y="0" style="font-size:10px;font-variant:normal;font-weight:400;writing-mode:lr-tb;fill:#000;fill-opacity:1;fill-rule:nonzero;stroke:none;font-family:Courier New;-inkscape-font-specification:Courier">length_acc([],N,N)</tspan></text></g><g id="g246" transform="matrix(1,0,0,-1,0,445)"><text id="text248" transform="translate(85,410)"><tspan id="tspan250" x="0 6.001 12.002 18.003 24.004 30.005" y="0" style="font-size:10px;font-variant:normal;font-weight:400;writing-mode:lr-tb;fill:#000;fill-opacity:1;fill-rule:nonzero;stroke:none;font-family:Courier New;-inkscape-font-specification:Courier">{N-&gt;3}</tspan></text></g></g></g></g></g></svg>