<svg xmlns="http://www.w3.org/2000/svg" xmlns:svg="http://www.w3.org/2000/svg" id="svg2" width="296.25" height="252.5" version="1.1" xml:space="preserve"><defs id="defs6"><clipPath id="clipPath20"><path id="path22" d="M 0,0 237,0 237,202 0,202 0,0 z"/></clipPath><clipPath id="clipPath30"><path id="path32" d="m 0,202 237,0 0,-202.00000298064 -237,0 L 0,202 z"/></clipPath><clipPath id="clipPath36"><path id="path38" d="M 0,0 237,0 237,202 0,202 0,0 z"/></clipPath></defs><g id="g12" transform="matrix(1.25,0,0,-1.25,0,252.5)"><g id="g16"><g id="g18" clip-path="url(#clipPath20)"><path id="path24" d="M 0,202 237,202 237,0 0,0 0,202 z" style="fill:#fff;fill-opacity:0;fill-rule:evenodd;stroke:none"/></g></g><g id="g26"><g id="g28" clip-path="url(#clipPath30)"><g id="g34" clip-path="url(#clipPath36)"><g id="g40" transform="matrix(1,0,0,-1,0,202)"><text id="text42" transform="translate(4,16)"><tspan id="tspan44" x="0 6.978 13.956 20.934 27.912 34.89 41.868 48.846 55.824 62.802" y="0" style="font-size:12px;font-variant:normal;font-weight:700;writing-mode:lr-tb;fill:#000;fill-opacity:1;fill-rule:nonzero;stroke:none;font-family:Courier New;-inkscape-font-specification:Courier-Bold">:-friendly</tspan></text></g><g id="g46" transform="matrix(1,0,0,-1,0,202)"><text id="text48" transform="translate(120,16)"><tspan id="tspan50" x="0 6.985 13.97 20.956 27.941 34.926 41.911 48.896 55.882 62.867 69.852 76.837 83.822 90.808 97.793" y="0" style="font-size:12px;font-variant:normal;font-weight:400;writing-mode:lr-tb;fill:#000;fill-opacity:1;fill-rule:nonzero;stroke:none;font-family:Courier New;-inkscape-font-specification:Courier">friendly:-happy</tspan></text></g><g id="g52" transform="matrix(1,0,0,-1,0,202)"><text id="text54" transform="translate(13,73)"><tspan id="tspan56" x="0 6.966 13.932 20.898 27.864 34.83 41.796" y="0" style="font-size:12px;font-variant:normal;font-weight:400;writing-mode:lr-tb;fill:#000;fill-opacity:1;fill-rule:nonzero;stroke:none;font-family:Courier New;-inkscape-font-specification:Courier">:-happy</tspan></text></g><g id="g58" transform="matrix(1,0,0,-1,0,202)"><text id="text60" transform="translate(106,73)"><tspan id="tspan62" x="0 6.988 13.975 20.963 27.95 34.938 41.926 48.913 55.901 62.888 69.876 76.864 83.851 90.839 97.826 104.814 111.802 118.789" y="0" style="font-size:12px;font-variant:normal;font-weight:400;writing-mode:lr-tb;fill:#000;fill-opacity:1;fill-rule:nonzero;stroke:none;font-family:Courier New;-inkscape-font-specification:Courier">happy:-has_friends</tspan></text></g><g id="g64" transform="matrix(1,0,0,-1,0,202)"><text id="text66" transform="translate(2,132)"><tspan id="tspan68" x="0 6.983 13.966 20.948 27.931 34.914 41.897 48.88 55.862 62.845 69.828 76.811 83.794" y="0" style="font-size:12px;font-variant:normal;font-weight:400;writing-mode:lr-tb;fill:#000;fill-opacity:1;fill-rule:nonzero;stroke:none;font-family:Courier New;-inkscape-font-specification:Courier">:-has_friends</tspan></text></g><g id="g70" transform="matrix(1,0,0,-1,0,202)"><text id="text72" transform="translate(136,132)"><tspan id="tspan74" x="0 6.98 13.961 20.941 27.922 34.902 41.882 48.863 55.843 62.824 69.804" y="0" style="font-size:12px;font-variant:normal;font-weight:700;writing-mode:lr-tb;fill:#000;fill-opacity:1;fill-rule:nonzero;stroke:none;font-family:Courier New;-inkscape-font-specification:Courier-Bold">has_friends</tspan></text></g><g id="g76" transform="matrix(1,0,0,-1,0,202)"><text id="text78" transform="translate(40,196)"><tspan id="tspan80" x="2" y="-2.75" style="font-size:20px;font-variant:normal;font-weight:400;writing-mode:lr-tb;fill:#000;fill-opacity:1;fill-rule:nonzero;stroke:none;font-family:Geneva;-inkscape-font-specification:Geneva">□</tspan></text></g><g id="g82" transform="matrix(1,0,0,-1,0,202)"><path id="path84" d="m 40.125,20 0,41.25" style="fill:none;stroke:#000;stroke-width:.25;stroke-linecap:butt;stroke-linejoin:miter;stroke-miterlimit:10;stroke-opacity:1;stroke-dasharray:none"/></g><path id="path86" d="m 159,182 0.25,0 0,-0.25 -106,-41 -0.25,0 0,0.25" style="fill:#000;fill-opacity:1;fill-rule:nonzero;stroke:none"/><g id="g88" transform="matrix(1,0,0,-1,0,202)"><path id="path90" d="m 40.125,78 0,41.25" style="fill:none;stroke:#000;stroke-width:.25;stroke-linecap:butt;stroke-linejoin:miter;stroke-miterlimit:10;stroke-opacity:1;stroke-dasharray:none"/></g><path id="path92" d="m 159,124 0.25,0 0,-0.25 -106,-41 -0.25,0 0,0.25" style="fill:#000;fill-opacity:1;fill-rule:nonzero;stroke:none"/><g id="g94" transform="matrix(1,0,0,-1,0,202)"><path id="path96" d="m 41.125,138 0,41.25" style="fill:none;stroke:#000;stroke-width:.25;stroke-linecap:butt;stroke-linejoin:miter;stroke-miterlimit:10;stroke-opacity:1;stroke-dasharray:none"/></g><path id="path98" d="m 160,64 0.25,0 0,-0.25 -106,-41 -0.25,0 0,0.25" style="fill:#000;fill-opacity:1;fill-rule:nonzero;stroke:none"/></g></g></g></g></svg>