<svg xmlns="http://www.w3.org/2000/svg" xmlns:svg="http://www.w3.org/2000/svg" id="svg2" width="258.75" height="187.5" version="1.1" xml:space="preserve"><defs id="defs6"><clipPath id="clipPath20"><path id="path22" d="M 0,0 207,0 207,150 0,150 0,0 z"/></clipPath><clipPath id="clipPath30"><path id="path32" d="m 0,150 207,0 0,-150.000002213346 -207,0 L 0,150 z"/></clipPath><clipPath id="clipPath36"><path id="path38" d="M 0,0 207,0 207,150 0,150 0,0 z"/></clipPath></defs><g id="g12" transform="matrix(1.25,0,0,-1.25,0,187.5)"><g id="g16"><g id="g18" clip-path="url(#clipPath20)"><path id="path24" d="M 0,150 207,150 207,0 0,0 0,150 z" style="fill:#fff;fill-opacity:0;fill-rule:evenodd;stroke:none"/></g></g><g id="g26"><g id="g28" clip-path="url(#clipPath30)"><g id="g34" clip-path="url(#clipPath36)"><path id="path40" d="m 94,136 112,0 0,-93 -112,0 0,93 z" style="fill:#efefef;fill-opacity:1;fill-rule:nonzero;stroke:none"/><g id="g42" transform="matrix(1,0,0,-1,0,150)"><path id="path44" d="m 94.5,14.5 111,0 0,92 -111,0 0,-92 z" style="fill:none;stroke:#fff;stroke-width:1;stroke-linecap:butt;stroke-linejoin:miter;stroke-miterlimit:10;stroke-opacity:1;stroke-dasharray:none"/></g><g id="g46" transform="matrix(1,0,0,-1,0,150)"><text id="text48" transform="translate(53,10)"><tspan id="tspan50" x="0 6.001 12.002 18.003 24.004 30.005 36.006 42.007 48.008 54.009 60.01 66.011" y="0" style="font-size:10px;font-variant:normal;font-weight:400;writing-mode:lr-tb;fill:#000;fill-opacity:1;fill-rule:nonzero;stroke:none;font-family:Courier New;-inkscape-font-specification:Courier">?-likes(A,B)</tspan></text></g><path id="path52" d="m 74,135 0.25,0 0,-0.25 -20,-22 -0.25,0 0,0.25" style="fill:#000;fill-opacity:1;fill-rule:nonzero;stroke:none"/><path id="path54" d="m 114,135 0.25,0 20,-22 0,-0.25 -0.25,0 -20,22" style="fill:#000;fill-opacity:1;fill-rule:nonzero;stroke:none"/><g id="g56" transform="matrix(1,0,0,-1,0,150)"><text id="text58" transform="translate(98,47)"><tspan id="tspan60" x="0 6.001 12.002 18.003 24.004 30.005 36.006 42.007 48.008 54.009 60.01 66.011 72.012 78.013 84.014 90.015 96.016" y="0" style="font-size:10px;font-variant:normal;font-weight:400;writing-mode:lr-tb;fill:#000;fill-opacity:1;fill-rule:nonzero;stroke:none;font-family:Courier New;-inkscape-font-specification:Courier">:-student_of(B,A)</tspan></text></g><path id="path62" d="m 122,95 0.25,0 0,-0.25 -20,-22 -0.25,0 0,0.25" style="fill:#000;fill-opacity:1;fill-rule:nonzero;stroke:none"/><path id="path64" d="m 162,95 0.25,0 20,-22 0,-0.25 -0.25,0 -20,22" style="fill:#000;fill-opacity:1;fill-rule:nonzero;stroke:none"/><g id="g66" transform="matrix(1,0,0,-1,0,150)"><text id="text68" transform="translate(97,90)"><tspan id="tspan70" x="-.75" y="0" style="font-size:20px;font-variant:normal;font-weight:400;writing-mode:lr-tb;fill:#000;fill-opacity:1;fill-rule:nonzero;stroke:none;font-family:Geneva;-inkscape-font-specification:Geneva">□</tspan></text></g><g id="g72" transform="matrix(1,0,0,-1,0,150)"><text id="text74" transform="translate(182,90)"><tspan id="tspan76" x="-4.75" y="0" style="font-size:20px;font-variant:normal;font-weight:400;writing-mode:lr-tb;fill:#000;fill-opacity:1;fill-rule:nonzero;stroke:none;font-family:Geneva;-inkscape-font-specification:Geneva">□</tspan></text></g><g id="g78" transform="matrix(1,0,0,-1,0,150)"><text id="text80" transform="translate(4,90)"><tspan id="tspan82" x="0 6.001 12.002 18.003 24.004 30.005 36.006 42.007 48.008 54.009 60.01 66.011 72.012" y="0" style="font-size:10px;font-variant:normal;font-weight:400;writing-mode:lr-tb;fill:#000;fill-opacity:1;fill-rule:nonzero;stroke:none;font-family:Courier New;-inkscape-font-specification:Courier">:-friendly(B)</tspan></text></g><g id="g84" transform="matrix(1,0,0,-1,0,150)"><text id="text86" transform="translate(43,133)"><tspan id="tspan88" x="-3.5" y=".75" style="font-size:20px;font-variant:normal;font-weight:400;writing-mode:lr-tb;fill:#000;fill-opacity:1;fill-rule:nonzero;stroke:none;font-family:Geneva;-inkscape-font-specification:Geneva">□</tspan></text></g><g id="g90" transform="matrix(1,0,0,-1,0,150)"><path id="path92" d="m 45.125,94 0,27.25" style="fill:none;stroke:#000;stroke-width:.25;stroke-linecap:butt;stroke-linejoin:miter;stroke-miterlimit:10;stroke-opacity:1;stroke-dasharray:none"/></g><g id="g94" transform="matrix(1,0,0,-1,0,150)"><text id="text96" transform="translate(22,146)"><tspan id="tspan98" x="0 6.001 12.002 18.003 24.004 30.005 36.006" y="0" style="font-size:10px;font-variant:normal;font-weight:400;writing-mode:lr-tb;fill:#000;fill-opacity:1;fill-rule:nonzero;stroke:none;font-family:Courier New;-inkscape-font-specification:Courier">B=maria</tspan></text></g><g id="g100" transform="matrix(1,0,0,-1,0,150)"><text id="text102" transform="translate(99,102)"><tspan id="tspan104" x="0 6.001 12.002 18.003 24.004 30.005 36.006" y="0" style="font-size:10px;font-variant:normal;font-weight:400;writing-mode:lr-tb;fill:#000;fill-opacity:1;fill-rule:nonzero;stroke:none;font-family:Courier New;-inkscape-font-specification:Courier">B=maria</tspan></text></g><g id="g106" transform="matrix(1,0,0,-1,0,150)"><text id="text108" transform="translate(158,102)"><tspan id="tspan110" x="0 6.001 12.002 18.003 24.004 30.005" y="0" style="font-size:10px;font-variant:normal;font-weight:400;writing-mode:lr-tb;fill:#000;fill-opacity:1;fill-rule:nonzero;stroke:none;font-family:Courier New;-inkscape-font-specification:Courier">B=paul</tspan></text></g><g id="g112" transform="matrix(1,0,0,-1,0,150)"><path id="path114" d="m 44.125,51 0,27.25" style="fill:none;stroke:#000;stroke-width:.25;stroke-linecap:butt;stroke-linejoin:miter;stroke-miterlimit:10;stroke-opacity:1;stroke-dasharray:none"/></g><g id="g116" transform="matrix(1,0,0,-1,0,150)"><text id="text118" transform="translate(4,47)"><tspan id="tspan120" x="0 6.001 12.002 18.003 24.004 30.005 36.006 42.007 48.008 54.009 60.01 66.011 72.012 78.013 84.014" y="0" style="font-size:10px;font-variant:normal;font-weight:400;writing-mode:lr-tb;fill:#000;fill-opacity:1;fill-rule:nonzero;stroke:none;font-family:Courier New;-inkscape-font-specification:Courier">:-!,friendly(B)</tspan></text></g></g></g></g></g></svg>