<svg xmlns="http://www.w3.org/2000/svg" xmlns:svg="http://www.w3.org/2000/svg" id="svg2" width="511.25" height="235" version="1.1" xml:space="preserve"><defs id="defs6"><clipPath id="clipPath20"><path id="path22" d="M 0,0 409,0 409,188 0,188 0,0 z"/></clipPath><clipPath id="clipPath30"><path id="path32" d="m 0,188 409,0 0,-188.000002774061 -409,0 L 0,188 z"/></clipPath><clipPath id="clipPath36"><path id="path38" d="M 0,0 409,0 409,188 0,188 0,0 z"/></clipPath></defs><g id="g12" transform="matrix(1.25,0,0,-1.25,0,235)"><g id="g16"><g id="g18" clip-path="url(#clipPath20)"><path id="path24" d="M 0,188 409,188 409,0 0,0 0,188 z" style="fill:#fff;fill-opacity:0;fill-rule:evenodd;stroke:none"/></g></g><g id="g26"><g id="g28" clip-path="url(#clipPath30)"><g id="g34" clip-path="url(#clipPath36)"><g id="g40" transform="matrix(1,0,0,-1,0,188)"><path id="path42" d="m 4,109.5 404,0" style="fill:none;stroke:gray;stroke-width:3;stroke-linecap:butt;stroke-linejoin:miter;stroke-miterlimit:10;stroke-opacity:1;stroke-dasharray:none"/></g><g id="g44" transform="matrix(1,0,0,-1,0,188)"><path id="path46" d="m 235.5,3 0,184" style="fill:none;stroke:gray;stroke-width:3;stroke-linecap:butt;stroke-linejoin:miter;stroke-miterlimit:10;stroke-opacity:1;stroke-dasharray:none"/></g><g id="g48" transform="matrix(1,0,0,-1,0,188)"><text id="text50" transform="translate(20,72)"><tspan id="tspan52" x="0 10.774 19.225 26.891 35.342" y="0" style="font-size:14px;font-variant:normal;font-weight:400;writing-mode:lr-tb;fill:#000;fill-opacity:1;fill-rule:nonzero;stroke:none;font-family:Helvetica;-inkscape-font-specification:Helvetica">META-</tspan></text></g><g id="g54" transform="matrix(1,0,0,-1,0,188)"><text id="text56" transform="translate(21,87)"><tspan id="tspan58" x="0 7.14 15.834 24.528 33.222" y="0" style="font-size:14px;font-variant:normal;font-weight:400;writing-mode:lr-tb;fill:#000;fill-opacity:1;fill-rule:nonzero;stroke:none;font-family:Helvetica;-inkscape-font-specification:Helvetica">LEVEL</tspan></text></g><g id="g60" transform="matrix(1,0,0,-1,0,188)"><text id="text62" transform="translate(6.110352,143)"><tspan id="tspan64" x="0 10.889 20.227 27.227 36.565 46.676 55.227" y="0" style="font-size:14px;font-variant:normal;font-weight:400;writing-mode:lr-tb;fill:#000;fill-opacity:1;fill-rule:nonzero;stroke:none;font-family:Helvetica;-inkscape-font-specification:Helvetica">OBJECT-</tspan></text></g><g id="g66" transform="matrix(1,0,0,-1,0,188)"><text id="text68" transform="translate(22,158)"><tspan id="tspan70" x="0 7.14 15.834 24.528 33.222" y="0" style="font-size:14px;font-variant:normal;font-weight:400;writing-mode:lr-tb;fill:#000;fill-opacity:1;fill-rule:nonzero;stroke:none;font-family:Helvetica;-inkscape-font-specification:Helvetica">LEVEL</tspan></text></g><g id="g72" transform="matrix(1,0,0,-1,0,188)"><text id="text74" transform="translate(122,22)"><tspan id="tspan76" x="0 10.538 20.292 29.275 40.583 51.891 60.875" y="0" style="font-size:14px;font-variant:normal;font-weight:400;writing-mode:lr-tb;fill:#000;fill-opacity:1;fill-rule:nonzero;stroke:none;font-family:Helvetica;-inkscape-font-specification:Helvetica">GRAMMAR</tspan></text></g><g id="g78" transform="matrix(1,0,0,-1,0,188)"><text id="text80" transform="translate(284,21)"><tspan id="tspan82" x="0 9.169 18.337 28.276 37.444 41.167 51.106" y="0" style="font-size:14px;font-variant:normal;font-weight:400;writing-mode:lr-tb;fill:#000;fill-opacity:1;fill-rule:nonzero;stroke:none;font-family:Helvetica;-inkscape-font-specification:Helvetica">PARSING</tspan></text></g><g id="g84" transform="matrix(1,0,0,-1,0,188)"><text id="text86" transform="translate(109,77)"><tspan id="tspan88" x="0 6.98 13.961 20.941 27.922 34.902 41.882 48.863 55.843 62.824 69.804" y="0" style="font-size:12px;font-variant:normal;font-weight:400;writing-mode:lr-tb;fill:#000;fill-opacity:1;fill-rule:nonzero;stroke:none;font-family:Courier New;-inkscape-font-specification:Courier">s --&gt; np,vp</tspan></text></g><g id="g90" transform="matrix(1,0,0,-1,0,188)"><text id="text92" transform="translate(108,136)"><tspan id="tspan94" x="0 6.974 13.949 20.923 27.898 34.872 41.846 48.821 55.795" y="0" style="font-size:12px;font-variant:normal;font-weight:400;writing-mode:lr-tb;fill:#000;fill-opacity:1;fill-rule:nonzero;stroke:none;font-family:Courier New;-inkscape-font-specification:Courier">s(L,L0):-</tspan></text></g><g id="g96" transform="matrix(1,0,0,-1,0,188)"><text id="text98" transform="translate(149.9112,148)"><tspan id="tspan100" x="0 6.985 13.97 20.956 27.941 34.926 41.911 48.896 55.882" y="0" style="font-size:12px;font-variant:normal;font-weight:400;writing-mode:lr-tb;fill:#000;fill-opacity:1;fill-rule:nonzero;stroke:none;font-family:Courier New;-inkscape-font-specification:Courier">np(L,L1),</tspan></text></g><g id="g102" transform="matrix(1,0,0,-1,0,188)"><text id="text104" transform="translate(149.9112,160)"><tspan id="tspan106" x="0 6.985 13.97 20.956 27.941 34.926 41.911 48.896 55.882" y="0" style="font-size:12px;font-variant:normal;font-weight:400;writing-mode:lr-tb;fill:#000;fill-opacity:1;fill-rule:nonzero;stroke:none;font-family:Courier New;-inkscape-font-specification:Courier">vp(L1,L0)</tspan></text></g><g id="g108" transform="matrix(1,0,0,-1,0,188)"><text id="text110" transform="translate(272,77)"><tspan id="tspan112" x="0 6.983 13.966 20.948 27.931 34.914 41.897 48.88 55.862 62.845 69.828 76.811 83.794" y="0" style="font-size:12px;font-variant:normal;font-weight:400;writing-mode:lr-tb;fill:#000;fill-opacity:1;fill-rule:nonzero;stroke:none;font-family:Courier New;-inkscape-font-specification:Courier">?-phrase(s,L)</tspan></text></g><g id="g114" transform="matrix(1,0,0,-1,0,188)"><text id="text116" transform="translate(274,139)"><tspan id="tspan118" x="0 6.974 13.949 20.923 27.898 34.872 41.846 48.821 55.795" y="0" style="font-size:12px;font-variant:normal;font-weight:400;writing-mode:lr-tb;fill:#000;fill-opacity:1;fill-rule:nonzero;stroke:none;font-family:Courier New;-inkscape-font-specification:Courier">?-s(L,[])</tspan></text></g><g id="g120" transform="matrix(1,0,0,-1,0,188)"><path id="path122" d="m 73.5,37.5 333,0 0,148 -333,0 0,-148 z" style="fill:none;stroke:#bfbfbf;stroke-width:3;stroke-linecap:butt;stroke-linejoin:miter;stroke-miterlimit:10;stroke-opacity:1;stroke-dasharray:none"/></g></g></g></g></g></svg>