<svg xmlns="http://www.w3.org/2000/svg" xmlns:svg="http://www.w3.org/2000/svg" id="svg2" width="496.25" height="353.75" version="1.1" xml:space="preserve"><defs id="defs6"><clipPath id="clipPath20"><path id="path22" d="M 0,0 397,0 397,283 0,283 0,0 z"/></clipPath><clipPath id="clipPath30"><path id="path32" d="m 0,283 397,0 0,-283.000004175847 -397,0 L 0,283 z"/></clipPath><clipPath id="clipPath36"><path id="path38" d="M 0,0 397,0 397,283 0,283 0,0 z"/></clipPath></defs><g id="g12" transform="matrix(1.25,0,0,-1.25,0,353.75)"><g id="g16"><g id="g18" clip-path="url(#clipPath20)"><path id="path24" d="M 0,283 397,283 397,0 0,0 0,283 z" style="fill:#fff;fill-opacity:0;fill-rule:evenodd;stroke:none"/></g></g><g id="g26"><g id="g28" clip-path="url(#clipPath30)"><g id="g34" clip-path="url(#clipPath36)"><g id="g40" transform="matrix(1,0,0,-1,0,283)"><path id="path42" d="m 95.5,2.5 c 19.8822,0 36,16.11774 36,36 0,0 0,0 0,0" style="fill:none;stroke:#000;stroke-width:1;stroke-linecap:butt;stroke-linejoin:miter;stroke-miterlimit:10;stroke-opacity:1;stroke-dasharray:none"/></g><g id="g44" transform="matrix(1,0,0,-1,0,283)"><path id="path46" d="m 131.5,38.5 c 0,19.88225 -16.1178,36 -36,36 0,0 0,0 0,0" style="fill:none;stroke:#000;stroke-width:1;stroke-linecap:butt;stroke-linejoin:miter;stroke-miterlimit:10;stroke-opacity:1;stroke-dasharray:none"/></g><g id="g48" transform="matrix(1,0,0,-1,0,283)"><path id="path50" d="m 95.5,2 0,73" style="fill:none;stroke:#000;stroke-width:1;stroke-linecap:butt;stroke-linejoin:miter;stroke-miterlimit:10;stroke-opacity:1;stroke-dasharray:none"/></g><g id="g52" transform="matrix(1,0,0,-1,0,283)"><path id="path54" d="m 302.5,29.5 c 19.8823,0 36,16.11775 36,36 0,0 0,0 0,0" style="fill:none;stroke:#000;stroke-width:1;stroke-linecap:butt;stroke-linejoin:miter;stroke-miterlimit:10;stroke-opacity:1;stroke-dasharray:none"/></g><g id="g56" transform="matrix(1,0,0,-1,0,283)"><path id="path58" d="m 338.5,65.5 c 0,19.88225 -16.1177,36 -36,36 0,0 0,0 0,0" style="fill:none;stroke:#000;stroke-width:1;stroke-linecap:butt;stroke-linejoin:miter;stroke-miterlimit:10;stroke-opacity:1;stroke-dasharray:none"/></g><g id="g60" transform="matrix(1,0,0,-1,0,283)"><path id="path62" d="m 302.5,29 0,73" style="fill:none;stroke:#000;stroke-width:1;stroke-linecap:butt;stroke-linejoin:miter;stroke-miterlimit:10;stroke-opacity:1;stroke-dasharray:none"/></g><g id="g64" transform="matrix(1,0,0,-1,0,283)"><path id="path66" d="m 302.5,164.5 c 19.8823,0 36,16.1178 36,36 0,0 0,0 0,0" style="fill:none;stroke:#000;stroke-width:1;stroke-linecap:butt;stroke-linejoin:miter;stroke-miterlimit:10;stroke-opacity:1;stroke-dasharray:none"/></g><g id="g68" transform="matrix(1,0,0,-1,0,283)"><path id="path70" d="m 338.5,200.5 c 0,19.8822 -16.1177,36 -36,36 0,0 0,0 0,0" style="fill:none;stroke:#000;stroke-width:1;stroke-linecap:butt;stroke-linejoin:miter;stroke-miterlimit:10;stroke-opacity:1;stroke-dasharray:none"/></g><g id="g72" transform="matrix(1,0,0,-1,0,283)"><path id="path74" d="m 302.5,164 0,73" style="fill:none;stroke:#000;stroke-width:1;stroke-linecap:butt;stroke-linejoin:miter;stroke-miterlimit:10;stroke-opacity:1;stroke-dasharray:none"/></g><g id="g76" transform="matrix(1,0,0,-1,0,283)"><path id="path78" d="m 185.5,209.5 c 19.8822,0 36,16.1178 36,36 0,0 0,0 0,0" style="fill:none;stroke:#000;stroke-width:1;stroke-linecap:butt;stroke-linejoin:miter;stroke-miterlimit:10;stroke-opacity:1;stroke-dasharray:none"/></g><g id="g80" transform="matrix(1,0,0,-1,0,283)"><path id="path82" d="m 221.5,245.5 c 0,19.8823 -16.1178,36 -36,36 0,0 0,0 0,0" style="fill:none;stroke:#000;stroke-width:1;stroke-linecap:butt;stroke-linejoin:miter;stroke-miterlimit:10;stroke-opacity:1;stroke-dasharray:none"/></g><g id="g84" transform="matrix(1,0,0,-1,0,283)"><path id="path86" d="m 185.5,209 0,73" style="fill:none;stroke:#000;stroke-width:1;stroke-linecap:butt;stroke-linejoin:miter;stroke-miterlimit:10;stroke-opacity:1;stroke-dasharray:none"/></g><g id="g88" transform="matrix(1,0,0,-1,0,283)"><path id="path90" d="m 185.5,119.5 c 19.8822,0 36,16.1178 36,36 0,0 0,0 0,0" style="fill:none;stroke:#000;stroke-width:1;stroke-linecap:butt;stroke-linejoin:miter;stroke-miterlimit:10;stroke-opacity:1;stroke-dasharray:none"/></g><g id="g92" transform="matrix(1,0,0,-1,0,283)"><path id="path94" d="m 221.5,155.5 c 0,19.8822 -16.1178,36 -36,36 0,0 0,0 0,0" style="fill:none;stroke:#000;stroke-width:1;stroke-linecap:butt;stroke-linejoin:miter;stroke-miterlimit:10;stroke-opacity:1;stroke-dasharray:none"/></g><g id="g96" transform="matrix(1,0,0,-1,0,283)"><path id="path98" d="m 185.5,119 0,73" style="fill:none;stroke:#000;stroke-width:1;stroke-linecap:butt;stroke-linejoin:miter;stroke-miterlimit:10;stroke-opacity:1;stroke-dasharray:none"/></g><g id="g100" transform="matrix(1,0,0,-1,0,283)"><path id="path102" d="m 5,20.5 91,0" style="fill:none;stroke:#000;stroke-width:1;stroke-linecap:butt;stroke-linejoin:miter;stroke-miterlimit:10;stroke-opacity:1;stroke-dasharray:none"/></g><g id="g104" transform="matrix(1,0,0,-1,0,283)"><path id="path106" d="m 5,56.5 91,0" style="fill:none;stroke:#000;stroke-width:1;stroke-linecap:butt;stroke-linejoin:miter;stroke-miterlimit:10;stroke-opacity:1;stroke-dasharray:none"/></g><g id="g108" transform="matrix(1,0,0,-1,0,283)"><path id="path110" d="m 5,92.5 253,0" style="fill:none;stroke:#000;stroke-width:1;stroke-linecap:butt;stroke-linejoin:miter;stroke-miterlimit:10;stroke-opacity:1;stroke-dasharray:none"/></g><g id="g112" transform="matrix(1,0,0,-1,0,283)"><path id="path114" d="m 131,38.5 127,0" style="fill:none;stroke:#000;stroke-width:1;stroke-linecap:butt;stroke-linejoin:miter;stroke-miterlimit:10;stroke-opacity:1;stroke-dasharray:none"/></g><g id="g116" transform="matrix(1,0,0,-1,0,283)"><path id="path118" d="m 257.5,38 0,10" style="fill:none;stroke:#000;stroke-width:1;stroke-linecap:butt;stroke-linejoin:miter;stroke-miterlimit:10;stroke-opacity:1;stroke-dasharray:none"/></g><g id="g120" transform="matrix(1,0,0,-1,0,283)"><path id="path122" d="m 257,47.5 46,0" style="fill:none;stroke:#000;stroke-width:1;stroke-linecap:butt;stroke-linejoin:miter;stroke-miterlimit:10;stroke-opacity:1;stroke-dasharray:none"/></g><g id="g124" transform="matrix(1,0,0,-1,0,283)"><path id="path126" d="m 257.5,83 0,10" style="fill:none;stroke:#000;stroke-width:1;stroke-linecap:butt;stroke-linejoin:miter;stroke-miterlimit:10;stroke-opacity:1;stroke-dasharray:none"/></g><g id="g128" transform="matrix(1,0,0,-1,0,283)"><path id="path130" d="m 257,83.5 46,0" style="fill:none;stroke:#000;stroke-width:1;stroke-linecap:butt;stroke-linejoin:miter;stroke-miterlimit:10;stroke-opacity:1;stroke-dasharray:none"/></g><g id="g132" transform="matrix(1,0,0,-1,0,283)"><path id="path134" d="m 338,65.5 55,0" style="fill:none;stroke:#000;stroke-width:1;stroke-linecap:butt;stroke-linejoin:miter;stroke-miterlimit:10;stroke-opacity:1;stroke-dasharray:none"/></g><g id="g136" transform="matrix(1,0,0,-1,0,283)"><path id="path138" d="m 338,200.5 55,0" style="fill:none;stroke:#000;stroke-width:1;stroke-linecap:butt;stroke-linejoin:miter;stroke-miterlimit:10;stroke-opacity:1;stroke-dasharray:none"/></g><g id="g140" transform="matrix(1,0,0,-1,0,283)"><path id="path142" d="m 257.5,155 0,28" style="fill:none;stroke:#000;stroke-width:1;stroke-linecap:butt;stroke-linejoin:miter;stroke-miterlimit:10;stroke-opacity:1;stroke-dasharray:none"/></g><g id="g144" transform="matrix(1,0,0,-1,0,283)"><path id="path146" d="m 257,182.5 46,0" style="fill:none;stroke:#000;stroke-width:1;stroke-linecap:butt;stroke-linejoin:miter;stroke-miterlimit:10;stroke-opacity:1;stroke-dasharray:none"/></g><g id="g148" transform="matrix(1,0,0,-1,0,283)"><path id="path150" d="m 257.5,218 0,28" style="fill:none;stroke:#000;stroke-width:1;stroke-linecap:butt;stroke-linejoin:miter;stroke-miterlimit:10;stroke-opacity:1;stroke-dasharray:none"/></g><g id="g152" transform="matrix(1,0,0,-1,0,283)"><path id="path154" d="m 257,218.5 46,0" style="fill:none;stroke:#000;stroke-width:1;stroke-linecap:butt;stroke-linejoin:miter;stroke-miterlimit:10;stroke-opacity:1;stroke-dasharray:none"/></g><g id="g156" transform="matrix(1,0,0,-1,0,283)"><path id="path158" d="m 221,155.5 37,0" style="fill:none;stroke:#000;stroke-width:1;stroke-linecap:butt;stroke-linejoin:miter;stroke-miterlimit:10;stroke-opacity:1;stroke-dasharray:none"/></g><g id="g160" transform="matrix(1,0,0,-1,0,283)"><path id="path162" d="m 221,245.5 37,0" style="fill:none;stroke:#000;stroke-width:1;stroke-linecap:butt;stroke-linejoin:miter;stroke-miterlimit:10;stroke-opacity:1;stroke-dasharray:none"/></g><g id="g164" transform="matrix(1,0,0,-1,0,283)"><path id="path166" d="m 50.5,56 0,28" style="fill:none;stroke:#000;stroke-width:1;stroke-linecap:butt;stroke-linejoin:miter;stroke-miterlimit:10;stroke-opacity:1;stroke-dasharray:none"/></g><g id="g168" transform="matrix(1,0,0,-1,0,283)"><path id="path170" d="m 50.5,101 0,73" style="fill:none;stroke:#000;stroke-width:1;stroke-linecap:butt;stroke-linejoin:miter;stroke-miterlimit:10;stroke-opacity:1;stroke-dasharray:none"/></g><g id="g172" transform="matrix(1,0,0,-1,0,283)"><path id="path174" d="m 50,173.5 136,0" style="fill:none;stroke:#000;stroke-width:1;stroke-linecap:butt;stroke-linejoin:miter;stroke-miterlimit:10;stroke-opacity:1;stroke-dasharray:none"/></g><g id="g176" transform="matrix(1,0,0,-1,0,283)"><path id="path178" d="m 68,137.5 118,0" style="fill:none;stroke:#000;stroke-width:1;stroke-linecap:butt;stroke-linejoin:miter;stroke-miterlimit:10;stroke-opacity:1;stroke-dasharray:none"/></g><g id="g180" transform="matrix(1,0,0,-1,0,283)"><path id="path182" d="m 68.5,101 0,37" style="fill:none;stroke:#000;stroke-width:1;stroke-linecap:butt;stroke-linejoin:miter;stroke-miterlimit:10;stroke-opacity:1;stroke-dasharray:none"/></g><g id="g184" transform="matrix(1,0,0,-1,0,283)"><path id="path186" d="m 68.5,65 0,19" style="fill:none;stroke:#000;stroke-width:1;stroke-linecap:butt;stroke-linejoin:miter;stroke-miterlimit:10;stroke-opacity:1;stroke-dasharray:none"/></g><g id="g188" transform="matrix(1,0,0,-1,0,283)"><path id="path190" d="m 68.5,20 0,28" style="fill:none;stroke:#000;stroke-width:1;stroke-linecap:butt;stroke-linejoin:miter;stroke-miterlimit:10;stroke-opacity:1;stroke-dasharray:none"/></g><g id="g192" transform="matrix(1,0,0,-1,0,283)"><path id="path194" d="m 158,218.5 28,0" style="fill:none;stroke:#000;stroke-width:1;stroke-linecap:butt;stroke-linejoin:miter;stroke-miterlimit:10;stroke-opacity:1;stroke-dasharray:none"/></g><g id="g196" transform="matrix(1,0,0,-1,0,283)"><path id="path198" d="m 158.5,182 0,37" style="fill:none;stroke:#000;stroke-width:1;stroke-linecap:butt;stroke-linejoin:miter;stroke-miterlimit:10;stroke-opacity:1;stroke-dasharray:none"/></g><g id="g200" transform="matrix(1,0,0,-1,0,283)"><path id="path202" d="m 158.5,146 0,19" style="fill:none;stroke:#000;stroke-width:1;stroke-linecap:butt;stroke-linejoin:miter;stroke-miterlimit:10;stroke-opacity:1;stroke-dasharray:none"/></g><g id="g204" transform="matrix(1,0,0,-1,0,283)"><path id="path206" d="m 158.5,101 0,28" style="fill:none;stroke:#000;stroke-width:1;stroke-linecap:butt;stroke-linejoin:miter;stroke-miterlimit:10;stroke-opacity:1;stroke-dasharray:none"/></g><g id="g208" transform="matrix(1,0,0,-1,0,283)"><path id="path210" d="m 158.5,38 0,46" style="fill:none;stroke:#000;stroke-width:1;stroke-linecap:butt;stroke-linejoin:miter;stroke-miterlimit:10;stroke-opacity:1;stroke-dasharray:none"/></g><g id="g212" transform="matrix(1,0,0,-1,0,283)"><path id="path214" d="m 140,263.5 46,0" style="fill:none;stroke:#000;stroke-width:1;stroke-linecap:butt;stroke-linejoin:miter;stroke-miterlimit:10;stroke-opacity:1;stroke-dasharray:none"/></g><g id="g216" transform="matrix(1,0,0,-1,0,283)"><path id="path218" d="m 140.5,182 0,82" style="fill:none;stroke:#000;stroke-width:1;stroke-linecap:butt;stroke-linejoin:miter;stroke-miterlimit:10;stroke-opacity:1;stroke-dasharray:none"/></g><g id="g220" transform="matrix(1,0,0,-1,0,283)"><path id="path222" d="m 140.5,146 0,19" style="fill:none;stroke:#000;stroke-width:1;stroke-linecap:butt;stroke-linejoin:miter;stroke-miterlimit:10;stroke-opacity:1;stroke-dasharray:none"/></g><g id="g224" transform="matrix(1,0,0,-1,0,283)"><path id="path226" d="m 140.5,92 0,37" style="fill:none;stroke:#000;stroke-width:1;stroke-linecap:butt;stroke-linejoin:miter;stroke-miterlimit:10;stroke-opacity:1;stroke-dasharray:none"/></g><path id="path228" d="m 72,262.5 c 0,-1.933 -1.56699,-3.5 -3.5,-3.5 -1.933,0 -3.5,1.567 -3.5,3.5 0,1.933 1.567,3.5 3.5,3.5 1.93301,0 3.5,-1.567 3.5,-3.5" style="fill:#000;fill-opacity:1;fill-rule:evenodd;stroke:none"/><g id="g230" transform="matrix(1,0,0,-1,0,283)"><path id="path232" d="m 71.5,20.5 c 0,1.65686 -1.34315,3 -3,3 -1.65685,0 -3,-1.34314 -3,-3 0,-1.65686 1.34315,-3 3,-3 1.65685,0 3,1.34314 3,3 z" style="fill:none;stroke:#000;stroke-width:1;stroke-linecap:butt;stroke-linejoin:miter;stroke-miterlimit:10;stroke-opacity:1;stroke-dasharray:none"/></g><path id="path234" d="m 54,226.5 c 0,-1.933 -1.56701,-3.5 -3.5,-3.5 -1.93299,0 -3.5,1.567 -3.5,3.5 0,1.933 1.56701,3.5 3.5,3.5 1.93299,0 3.5,-1.567 3.5,-3.5" style="fill:#000;fill-opacity:1;fill-rule:evenodd;stroke:none"/><g id="g236" transform="matrix(1,0,0,-1,0,283)"><path id="path238" d="m 53.5,56.5 c 0,1.65686 -1.34315,3 -3,3 -1.65685,0 -3,-1.34314 -3,-3 0,-1.65686 1.34315,-3 3,-3 1.65685,0 3,1.34314 3,3 z" style="fill:none;stroke:#000;stroke-width:1;stroke-linecap:butt;stroke-linejoin:miter;stroke-miterlimit:10;stroke-opacity:1;stroke-dasharray:none"/></g><path id="path240" d="m 162,244.5 c 0,-1.933 -1.567,-3.5 -3.5,-3.5 -1.933,0 -3.5,1.567 -3.5,3.5 0,1.933 1.567,3.5 3.5,3.5 1.933,0 3.5,-1.567 3.5,-3.5" style="fill:#000;fill-opacity:1;fill-rule:evenodd;stroke:none"/><g id="g242" transform="matrix(1,0,0,-1,0,283)"><path id="path244" d="m 161.5,38.5 c 0,1.65686 -1.3431,3 -3,3 -1.6569,0 -3,-1.34314 -3,-3 0,-1.65686 1.3431,-3 3,-3 1.6569,0 3,1.34314 3,3 z" style="fill:none;stroke:#000;stroke-width:1;stroke-linecap:butt;stroke-linejoin:miter;stroke-miterlimit:10;stroke-opacity:1;stroke-dasharray:none"/></g><path id="path246" d="m 144,190.5 c 0,-1.933 -1.567,-3.5 -3.5,-3.5 -1.933,0 -3.5,1.567 -3.5,3.5 0,1.933 1.567,3.5 3.5,3.5 1.933,0 3.5,-1.567 3.5,-3.5" style="fill:#000;fill-opacity:1;fill-rule:evenodd;stroke:none"/><g id="g248" transform="matrix(1,0,0,-1,0,283)"><path id="path250" d="m 143.5,92.5 c 0,1.65686 -1.3431,3 -3,3 -1.6569,0 -3,-1.34314 -3,-3 0,-1.65686 1.3431,-3 3,-3 1.6569,0 3,1.34314 3,3 z" style="fill:none;stroke:#000;stroke-width:1;stroke-linecap:butt;stroke-linejoin:miter;stroke-miterlimit:10;stroke-opacity:1;stroke-dasharray:none"/></g><path id="path252" d="M 9,262.5 C 9,260.567 7.432997,259 5.5,259 3.567003,259 2,260.567 2,262.5 c 0,1.933 1.567003,3.5 3.5,3.5 1.932997,0 3.5,-1.567 3.5,-3.5" style="fill:#fff;fill-opacity:1;fill-rule:evenodd;stroke:none"/><g id="g254" transform="matrix(1,0,0,-1,0,283)"><path id="path256" d="m 8.5,20.5 c 0,1.65686 -1.343146,3 -3,3 -1.656854,0 -3,-1.34314 -3,-3 0,-1.65686 1.343146,-3 3,-3 1.656854,0 3,1.34314 3,3 z" style="fill:none;stroke:#000;stroke-width:1;stroke-linecap:butt;stroke-linejoin:miter;stroke-miterlimit:10;stroke-opacity:1;stroke-dasharray:none"/></g><path id="path258" d="M 9,226.5 C 9,224.567 7.432997,223 5.5,223 3.567003,223 2,224.567 2,226.5 c 0,1.933 1.567003,3.5 3.5,3.5 1.932997,0 3.5,-1.567 3.5,-3.5" style="fill:#fff;fill-opacity:1;fill-rule:evenodd;stroke:none"/><g id="g260" transform="matrix(1,0,0,-1,0,283)"><path id="path262" d="m 8.5,56.5 c 0,1.65686 -1.343146,3 -3,3 -1.656854,0 -3,-1.34314 -3,-3 0,-1.65686 1.343146,-3 3,-3 1.656854,0 3,1.34314 3,3 z" style="fill:none;stroke:#000;stroke-width:1;stroke-linecap:butt;stroke-linejoin:miter;stroke-miterlimit:10;stroke-opacity:1;stroke-dasharray:none"/></g><path id="path264" d="M 9,190.5 C 9,188.567 7.432997,187 5.5,187 3.567003,187 2,188.567 2,190.5 c 0,1.933 1.567003,3.5 3.5,3.5 1.932997,0 3.5,-1.567 3.5,-3.5" style="fill:#fff;fill-opacity:1;fill-rule:evenodd;stroke:none"/><g id="g266" transform="matrix(1,0,0,-1,0,283)"><path id="path268" d="m 8.5,92.5 c 0,1.65686 -1.343146,3 -3,3 -1.656854,0 -3,-1.34314 -3,-3 0,-1.65686 1.343146,-3 3,-3 1.656854,0 3,1.34314 3,3 z" style="fill:none;stroke:#000;stroke-width:1;stroke-linecap:butt;stroke-linejoin:miter;stroke-miterlimit:10;stroke-opacity:1;stroke-dasharray:none"/></g><path id="path270" d="m 396,217.5 c 0,-1.933 -1.567,-3.5 -3.5,-3.5 -1.933,0 -3.5,1.567 -3.5,3.5 0,1.933 1.567,3.5 3.5,3.5 1.933,0 3.5,-1.567 3.5,-3.5" style="fill:#fff;fill-opacity:1;fill-rule:evenodd;stroke:none"/><g id="g272" transform="matrix(1,0,0,-1,0,283)"><path id="path274" d="m 395.5,65.5 c 0,1.65686 -1.3431,3 -3,3 -1.6569,0 -3,-1.34314 -3,-3 0,-1.65686 1.3431,-3 3,-3 1.6569,0 3,1.34314 3,3 z" style="fill:none;stroke:#000;stroke-width:1;stroke-linecap:butt;stroke-linejoin:miter;stroke-miterlimit:10;stroke-opacity:1;stroke-dasharray:none"/></g><path id="path276" d="m 396,82.49999 c 0,-1.933 -1.567,-3.5 -3.5,-3.5 -1.933,0 -3.5,1.567 -3.5,3.5 0,1.93301 1.567,3.5 3.5,3.5 1.933,0 3.5,-1.56699 3.5,-3.5" style="fill:#fff;fill-opacity:1;fill-rule:evenodd;stroke:none"/><g id="g278" transform="matrix(1,0,0,-1,0,283)"><path id="path280" d="m 395.5,200.5 c 0,1.6569 -1.3431,3 -3,3 -1.6569,0 -3,-1.3431 -3,-3 0,-1.6569 1.3431,-3 3,-3 1.6569,0 3,1.3431 3,3 z" style="fill:none;stroke:#000;stroke-width:1;stroke-linecap:butt;stroke-linejoin:miter;stroke-miterlimit:10;stroke-opacity:1;stroke-dasharray:none"/></g><g id="g282" transform="matrix(1,0,0,-1,0,283)"><text id="text284" transform="translate(15,11)"><tspan id="tspan286" x="0" y="0" style="font-size:12px;font-variant:normal;font-weight:400;writing-mode:lr-tb;fill:#000;fill-opacity:1;fill-rule:nonzero;stroke:none;font-family:Courier New;-inkscape-font-specification:Courier">X</tspan></text></g><g id="g288" transform="matrix(1,0,0,-1,0,283)"><text id="text290" transform="translate(15,47)"><tspan id="tspan292" x="0" y="0" style="font-size:12px;font-variant:normal;font-weight:400;writing-mode:lr-tb;fill:#000;fill-opacity:1;fill-rule:nonzero;stroke:none;font-family:Courier New;-inkscape-font-specification:Courier">Y</tspan></text></g><g id="g294" transform="matrix(1,0,0,-1,0,283)"><text id="text296" transform="translate(15,83)"><tspan id="tspan298" x="0" y="0" style="font-size:12px;font-variant:normal;font-weight:400;writing-mode:lr-tb;fill:#000;fill-opacity:1;fill-rule:nonzero;stroke:none;font-family:Courier New;-inkscape-font-specification:Courier">Z</tspan></text></g><g id="g300" transform="matrix(1,0,0,-1,0,283)"><text id="text302" transform="translate(141,29)"><tspan id="tspan304" x="0" y="0" style="font-size:12px;font-variant:normal;font-weight:400;writing-mode:lr-tb;fill:#000;fill-opacity:1;fill-rule:nonzero;stroke:none;font-family:Courier New;-inkscape-font-specification:Courier">S</tspan></text></g><g id="g306" transform="matrix(1,0,0,-1,0,283)"><text id="text308" transform="translate(348,56)"><tspan id="tspan310" x="0 6.9 13.8" y="0" style="font-size:12px;font-variant:normal;font-weight:400;writing-mode:lr-tb;fill:#000;fill-opacity:1;fill-rule:nonzero;stroke:none;font-family:Courier New;-inkscape-font-specification:Courier">Sum</tspan></text></g><g id="g312" transform="matrix(1,0,0,-1,0,283)"><text id="text314" transform="translate(231,146)"><tspan id="tspan316" x="0 6.799" y="0" style="font-size:12px;font-variant:normal;font-weight:400;writing-mode:lr-tb;fill:#000;fill-opacity:1;fill-rule:nonzero;stroke:none;font-family:Courier New;-inkscape-font-specification:Courier">C1</tspan></text></g><g id="g318" transform="matrix(1,0,0,-1,0,283)"><text id="text320" transform="translate(231,236)"><tspan id="tspan322" x="0 6.799" y="0" style="font-size:12px;font-variant:normal;font-weight:400;writing-mode:lr-tb;fill:#000;fill-opacity:1;fill-rule:nonzero;stroke:none;font-family:Courier New;-inkscape-font-specification:Courier">C2</tspan></text></g><g id="g324" transform="matrix(1,0,0,-1,0,283)"><text id="text326" transform="translate(348,191)"><tspan id="tspan328" x="0 6.949 13.898 20.848 27.797" y="0" style="font-size:12px;font-variant:normal;font-weight:400;writing-mode:lr-tb;fill:#000;fill-opacity:1;fill-rule:nonzero;stroke:none;font-family:Courier New;-inkscape-font-specification:Courier">Carry</tspan></text></g><g id="g330" transform="matrix(1,0,0,-1,0,283)"><text id="text332" transform="translate(100,42)"><tspan id="tspan334" x="0 6.932 13.865 20.797" y="0" style="font-size:12px;font-variant:normal;font-weight:400;writing-mode:lr-tb;fill:#000;fill-opacity:1;fill-rule:nonzero;stroke:none;font-family:Courier New;-inkscape-font-specification:Courier">xor1</tspan></text></g><g id="g336" transform="matrix(1,0,0,-1,0,283)"><text id="text338" transform="translate(307,69)"><tspan id="tspan340" x="0 6.932 13.865 20.797" y="0" style="font-size:12px;font-variant:normal;font-weight:400;writing-mode:lr-tb;fill:#000;fill-opacity:1;fill-rule:nonzero;stroke:none;font-family:Courier New;-inkscape-font-specification:Courier">xor2</tspan></text></g><g id="g342" transform="matrix(1,0,0,-1,0,283)"><text id="text344" transform="translate(190,159)"><tspan id="tspan346" x="0 6.932 13.865 20.797" y="0" style="font-size:12px;font-variant:normal;font-weight:400;writing-mode:lr-tb;fill:#000;fill-opacity:1;fill-rule:nonzero;stroke:none;font-family:Courier New;-inkscape-font-specification:Courier">and1</tspan></text></g><g id="g348" transform="matrix(1,0,0,-1,0,283)"><text id="text350" transform="translate(190,249)"><tspan id="tspan352" x="0 6.932 13.865 20.797" y="0" style="font-size:12px;font-variant:normal;font-weight:400;writing-mode:lr-tb;fill:#000;fill-opacity:1;fill-rule:nonzero;stroke:none;font-family:Courier New;-inkscape-font-specification:Courier">and2</tspan></text></g><g id="g354" transform="matrix(1,0,0,-1,0,283)"><text id="text356" transform="translate(307,204)"><tspan id="tspan358" x="0 6.9 13.8" y="0" style="font-size:12px;font-variant:normal;font-weight:400;writing-mode:lr-tb;fill:#000;fill-opacity:1;fill-rule:nonzero;stroke:none;font-family:Courier New;-inkscape-font-specification:Courier">or1</tspan></text></g></g></g></g></g></svg>