<svg xmlns="http://www.w3.org/2000/svg" xmlns:svg="http://www.w3.org/2000/svg" id="svg2" width="635" height="217.5" version="1.1" xml:space="preserve"><defs id="defs6"><clipPath id="clipPath20"><path id="path22" d="M 0,0 508,0 508,174 0,174 0,0 z"/></clipPath><clipPath id="clipPath30"><path id="path32" d="m 0,174 508,0 0,-174.000002567482 -508,0 L 0,174 z"/></clipPath><clipPath id="clipPath36"><path id="path38" d="M 0,0 508,0 508,174 0,174 0,0 z"/></clipPath></defs><g id="g12" transform="matrix(1.25,0,0,-1.25,0,217.5)"><g id="g16"><g id="g18" clip-path="url(#clipPath20)"><path id="path24" d="M 0,174 508,174 508,0 0,0 0,174 z" style="fill:#fff;fill-opacity:0;fill-rule:evenodd;stroke:none"/></g></g><g id="g26"><g id="g28" clip-path="url(#clipPath30)"><g id="g34" clip-path="url(#clipPath36)"><g id="g40" transform="matrix(1,0,0,-1,0,174)"><text id="text42" transform="translate(218,11)"><tspan id="tspan44" x="0 6.982 13.963 20.945 27.926 34.908 41.89 48.871 55.853 62.834 69.816 76.798" y="0" style="font-size:12px;font-variant:normal;font-weight:400;writing-mode:lr-tb;fill:#000;fill-opacity:1;fill-rule:nonzero;stroke:none;font-family:Courier New;-inkscape-font-specification:Courier">element(X,Y)</tspan></text></g><g id="g46" transform="matrix(1,0,0,-1,0,174)"><text id="text48" transform="translate(90,101)"><tspan id="tspan50" x="0 6.986 13.973 20.959 27.946 34.932 41.918 48.905 55.891 62.878 69.864 76.85 83.837 90.823 97.81 104.796" y="0" style="font-size:12px;font-variant:normal;font-weight:400;writing-mode:lr-tb;fill:#000;fill-opacity:1;fill-rule:nonzero;stroke:none;font-family:Courier New;-inkscape-font-specification:Courier">element(X,[Y|Z])</tspan></text></g><g id="g52" transform="matrix(1,0,0,-1,0,174)"><text id="text54" transform="translate(234,101)"><tspan id="tspan56" x="0 6.986 13.973 20.959 27.946 34.932 41.918 48.905 55.891 62.878 69.864 76.85 83.837 90.823 97.81 104.796" y="0" style="font-size:12px;font-variant:normal;font-weight:400;writing-mode:lr-tb;fill:#000;fill-opacity:1;fill-rule:nonzero;stroke:none;font-family:Courier New;-inkscape-font-specification:Courier">element([X|Y],Z)</tspan></text></g><g id="g58" transform="matrix(1,0,0,-1,0,174)"><text id="text60" transform="translate(2,66)"><tspan id="tspan62" x="0 6.982 13.963 20.945 27.926 34.908 41.89 48.871 55.853 62.834 69.816 76.798" y="0" style="font-size:12px;font-variant:normal;font-weight:400;writing-mode:lr-tb;fill:#000;fill-opacity:1;fill-rule:nonzero;stroke:none;font-family:Courier New;-inkscape-font-specification:Courier">element(X,X)</tspan></text></g><g id="g64" transform="matrix(1,0,0,-1,0,174)"><text id="text66" transform="translate(323,66)"><tspan id="tspan68" x="0 6.992 13.985 20.977 27.97 34.962 41.954 48.947 55.939 62.932 69.924 76.916 83.909 90.901 97.894 104.886 111.878 118.871 125.863 132.856 139.848 146.84 153.833 160.825 167.818 174.81" y="0" style="font-size:12px;font-variant:normal;font-weight:400;writing-mode:lr-tb;fill:#000;fill-opacity:1;fill-rule:nonzero;stroke:none;font-family:Courier New;-inkscape-font-specification:Courier">element(X,Y):-element(Y,X)</tspan></text></g><g id="g70" transform="matrix(1,0,0,-1,0,174)"><text id="text72" transform="translate(25,171)"><tspan id="tspan74" x="0 6.986 13.973 20.959 27.946 34.932 41.918 48.905 55.891 62.878 69.864 76.85 83.837 90.823 97.81 104.796" y="0" style="font-size:12px;font-variant:normal;font-weight:400;writing-mode:lr-tb;fill:#000;fill-opacity:1;fill-rule:nonzero;stroke:none;font-family:Courier New;-inkscape-font-specification:Courier">element(X,[X|Z])</tspan></text></g><g id="g76" transform="matrix(1,0,0,-1,0,174)"><text id="text78" transform="translate(162,171)"><tspan id="tspan80" x="0 6.994 13.987 20.981 27.974 34.968 41.962 48.955 55.949 62.942 69.936 76.93 83.923 90.917 97.91 104.904 111.898 118.891 125.885 132.878 139.872 146.866 153.859 160.853 167.846 174.84 181.834 188.827 195.821 202.814" y="0" style="font-size:12px;font-variant:normal;font-weight:400;writing-mode:lr-tb;fill:#000;fill-opacity:1;fill-rule:nonzero;stroke:none;font-family:Courier New;-inkscape-font-specification:Courier">element(X,[Y|Z]):-element(X,Z)</tspan></text></g><path id="path82" d="m 225,157 0.25,0 0,-0.25 -65,-65 -0.25,0 0,0.25" style="fill:#000;fill-opacity:1;fill-rule:nonzero;stroke:none"/><g id="g84" transform="matrix(1,0,0,-1,0,174)"><path id="path86" d="m 261.125,17 0,65.25" style="fill:none;stroke:#000;stroke-width:.25;stroke-linecap:butt;stroke-linejoin:miter;stroke-miterlimit:10;stroke-opacity:1;stroke-dasharray:none"/></g><path id="path88" d="m 205,162 0.25,0 0,-0.25 -160,-35 -0.25,0 0,0.25" style="fill:#000;fill-opacity:1;fill-rule:nonzero;stroke:none"/><path id="path90" d="m 295,157 0.25,0 160,-30 0,-0.25 -0.25,0 -160,30" style="fill:#000;fill-opacity:1;fill-rule:nonzero;stroke:none"/><path id="path92" d="m 125,67 0.25,0 0,-0.25 -45,-45 -0.25,0 0,0.25" style="fill:#000;fill-opacity:1;fill-rule:nonzero;stroke:none"/><path id="path94" d="m 182,67 0.25,0 45,-45 0,-0.25 -0.25,0 -45,45" style="fill:#000;fill-opacity:1;fill-rule:nonzero;stroke:none"/></g></g></g></g></svg>