<svg xmlns="http://www.w3.org/2000/svg" xmlns:svg="http://www.w3.org/2000/svg" id="svg2" width="628.75" height="276.25" version="1.1" xml:space="preserve"><defs id="defs6"><clipPath id="clipPath20"><path id="path22" d="M 0,0 503,0 503,221 0,221 0,0 z"/></clipPath><clipPath id="clipPath30"><path id="path32" d="m 0,221 503,0 0,-221.000003260997 -503,0 L 0,221 z"/></clipPath><clipPath id="clipPath36"><path id="path38" d="M 0,0 503,0 503,221 0,221 0,0 z"/></clipPath></defs><g id="g12" transform="matrix(1.25,0,0,-1.25,0,276.25)"><g id="g16"><g id="g18" clip-path="url(#clipPath20)"><path id="path24" d="M 0,221 503,221 503,0 0,0 0,221 z" style="fill:#fff;fill-opacity:0;fill-rule:evenodd;stroke:none"/></g></g><g id="g26"><g id="g28" clip-path="url(#clipPath30)"><g id="g34" clip-path="url(#clipPath36)"><g id="g40" transform="matrix(1,0,0,-1,0,221)"><text id="text42" transform="translate(219,11)"><tspan id="tspan44" x="0 6.971 13.942 20.912 27.883 34.854 41.825 48.796" y="0" style="font-size:12px;font-variant:normal;font-weight:400;writing-mode:lr-tb;fill:#000;fill-opacity:1;fill-rule:nonzero;stroke:none;font-family:Courier New;-inkscape-font-specification:Courier">sentence</tspan></text></g><g id="g46" transform="matrix(1,0,0,-1,0,221)"><text id="text48" transform="translate(66,56)"><tspan id="tspan50" x="0 6.98 13.961 20.941 27.922 34.902 41.882 48.863 55.843 62.824 69.804" y="0" style="font-size:12px;font-variant:normal;font-weight:400;writing-mode:lr-tb;fill:#000;fill-opacity:1;fill-rule:nonzero;stroke:none;font-family:Courier New;-inkscape-font-specification:Courier">noun_phrase</tspan></text></g><g id="g52" transform="matrix(1,0,0,-1,0,221)"><text id="text54" transform="translate(336,56)"><tspan id="tspan56" x="0 6.98 13.961 20.941 27.922 34.902 41.882 48.863 55.843 62.824 69.804" y="0" style="font-size:12px;font-variant:normal;font-weight:400;writing-mode:lr-tb;fill:#000;fill-opacity:1;fill-rule:nonzero;stroke:none;font-family:Courier New;-inkscape-font-specification:Courier">verb_phrase</tspan></text></g><g id="g58" transform="matrix(1,0,0,-1,0,221)"><text id="text60" transform="translate(2,110)"><tspan id="tspan62" x="0 6.966 13.932 20.898 27.864 34.83 41.796" y="0" style="font-size:12px;font-variant:normal;font-weight:400;writing-mode:lr-tb;fill:#000;fill-opacity:1;fill-rule:nonzero;stroke:none;font-family:Courier New;-inkscape-font-specification:Courier">article</tspan></text></g><g id="g64" transform="matrix(1,0,0,-1,0,221)"><text id="text66" transform="translate(74,110)"><tspan id="tspan68" x="0 6.974 13.949 20.923 27.898 34.872 41.846 48.821 55.795" y="0" style="font-size:12px;font-variant:normal;font-weight:400;writing-mode:lr-tb;fill:#000;fill-opacity:1;fill-rule:nonzero;stroke:none;font-family:Courier New;-inkscape-font-specification:Courier">adjective</tspan></text></g><g id="g70" transform="matrix(1,0,0,-1,0,221)"><text id="text72" transform="translate(174,110)"><tspan id="tspan74" x="0 6.932 13.865 20.797" y="0" style="font-size:12px;font-variant:normal;font-weight:400;writing-mode:lr-tb;fill:#000;fill-opacity:1;fill-rule:nonzero;stroke:none;font-family:Courier New;-inkscape-font-specification:Courier">noun</tspan></text></g><g id="g76" transform="matrix(1,0,0,-1,0,221)"><text id="text78" transform="translate(255,110)"><tspan id="tspan80" x="0 6.985 13.97 20.956 27.941 34.926 41.911 48.896 55.882 62.867 69.852 76.837 83.822 90.808 97.793" y="0" style="font-size:12px;font-variant:normal;font-weight:400;writing-mode:lr-tb;fill:#000;fill-opacity:1;fill-rule:nonzero;stroke:none;font-family:Courier New;-inkscape-font-specification:Courier">transitive_verb</tspan></text></g><g id="g82" transform="matrix(1,0,0,-1,0,221)"><text id="text84" transform="translate(418,110)"><tspan id="tspan86" x="0 6.98 13.961 20.941 27.922 34.902 41.882 48.863 55.843 62.824 69.804" y="0" style="font-size:12px;font-variant:normal;font-weight:400;writing-mode:lr-tb;fill:#000;fill-opacity:1;fill-rule:nonzero;stroke:none;font-family:Courier New;-inkscape-font-specification:Courier">noun_phrase</tspan></text></g><g id="g88" transform="matrix(1,0,0,-1,0,221)"><text id="text90" transform="translate(423,164)"><tspan id="tspan92" x="0 6.98 13.961 20.941 27.922 34.902 41.882 48.863 55.843 62.824 69.804" y="0" style="font-size:12px;font-variant:normal;font-weight:400;writing-mode:lr-tb;fill:#000;fill-opacity:1;fill-rule:nonzero;stroke:none;font-family:Courier New;-inkscape-font-specification:Courier">proper_noun</tspan></text></g><path id="path94" d="m 208,211 0.25,0 0,-0.25 -90,-27 -0.25,0 0,0.25" style="fill:#000;fill-opacity:1;fill-rule:nonzero;stroke:none"/><path id="path96" d="m 64,157 0.25,0 0,-0.25 -36,-27 -0.25,0 0,0.25" style="fill:#000;fill-opacity:1;fill-rule:nonzero;stroke:none"/><g id="g98" transform="matrix(1,0,0,-1,0,221)"><path id="path100" d="m 109.125,64 0,27.25" style="fill:none;stroke:#000;stroke-width:.25;stroke-linecap:butt;stroke-linejoin:miter;stroke-miterlimit:10;stroke-opacity:1;stroke-dasharray:none"/></g><path id="path102" d="m 289,211 0.25,0 90,-27 0,-0.25 -0.25,0 -90,27" style="fill:#000;fill-opacity:1;fill-rule:nonzero;stroke:none"/><path id="path104" d="m 145,157 0.25,0 36,-27 0,-0.25 -0.25,0 -36,27" style="fill:#000;fill-opacity:1;fill-rule:nonzero;stroke:none"/><path id="path106" d="m 334,157 0.25,0 0,-0.25 -36,-27 -0.25,0 0,0.25" style="fill:#000;fill-opacity:1;fill-rule:nonzero;stroke:none"/><path id="path108" d="m 415,157 0.25,0 36,-27 0,-0.25 -0.25,0 -36,27" style="fill:#000;fill-opacity:1;fill-rule:nonzero;stroke:none"/><g id="g110" transform="matrix(1,0,0,-1,0,221)"><path id="path112" d="m 451.125,118 0,27.25" style="fill:none;stroke:#000;stroke-width:.25;stroke-linecap:butt;stroke-linejoin:miter;stroke-miterlimit:10;stroke-opacity:1;stroke-dasharray:none"/></g><g id="g114" transform="matrix(1,0,0,-1,0,221)"><text id="text116" transform="translate(426,218)"><tspan id="tspan118" x="0 6.971 13.942 20.912 27.883 34.854 41.825 48.796" y="0" style="font-size:12px;font-variant:normal;font-weight:400;writing-mode:lr-tb;fill:#000;fill-opacity:1;fill-rule:nonzero;stroke:none;font-family:Courier New;-inkscape-font-specification:Courier">achilles</tspan></text></g><g id="g120" transform="matrix(1,0,0,-1,0,221)"><path id="path122" d="m 451.125,172 0,27.25" style="fill:none;stroke:#000;stroke-width:.25;stroke-linecap:butt;stroke-linejoin:miter;stroke-miterlimit:10;stroke-opacity:1;stroke-dasharray:none"/></g><g id="g124" transform="matrix(1,0,0,-1,0,221)"><text id="text126" transform="translate(284,218)"><tspan id="tspan128" x="0 6.949 13.898 20.848 27.797" y="0" style="font-size:12px;font-variant:normal;font-weight:400;writing-mode:lr-tb;fill:#000;fill-opacity:1;fill-rule:nonzero;stroke:none;font-family:Courier New;-inkscape-font-specification:Courier">beats</tspan></text></g><g id="g130" transform="matrix(1,0,0,-1,0,221)"><path id="path132" d="m 298.125,118 0,81.25" style="fill:none;stroke:#000;stroke-width:.25;stroke-linecap:butt;stroke-linejoin:miter;stroke-miterlimit:10;stroke-opacity:1;stroke-dasharray:none"/></g><g id="g134" transform="matrix(1,0,0,-1,0,221)"><text id="text136" transform="translate(172,218)"><tspan id="tspan138" x="0 6.96 13.92 20.88 27.84 34.8" y="0" style="font-size:12px;font-variant:normal;font-weight:400;writing-mode:lr-tb;fill:#000;fill-opacity:1;fill-rule:nonzero;stroke:none;font-family:Courier New;-inkscape-font-specification:Courier">turtle</tspan></text></g><g id="g140" transform="matrix(1,0,0,-1,0,221)"><path id="path142" d="m 190.125,118 0,81.25" style="fill:none;stroke:#000;stroke-width:.25;stroke-linecap:butt;stroke-linejoin:miter;stroke-miterlimit:10;stroke-opacity:1;stroke-dasharray:none"/></g><g id="g144" transform="matrix(1,0,0,-1,0,221)"><text id="text146" transform="translate(95,218)"><tspan id="tspan148" x="0 6.949 13.898 20.848 27.797" y="0" style="font-size:12px;font-variant:normal;font-weight:400;writing-mode:lr-tb;fill:#000;fill-opacity:1;fill-rule:nonzero;stroke:none;font-family:Courier New;-inkscape-font-specification:Courier">rapid</tspan></text></g><g id="g150" transform="matrix(1,0,0,-1,0,221)"><path id="path152" d="m 109.125,118 0,81.25" style="fill:none;stroke:#000;stroke-width:.25;stroke-linecap:butt;stroke-linejoin:miter;stroke-miterlimit:10;stroke-opacity:1;stroke-dasharray:none"/></g><g id="g154" transform="matrix(1,0,0,-1,0,221)"><text id="text156" transform="translate(21,218)"><tspan id="tspan158" x="0 6.9 13.8" y="0" style="font-size:12px;font-variant:normal;font-weight:400;writing-mode:lr-tb;fill:#000;fill-opacity:1;fill-rule:nonzero;stroke:none;font-family:Courier New;-inkscape-font-specification:Courier">the</tspan></text></g><g id="g160" transform="matrix(1,0,0,-1,0,221)"><path id="path162" d="m 28.125,118 0,81.25" style="fill:none;stroke:#000;stroke-width:.25;stroke-linecap:butt;stroke-linejoin:miter;stroke-miterlimit:10;stroke-opacity:1;stroke-dasharray:none"/></g></g></g></g></g></svg>