<svg xmlns="http://www.w3.org/2000/svg" xmlns:svg="http://www.w3.org/2000/svg" id="svg2" width="360" height="567.5" version="1.1" xml:space="preserve"><defs id="defs6"><clipPath id="clipPath20"><path id="path22" d="M 0,0 288,0 288,454 0,454 0,0 z"/></clipPath><clipPath id="clipPath30"><path id="path32" d="m 0,454 288,0 0,-454.000006699061 -288,0 L 0,454 z"/></clipPath><clipPath id="clipPath36"><path id="path38" d="M 0,0 288,0 288,454 0,454 0,0 z"/></clipPath></defs><g id="g12" transform="matrix(1.25,0,0,-1.25,0,567.5)"><g id="g16"><g id="g18" clip-path="url(#clipPath20)"><path id="path24" d="M 0,454 288,454 288,0 0,0 0,454 z" style="fill:#fff;fill-opacity:0;fill-rule:evenodd;stroke:none"/></g></g><g id="g26"><g id="g28" clip-path="url(#clipPath30)"><g id="g34" clip-path="url(#clipPath36)"><path id="path40" d="m 186,292 73,0 0,-78 -73,0 0,78 z" style="fill:#efefef;fill-opacity:1;fill-rule:nonzero;stroke:none"/><g id="g42" transform="matrix(1,0,0,-1,0,454)"><path id="path44" d="m 186.5,162.5 72,0 0,77 -72,0 0,-77 z" style="fill:none;stroke:#fff;stroke-width:1;stroke-linecap:butt;stroke-linejoin:miter;stroke-miterlimit:10;stroke-opacity:1;stroke-dasharray:none"/></g><g id="g46" transform="matrix(1,0,0,-1,0,454)"><text id="text48" transform="translate(110,11)"><tspan id="tspan50" x="0 6.985 13.97 20.956 27.941 34.926 41.911 48.896 55.882 62.867 69.852 76.837 83.822 90.808 97.793" y="0" style="font-size:12px;font-variant:normal;font-weight:400;writing-mode:lr-tb;fill:#000;fill-opacity:1;fill-rule:nonzero;stroke:none;font-family:Courier New;-inkscape-font-specification:Courier">?-flies(tweety)</tspan></text></g><g id="g52" transform="matrix(1,0,0,-1,0,454)"><text id="text54" transform="translate(38,83)"><tspan id="tspan56" x="0 6.994 13.987 20.981 27.974 34.968 41.962 48.955 55.949 62.942 69.936 76.93 83.923 90.917 97.91 104.904 111.898 118.891 125.885 132.878 139.872 146.866 153.859 160.853 167.846 174.84 181.834 188.827 195.821 202.814 209.808 216.802 223.795 230.789 237.782" y="0" style="font-size:12px;font-variant:normal;font-weight:400;writing-mode:lr-tb;fill:#000;fill-opacity:1;fill-rule:nonzero;stroke:none;font-family:Courier New;-inkscape-font-specification:Courier">:-bird(tweety),not abnormal(tweety)</tspan></text></g><g id="g58" transform="matrix(1,0,0,-1,0,454)"><text id="text60" transform="translate(83,155)"><tspan id="tspan62" x="0 6.99 13.98 20.97 27.96 34.95 41.94 48.93 55.92 62.91 69.9 76.89 83.88 90.87 97.86 104.85 111.84 118.83 125.82 132.81 139.8 146.79" y="0" style="font-size:12px;font-variant:normal;font-weight:400;writing-mode:lr-tb;fill:#000;fill-opacity:1;fill-rule:nonzero;stroke:none;font-family:Courier New;-inkscape-font-specification:Courier">:-not abnormal(tweety)</tspan></text></g><g id="g64" transform="matrix(1,0,0,-1,0,454)"><text id="text66" transform="translate(2,227)"><tspan id="tspan68" x="0 6.991 13.982 20.974 27.965 34.956 41.947 48.938 55.93 62.921 69.912 76.903 83.894 90.886 97.877 104.868 111.859 118.85 125.842 132.833 139.824 146.815 153.806 160.798 167.789" y="0" style="font-size:12px;font-variant:normal;font-weight:400;writing-mode:lr-tb;fill:#000;fill-opacity:1;fill-rule:nonzero;stroke:none;font-family:Courier New;-inkscape-font-specification:Courier">:-abnormal(tweety),!,fail</tspan></text></g><g id="g70" transform="matrix(1,0,0,-1,0,454)"><text id="text72" transform="translate(236,230)"><tspan id="tspan74" x="0" y="0" style="font-size:20px;font-variant:normal;font-weight:400;writing-mode:lr-tb;fill:#000;fill-opacity:1;fill-rule:nonzero;stroke:none;font-family:Geneva;-inkscape-font-specification:Geneva">□</tspan></text></g><path id="path76" d="m 136,290 0.25,0 0,-0.25 -45,-45 -0.25,0 0,0.25" style="fill:#000;fill-opacity:1;fill-rule:nonzero;stroke:none"/><path id="path78" d="m 190,290 0.25,0 45,-45 0,-0.25 -0.25,0 -45,45" style="fill:#000;fill-opacity:1;fill-rule:nonzero;stroke:none"/><g id="g80" transform="matrix(1,0,0,-1,0,454)"><path id="path82" d="m 163.5,20 0,46" style="fill:none;stroke:#000;stroke-width:1;stroke-linecap:butt;stroke-linejoin:miter;stroke-miterlimit:10;stroke-opacity:1;stroke-dasharray:none"/></g><g id="g84" transform="matrix(1,0,0,-1,0,454)"><path id="path86" d="m 163.5,92 0,46" style="fill:none;stroke:#000;stroke-width:1;stroke-linecap:butt;stroke-linejoin:miter;stroke-miterlimit:10;stroke-opacity:1;stroke-dasharray:none"/></g><g id="g88" transform="matrix(1,0,0,-1,0,454)"><text id="text90" transform="translate(8,299)"><tspan id="tspan92" x="0 6.991 13.982 20.974 27.965 34.956 41.947 48.938 55.93 62.921 69.912 76.903 83.894 90.886 97.877 104.868 111.859 118.85 125.842 132.833 139.824 146.815 153.806 160.798" y="0" style="font-size:12px;font-variant:normal;font-weight:400;writing-mode:lr-tb;fill:#000;fill-opacity:1;fill-rule:nonzero;stroke:none;font-family:Courier New;-inkscape-font-specification:Courier">:-ostrich(tweety),!,fail</tspan></text></g><g id="g94" transform="matrix(1,0,0,-1,0,454)"><text id="text96" transform="translate(64,371)"><tspan id="tspan98" x="0 6.971 13.942 20.912 27.883 34.854 41.825 48.796" y="0" style="font-size:12px;font-variant:normal;font-weight:400;writing-mode:lr-tb;fill:#000;fill-opacity:1;fill-rule:nonzero;stroke:none;font-family:Courier New;-inkscape-font-specification:Courier">:-!,fail</tspan></text></g><g id="g100" transform="matrix(1,0,0,-1,0,454)"><text id="text102" transform="translate(67,443)"><tspan id="tspan104" x="0 6.966 13.932 20.898 27.864 34.83 41.796" y="0" style="font-size:12px;font-variant:normal;font-weight:400;writing-mode:lr-tb;fill:#000;fill-opacity:1;fill-rule:nonzero;stroke:none;font-family:Courier New;-inkscape-font-specification:Courier">:-fail.</tspan></text></g><g id="g106" transform="matrix(1,0,0,-1,0,454)"><path id="path108" d="m 72,452 38,0" style="fill:none;stroke:#000;stroke-width:2;stroke-linecap:butt;stroke-linejoin:miter;stroke-miterlimit:10;stroke-opacity:1;stroke-dasharray:none"/></g><g id="g110" transform="matrix(1,0,0,-1,0,454)"><path id="path112" d="m 91.5,236 0,46" style="fill:none;stroke:#000;stroke-width:1;stroke-linecap:butt;stroke-linejoin:miter;stroke-miterlimit:10;stroke-opacity:1;stroke-dasharray:none"/></g><g id="g114" transform="matrix(1,0,0,-1,0,454)"><path id="path116" d="m 91.5,308 0,46" style="fill:none;stroke:#000;stroke-width:1;stroke-linecap:butt;stroke-linejoin:miter;stroke-miterlimit:10;stroke-opacity:1;stroke-dasharray:none"/></g><g id="g118" transform="matrix(1,0,0,-1,0,454)"><path id="path120" d="m 91.5,380 0,46" style="fill:none;stroke:#000;stroke-width:1;stroke-linecap:butt;stroke-linejoin:miter;stroke-miterlimit:10;stroke-opacity:1;stroke-dasharray:none"/></g></g></g></g></g></svg>