<svg xmlns="http://www.w3.org/2000/svg" xmlns:svg="http://www.w3.org/2000/svg" id="svg2" width="382.5" height="165" version="1.1" xml:space="preserve"><defs id="defs6"><clipPath id="clipPath20"><path id="path22" d="M 0,0 306,0 306,132 0,132 0,0 z"/></clipPath><clipPath id="clipPath30"><path id="path32" d="m 0,132 306,0 0,-132.000001947745 -306,0 L 0,132 z"/></clipPath><clipPath id="clipPath36"><path id="path38" d="M 0,0 306,0 306,132 0,132 0,0 z"/></clipPath><clipPath id="clipPath68"><path id="path70" d="m 0,132 306,0 0,-132.000001947745 -306,0 L 0,132 z"/></clipPath><clipPath id="clipPath74"><path id="path76" d="m 257,71 28,0 0,11 -28,0 0,-11 z"/></clipPath><clipPath id="clipPath88"><path id="path90" d="m 0,132 306,0 0,-132.000001947745 -306,0 L 0,132 z"/></clipPath><clipPath id="clipPath94"><path id="path96" d="m 203,44 20,0 0,11 -20,0 0,-11 z"/></clipPath><clipPath id="clipPath108"><path id="path110" d="m 0,132 306,0 0,-132.000001947745 -306,0 L 0,132 z"/></clipPath><clipPath id="clipPath114"><path id="path116" d="M 0,0 306,0 306,132 0,132 0,0 z"/></clipPath><clipPath id="clipPath128"><path id="path130" d="m 0,132 306,0 0,-132.000001947745 -306,0 L 0,132 z"/></clipPath><clipPath id="clipPath134"><path id="path136" d="m 39,107 63,0 0,11 -63,0 0,-11 z"/></clipPath><clipPath id="clipPath148"><path id="path150" d="m 0,132 306,0 0,-132.000001947745 -306,0 L 0,132 z"/></clipPath><clipPath id="clipPath154"><path id="path156" d="m 161,107 61,0 0,11 -61,0 0,-11 z"/></clipPath><clipPath id="clipPath168"><path id="path170" d="m 0,132 306,0 0,-132.000001947745 -306,0 L 0,132 z"/></clipPath><clipPath id="clipPath174"><path id="path176" d="M 0,0 306,0 306,132 0,132 0,0 z"/></clipPath><clipPath id="clipPath190"><path id="path192" d="m 0,132 306,0 0,-132.000001947745 -306,0 L 0,132 z"/></clipPath><clipPath id="clipPath196"><path id="path198" d="m 139,18 29,0 0,11 -29,0 0,-11 z"/></clipPath></defs><g id="g12" transform="matrix(1.25,0,0,-1.25,0,165)"><g id="g16"><g id="g18" clip-path="url(#clipPath20)"><path id="path24" d="M 0,132 306,132 306,0 0,0 0,132 z" style="fill:#fff;fill-opacity:0;fill-rule:evenodd;stroke:none"/></g></g><g id="g26"><g id="g28" clip-path="url(#clipPath30)"><g id="g34" clip-path="url(#clipPath36)"><path id="path40" d="M 9,25 27,40 27,25 27,8.999998 9,25" style="fill:#dfdfdf;fill-opacity:1;fill-rule:evenodd;stroke:none"/><path id="path42" d="M 297,25 279,8.999998 279,25 l 0,15 18,-15" style="fill:#dfdfdf;fill-opacity:1;fill-rule:evenodd;stroke:none"/><g id="g44" transform="matrix(1,0,0,-1,0,132)"><path id="path46" d="m 19,107 268,0" style="fill:none;stroke:#dfdfdf;stroke-width:16;stroke-linecap:butt;stroke-linejoin:miter;stroke-miterlimit:10;stroke-opacity:1;stroke-dasharray:none"/></g><path id="path48" d="m 124,51 18,16 0,-16 0,-16 -18,16" style="fill:#dfdfdf;fill-opacity:1;fill-rule:evenodd;stroke:none"/><path id="path50" d="m 297,51 -18,-16 0,16 0,16 18,-16" style="fill:#dfdfdf;fill-opacity:1;fill-rule:evenodd;stroke:none"/><g id="g52" transform="matrix(1,0,0,-1,0,132)"><path id="path54" d="m 134,81 153,0" style="fill:none;stroke:#dfdfdf;stroke-width:16;stroke-linecap:butt;stroke-linejoin:miter;stroke-miterlimit:10;stroke-opacity:1;stroke-dasharray:none"/></g><path id="path56" d="m 239,77 19,16 0,-16 0,-15 -19,15" style="fill:#dfdfdf;fill-opacity:1;fill-rule:evenodd;stroke:none"/><path id="path58" d="m 297,77 -18,-15 0,15 0,16 18,-16" style="fill:#dfdfdf;fill-opacity:1;fill-rule:evenodd;stroke:none"/><g id="g60" transform="matrix(1,0,0,-1,0,132)"><path id="path62" d="m 250,55 37,0" style="fill:none;stroke:#dfdfdf;stroke-width:16;stroke-linecap:butt;stroke-linejoin:miter;stroke-miterlimit:10;stroke-opacity:1;stroke-dasharray:none"/></g></g></g></g><g id="g64"><g id="g66" clip-path="url(#clipPath68)"><g id="g72" clip-path="url(#clipPath74)"><g id="g78" transform="matrix(1,0,0,-1,0,132)"><text id="text80" transform="translate(258,59)"><tspan id="tspan82" x="0 6.67 13.34" y="0" style="font-size:10px;font-variant:normal;font-weight:400;writing-mode:lr-tb;fill:#000;fill-opacity:1;fill-rule:nonzero;stroke:none;font-family:Helvetica;-inkscape-font-specification:Helvetica">VP2</tspan></text></g></g></g></g><g id="g84"><g id="g86" clip-path="url(#clipPath88)"><g id="g92" clip-path="url(#clipPath94)"><g id="g98" transform="matrix(1,0,0,-1,0,132)"><text id="text100" transform="translate(204,86)"><tspan id="tspan102" x="0 6.67 13.34" y="0" style="font-size:10px;font-variant:normal;font-weight:400;writing-mode:lr-tb;fill:#000;fill-opacity:1;fill-rule:nonzero;stroke:none;font-family:Helvetica;-inkscape-font-specification:Helvetica">VP1</tspan></text></g></g></g></g><g id="g104"><g id="g106" clip-path="url(#clipPath108)"><g id="g112" clip-path="url(#clipPath114)"><path id="path118" d="m 9,130 289,0 0,-34 -289,0 0,34 z" style="fill:#fff;fill-opacity:1;fill-rule:nonzero;stroke:none"/><g id="g120" transform="matrix(1,0,0,-1,0,132)"><path id="path122" d="m 9.5,2.5 288,0 0,33 -288,0 0,-33 z" style="fill:none;stroke:#000;stroke-width:1;stroke-linecap:butt;stroke-linejoin:miter;stroke-miterlimit:10;stroke-opacity:1;stroke-dasharray:none"/></g></g></g></g><g id="g124"><g id="g126" clip-path="url(#clipPath128)"><g id="g132" clip-path="url(#clipPath134)"><g id="g138" transform="matrix(1,0,0,-1,0,132)"><text id="text140" transform="translate(40,23)"><tspan id="tspan142" x="0 5.562 11.124 16.686 22.248 25.026 30.588 36.15 39.48 45.042 50.042" y="0" style="font-size:10px;font-variant:normal;font-weight:400;writing-mode:lr-tb;fill:#000;fill-opacity:1;fill-rule:nonzero;stroke:none;font-family:Helvetica;-inkscape-font-specification:Helvetica">noun phrase</tspan></text></g></g></g></g><g id="g144"><g id="g146" clip-path="url(#clipPath148)"><g id="g152" clip-path="url(#clipPath154)"><g id="g158" transform="matrix(1,0,0,-1,0,132)"><text id="text160" transform="translate(162,23)"><tspan id="tspan162" x="0 5 10.562 13.892 19.454 22.232 27.794 33.356 36.686 42.248 47.248" y="0" style="font-size:10px;font-variant:normal;font-weight:400;writing-mode:lr-tb;fill:#000;fill-opacity:1;fill-rule:nonzero;stroke:none;font-family:Helvetica;-inkscape-font-specification:Helvetica">verb phrase</tspan></text></g></g></g></g><g id="g164"><g id="g166" clip-path="url(#clipPath168)"><g id="g172" clip-path="url(#clipPath174)"><g id="g178" transform="matrix(1,0,0,-1,0,132)"><path id="path180" d="m 124.5,2 0,34" style="fill:none;stroke:#000;stroke-width:1;stroke-linecap:butt;stroke-linejoin:miter;stroke-miterlimit:10;stroke-opacity:1;stroke-dasharray:none"/></g><g id="g182" transform="matrix(1,0,0,-1,0,132)"><path id="path184" d="m 239.5,2 0,34" style="fill:none;stroke:#000;stroke-width:1;stroke-linecap:butt;stroke-linejoin:miter;stroke-miterlimit:10;stroke-opacity:1;stroke-dasharray:none"/></g></g></g></g><g id="g186"><g id="g188" clip-path="url(#clipPath190)"><g id="g194" clip-path="url(#clipPath196)"><g id="g200" transform="matrix(1,0,0,-1,0,132)"><text id="text202" transform="translate(140,112)"><tspan id="tspan204" x="0 7.222 13.892" y="0" style="font-size:10px;font-variant:normal;font-weight:400;writing-mode:lr-tb;fill:#000;fill-opacity:1;fill-rule:nonzero;stroke:none;font-family:Helvetica;-inkscape-font-specification:Helvetica">NP1</tspan></text></g></g></g></g></g></svg>